G04 #@! TF.GenerationSoftware,KiCad,Pcbnew,(5.1.4-0-10_14)*
G04 #@! TF.CreationDate,2021-01-04T23:24:54-07:00*
G04 #@! TF.ProjectId,Power,506f7765-722e-46b6-9963-61645f706362,rev?*
G04 #@! TF.SameCoordinates,Original*
G04 #@! TF.FileFunction,Copper,L1,Top*
G04 #@! TF.FilePolarity,Positive*
%FSLAX46Y46*%
G04 Gerber Fmt 4.6, Leading zero omitted, Abs format (unit mm)*
G04 Created by KiCad (PCBNEW (5.1.4-0-10_14)) date 2021-01-04 23:24:54*
%MOMM*%
%LPD*%
G04 APERTURE LIST*
%ADD10C,0.800000*%
%ADD11R,5.000000X5.000000*%
%ADD12C,3.800000*%
%ADD13C,0.100000*%
%ADD14C,1.000000*%
%ADD15C,0.600000*%
%ADD16C,6.000000*%
%ADD17C,7.620000*%
%ADD18C,0.762000*%
%ADD19C,0.254000*%
G04 APERTURE END LIST*
D10*
X162500000Y-51500000D03*
X162500000Y-53000000D03*
X162500000Y-54500000D03*
X161000000Y-54500000D03*
X161000000Y-53000000D03*
X161000000Y-51500000D03*
X159500000Y-51500000D03*
X159500000Y-53000000D03*
X159500000Y-54500000D03*
X154500000Y-62500000D03*
X153000000Y-62500000D03*
X153000000Y-61000000D03*
X154500000Y-61000000D03*
X154500000Y-59500000D03*
X153000000Y-59500000D03*
X151500000Y-59500000D03*
X151500000Y-61000000D03*
X151500000Y-62500000D03*
D11*
X153000000Y-61000000D03*
X161000000Y-53000000D03*
D10*
X151500000Y-87500000D03*
X153000000Y-87500000D03*
X154500000Y-87500000D03*
X154500000Y-89000000D03*
X153000000Y-89000000D03*
X151500000Y-89000000D03*
X151500000Y-90500000D03*
X153000000Y-90500000D03*
X154500000Y-90500000D03*
X162500000Y-95500000D03*
X162500000Y-97000000D03*
X161000000Y-97000000D03*
X161000000Y-95500000D03*
X159500000Y-95500000D03*
X159500000Y-97000000D03*
X159500000Y-98500000D03*
X161000000Y-98500000D03*
X162500000Y-98500000D03*
D11*
X161000000Y-97000000D03*
X153000000Y-89000000D03*
D10*
X187500000Y-98500000D03*
X187500000Y-97000000D03*
X187500000Y-95500000D03*
X189000000Y-95500000D03*
X189000000Y-97000000D03*
X189000000Y-98500000D03*
X190500000Y-98500000D03*
X190500000Y-97000000D03*
X190500000Y-95500000D03*
X195500000Y-87500000D03*
X197000000Y-87500000D03*
X197000000Y-89000000D03*
X195500000Y-89000000D03*
X195500000Y-90500000D03*
X197000000Y-90500000D03*
X198500000Y-90500000D03*
X198500000Y-89000000D03*
X198500000Y-87500000D03*
D11*
X197000000Y-89000000D03*
X189000000Y-97000000D03*
D10*
X198500000Y-62500000D03*
X197000000Y-62500000D03*
X195500000Y-62500000D03*
X195500000Y-61000000D03*
X197000000Y-61000000D03*
X198500000Y-61000000D03*
X198500000Y-59500000D03*
X197000000Y-59500000D03*
X195500000Y-59500000D03*
X187500000Y-54500000D03*
X187500000Y-53000000D03*
X189000000Y-53000000D03*
X189000000Y-54500000D03*
X190500000Y-54500000D03*
X190500000Y-53000000D03*
X190500000Y-51500000D03*
X189000000Y-51500000D03*
X187500000Y-51500000D03*
D11*
X189000000Y-53000000D03*
X197000000Y-61000000D03*
D12*
X197500000Y-52500000D03*
X197500000Y-97500000D03*
X152500000Y-52500000D03*
X152500000Y-97500000D03*
D13*
G36*
X153774504Y-79476204D02*
G01*
X153798773Y-79479804D01*
X153822571Y-79485765D01*
X153845671Y-79494030D01*
X153867849Y-79504520D01*
X153888893Y-79517133D01*
X153908598Y-79531747D01*
X153926777Y-79548223D01*
X153943253Y-79566402D01*
X153957867Y-79586107D01*
X153970480Y-79607151D01*
X153980970Y-79629329D01*
X153989235Y-79652429D01*
X153995196Y-79676227D01*
X153998796Y-79700496D01*
X154000000Y-79725000D01*
X154000000Y-80225000D01*
X153998796Y-80249504D01*
X153995196Y-80273773D01*
X153989235Y-80297571D01*
X153980970Y-80320671D01*
X153970480Y-80342849D01*
X153957867Y-80363893D01*
X153943253Y-80383598D01*
X153926777Y-80401777D01*
X153908598Y-80418253D01*
X153888893Y-80432867D01*
X153867849Y-80445480D01*
X153845671Y-80455970D01*
X153822571Y-80464235D01*
X153798773Y-80470196D01*
X153774504Y-80473796D01*
X153750000Y-80475000D01*
X151550000Y-80475000D01*
X151525496Y-80473796D01*
X151501227Y-80470196D01*
X151477429Y-80464235D01*
X151454329Y-80455970D01*
X151432151Y-80445480D01*
X151411107Y-80432867D01*
X151391402Y-80418253D01*
X151373223Y-80401777D01*
X151356747Y-80383598D01*
X151342133Y-80363893D01*
X151329520Y-80342849D01*
X151319030Y-80320671D01*
X151310765Y-80297571D01*
X151304804Y-80273773D01*
X151301204Y-80249504D01*
X151300000Y-80225000D01*
X151300000Y-79725000D01*
X151301204Y-79700496D01*
X151304804Y-79676227D01*
X151310765Y-79652429D01*
X151319030Y-79629329D01*
X151329520Y-79607151D01*
X151342133Y-79586107D01*
X151356747Y-79566402D01*
X151373223Y-79548223D01*
X151391402Y-79531747D01*
X151411107Y-79517133D01*
X151432151Y-79504520D01*
X151454329Y-79494030D01*
X151477429Y-79485765D01*
X151501227Y-79479804D01*
X151525496Y-79476204D01*
X151550000Y-79475000D01*
X153750000Y-79475000D01*
X153774504Y-79476204D01*
X153774504Y-79476204D01*
G37*
D14*
X152650000Y-79975000D03*
D13*
G36*
X153774504Y-69526204D02*
G01*
X153798773Y-69529804D01*
X153822571Y-69535765D01*
X153845671Y-69544030D01*
X153867849Y-69554520D01*
X153888893Y-69567133D01*
X153908598Y-69581747D01*
X153926777Y-69598223D01*
X153943253Y-69616402D01*
X153957867Y-69636107D01*
X153970480Y-69657151D01*
X153980970Y-69679329D01*
X153989235Y-69702429D01*
X153995196Y-69726227D01*
X153998796Y-69750496D01*
X154000000Y-69775000D01*
X154000000Y-70275000D01*
X153998796Y-70299504D01*
X153995196Y-70323773D01*
X153989235Y-70347571D01*
X153980970Y-70370671D01*
X153970480Y-70392849D01*
X153957867Y-70413893D01*
X153943253Y-70433598D01*
X153926777Y-70451777D01*
X153908598Y-70468253D01*
X153888893Y-70482867D01*
X153867849Y-70495480D01*
X153845671Y-70505970D01*
X153822571Y-70514235D01*
X153798773Y-70520196D01*
X153774504Y-70523796D01*
X153750000Y-70525000D01*
X151550000Y-70525000D01*
X151525496Y-70523796D01*
X151501227Y-70520196D01*
X151477429Y-70514235D01*
X151454329Y-70505970D01*
X151432151Y-70495480D01*
X151411107Y-70482867D01*
X151391402Y-70468253D01*
X151373223Y-70451777D01*
X151356747Y-70433598D01*
X151342133Y-70413893D01*
X151329520Y-70392849D01*
X151319030Y-70370671D01*
X151310765Y-70347571D01*
X151304804Y-70323773D01*
X151301204Y-70299504D01*
X151300000Y-70275000D01*
X151300000Y-69775000D01*
X151301204Y-69750496D01*
X151304804Y-69726227D01*
X151310765Y-69702429D01*
X151319030Y-69679329D01*
X151329520Y-69657151D01*
X151342133Y-69636107D01*
X151356747Y-69616402D01*
X151373223Y-69598223D01*
X151391402Y-69581747D01*
X151411107Y-69567133D01*
X151432151Y-69554520D01*
X151454329Y-69544030D01*
X151477429Y-69535765D01*
X151501227Y-69529804D01*
X151525496Y-69526204D01*
X151550000Y-69525000D01*
X153750000Y-69525000D01*
X153774504Y-69526204D01*
X153774504Y-69526204D01*
G37*
D14*
X152650000Y-70025000D03*
D13*
G36*
X156564703Y-77825722D02*
G01*
X156579264Y-77827882D01*
X156593543Y-77831459D01*
X156607403Y-77836418D01*
X156620710Y-77842712D01*
X156633336Y-77850280D01*
X156645159Y-77859048D01*
X156656066Y-77868934D01*
X156665952Y-77879841D01*
X156674720Y-77891664D01*
X156682288Y-77904290D01*
X156688582Y-77917597D01*
X156693541Y-77931457D01*
X156697118Y-77945736D01*
X156699278Y-77960297D01*
X156700000Y-77975000D01*
X156700000Y-78275000D01*
X156699278Y-78289703D01*
X156697118Y-78304264D01*
X156693541Y-78318543D01*
X156688582Y-78332403D01*
X156682288Y-78345710D01*
X156674720Y-78358336D01*
X156665952Y-78370159D01*
X156656066Y-78381066D01*
X156645159Y-78390952D01*
X156633336Y-78399720D01*
X156620710Y-78407288D01*
X156607403Y-78413582D01*
X156593543Y-78418541D01*
X156579264Y-78422118D01*
X156564703Y-78424278D01*
X156550000Y-78425000D01*
X155150000Y-78425000D01*
X155135297Y-78424278D01*
X155120736Y-78422118D01*
X155106457Y-78418541D01*
X155092597Y-78413582D01*
X155079290Y-78407288D01*
X155066664Y-78399720D01*
X155054841Y-78390952D01*
X155043934Y-78381066D01*
X155034048Y-78370159D01*
X155025280Y-78358336D01*
X155017712Y-78345710D01*
X155011418Y-78332403D01*
X155006459Y-78318543D01*
X155002882Y-78304264D01*
X155000722Y-78289703D01*
X155000000Y-78275000D01*
X155000000Y-77975000D01*
X155000722Y-77960297D01*
X155002882Y-77945736D01*
X155006459Y-77931457D01*
X155011418Y-77917597D01*
X155017712Y-77904290D01*
X155025280Y-77891664D01*
X155034048Y-77879841D01*
X155043934Y-77868934D01*
X155054841Y-77859048D01*
X155066664Y-77850280D01*
X155079290Y-77842712D01*
X155092597Y-77836418D01*
X155106457Y-77831459D01*
X155120736Y-77827882D01*
X155135297Y-77825722D01*
X155150000Y-77825000D01*
X156550000Y-77825000D01*
X156564703Y-77825722D01*
X156564703Y-77825722D01*
G37*
D15*
X155850000Y-78125000D03*
D13*
G36*
X156564703Y-76575722D02*
G01*
X156579264Y-76577882D01*
X156593543Y-76581459D01*
X156607403Y-76586418D01*
X156620710Y-76592712D01*
X156633336Y-76600280D01*
X156645159Y-76609048D01*
X156656066Y-76618934D01*
X156665952Y-76629841D01*
X156674720Y-76641664D01*
X156682288Y-76654290D01*
X156688582Y-76667597D01*
X156693541Y-76681457D01*
X156697118Y-76695736D01*
X156699278Y-76710297D01*
X156700000Y-76725000D01*
X156700000Y-77025000D01*
X156699278Y-77039703D01*
X156697118Y-77054264D01*
X156693541Y-77068543D01*
X156688582Y-77082403D01*
X156682288Y-77095710D01*
X156674720Y-77108336D01*
X156665952Y-77120159D01*
X156656066Y-77131066D01*
X156645159Y-77140952D01*
X156633336Y-77149720D01*
X156620710Y-77157288D01*
X156607403Y-77163582D01*
X156593543Y-77168541D01*
X156579264Y-77172118D01*
X156564703Y-77174278D01*
X156550000Y-77175000D01*
X155150000Y-77175000D01*
X155135297Y-77174278D01*
X155120736Y-77172118D01*
X155106457Y-77168541D01*
X155092597Y-77163582D01*
X155079290Y-77157288D01*
X155066664Y-77149720D01*
X155054841Y-77140952D01*
X155043934Y-77131066D01*
X155034048Y-77120159D01*
X155025280Y-77108336D01*
X155017712Y-77095710D01*
X155011418Y-77082403D01*
X155006459Y-77068543D01*
X155002882Y-77054264D01*
X155000722Y-77039703D01*
X155000000Y-77025000D01*
X155000000Y-76725000D01*
X155000722Y-76710297D01*
X155002882Y-76695736D01*
X155006459Y-76681457D01*
X155011418Y-76667597D01*
X155017712Y-76654290D01*
X155025280Y-76641664D01*
X155034048Y-76629841D01*
X155043934Y-76618934D01*
X155054841Y-76609048D01*
X155066664Y-76600280D01*
X155079290Y-76592712D01*
X155092597Y-76586418D01*
X155106457Y-76581459D01*
X155120736Y-76577882D01*
X155135297Y-76575722D01*
X155150000Y-76575000D01*
X156550000Y-76575000D01*
X156564703Y-76575722D01*
X156564703Y-76575722D01*
G37*
D15*
X155850000Y-76875000D03*
D13*
G36*
X156564703Y-75325722D02*
G01*
X156579264Y-75327882D01*
X156593543Y-75331459D01*
X156607403Y-75336418D01*
X156620710Y-75342712D01*
X156633336Y-75350280D01*
X156645159Y-75359048D01*
X156656066Y-75368934D01*
X156665952Y-75379841D01*
X156674720Y-75391664D01*
X156682288Y-75404290D01*
X156688582Y-75417597D01*
X156693541Y-75431457D01*
X156697118Y-75445736D01*
X156699278Y-75460297D01*
X156700000Y-75475000D01*
X156700000Y-75775000D01*
X156699278Y-75789703D01*
X156697118Y-75804264D01*
X156693541Y-75818543D01*
X156688582Y-75832403D01*
X156682288Y-75845710D01*
X156674720Y-75858336D01*
X156665952Y-75870159D01*
X156656066Y-75881066D01*
X156645159Y-75890952D01*
X156633336Y-75899720D01*
X156620710Y-75907288D01*
X156607403Y-75913582D01*
X156593543Y-75918541D01*
X156579264Y-75922118D01*
X156564703Y-75924278D01*
X156550000Y-75925000D01*
X155150000Y-75925000D01*
X155135297Y-75924278D01*
X155120736Y-75922118D01*
X155106457Y-75918541D01*
X155092597Y-75913582D01*
X155079290Y-75907288D01*
X155066664Y-75899720D01*
X155054841Y-75890952D01*
X155043934Y-75881066D01*
X155034048Y-75870159D01*
X155025280Y-75858336D01*
X155017712Y-75845710D01*
X155011418Y-75832403D01*
X155006459Y-75818543D01*
X155002882Y-75804264D01*
X155000722Y-75789703D01*
X155000000Y-75775000D01*
X155000000Y-75475000D01*
X155000722Y-75460297D01*
X155002882Y-75445736D01*
X155006459Y-75431457D01*
X155011418Y-75417597D01*
X155017712Y-75404290D01*
X155025280Y-75391664D01*
X155034048Y-75379841D01*
X155043934Y-75368934D01*
X155054841Y-75359048D01*
X155066664Y-75350280D01*
X155079290Y-75342712D01*
X155092597Y-75336418D01*
X155106457Y-75331459D01*
X155120736Y-75327882D01*
X155135297Y-75325722D01*
X155150000Y-75325000D01*
X156550000Y-75325000D01*
X156564703Y-75325722D01*
X156564703Y-75325722D01*
G37*
D15*
X155850000Y-75625000D03*
D13*
G36*
X156564703Y-74075722D02*
G01*
X156579264Y-74077882D01*
X156593543Y-74081459D01*
X156607403Y-74086418D01*
X156620710Y-74092712D01*
X156633336Y-74100280D01*
X156645159Y-74109048D01*
X156656066Y-74118934D01*
X156665952Y-74129841D01*
X156674720Y-74141664D01*
X156682288Y-74154290D01*
X156688582Y-74167597D01*
X156693541Y-74181457D01*
X156697118Y-74195736D01*
X156699278Y-74210297D01*
X156700000Y-74225000D01*
X156700000Y-74525000D01*
X156699278Y-74539703D01*
X156697118Y-74554264D01*
X156693541Y-74568543D01*
X156688582Y-74582403D01*
X156682288Y-74595710D01*
X156674720Y-74608336D01*
X156665952Y-74620159D01*
X156656066Y-74631066D01*
X156645159Y-74640952D01*
X156633336Y-74649720D01*
X156620710Y-74657288D01*
X156607403Y-74663582D01*
X156593543Y-74668541D01*
X156579264Y-74672118D01*
X156564703Y-74674278D01*
X156550000Y-74675000D01*
X155150000Y-74675000D01*
X155135297Y-74674278D01*
X155120736Y-74672118D01*
X155106457Y-74668541D01*
X155092597Y-74663582D01*
X155079290Y-74657288D01*
X155066664Y-74649720D01*
X155054841Y-74640952D01*
X155043934Y-74631066D01*
X155034048Y-74620159D01*
X155025280Y-74608336D01*
X155017712Y-74595710D01*
X155011418Y-74582403D01*
X155006459Y-74568543D01*
X155002882Y-74554264D01*
X155000722Y-74539703D01*
X155000000Y-74525000D01*
X155000000Y-74225000D01*
X155000722Y-74210297D01*
X155002882Y-74195736D01*
X155006459Y-74181457D01*
X155011418Y-74167597D01*
X155017712Y-74154290D01*
X155025280Y-74141664D01*
X155034048Y-74129841D01*
X155043934Y-74118934D01*
X155054841Y-74109048D01*
X155066664Y-74100280D01*
X155079290Y-74092712D01*
X155092597Y-74086418D01*
X155106457Y-74081459D01*
X155120736Y-74077882D01*
X155135297Y-74075722D01*
X155150000Y-74075000D01*
X156550000Y-74075000D01*
X156564703Y-74075722D01*
X156564703Y-74075722D01*
G37*
D15*
X155850000Y-74375000D03*
D13*
G36*
X156564703Y-72825722D02*
G01*
X156579264Y-72827882D01*
X156593543Y-72831459D01*
X156607403Y-72836418D01*
X156620710Y-72842712D01*
X156633336Y-72850280D01*
X156645159Y-72859048D01*
X156656066Y-72868934D01*
X156665952Y-72879841D01*
X156674720Y-72891664D01*
X156682288Y-72904290D01*
X156688582Y-72917597D01*
X156693541Y-72931457D01*
X156697118Y-72945736D01*
X156699278Y-72960297D01*
X156700000Y-72975000D01*
X156700000Y-73275000D01*
X156699278Y-73289703D01*
X156697118Y-73304264D01*
X156693541Y-73318543D01*
X156688582Y-73332403D01*
X156682288Y-73345710D01*
X156674720Y-73358336D01*
X156665952Y-73370159D01*
X156656066Y-73381066D01*
X156645159Y-73390952D01*
X156633336Y-73399720D01*
X156620710Y-73407288D01*
X156607403Y-73413582D01*
X156593543Y-73418541D01*
X156579264Y-73422118D01*
X156564703Y-73424278D01*
X156550000Y-73425000D01*
X155150000Y-73425000D01*
X155135297Y-73424278D01*
X155120736Y-73422118D01*
X155106457Y-73418541D01*
X155092597Y-73413582D01*
X155079290Y-73407288D01*
X155066664Y-73399720D01*
X155054841Y-73390952D01*
X155043934Y-73381066D01*
X155034048Y-73370159D01*
X155025280Y-73358336D01*
X155017712Y-73345710D01*
X155011418Y-73332403D01*
X155006459Y-73318543D01*
X155002882Y-73304264D01*
X155000722Y-73289703D01*
X155000000Y-73275000D01*
X155000000Y-72975000D01*
X155000722Y-72960297D01*
X155002882Y-72945736D01*
X155006459Y-72931457D01*
X155011418Y-72917597D01*
X155017712Y-72904290D01*
X155025280Y-72891664D01*
X155034048Y-72879841D01*
X155043934Y-72868934D01*
X155054841Y-72859048D01*
X155066664Y-72850280D01*
X155079290Y-72842712D01*
X155092597Y-72836418D01*
X155106457Y-72831459D01*
X155120736Y-72827882D01*
X155135297Y-72825722D01*
X155150000Y-72825000D01*
X156550000Y-72825000D01*
X156564703Y-72825722D01*
X156564703Y-72825722D01*
G37*
D15*
X155850000Y-73125000D03*
D13*
G36*
X156564703Y-71575722D02*
G01*
X156579264Y-71577882D01*
X156593543Y-71581459D01*
X156607403Y-71586418D01*
X156620710Y-71592712D01*
X156633336Y-71600280D01*
X156645159Y-71609048D01*
X156656066Y-71618934D01*
X156665952Y-71629841D01*
X156674720Y-71641664D01*
X156682288Y-71654290D01*
X156688582Y-71667597D01*
X156693541Y-71681457D01*
X156697118Y-71695736D01*
X156699278Y-71710297D01*
X156700000Y-71725000D01*
X156700000Y-72025000D01*
X156699278Y-72039703D01*
X156697118Y-72054264D01*
X156693541Y-72068543D01*
X156688582Y-72082403D01*
X156682288Y-72095710D01*
X156674720Y-72108336D01*
X156665952Y-72120159D01*
X156656066Y-72131066D01*
X156645159Y-72140952D01*
X156633336Y-72149720D01*
X156620710Y-72157288D01*
X156607403Y-72163582D01*
X156593543Y-72168541D01*
X156579264Y-72172118D01*
X156564703Y-72174278D01*
X156550000Y-72175000D01*
X155150000Y-72175000D01*
X155135297Y-72174278D01*
X155120736Y-72172118D01*
X155106457Y-72168541D01*
X155092597Y-72163582D01*
X155079290Y-72157288D01*
X155066664Y-72149720D01*
X155054841Y-72140952D01*
X155043934Y-72131066D01*
X155034048Y-72120159D01*
X155025280Y-72108336D01*
X155017712Y-72095710D01*
X155011418Y-72082403D01*
X155006459Y-72068543D01*
X155002882Y-72054264D01*
X155000722Y-72039703D01*
X155000000Y-72025000D01*
X155000000Y-71725000D01*
X155000722Y-71710297D01*
X155002882Y-71695736D01*
X155006459Y-71681457D01*
X155011418Y-71667597D01*
X155017712Y-71654290D01*
X155025280Y-71641664D01*
X155034048Y-71629841D01*
X155043934Y-71618934D01*
X155054841Y-71609048D01*
X155066664Y-71600280D01*
X155079290Y-71592712D01*
X155092597Y-71586418D01*
X155106457Y-71581459D01*
X155120736Y-71577882D01*
X155135297Y-71575722D01*
X155150000Y-71575000D01*
X156550000Y-71575000D01*
X156564703Y-71575722D01*
X156564703Y-71575722D01*
G37*
D15*
X155850000Y-71875000D03*
D11*
X179000000Y-96000000D03*
D10*
X179000000Y-94500000D03*
X179000000Y-96000000D03*
D11*
X171000000Y-96000000D03*
D10*
X180500000Y-96000000D03*
X180500000Y-94500000D03*
X180500000Y-97500000D03*
X179000000Y-97500000D03*
X177500000Y-97500000D03*
X172500000Y-97500000D03*
X171000000Y-97500000D03*
X169500000Y-97500000D03*
X169500000Y-96000000D03*
X171000000Y-96000000D03*
X172500000Y-96000000D03*
X172500000Y-94500000D03*
X171000000Y-94500000D03*
X169500000Y-94500000D03*
X177500000Y-96000000D03*
X177500000Y-94500000D03*
D16*
X178600000Y-55000000D03*
X171400000Y-55000000D03*
D13*
G36*
X198574504Y-79476204D02*
G01*
X198598773Y-79479804D01*
X198622571Y-79485765D01*
X198645671Y-79494030D01*
X198667849Y-79504520D01*
X198688893Y-79517133D01*
X198708598Y-79531747D01*
X198726777Y-79548223D01*
X198743253Y-79566402D01*
X198757867Y-79586107D01*
X198770480Y-79607151D01*
X198780970Y-79629329D01*
X198789235Y-79652429D01*
X198795196Y-79676227D01*
X198798796Y-79700496D01*
X198800000Y-79725000D01*
X198800000Y-80225000D01*
X198798796Y-80249504D01*
X198795196Y-80273773D01*
X198789235Y-80297571D01*
X198780970Y-80320671D01*
X198770480Y-80342849D01*
X198757867Y-80363893D01*
X198743253Y-80383598D01*
X198726777Y-80401777D01*
X198708598Y-80418253D01*
X198688893Y-80432867D01*
X198667849Y-80445480D01*
X198645671Y-80455970D01*
X198622571Y-80464235D01*
X198598773Y-80470196D01*
X198574504Y-80473796D01*
X198550000Y-80475000D01*
X196250000Y-80475000D01*
X196225496Y-80473796D01*
X196201227Y-80470196D01*
X196177429Y-80464235D01*
X196154329Y-80455970D01*
X196132151Y-80445480D01*
X196111107Y-80432867D01*
X196091402Y-80418253D01*
X196073223Y-80401777D01*
X196056747Y-80383598D01*
X196042133Y-80363893D01*
X196029520Y-80342849D01*
X196019030Y-80320671D01*
X196010765Y-80297571D01*
X196004804Y-80273773D01*
X196001204Y-80249504D01*
X196000000Y-80225000D01*
X196000000Y-79725000D01*
X196001204Y-79700496D01*
X196004804Y-79676227D01*
X196010765Y-79652429D01*
X196019030Y-79629329D01*
X196029520Y-79607151D01*
X196042133Y-79586107D01*
X196056747Y-79566402D01*
X196073223Y-79548223D01*
X196091402Y-79531747D01*
X196111107Y-79517133D01*
X196132151Y-79504520D01*
X196154329Y-79494030D01*
X196177429Y-79485765D01*
X196201227Y-79479804D01*
X196225496Y-79476204D01*
X196250000Y-79475000D01*
X198550000Y-79475000D01*
X198574504Y-79476204D01*
X198574504Y-79476204D01*
G37*
D14*
X197400000Y-79975000D03*
D13*
G36*
X198574504Y-69526204D02*
G01*
X198598773Y-69529804D01*
X198622571Y-69535765D01*
X198645671Y-69544030D01*
X198667849Y-69554520D01*
X198688893Y-69567133D01*
X198708598Y-69581747D01*
X198726777Y-69598223D01*
X198743253Y-69616402D01*
X198757867Y-69636107D01*
X198770480Y-69657151D01*
X198780970Y-69679329D01*
X198789235Y-69702429D01*
X198795196Y-69726227D01*
X198798796Y-69750496D01*
X198800000Y-69775000D01*
X198800000Y-70275000D01*
X198798796Y-70299504D01*
X198795196Y-70323773D01*
X198789235Y-70347571D01*
X198780970Y-70370671D01*
X198770480Y-70392849D01*
X198757867Y-70413893D01*
X198743253Y-70433598D01*
X198726777Y-70451777D01*
X198708598Y-70468253D01*
X198688893Y-70482867D01*
X198667849Y-70495480D01*
X198645671Y-70505970D01*
X198622571Y-70514235D01*
X198598773Y-70520196D01*
X198574504Y-70523796D01*
X198550000Y-70525000D01*
X196250000Y-70525000D01*
X196225496Y-70523796D01*
X196201227Y-70520196D01*
X196177429Y-70514235D01*
X196154329Y-70505970D01*
X196132151Y-70495480D01*
X196111107Y-70482867D01*
X196091402Y-70468253D01*
X196073223Y-70451777D01*
X196056747Y-70433598D01*
X196042133Y-70413893D01*
X196029520Y-70392849D01*
X196019030Y-70370671D01*
X196010765Y-70347571D01*
X196004804Y-70323773D01*
X196001204Y-70299504D01*
X196000000Y-70275000D01*
X196000000Y-69775000D01*
X196001204Y-69750496D01*
X196004804Y-69726227D01*
X196010765Y-69702429D01*
X196019030Y-69679329D01*
X196029520Y-69657151D01*
X196042133Y-69636107D01*
X196056747Y-69616402D01*
X196073223Y-69598223D01*
X196091402Y-69581747D01*
X196111107Y-69567133D01*
X196132151Y-69554520D01*
X196154329Y-69544030D01*
X196177429Y-69535765D01*
X196201227Y-69529804D01*
X196225496Y-69526204D01*
X196250000Y-69525000D01*
X198550000Y-69525000D01*
X198574504Y-69526204D01*
X198574504Y-69526204D01*
G37*
D14*
X197400000Y-70025000D03*
D13*
G36*
X194764703Y-77825722D02*
G01*
X194779264Y-77827882D01*
X194793543Y-77831459D01*
X194807403Y-77836418D01*
X194820710Y-77842712D01*
X194833336Y-77850280D01*
X194845159Y-77859048D01*
X194856066Y-77868934D01*
X194865952Y-77879841D01*
X194874720Y-77891664D01*
X194882288Y-77904290D01*
X194888582Y-77917597D01*
X194893541Y-77931457D01*
X194897118Y-77945736D01*
X194899278Y-77960297D01*
X194900000Y-77975000D01*
X194900000Y-78275000D01*
X194899278Y-78289703D01*
X194897118Y-78304264D01*
X194893541Y-78318543D01*
X194888582Y-78332403D01*
X194882288Y-78345710D01*
X194874720Y-78358336D01*
X194865952Y-78370159D01*
X194856066Y-78381066D01*
X194845159Y-78390952D01*
X194833336Y-78399720D01*
X194820710Y-78407288D01*
X194807403Y-78413582D01*
X194793543Y-78418541D01*
X194779264Y-78422118D01*
X194764703Y-78424278D01*
X194750000Y-78425000D01*
X193350000Y-78425000D01*
X193335297Y-78424278D01*
X193320736Y-78422118D01*
X193306457Y-78418541D01*
X193292597Y-78413582D01*
X193279290Y-78407288D01*
X193266664Y-78399720D01*
X193254841Y-78390952D01*
X193243934Y-78381066D01*
X193234048Y-78370159D01*
X193225280Y-78358336D01*
X193217712Y-78345710D01*
X193211418Y-78332403D01*
X193206459Y-78318543D01*
X193202882Y-78304264D01*
X193200722Y-78289703D01*
X193200000Y-78275000D01*
X193200000Y-77975000D01*
X193200722Y-77960297D01*
X193202882Y-77945736D01*
X193206459Y-77931457D01*
X193211418Y-77917597D01*
X193217712Y-77904290D01*
X193225280Y-77891664D01*
X193234048Y-77879841D01*
X193243934Y-77868934D01*
X193254841Y-77859048D01*
X193266664Y-77850280D01*
X193279290Y-77842712D01*
X193292597Y-77836418D01*
X193306457Y-77831459D01*
X193320736Y-77827882D01*
X193335297Y-77825722D01*
X193350000Y-77825000D01*
X194750000Y-77825000D01*
X194764703Y-77825722D01*
X194764703Y-77825722D01*
G37*
D15*
X194050000Y-78125000D03*
D13*
G36*
X194764703Y-76575722D02*
G01*
X194779264Y-76577882D01*
X194793543Y-76581459D01*
X194807403Y-76586418D01*
X194820710Y-76592712D01*
X194833336Y-76600280D01*
X194845159Y-76609048D01*
X194856066Y-76618934D01*
X194865952Y-76629841D01*
X194874720Y-76641664D01*
X194882288Y-76654290D01*
X194888582Y-76667597D01*
X194893541Y-76681457D01*
X194897118Y-76695736D01*
X194899278Y-76710297D01*
X194900000Y-76725000D01*
X194900000Y-77025000D01*
X194899278Y-77039703D01*
X194897118Y-77054264D01*
X194893541Y-77068543D01*
X194888582Y-77082403D01*
X194882288Y-77095710D01*
X194874720Y-77108336D01*
X194865952Y-77120159D01*
X194856066Y-77131066D01*
X194845159Y-77140952D01*
X194833336Y-77149720D01*
X194820710Y-77157288D01*
X194807403Y-77163582D01*
X194793543Y-77168541D01*
X194779264Y-77172118D01*
X194764703Y-77174278D01*
X194750000Y-77175000D01*
X193350000Y-77175000D01*
X193335297Y-77174278D01*
X193320736Y-77172118D01*
X193306457Y-77168541D01*
X193292597Y-77163582D01*
X193279290Y-77157288D01*
X193266664Y-77149720D01*
X193254841Y-77140952D01*
X193243934Y-77131066D01*
X193234048Y-77120159D01*
X193225280Y-77108336D01*
X193217712Y-77095710D01*
X193211418Y-77082403D01*
X193206459Y-77068543D01*
X193202882Y-77054264D01*
X193200722Y-77039703D01*
X193200000Y-77025000D01*
X193200000Y-76725000D01*
X193200722Y-76710297D01*
X193202882Y-76695736D01*
X193206459Y-76681457D01*
X193211418Y-76667597D01*
X193217712Y-76654290D01*
X193225280Y-76641664D01*
X193234048Y-76629841D01*
X193243934Y-76618934D01*
X193254841Y-76609048D01*
X193266664Y-76600280D01*
X193279290Y-76592712D01*
X193292597Y-76586418D01*
X193306457Y-76581459D01*
X193320736Y-76577882D01*
X193335297Y-76575722D01*
X193350000Y-76575000D01*
X194750000Y-76575000D01*
X194764703Y-76575722D01*
X194764703Y-76575722D01*
G37*
D15*
X194050000Y-76875000D03*
D13*
G36*
X194764703Y-75325722D02*
G01*
X194779264Y-75327882D01*
X194793543Y-75331459D01*
X194807403Y-75336418D01*
X194820710Y-75342712D01*
X194833336Y-75350280D01*
X194845159Y-75359048D01*
X194856066Y-75368934D01*
X194865952Y-75379841D01*
X194874720Y-75391664D01*
X194882288Y-75404290D01*
X194888582Y-75417597D01*
X194893541Y-75431457D01*
X194897118Y-75445736D01*
X194899278Y-75460297D01*
X194900000Y-75475000D01*
X194900000Y-75775000D01*
X194899278Y-75789703D01*
X194897118Y-75804264D01*
X194893541Y-75818543D01*
X194888582Y-75832403D01*
X194882288Y-75845710D01*
X194874720Y-75858336D01*
X194865952Y-75870159D01*
X194856066Y-75881066D01*
X194845159Y-75890952D01*
X194833336Y-75899720D01*
X194820710Y-75907288D01*
X194807403Y-75913582D01*
X194793543Y-75918541D01*
X194779264Y-75922118D01*
X194764703Y-75924278D01*
X194750000Y-75925000D01*
X193350000Y-75925000D01*
X193335297Y-75924278D01*
X193320736Y-75922118D01*
X193306457Y-75918541D01*
X193292597Y-75913582D01*
X193279290Y-75907288D01*
X193266664Y-75899720D01*
X193254841Y-75890952D01*
X193243934Y-75881066D01*
X193234048Y-75870159D01*
X193225280Y-75858336D01*
X193217712Y-75845710D01*
X193211418Y-75832403D01*
X193206459Y-75818543D01*
X193202882Y-75804264D01*
X193200722Y-75789703D01*
X193200000Y-75775000D01*
X193200000Y-75475000D01*
X193200722Y-75460297D01*
X193202882Y-75445736D01*
X193206459Y-75431457D01*
X193211418Y-75417597D01*
X193217712Y-75404290D01*
X193225280Y-75391664D01*
X193234048Y-75379841D01*
X193243934Y-75368934D01*
X193254841Y-75359048D01*
X193266664Y-75350280D01*
X193279290Y-75342712D01*
X193292597Y-75336418D01*
X193306457Y-75331459D01*
X193320736Y-75327882D01*
X193335297Y-75325722D01*
X193350000Y-75325000D01*
X194750000Y-75325000D01*
X194764703Y-75325722D01*
X194764703Y-75325722D01*
G37*
D15*
X194050000Y-75625000D03*
D13*
G36*
X194764703Y-74075722D02*
G01*
X194779264Y-74077882D01*
X194793543Y-74081459D01*
X194807403Y-74086418D01*
X194820710Y-74092712D01*
X194833336Y-74100280D01*
X194845159Y-74109048D01*
X194856066Y-74118934D01*
X194865952Y-74129841D01*
X194874720Y-74141664D01*
X194882288Y-74154290D01*
X194888582Y-74167597D01*
X194893541Y-74181457D01*
X194897118Y-74195736D01*
X194899278Y-74210297D01*
X194900000Y-74225000D01*
X194900000Y-74525000D01*
X194899278Y-74539703D01*
X194897118Y-74554264D01*
X194893541Y-74568543D01*
X194888582Y-74582403D01*
X194882288Y-74595710D01*
X194874720Y-74608336D01*
X194865952Y-74620159D01*
X194856066Y-74631066D01*
X194845159Y-74640952D01*
X194833336Y-74649720D01*
X194820710Y-74657288D01*
X194807403Y-74663582D01*
X194793543Y-74668541D01*
X194779264Y-74672118D01*
X194764703Y-74674278D01*
X194750000Y-74675000D01*
X193350000Y-74675000D01*
X193335297Y-74674278D01*
X193320736Y-74672118D01*
X193306457Y-74668541D01*
X193292597Y-74663582D01*
X193279290Y-74657288D01*
X193266664Y-74649720D01*
X193254841Y-74640952D01*
X193243934Y-74631066D01*
X193234048Y-74620159D01*
X193225280Y-74608336D01*
X193217712Y-74595710D01*
X193211418Y-74582403D01*
X193206459Y-74568543D01*
X193202882Y-74554264D01*
X193200722Y-74539703D01*
X193200000Y-74525000D01*
X193200000Y-74225000D01*
X193200722Y-74210297D01*
X193202882Y-74195736D01*
X193206459Y-74181457D01*
X193211418Y-74167597D01*
X193217712Y-74154290D01*
X193225280Y-74141664D01*
X193234048Y-74129841D01*
X193243934Y-74118934D01*
X193254841Y-74109048D01*
X193266664Y-74100280D01*
X193279290Y-74092712D01*
X193292597Y-74086418D01*
X193306457Y-74081459D01*
X193320736Y-74077882D01*
X193335297Y-74075722D01*
X193350000Y-74075000D01*
X194750000Y-74075000D01*
X194764703Y-74075722D01*
X194764703Y-74075722D01*
G37*
D15*
X194050000Y-74375000D03*
D13*
G36*
X194764703Y-72825722D02*
G01*
X194779264Y-72827882D01*
X194793543Y-72831459D01*
X194807403Y-72836418D01*
X194820710Y-72842712D01*
X194833336Y-72850280D01*
X194845159Y-72859048D01*
X194856066Y-72868934D01*
X194865952Y-72879841D01*
X194874720Y-72891664D01*
X194882288Y-72904290D01*
X194888582Y-72917597D01*
X194893541Y-72931457D01*
X194897118Y-72945736D01*
X194899278Y-72960297D01*
X194900000Y-72975000D01*
X194900000Y-73275000D01*
X194899278Y-73289703D01*
X194897118Y-73304264D01*
X194893541Y-73318543D01*
X194888582Y-73332403D01*
X194882288Y-73345710D01*
X194874720Y-73358336D01*
X194865952Y-73370159D01*
X194856066Y-73381066D01*
X194845159Y-73390952D01*
X194833336Y-73399720D01*
X194820710Y-73407288D01*
X194807403Y-73413582D01*
X194793543Y-73418541D01*
X194779264Y-73422118D01*
X194764703Y-73424278D01*
X194750000Y-73425000D01*
X193350000Y-73425000D01*
X193335297Y-73424278D01*
X193320736Y-73422118D01*
X193306457Y-73418541D01*
X193292597Y-73413582D01*
X193279290Y-73407288D01*
X193266664Y-73399720D01*
X193254841Y-73390952D01*
X193243934Y-73381066D01*
X193234048Y-73370159D01*
X193225280Y-73358336D01*
X193217712Y-73345710D01*
X193211418Y-73332403D01*
X193206459Y-73318543D01*
X193202882Y-73304264D01*
X193200722Y-73289703D01*
X193200000Y-73275000D01*
X193200000Y-72975000D01*
X193200722Y-72960297D01*
X193202882Y-72945736D01*
X193206459Y-72931457D01*
X193211418Y-72917597D01*
X193217712Y-72904290D01*
X193225280Y-72891664D01*
X193234048Y-72879841D01*
X193243934Y-72868934D01*
X193254841Y-72859048D01*
X193266664Y-72850280D01*
X193279290Y-72842712D01*
X193292597Y-72836418D01*
X193306457Y-72831459D01*
X193320736Y-72827882D01*
X193335297Y-72825722D01*
X193350000Y-72825000D01*
X194750000Y-72825000D01*
X194764703Y-72825722D01*
X194764703Y-72825722D01*
G37*
D15*
X194050000Y-73125000D03*
D13*
G36*
X194764703Y-71575722D02*
G01*
X194779264Y-71577882D01*
X194793543Y-71581459D01*
X194807403Y-71586418D01*
X194820710Y-71592712D01*
X194833336Y-71600280D01*
X194845159Y-71609048D01*
X194856066Y-71618934D01*
X194865952Y-71629841D01*
X194874720Y-71641664D01*
X194882288Y-71654290D01*
X194888582Y-71667597D01*
X194893541Y-71681457D01*
X194897118Y-71695736D01*
X194899278Y-71710297D01*
X194900000Y-71725000D01*
X194900000Y-72025000D01*
X194899278Y-72039703D01*
X194897118Y-72054264D01*
X194893541Y-72068543D01*
X194888582Y-72082403D01*
X194882288Y-72095710D01*
X194874720Y-72108336D01*
X194865952Y-72120159D01*
X194856066Y-72131066D01*
X194845159Y-72140952D01*
X194833336Y-72149720D01*
X194820710Y-72157288D01*
X194807403Y-72163582D01*
X194793543Y-72168541D01*
X194779264Y-72172118D01*
X194764703Y-72174278D01*
X194750000Y-72175000D01*
X193350000Y-72175000D01*
X193335297Y-72174278D01*
X193320736Y-72172118D01*
X193306457Y-72168541D01*
X193292597Y-72163582D01*
X193279290Y-72157288D01*
X193266664Y-72149720D01*
X193254841Y-72140952D01*
X193243934Y-72131066D01*
X193234048Y-72120159D01*
X193225280Y-72108336D01*
X193217712Y-72095710D01*
X193211418Y-72082403D01*
X193206459Y-72068543D01*
X193202882Y-72054264D01*
X193200722Y-72039703D01*
X193200000Y-72025000D01*
X193200000Y-71725000D01*
X193200722Y-71710297D01*
X193202882Y-71695736D01*
X193206459Y-71681457D01*
X193211418Y-71667597D01*
X193217712Y-71654290D01*
X193225280Y-71641664D01*
X193234048Y-71629841D01*
X193243934Y-71618934D01*
X193254841Y-71609048D01*
X193266664Y-71600280D01*
X193279290Y-71592712D01*
X193292597Y-71586418D01*
X193306457Y-71581459D01*
X193320736Y-71577882D01*
X193335297Y-71575722D01*
X193350000Y-71575000D01*
X194750000Y-71575000D01*
X194764703Y-71575722D01*
X194764703Y-71575722D01*
G37*
D15*
X194050000Y-71875000D03*
D10*
X167000000Y-91000000D03*
X172000000Y-88000000D03*
X172000000Y-83000000D03*
X153000000Y-84000000D03*
X155000000Y-94000000D03*
X153000000Y-75000000D03*
X161000000Y-69000000D03*
X169000000Y-69000000D03*
X163000000Y-74000000D03*
X156000000Y-54000000D03*
X166000000Y-56000000D03*
X167000000Y-52000000D03*
X195000000Y-56000000D03*
X186000000Y-61000000D03*
X192000000Y-65000000D03*
X187000000Y-70000000D03*
X198000000Y-75000000D03*
X193000000Y-81000000D03*
X184000000Y-90000000D03*
X195000000Y-94000000D03*
X185000000Y-97000000D03*
D17*
X188035010Y-55000000D02*
X189000000Y-54035010D01*
X178600000Y-55000000D02*
X188035010Y-55000000D01*
X154035010Y-62010001D02*
X154035010Y-61000000D01*
X175832639Y-62010001D02*
X154035010Y-62010001D01*
X178600000Y-59242640D02*
X175832639Y-62010001D01*
X178600000Y-55000000D02*
X178600000Y-59242640D01*
X178600000Y-55000000D02*
X178600000Y-68400000D01*
X161000000Y-86000000D02*
X161000000Y-95964990D01*
X178600000Y-68400000D02*
X161000000Y-86000000D01*
X178600000Y-95564990D02*
X179000000Y-95964990D01*
X178600000Y-55000000D02*
X178600000Y-95564990D01*
X192000000Y-89000000D02*
X195964990Y-89000000D01*
X178600000Y-75600000D02*
X192000000Y-89000000D01*
D18*
X155850000Y-75625000D02*
X155850000Y-78125000D01*
X194050000Y-78125000D02*
X194050000Y-75625000D01*
X194050000Y-75625000D02*
X187625000Y-75625000D01*
D17*
X178600000Y-66600000D02*
X178600000Y-75600000D01*
D18*
X187625000Y-75625000D02*
X178600000Y-66600000D01*
D17*
X178600000Y-55000000D02*
X178600000Y-66600000D01*
D18*
X155850000Y-80850000D02*
X161000000Y-86000000D01*
X155850000Y-78125000D02*
X155850000Y-80850000D01*
D19*
G36*
X188702505Y-91988684D02*
G01*
X188841703Y-92158297D01*
X189518542Y-92713765D01*
X189818673Y-92874188D01*
X190290742Y-93126514D01*
X191128627Y-93380684D01*
X191210148Y-93388713D01*
X191781637Y-93445000D01*
X191781644Y-93445000D01*
X192000000Y-93466506D01*
X192218356Y-93445000D01*
X196183353Y-93445000D01*
X196836362Y-93380684D01*
X197674248Y-93126514D01*
X198446448Y-92713765D01*
X199123287Y-92158297D01*
X199139885Y-92138072D01*
X199340001Y-92138072D01*
X199340001Y-95754970D01*
X199115968Y-95530937D01*
X198700773Y-95253512D01*
X198239432Y-95062418D01*
X197749676Y-94965000D01*
X197250324Y-94965000D01*
X196760568Y-95062418D01*
X196299227Y-95253512D01*
X195884032Y-95530937D01*
X195530937Y-95884032D01*
X195253512Y-96299227D01*
X195062418Y-96760568D01*
X194965000Y-97250324D01*
X194965000Y-97749676D01*
X195062418Y-98239432D01*
X195253512Y-98700773D01*
X195530937Y-99115968D01*
X195754969Y-99340000D01*
X192137850Y-99340000D01*
X192135000Y-97285750D01*
X191976250Y-97127000D01*
X191531308Y-97127000D01*
X191533351Y-97117477D01*
X191536413Y-96913623D01*
X191528965Y-96873000D01*
X191976250Y-96873000D01*
X192135000Y-96714250D01*
X192138072Y-94500000D01*
X192125812Y-94375518D01*
X192089502Y-94255820D01*
X192030537Y-94145506D01*
X191951185Y-94048815D01*
X191854494Y-93969463D01*
X191744180Y-93910498D01*
X191624482Y-93874188D01*
X191500000Y-93861928D01*
X189285750Y-93865000D01*
X189127000Y-94023750D01*
X189127000Y-94468692D01*
X189117477Y-94466649D01*
X188913623Y-94463587D01*
X188873000Y-94471035D01*
X188873000Y-94023750D01*
X188714250Y-93865000D01*
X186500000Y-93861928D01*
X186375518Y-93874188D01*
X186255820Y-93910498D01*
X186145506Y-93969463D01*
X186048815Y-94048815D01*
X185969463Y-94145506D01*
X185910498Y-94255820D01*
X185874188Y-94375518D01*
X185861928Y-94500000D01*
X185865000Y-96714250D01*
X186023750Y-96873000D01*
X186468692Y-96873000D01*
X186466649Y-96882523D01*
X186463587Y-97086377D01*
X186471035Y-97127000D01*
X186023750Y-97127000D01*
X185865000Y-97285750D01*
X185862150Y-99340000D01*
X181894231Y-99340000D01*
X182158297Y-99123287D01*
X182713764Y-98446448D01*
X183126513Y-97674247D01*
X183380683Y-96836362D01*
X183466506Y-95964989D01*
X183380683Y-95093618D01*
X183126513Y-94255732D01*
X183045000Y-94103232D01*
X183045000Y-86331179D01*
X188702505Y-91988684D01*
X188702505Y-91988684D01*
G37*
X188702505Y-91988684D02*
X188841703Y-92158297D01*
X189518542Y-92713765D01*
X189818673Y-92874188D01*
X190290742Y-93126514D01*
X191128627Y-93380684D01*
X191210148Y-93388713D01*
X191781637Y-93445000D01*
X191781644Y-93445000D01*
X192000000Y-93466506D01*
X192218356Y-93445000D01*
X196183353Y-93445000D01*
X196836362Y-93380684D01*
X197674248Y-93126514D01*
X198446448Y-92713765D01*
X199123287Y-92158297D01*
X199139885Y-92138072D01*
X199340001Y-92138072D01*
X199340001Y-95754970D01*
X199115968Y-95530937D01*
X198700773Y-95253512D01*
X198239432Y-95062418D01*
X197749676Y-94965000D01*
X197250324Y-94965000D01*
X196760568Y-95062418D01*
X196299227Y-95253512D01*
X195884032Y-95530937D01*
X195530937Y-95884032D01*
X195253512Y-96299227D01*
X195062418Y-96760568D01*
X194965000Y-97250324D01*
X194965000Y-97749676D01*
X195062418Y-98239432D01*
X195253512Y-98700773D01*
X195530937Y-99115968D01*
X195754969Y-99340000D01*
X192137850Y-99340000D01*
X192135000Y-97285750D01*
X191976250Y-97127000D01*
X191531308Y-97127000D01*
X191533351Y-97117477D01*
X191536413Y-96913623D01*
X191528965Y-96873000D01*
X191976250Y-96873000D01*
X192135000Y-96714250D01*
X192138072Y-94500000D01*
X192125812Y-94375518D01*
X192089502Y-94255820D01*
X192030537Y-94145506D01*
X191951185Y-94048815D01*
X191854494Y-93969463D01*
X191744180Y-93910498D01*
X191624482Y-93874188D01*
X191500000Y-93861928D01*
X189285750Y-93865000D01*
X189127000Y-94023750D01*
X189127000Y-94468692D01*
X189117477Y-94466649D01*
X188913623Y-94463587D01*
X188873000Y-94471035D01*
X188873000Y-94023750D01*
X188714250Y-93865000D01*
X186500000Y-93861928D01*
X186375518Y-93874188D01*
X186255820Y-93910498D01*
X186145506Y-93969463D01*
X186048815Y-94048815D01*
X185969463Y-94145506D01*
X185910498Y-94255820D01*
X185874188Y-94375518D01*
X185861928Y-94500000D01*
X185865000Y-96714250D01*
X186023750Y-96873000D01*
X186468692Y-96873000D01*
X186466649Y-96882523D01*
X186463587Y-97086377D01*
X186471035Y-97127000D01*
X186023750Y-97127000D01*
X185865000Y-97285750D01*
X185862150Y-99340000D01*
X181894231Y-99340000D01*
X182158297Y-99123287D01*
X182713764Y-98446448D01*
X183126513Y-97674247D01*
X183380683Y-96836362D01*
X183466506Y-95964989D01*
X183380683Y-95093618D01*
X183126513Y-94255732D01*
X183045000Y-94103232D01*
X183045000Y-86331179D01*
X188702505Y-91988684D01*
G36*
X150876713Y-65168298D02*
G01*
X151553552Y-65723766D01*
X152325752Y-66136515D01*
X153163638Y-66390685D01*
X154035010Y-66476508D01*
X154253373Y-66455001D01*
X174155000Y-66455001D01*
X174155000Y-66558821D01*
X158575331Y-82138491D01*
X156866000Y-80429160D01*
X156866000Y-78995377D01*
X156987829Y-78930258D01*
X157107251Y-78832251D01*
X157205258Y-78712829D01*
X157278084Y-78576582D01*
X157322929Y-78428745D01*
X157338072Y-78275000D01*
X157338072Y-77975000D01*
X157322929Y-77821255D01*
X157278084Y-77673418D01*
X157205258Y-77537171D01*
X157174753Y-77500000D01*
X157205258Y-77462829D01*
X157278084Y-77326582D01*
X157322929Y-77178745D01*
X157338072Y-77025000D01*
X157338072Y-76725000D01*
X157322929Y-76571255D01*
X157278084Y-76423418D01*
X157205258Y-76287171D01*
X157174753Y-76250000D01*
X157205258Y-76212829D01*
X157278084Y-76076582D01*
X157322929Y-75928745D01*
X157338072Y-75775000D01*
X157338072Y-75475000D01*
X157322929Y-75321255D01*
X157278084Y-75173418D01*
X157212744Y-75051175D01*
X157230537Y-75029494D01*
X157289502Y-74919180D01*
X157325812Y-74799482D01*
X157338072Y-74675000D01*
X157335000Y-74660750D01*
X157176250Y-74502000D01*
X155977000Y-74502000D01*
X155977000Y-74522000D01*
X155723000Y-74522000D01*
X155723000Y-74502000D01*
X154523750Y-74502000D01*
X154365000Y-74660750D01*
X154361928Y-74675000D01*
X154374188Y-74799482D01*
X154410498Y-74919180D01*
X154469463Y-75029494D01*
X154487256Y-75051175D01*
X154421916Y-75173418D01*
X154377071Y-75321255D01*
X154361928Y-75475000D01*
X154361928Y-75775000D01*
X154377071Y-75928745D01*
X154421916Y-76076582D01*
X154494742Y-76212829D01*
X154525247Y-76250000D01*
X154494742Y-76287171D01*
X154421916Y-76423418D01*
X154377071Y-76571255D01*
X154361928Y-76725000D01*
X154361928Y-77025000D01*
X154377071Y-77178745D01*
X154421916Y-77326582D01*
X154494742Y-77462829D01*
X154525247Y-77500000D01*
X154494742Y-77537171D01*
X154421916Y-77673418D01*
X154377071Y-77821255D01*
X154361928Y-77975000D01*
X154361928Y-78275000D01*
X154377071Y-78428745D01*
X154421916Y-78576582D01*
X154494742Y-78712829D01*
X154592749Y-78832251D01*
X154712171Y-78930258D01*
X154834000Y-78995378D01*
X154834001Y-80800089D01*
X154829085Y-80850000D01*
X154848702Y-81049170D01*
X154868087Y-81113072D01*
X154906799Y-81240687D01*
X155001141Y-81417190D01*
X155128105Y-81571896D01*
X155166868Y-81603708D01*
X157214991Y-83651831D01*
X156873486Y-84290743D01*
X156619316Y-85128629D01*
X156555000Y-85781638D01*
X156555000Y-85781644D01*
X156533494Y-86000000D01*
X156555000Y-86218356D01*
X156555001Y-96183353D01*
X156619317Y-96836362D01*
X156873487Y-97674248D01*
X157286236Y-98446448D01*
X157841704Y-99123287D01*
X157861928Y-99139884D01*
X157861928Y-99340000D01*
X154245031Y-99340000D01*
X154469063Y-99115968D01*
X154746488Y-98700773D01*
X154937582Y-98239432D01*
X155035000Y-97749676D01*
X155035000Y-97250324D01*
X154937582Y-96760568D01*
X154746488Y-96299227D01*
X154469063Y-95884032D01*
X154115968Y-95530937D01*
X153700773Y-95253512D01*
X153239432Y-95062418D01*
X152749676Y-94965000D01*
X152250324Y-94965000D01*
X151760568Y-95062418D01*
X151299227Y-95253512D01*
X150884032Y-95530937D01*
X150660000Y-95754969D01*
X150660000Y-92137850D01*
X152714250Y-92135000D01*
X152873000Y-91976250D01*
X152873000Y-91531308D01*
X152882523Y-91533351D01*
X153086377Y-91536413D01*
X153127000Y-91528965D01*
X153127000Y-91976250D01*
X153285750Y-92135000D01*
X155500000Y-92138072D01*
X155624482Y-92125812D01*
X155744180Y-92089502D01*
X155854494Y-92030537D01*
X155951185Y-91951185D01*
X156030537Y-91854494D01*
X156089502Y-91744180D01*
X156125812Y-91624482D01*
X156138072Y-91500000D01*
X156135000Y-89285750D01*
X155976250Y-89127000D01*
X155531308Y-89127000D01*
X155533351Y-89117477D01*
X155536413Y-88913623D01*
X155528965Y-88873000D01*
X155976250Y-88873000D01*
X156135000Y-88714250D01*
X156138072Y-86500000D01*
X156125812Y-86375518D01*
X156089502Y-86255820D01*
X156030537Y-86145506D01*
X155951185Y-86048815D01*
X155854494Y-85969463D01*
X155744180Y-85910498D01*
X155624482Y-85874188D01*
X155500000Y-85861928D01*
X153285750Y-85865000D01*
X153127000Y-86023750D01*
X153127000Y-86468692D01*
X153117477Y-86466649D01*
X152913623Y-86463587D01*
X152873000Y-86471035D01*
X152873000Y-86023750D01*
X152714250Y-85865000D01*
X150660000Y-85862150D01*
X150660000Y-79725000D01*
X150661928Y-79725000D01*
X150661928Y-80225000D01*
X150678992Y-80398254D01*
X150729528Y-80564850D01*
X150811595Y-80718386D01*
X150922038Y-80852962D01*
X151056614Y-80963405D01*
X151210150Y-81045472D01*
X151376746Y-81096008D01*
X151550000Y-81113072D01*
X153750000Y-81113072D01*
X153923254Y-81096008D01*
X154089850Y-81045472D01*
X154243386Y-80963405D01*
X154377962Y-80852962D01*
X154488405Y-80718386D01*
X154570472Y-80564850D01*
X154621008Y-80398254D01*
X154638072Y-80225000D01*
X154638072Y-79725000D01*
X154621008Y-79551746D01*
X154570472Y-79385150D01*
X154488405Y-79231614D01*
X154377962Y-79097038D01*
X154243386Y-78986595D01*
X154089850Y-78904528D01*
X153923254Y-78853992D01*
X153750000Y-78836928D01*
X151550000Y-78836928D01*
X151376746Y-78853992D01*
X151210150Y-78904528D01*
X151056614Y-78986595D01*
X150922038Y-79097038D01*
X150811595Y-79231614D01*
X150729528Y-79385150D01*
X150678992Y-79551746D01*
X150661928Y-79725000D01*
X150660000Y-79725000D01*
X150660000Y-73425000D01*
X154361928Y-73425000D01*
X154374188Y-73549482D01*
X154410498Y-73669180D01*
X154453698Y-73750000D01*
X154410498Y-73830820D01*
X154374188Y-73950518D01*
X154361928Y-74075000D01*
X154365000Y-74089250D01*
X154523750Y-74248000D01*
X155723000Y-74248000D01*
X155723000Y-73252000D01*
X155977000Y-73252000D01*
X155977000Y-74248000D01*
X157176250Y-74248000D01*
X157335000Y-74089250D01*
X157338072Y-74075000D01*
X157325812Y-73950518D01*
X157289502Y-73830820D01*
X157246302Y-73750000D01*
X157289502Y-73669180D01*
X157325812Y-73549482D01*
X157338072Y-73425000D01*
X157335000Y-73410750D01*
X157176250Y-73252000D01*
X155977000Y-73252000D01*
X155723000Y-73252000D01*
X154523750Y-73252000D01*
X154365000Y-73410750D01*
X154361928Y-73425000D01*
X150660000Y-73425000D01*
X150660000Y-72175000D01*
X154361928Y-72175000D01*
X154374188Y-72299482D01*
X154410498Y-72419180D01*
X154453698Y-72500000D01*
X154410498Y-72580820D01*
X154374188Y-72700518D01*
X154361928Y-72825000D01*
X154365000Y-72839250D01*
X154523750Y-72998000D01*
X155723000Y-72998000D01*
X155723000Y-72002000D01*
X155977000Y-72002000D01*
X155977000Y-72998000D01*
X157176250Y-72998000D01*
X157335000Y-72839250D01*
X157338072Y-72825000D01*
X157325812Y-72700518D01*
X157289502Y-72580820D01*
X157246302Y-72500000D01*
X157289502Y-72419180D01*
X157325812Y-72299482D01*
X157338072Y-72175000D01*
X157335000Y-72160750D01*
X157176250Y-72002000D01*
X155977000Y-72002000D01*
X155723000Y-72002000D01*
X154523750Y-72002000D01*
X154365000Y-72160750D01*
X154361928Y-72175000D01*
X150660000Y-72175000D01*
X150660000Y-71575000D01*
X154361928Y-71575000D01*
X154365000Y-71589250D01*
X154523750Y-71748000D01*
X155723000Y-71748000D01*
X155723000Y-71098750D01*
X155977000Y-71098750D01*
X155977000Y-71748000D01*
X157176250Y-71748000D01*
X157335000Y-71589250D01*
X157338072Y-71575000D01*
X157325812Y-71450518D01*
X157289502Y-71330820D01*
X157230537Y-71220506D01*
X157151185Y-71123815D01*
X157054494Y-71044463D01*
X156944180Y-70985498D01*
X156824482Y-70949188D01*
X156700000Y-70936928D01*
X156135750Y-70940000D01*
X155977000Y-71098750D01*
X155723000Y-71098750D01*
X155564250Y-70940000D01*
X155000000Y-70936928D01*
X154875518Y-70949188D01*
X154755820Y-70985498D01*
X154645506Y-71044463D01*
X154548815Y-71123815D01*
X154469463Y-71220506D01*
X154410498Y-71330820D01*
X154374188Y-71450518D01*
X154361928Y-71575000D01*
X150660000Y-71575000D01*
X150660000Y-69775000D01*
X150661928Y-69775000D01*
X150661928Y-70275000D01*
X150678992Y-70448254D01*
X150729528Y-70614850D01*
X150811595Y-70768386D01*
X150922038Y-70902962D01*
X151056614Y-71013405D01*
X151210150Y-71095472D01*
X151376746Y-71146008D01*
X151550000Y-71163072D01*
X153750000Y-71163072D01*
X153923254Y-71146008D01*
X154089850Y-71095472D01*
X154243386Y-71013405D01*
X154377962Y-70902962D01*
X154488405Y-70768386D01*
X154570472Y-70614850D01*
X154621008Y-70448254D01*
X154638072Y-70275000D01*
X154638072Y-69775000D01*
X154621008Y-69601746D01*
X154570472Y-69435150D01*
X154488405Y-69281614D01*
X154377962Y-69147038D01*
X154243386Y-69036595D01*
X154089850Y-68954528D01*
X153923254Y-68903992D01*
X153750000Y-68886928D01*
X151550000Y-68886928D01*
X151376746Y-68903992D01*
X151210150Y-68954528D01*
X151056614Y-69036595D01*
X150922038Y-69147038D01*
X150811595Y-69281614D01*
X150729528Y-69435150D01*
X150678992Y-69601746D01*
X150661928Y-69775000D01*
X150660000Y-69775000D01*
X150660000Y-64904233D01*
X150876713Y-65168298D01*
X150876713Y-65168298D01*
G37*
X150876713Y-65168298D02*
X151553552Y-65723766D01*
X152325752Y-66136515D01*
X153163638Y-66390685D01*
X154035010Y-66476508D01*
X154253373Y-66455001D01*
X174155000Y-66455001D01*
X174155000Y-66558821D01*
X158575331Y-82138491D01*
X156866000Y-80429160D01*
X156866000Y-78995377D01*
X156987829Y-78930258D01*
X157107251Y-78832251D01*
X157205258Y-78712829D01*
X157278084Y-78576582D01*
X157322929Y-78428745D01*
X157338072Y-78275000D01*
X157338072Y-77975000D01*
X157322929Y-77821255D01*
X157278084Y-77673418D01*
X157205258Y-77537171D01*
X157174753Y-77500000D01*
X157205258Y-77462829D01*
X157278084Y-77326582D01*
X157322929Y-77178745D01*
X157338072Y-77025000D01*
X157338072Y-76725000D01*
X157322929Y-76571255D01*
X157278084Y-76423418D01*
X157205258Y-76287171D01*
X157174753Y-76250000D01*
X157205258Y-76212829D01*
X157278084Y-76076582D01*
X157322929Y-75928745D01*
X157338072Y-75775000D01*
X157338072Y-75475000D01*
X157322929Y-75321255D01*
X157278084Y-75173418D01*
X157212744Y-75051175D01*
X157230537Y-75029494D01*
X157289502Y-74919180D01*
X157325812Y-74799482D01*
X157338072Y-74675000D01*
X157335000Y-74660750D01*
X157176250Y-74502000D01*
X155977000Y-74502000D01*
X155977000Y-74522000D01*
X155723000Y-74522000D01*
X155723000Y-74502000D01*
X154523750Y-74502000D01*
X154365000Y-74660750D01*
X154361928Y-74675000D01*
X154374188Y-74799482D01*
X154410498Y-74919180D01*
X154469463Y-75029494D01*
X154487256Y-75051175D01*
X154421916Y-75173418D01*
X154377071Y-75321255D01*
X154361928Y-75475000D01*
X154361928Y-75775000D01*
X154377071Y-75928745D01*
X154421916Y-76076582D01*
X154494742Y-76212829D01*
X154525247Y-76250000D01*
X154494742Y-76287171D01*
X154421916Y-76423418D01*
X154377071Y-76571255D01*
X154361928Y-76725000D01*
X154361928Y-77025000D01*
X154377071Y-77178745D01*
X154421916Y-77326582D01*
X154494742Y-77462829D01*
X154525247Y-77500000D01*
X154494742Y-77537171D01*
X154421916Y-77673418D01*
X154377071Y-77821255D01*
X154361928Y-77975000D01*
X154361928Y-78275000D01*
X154377071Y-78428745D01*
X154421916Y-78576582D01*
X154494742Y-78712829D01*
X154592749Y-78832251D01*
X154712171Y-78930258D01*
X154834000Y-78995378D01*
X154834001Y-80800089D01*
X154829085Y-80850000D01*
X154848702Y-81049170D01*
X154868087Y-81113072D01*
X154906799Y-81240687D01*
X155001141Y-81417190D01*
X155128105Y-81571896D01*
X155166868Y-81603708D01*
X157214991Y-83651831D01*
X156873486Y-84290743D01*
X156619316Y-85128629D01*
X156555000Y-85781638D01*
X156555000Y-85781644D01*
X156533494Y-86000000D01*
X156555000Y-86218356D01*
X156555001Y-96183353D01*
X156619317Y-96836362D01*
X156873487Y-97674248D01*
X157286236Y-98446448D01*
X157841704Y-99123287D01*
X157861928Y-99139884D01*
X157861928Y-99340000D01*
X154245031Y-99340000D01*
X154469063Y-99115968D01*
X154746488Y-98700773D01*
X154937582Y-98239432D01*
X155035000Y-97749676D01*
X155035000Y-97250324D01*
X154937582Y-96760568D01*
X154746488Y-96299227D01*
X154469063Y-95884032D01*
X154115968Y-95530937D01*
X153700773Y-95253512D01*
X153239432Y-95062418D01*
X152749676Y-94965000D01*
X152250324Y-94965000D01*
X151760568Y-95062418D01*
X151299227Y-95253512D01*
X150884032Y-95530937D01*
X150660000Y-95754969D01*
X150660000Y-92137850D01*
X152714250Y-92135000D01*
X152873000Y-91976250D01*
X152873000Y-91531308D01*
X152882523Y-91533351D01*
X153086377Y-91536413D01*
X153127000Y-91528965D01*
X153127000Y-91976250D01*
X153285750Y-92135000D01*
X155500000Y-92138072D01*
X155624482Y-92125812D01*
X155744180Y-92089502D01*
X155854494Y-92030537D01*
X155951185Y-91951185D01*
X156030537Y-91854494D01*
X156089502Y-91744180D01*
X156125812Y-91624482D01*
X156138072Y-91500000D01*
X156135000Y-89285750D01*
X155976250Y-89127000D01*
X155531308Y-89127000D01*
X155533351Y-89117477D01*
X155536413Y-88913623D01*
X155528965Y-88873000D01*
X155976250Y-88873000D01*
X156135000Y-88714250D01*
X156138072Y-86500000D01*
X156125812Y-86375518D01*
X156089502Y-86255820D01*
X156030537Y-86145506D01*
X155951185Y-86048815D01*
X155854494Y-85969463D01*
X155744180Y-85910498D01*
X155624482Y-85874188D01*
X155500000Y-85861928D01*
X153285750Y-85865000D01*
X153127000Y-86023750D01*
X153127000Y-86468692D01*
X153117477Y-86466649D01*
X152913623Y-86463587D01*
X152873000Y-86471035D01*
X152873000Y-86023750D01*
X152714250Y-85865000D01*
X150660000Y-85862150D01*
X150660000Y-79725000D01*
X150661928Y-79725000D01*
X150661928Y-80225000D01*
X150678992Y-80398254D01*
X150729528Y-80564850D01*
X150811595Y-80718386D01*
X150922038Y-80852962D01*
X151056614Y-80963405D01*
X151210150Y-81045472D01*
X151376746Y-81096008D01*
X151550000Y-81113072D01*
X153750000Y-81113072D01*
X153923254Y-81096008D01*
X154089850Y-81045472D01*
X154243386Y-80963405D01*
X154377962Y-80852962D01*
X154488405Y-80718386D01*
X154570472Y-80564850D01*
X154621008Y-80398254D01*
X154638072Y-80225000D01*
X154638072Y-79725000D01*
X154621008Y-79551746D01*
X154570472Y-79385150D01*
X154488405Y-79231614D01*
X154377962Y-79097038D01*
X154243386Y-78986595D01*
X154089850Y-78904528D01*
X153923254Y-78853992D01*
X153750000Y-78836928D01*
X151550000Y-78836928D01*
X151376746Y-78853992D01*
X151210150Y-78904528D01*
X151056614Y-78986595D01*
X150922038Y-79097038D01*
X150811595Y-79231614D01*
X150729528Y-79385150D01*
X150678992Y-79551746D01*
X150661928Y-79725000D01*
X150660000Y-79725000D01*
X150660000Y-73425000D01*
X154361928Y-73425000D01*
X154374188Y-73549482D01*
X154410498Y-73669180D01*
X154453698Y-73750000D01*
X154410498Y-73830820D01*
X154374188Y-73950518D01*
X154361928Y-74075000D01*
X154365000Y-74089250D01*
X154523750Y-74248000D01*
X155723000Y-74248000D01*
X155723000Y-73252000D01*
X155977000Y-73252000D01*
X155977000Y-74248000D01*
X157176250Y-74248000D01*
X157335000Y-74089250D01*
X157338072Y-74075000D01*
X157325812Y-73950518D01*
X157289502Y-73830820D01*
X157246302Y-73750000D01*
X157289502Y-73669180D01*
X157325812Y-73549482D01*
X157338072Y-73425000D01*
X157335000Y-73410750D01*
X157176250Y-73252000D01*
X155977000Y-73252000D01*
X155723000Y-73252000D01*
X154523750Y-73252000D01*
X154365000Y-73410750D01*
X154361928Y-73425000D01*
X150660000Y-73425000D01*
X150660000Y-72175000D01*
X154361928Y-72175000D01*
X154374188Y-72299482D01*
X154410498Y-72419180D01*
X154453698Y-72500000D01*
X154410498Y-72580820D01*
X154374188Y-72700518D01*
X154361928Y-72825000D01*
X154365000Y-72839250D01*
X154523750Y-72998000D01*
X155723000Y-72998000D01*
X155723000Y-72002000D01*
X155977000Y-72002000D01*
X155977000Y-72998000D01*
X157176250Y-72998000D01*
X157335000Y-72839250D01*
X157338072Y-72825000D01*
X157325812Y-72700518D01*
X157289502Y-72580820D01*
X157246302Y-72500000D01*
X157289502Y-72419180D01*
X157325812Y-72299482D01*
X157338072Y-72175000D01*
X157335000Y-72160750D01*
X157176250Y-72002000D01*
X155977000Y-72002000D01*
X155723000Y-72002000D01*
X154523750Y-72002000D01*
X154365000Y-72160750D01*
X154361928Y-72175000D01*
X150660000Y-72175000D01*
X150660000Y-71575000D01*
X154361928Y-71575000D01*
X154365000Y-71589250D01*
X154523750Y-71748000D01*
X155723000Y-71748000D01*
X155723000Y-71098750D01*
X155977000Y-71098750D01*
X155977000Y-71748000D01*
X157176250Y-71748000D01*
X157335000Y-71589250D01*
X157338072Y-71575000D01*
X157325812Y-71450518D01*
X157289502Y-71330820D01*
X157230537Y-71220506D01*
X157151185Y-71123815D01*
X157054494Y-71044463D01*
X156944180Y-70985498D01*
X156824482Y-70949188D01*
X156700000Y-70936928D01*
X156135750Y-70940000D01*
X155977000Y-71098750D01*
X155723000Y-71098750D01*
X155564250Y-70940000D01*
X155000000Y-70936928D01*
X154875518Y-70949188D01*
X154755820Y-70985498D01*
X154645506Y-71044463D01*
X154548815Y-71123815D01*
X154469463Y-71220506D01*
X154410498Y-71330820D01*
X154374188Y-71450518D01*
X154361928Y-71575000D01*
X150660000Y-71575000D01*
X150660000Y-69775000D01*
X150661928Y-69775000D01*
X150661928Y-70275000D01*
X150678992Y-70448254D01*
X150729528Y-70614850D01*
X150811595Y-70768386D01*
X150922038Y-70902962D01*
X151056614Y-71013405D01*
X151210150Y-71095472D01*
X151376746Y-71146008D01*
X151550000Y-71163072D01*
X153750000Y-71163072D01*
X153923254Y-71146008D01*
X154089850Y-71095472D01*
X154243386Y-71013405D01*
X154377962Y-70902962D01*
X154488405Y-70768386D01*
X154570472Y-70614850D01*
X154621008Y-70448254D01*
X154638072Y-70275000D01*
X154638072Y-69775000D01*
X154621008Y-69601746D01*
X154570472Y-69435150D01*
X154488405Y-69281614D01*
X154377962Y-69147038D01*
X154243386Y-69036595D01*
X154089850Y-68954528D01*
X153923254Y-68903992D01*
X153750000Y-68886928D01*
X151550000Y-68886928D01*
X151376746Y-68903992D01*
X151210150Y-68954528D01*
X151056614Y-69036595D01*
X150922038Y-69147038D01*
X150811595Y-69281614D01*
X150729528Y-69435150D01*
X150678992Y-69601746D01*
X150661928Y-69775000D01*
X150660000Y-69775000D01*
X150660000Y-64904233D01*
X150876713Y-65168298D01*
G36*
X174155001Y-95346624D02*
G01*
X174135232Y-95547348D01*
X174138072Y-93500000D01*
X174125812Y-93375518D01*
X174089502Y-93255820D01*
X174030537Y-93145506D01*
X173951185Y-93048815D01*
X173854494Y-92969463D01*
X173744180Y-92910498D01*
X173624482Y-92874188D01*
X173500000Y-92861928D01*
X171285750Y-92865000D01*
X171127000Y-93023750D01*
X171127000Y-93468692D01*
X171117477Y-93466649D01*
X170913623Y-93463587D01*
X170873000Y-93471035D01*
X170873000Y-93023750D01*
X170714250Y-92865000D01*
X168500000Y-92861928D01*
X168375518Y-92874188D01*
X168255820Y-92910498D01*
X168145506Y-92969463D01*
X168048815Y-93048815D01*
X167969463Y-93145506D01*
X167910498Y-93255820D01*
X167874188Y-93375518D01*
X167861928Y-93500000D01*
X167865000Y-95714250D01*
X168023750Y-95873000D01*
X168468692Y-95873000D01*
X168466649Y-95882523D01*
X168463587Y-96086377D01*
X168471035Y-96127000D01*
X168023750Y-96127000D01*
X167865000Y-96285750D01*
X167861928Y-98500000D01*
X167874188Y-98624482D01*
X167910498Y-98744180D01*
X167969463Y-98854494D01*
X168048815Y-98951185D01*
X168145506Y-99030537D01*
X168255820Y-99089502D01*
X168375518Y-99125812D01*
X168500000Y-99138072D01*
X170714250Y-99135000D01*
X170873000Y-98976250D01*
X170873000Y-98531308D01*
X170882523Y-98533351D01*
X171086377Y-98536413D01*
X171127000Y-98528965D01*
X171127000Y-98976250D01*
X171285750Y-99135000D01*
X173500000Y-99138072D01*
X173624482Y-99125812D01*
X173744180Y-99089502D01*
X173854494Y-99030537D01*
X173951185Y-98951185D01*
X174030537Y-98854494D01*
X174089502Y-98744180D01*
X174125812Y-98624482D01*
X174138072Y-98500000D01*
X174135000Y-96285750D01*
X173976250Y-96127000D01*
X173531308Y-96127000D01*
X173533351Y-96117477D01*
X173536413Y-95913623D01*
X173528965Y-95873000D01*
X173976250Y-95873000D01*
X174135000Y-95714250D01*
X174135183Y-95582142D01*
X174219316Y-96436362D01*
X174473487Y-97274248D01*
X174886236Y-98046448D01*
X175287181Y-98535000D01*
X175441704Y-98723287D01*
X175611317Y-98862485D01*
X176011317Y-99262485D01*
X176105769Y-99340000D01*
X164138072Y-99340000D01*
X164138072Y-99139885D01*
X164158297Y-99123287D01*
X164713765Y-98446448D01*
X165126514Y-97674248D01*
X165380684Y-96836362D01*
X165445000Y-96183353D01*
X165445000Y-87841178D01*
X174155001Y-79131178D01*
X174155001Y-95346624D01*
X174155001Y-95346624D01*
G37*
X174155001Y-95346624D02*
X174135232Y-95547348D01*
X174138072Y-93500000D01*
X174125812Y-93375518D01*
X174089502Y-93255820D01*
X174030537Y-93145506D01*
X173951185Y-93048815D01*
X173854494Y-92969463D01*
X173744180Y-92910498D01*
X173624482Y-92874188D01*
X173500000Y-92861928D01*
X171285750Y-92865000D01*
X171127000Y-93023750D01*
X171127000Y-93468692D01*
X171117477Y-93466649D01*
X170913623Y-93463587D01*
X170873000Y-93471035D01*
X170873000Y-93023750D01*
X170714250Y-92865000D01*
X168500000Y-92861928D01*
X168375518Y-92874188D01*
X168255820Y-92910498D01*
X168145506Y-92969463D01*
X168048815Y-93048815D01*
X167969463Y-93145506D01*
X167910498Y-93255820D01*
X167874188Y-93375518D01*
X167861928Y-93500000D01*
X167865000Y-95714250D01*
X168023750Y-95873000D01*
X168468692Y-95873000D01*
X168466649Y-95882523D01*
X168463587Y-96086377D01*
X168471035Y-96127000D01*
X168023750Y-96127000D01*
X167865000Y-96285750D01*
X167861928Y-98500000D01*
X167874188Y-98624482D01*
X167910498Y-98744180D01*
X167969463Y-98854494D01*
X168048815Y-98951185D01*
X168145506Y-99030537D01*
X168255820Y-99089502D01*
X168375518Y-99125812D01*
X168500000Y-99138072D01*
X170714250Y-99135000D01*
X170873000Y-98976250D01*
X170873000Y-98531308D01*
X170882523Y-98533351D01*
X171086377Y-98536413D01*
X171127000Y-98528965D01*
X171127000Y-98976250D01*
X171285750Y-99135000D01*
X173500000Y-99138072D01*
X173624482Y-99125812D01*
X173744180Y-99089502D01*
X173854494Y-99030537D01*
X173951185Y-98951185D01*
X174030537Y-98854494D01*
X174089502Y-98744180D01*
X174125812Y-98624482D01*
X174138072Y-98500000D01*
X174135000Y-96285750D01*
X173976250Y-96127000D01*
X173531308Y-96127000D01*
X173533351Y-96117477D01*
X173536413Y-95913623D01*
X173528965Y-95873000D01*
X173976250Y-95873000D01*
X174135000Y-95714250D01*
X174135183Y-95582142D01*
X174219316Y-96436362D01*
X174473487Y-97274248D01*
X174886236Y-98046448D01*
X175287181Y-98535000D01*
X175441704Y-98723287D01*
X175611317Y-98862485D01*
X176011317Y-99262485D01*
X176105769Y-99340000D01*
X164138072Y-99340000D01*
X164138072Y-99139885D01*
X164158297Y-99123287D01*
X164713765Y-98446448D01*
X165126514Y-97674248D01*
X165380684Y-96836362D01*
X165445000Y-96183353D01*
X165445000Y-87841178D01*
X174155001Y-79131178D01*
X174155001Y-95346624D01*
G36*
X171127000Y-97419110D02*
G01*
X171127000Y-97580890D01*
X171014143Y-97693748D01*
X171000000Y-97679605D01*
X170985858Y-97693748D01*
X170873000Y-97580890D01*
X170873000Y-97419110D01*
X170985858Y-97306253D01*
X171000000Y-97320395D01*
X171014143Y-97306253D01*
X171127000Y-97419110D01*
X171127000Y-97419110D01*
G37*
X171127000Y-97419110D02*
X171127000Y-97580890D01*
X171014143Y-97693748D01*
X171000000Y-97679605D01*
X170985858Y-97693748D01*
X170873000Y-97580890D01*
X170873000Y-97419110D01*
X170985858Y-97306253D01*
X171000000Y-97320395D01*
X171014143Y-97306253D01*
X171127000Y-97419110D01*
G36*
X189193748Y-96985858D02*
G01*
X189179605Y-97000000D01*
X189193748Y-97014143D01*
X189060890Y-97147000D01*
X188939110Y-97147000D01*
X188806253Y-97014143D01*
X188820395Y-97000000D01*
X188806253Y-96985858D01*
X188985858Y-96806253D01*
X189000000Y-96820395D01*
X189014143Y-96806253D01*
X189193748Y-96985858D01*
X189193748Y-96985858D01*
G37*
X189193748Y-96985858D02*
X189179605Y-97000000D01*
X189193748Y-97014143D01*
X189060890Y-97147000D01*
X188939110Y-97147000D01*
X188806253Y-97014143D01*
X188820395Y-97000000D01*
X188806253Y-96985858D01*
X188985858Y-96806253D01*
X189000000Y-96820395D01*
X189014143Y-96806253D01*
X189193748Y-96985858D01*
G36*
X187693748Y-96985858D02*
G01*
X187679605Y-97000000D01*
X187693748Y-97014143D01*
X187580890Y-97127000D01*
X187419110Y-97127000D01*
X187306253Y-97014143D01*
X187320395Y-97000000D01*
X187306253Y-96985858D01*
X187419110Y-96873000D01*
X187580890Y-96873000D01*
X187693748Y-96985858D01*
X187693748Y-96985858D01*
G37*
X187693748Y-96985858D02*
X187679605Y-97000000D01*
X187693748Y-97014143D01*
X187580890Y-97127000D01*
X187419110Y-97127000D01*
X187306253Y-97014143D01*
X187320395Y-97000000D01*
X187306253Y-96985858D01*
X187419110Y-96873000D01*
X187580890Y-96873000D01*
X187693748Y-96985858D01*
G36*
X190693748Y-96985858D02*
G01*
X190679605Y-97000000D01*
X190693748Y-97014143D01*
X190580890Y-97127000D01*
X190419110Y-97127000D01*
X190306253Y-97014143D01*
X190320395Y-97000000D01*
X190306253Y-96985858D01*
X190419110Y-96873000D01*
X190580890Y-96873000D01*
X190693748Y-96985858D01*
X190693748Y-96985858D01*
G37*
X190693748Y-96985858D02*
X190679605Y-97000000D01*
X190693748Y-97014143D01*
X190580890Y-97127000D01*
X190419110Y-97127000D01*
X190306253Y-97014143D01*
X190320395Y-97000000D01*
X190306253Y-96985858D01*
X190419110Y-96873000D01*
X190580890Y-96873000D01*
X190693748Y-96985858D01*
G36*
X171193748Y-95985858D02*
G01*
X171179605Y-96000000D01*
X171193748Y-96014143D01*
X171014143Y-96193748D01*
X171000000Y-96179605D01*
X170985858Y-96193748D01*
X170806253Y-96014143D01*
X170820395Y-96000000D01*
X170806253Y-95985858D01*
X170985858Y-95806253D01*
X171000000Y-95820395D01*
X171014143Y-95806253D01*
X171193748Y-95985858D01*
X171193748Y-95985858D01*
G37*
X171193748Y-95985858D02*
X171179605Y-96000000D01*
X171193748Y-96014143D01*
X171014143Y-96193748D01*
X171000000Y-96179605D01*
X170985858Y-96193748D01*
X170806253Y-96014143D01*
X170820395Y-96000000D01*
X170806253Y-95985858D01*
X170985858Y-95806253D01*
X171000000Y-95820395D01*
X171014143Y-95806253D01*
X171193748Y-95985858D01*
G36*
X172693748Y-95985858D02*
G01*
X172679605Y-96000000D01*
X172693748Y-96014143D01*
X172580890Y-96127000D01*
X172419110Y-96127000D01*
X172306253Y-96014143D01*
X172320395Y-96000000D01*
X172306253Y-95985858D01*
X172419110Y-95873000D01*
X172580890Y-95873000D01*
X172693748Y-95985858D01*
X172693748Y-95985858D01*
G37*
X172693748Y-95985858D02*
X172679605Y-96000000D01*
X172693748Y-96014143D01*
X172580890Y-96127000D01*
X172419110Y-96127000D01*
X172306253Y-96014143D01*
X172320395Y-96000000D01*
X172306253Y-95985858D01*
X172419110Y-95873000D01*
X172580890Y-95873000D01*
X172693748Y-95985858D01*
G36*
X169693748Y-95985858D02*
G01*
X169679605Y-96000000D01*
X169693748Y-96014143D01*
X169580890Y-96127000D01*
X169419110Y-96127000D01*
X169306253Y-96014143D01*
X169320395Y-96000000D01*
X169306253Y-95985858D01*
X169419110Y-95873000D01*
X169580890Y-95873000D01*
X169693748Y-95985858D01*
X169693748Y-95985858D01*
G37*
X169693748Y-95985858D02*
X169679605Y-96000000D01*
X169693748Y-96014143D01*
X169580890Y-96127000D01*
X169419110Y-96127000D01*
X169306253Y-96014143D01*
X169320395Y-96000000D01*
X169306253Y-95985858D01*
X169419110Y-95873000D01*
X169580890Y-95873000D01*
X169693748Y-95985858D01*
G36*
X189127000Y-95419110D02*
G01*
X189127000Y-95580890D01*
X189014143Y-95693748D01*
X189000000Y-95679605D01*
X188985858Y-95693748D01*
X188873000Y-95580890D01*
X188873000Y-95419110D01*
X188985858Y-95306253D01*
X189000000Y-95320395D01*
X189014143Y-95306253D01*
X189127000Y-95419110D01*
X189127000Y-95419110D01*
G37*
X189127000Y-95419110D02*
X189127000Y-95580890D01*
X189014143Y-95693748D01*
X189000000Y-95679605D01*
X188985858Y-95693748D01*
X188873000Y-95580890D01*
X188873000Y-95419110D01*
X188985858Y-95306253D01*
X189000000Y-95320395D01*
X189014143Y-95306253D01*
X189127000Y-95419110D01*
G36*
X171127000Y-94419110D02*
G01*
X171127000Y-94580890D01*
X171014143Y-94693748D01*
X171000000Y-94679605D01*
X170985858Y-94693748D01*
X170873000Y-94580890D01*
X170873000Y-94419110D01*
X170985858Y-94306253D01*
X171000000Y-94320395D01*
X171014143Y-94306253D01*
X171127000Y-94419110D01*
X171127000Y-94419110D01*
G37*
X171127000Y-94419110D02*
X171127000Y-94580890D01*
X171014143Y-94693748D01*
X171000000Y-94679605D01*
X170985858Y-94693748D01*
X170873000Y-94580890D01*
X170873000Y-94419110D01*
X170985858Y-94306253D01*
X171000000Y-94320395D01*
X171014143Y-94306253D01*
X171127000Y-94419110D01*
G36*
X153127000Y-90419110D02*
G01*
X153127000Y-90580890D01*
X153014143Y-90693748D01*
X153000000Y-90679605D01*
X152985858Y-90693748D01*
X152873000Y-90580890D01*
X152873000Y-90419110D01*
X152985858Y-90306253D01*
X153000000Y-90320395D01*
X153014143Y-90306253D01*
X153127000Y-90419110D01*
X153127000Y-90419110D01*
G37*
X153127000Y-90419110D02*
X153127000Y-90580890D01*
X153014143Y-90693748D01*
X153000000Y-90679605D01*
X152985858Y-90693748D01*
X152873000Y-90580890D01*
X152873000Y-90419110D01*
X152985858Y-90306253D01*
X153000000Y-90320395D01*
X153014143Y-90306253D01*
X153127000Y-90419110D01*
G36*
X153193748Y-88985858D02*
G01*
X153179605Y-89000000D01*
X153193748Y-89014143D01*
X153014143Y-89193748D01*
X153000000Y-89179605D01*
X152985858Y-89193748D01*
X152853000Y-89060890D01*
X152853000Y-88939110D01*
X152985858Y-88806253D01*
X153000000Y-88820395D01*
X153014143Y-88806253D01*
X153193748Y-88985858D01*
X153193748Y-88985858D01*
G37*
X153193748Y-88985858D02*
X153179605Y-89000000D01*
X153193748Y-89014143D01*
X153014143Y-89193748D01*
X153000000Y-89179605D01*
X152985858Y-89193748D01*
X152853000Y-89060890D01*
X152853000Y-88939110D01*
X152985858Y-88806253D01*
X153000000Y-88820395D01*
X153014143Y-88806253D01*
X153193748Y-88985858D01*
G36*
X154693748Y-88985858D02*
G01*
X154679605Y-89000000D01*
X154693748Y-89014143D01*
X154580890Y-89127000D01*
X154419110Y-89127000D01*
X154306253Y-89014143D01*
X154320395Y-89000000D01*
X154306253Y-88985858D01*
X154419110Y-88873000D01*
X154580890Y-88873000D01*
X154693748Y-88985858D01*
X154693748Y-88985858D01*
G37*
X154693748Y-88985858D02*
X154679605Y-89000000D01*
X154693748Y-89014143D01*
X154580890Y-89127000D01*
X154419110Y-89127000D01*
X154306253Y-89014143D01*
X154320395Y-89000000D01*
X154306253Y-88985858D01*
X154419110Y-88873000D01*
X154580890Y-88873000D01*
X154693748Y-88985858D01*
G36*
X153127000Y-87419110D02*
G01*
X153127000Y-87580890D01*
X153014143Y-87693748D01*
X153000000Y-87679605D01*
X152985858Y-87693748D01*
X152873000Y-87580890D01*
X152873000Y-87419110D01*
X152985858Y-87306253D01*
X153000000Y-87320395D01*
X153014143Y-87306253D01*
X153127000Y-87419110D01*
X153127000Y-87419110D01*
G37*
X153127000Y-87419110D02*
X153127000Y-87580890D01*
X153014143Y-87693748D01*
X153000000Y-87679605D01*
X152985858Y-87693748D01*
X152873000Y-87580890D01*
X152873000Y-87419110D01*
X152985858Y-87306253D01*
X153000000Y-87320395D01*
X153014143Y-87306253D01*
X153127000Y-87419110D01*
G36*
X195530937Y-50884032D02*
G01*
X195253512Y-51299227D01*
X195062418Y-51760568D01*
X194965000Y-52250324D01*
X194965000Y-52749676D01*
X195062418Y-53239432D01*
X195253512Y-53700773D01*
X195530937Y-54115968D01*
X195884032Y-54469063D01*
X196299227Y-54746488D01*
X196760568Y-54937582D01*
X197250324Y-55035000D01*
X197749676Y-55035000D01*
X198239432Y-54937582D01*
X198700773Y-54746488D01*
X199115968Y-54469063D01*
X199340000Y-54245031D01*
X199340000Y-57862150D01*
X197285750Y-57865000D01*
X197127000Y-58023750D01*
X197127000Y-58468692D01*
X197117477Y-58466649D01*
X196913623Y-58463587D01*
X196873000Y-58471035D01*
X196873000Y-58023750D01*
X196714250Y-57865000D01*
X194500000Y-57861928D01*
X194375518Y-57874188D01*
X194255820Y-57910498D01*
X194145506Y-57969463D01*
X194048815Y-58048815D01*
X193969463Y-58145506D01*
X193910498Y-58255820D01*
X193874188Y-58375518D01*
X193861928Y-58500000D01*
X193865000Y-60714250D01*
X194023750Y-60873000D01*
X194468692Y-60873000D01*
X194466649Y-60882523D01*
X194463587Y-61086377D01*
X194471035Y-61127000D01*
X194023750Y-61127000D01*
X193865000Y-61285750D01*
X193861928Y-63500000D01*
X193874188Y-63624482D01*
X193910498Y-63744180D01*
X193969463Y-63854494D01*
X194048815Y-63951185D01*
X194145506Y-64030537D01*
X194255820Y-64089502D01*
X194375518Y-64125812D01*
X194500000Y-64138072D01*
X196714250Y-64135000D01*
X196873000Y-63976250D01*
X196873000Y-63531308D01*
X196882523Y-63533351D01*
X197086377Y-63536413D01*
X197127000Y-63528965D01*
X197127000Y-63976250D01*
X197285750Y-64135000D01*
X199340000Y-64137850D01*
X199340000Y-69378142D01*
X199288405Y-69281614D01*
X199177962Y-69147038D01*
X199043386Y-69036595D01*
X198889850Y-68954528D01*
X198723254Y-68903992D01*
X198550000Y-68886928D01*
X196250000Y-68886928D01*
X196076746Y-68903992D01*
X195910150Y-68954528D01*
X195756614Y-69036595D01*
X195622038Y-69147038D01*
X195511595Y-69281614D01*
X195429528Y-69435150D01*
X195378992Y-69601746D01*
X195361928Y-69775000D01*
X195361928Y-70275000D01*
X195378992Y-70448254D01*
X195429528Y-70614850D01*
X195511595Y-70768386D01*
X195622038Y-70902962D01*
X195756614Y-71013405D01*
X195910150Y-71095472D01*
X196076746Y-71146008D01*
X196250000Y-71163072D01*
X198550000Y-71163072D01*
X198723254Y-71146008D01*
X198889850Y-71095472D01*
X199043386Y-71013405D01*
X199177962Y-70902962D01*
X199288405Y-70768386D01*
X199340000Y-70671858D01*
X199340001Y-79328142D01*
X199288405Y-79231614D01*
X199177962Y-79097038D01*
X199043386Y-78986595D01*
X198889850Y-78904528D01*
X198723254Y-78853992D01*
X198550000Y-78836928D01*
X196250000Y-78836928D01*
X196076746Y-78853992D01*
X195910150Y-78904528D01*
X195756614Y-78986595D01*
X195622038Y-79097038D01*
X195511595Y-79231614D01*
X195429528Y-79385150D01*
X195378992Y-79551746D01*
X195361928Y-79725000D01*
X195361928Y-80225000D01*
X195378992Y-80398254D01*
X195429528Y-80564850D01*
X195511595Y-80718386D01*
X195622038Y-80852962D01*
X195756614Y-80963405D01*
X195910150Y-81045472D01*
X196076746Y-81096008D01*
X196250000Y-81113072D01*
X198550000Y-81113072D01*
X198723254Y-81096008D01*
X198889850Y-81045472D01*
X199043386Y-80963405D01*
X199177962Y-80852962D01*
X199288405Y-80718386D01*
X199340001Y-80621858D01*
X199340001Y-85861928D01*
X199139885Y-85861928D01*
X199123287Y-85841703D01*
X198446448Y-85286235D01*
X197674248Y-84873486D01*
X196836362Y-84619316D01*
X196183353Y-84555000D01*
X193841179Y-84555000D01*
X183045000Y-73758822D01*
X183045000Y-72481841D01*
X186871292Y-76308133D01*
X186903104Y-76346896D01*
X187057810Y-76473860D01*
X187234313Y-76568202D01*
X187367732Y-76608674D01*
X187425828Y-76626298D01*
X187445177Y-76628204D01*
X187575098Y-76641000D01*
X187575105Y-76641000D01*
X187624999Y-76645914D01*
X187674893Y-76641000D01*
X192570202Y-76641000D01*
X192561928Y-76725000D01*
X192561928Y-77025000D01*
X192577071Y-77178745D01*
X192621916Y-77326582D01*
X192694742Y-77462829D01*
X192725247Y-77500000D01*
X192694742Y-77537171D01*
X192621916Y-77673418D01*
X192577071Y-77821255D01*
X192561928Y-77975000D01*
X192561928Y-78275000D01*
X192577071Y-78428745D01*
X192621916Y-78576582D01*
X192694742Y-78712829D01*
X192792749Y-78832251D01*
X192912171Y-78930258D01*
X193048418Y-79003084D01*
X193196255Y-79047929D01*
X193350000Y-79063072D01*
X193649715Y-79063072D01*
X193659313Y-79068202D01*
X193850829Y-79126298D01*
X194050000Y-79145915D01*
X194249170Y-79126298D01*
X194440686Y-79068202D01*
X194450284Y-79063072D01*
X194750000Y-79063072D01*
X194903745Y-79047929D01*
X195051582Y-79003084D01*
X195187829Y-78930258D01*
X195307251Y-78832251D01*
X195405258Y-78712829D01*
X195478084Y-78576582D01*
X195522929Y-78428745D01*
X195538072Y-78275000D01*
X195538072Y-77975000D01*
X195522929Y-77821255D01*
X195478084Y-77673418D01*
X195405258Y-77537171D01*
X195374753Y-77500000D01*
X195405258Y-77462829D01*
X195478084Y-77326582D01*
X195522929Y-77178745D01*
X195538072Y-77025000D01*
X195538072Y-76725000D01*
X195522929Y-76571255D01*
X195478084Y-76423418D01*
X195405258Y-76287171D01*
X195374753Y-76250000D01*
X195405258Y-76212829D01*
X195478084Y-76076582D01*
X195522929Y-75928745D01*
X195538072Y-75775000D01*
X195538072Y-75475000D01*
X195522929Y-75321255D01*
X195478084Y-75173418D01*
X195412744Y-75051175D01*
X195430537Y-75029494D01*
X195489502Y-74919180D01*
X195525812Y-74799482D01*
X195538072Y-74675000D01*
X195535000Y-74660750D01*
X195376250Y-74502000D01*
X194177000Y-74502000D01*
X194177000Y-74522000D01*
X193923000Y-74522000D01*
X193923000Y-74502000D01*
X192723750Y-74502000D01*
X192616750Y-74609000D01*
X188045841Y-74609000D01*
X186861841Y-73425000D01*
X192561928Y-73425000D01*
X192574188Y-73549482D01*
X192610498Y-73669180D01*
X192653698Y-73750000D01*
X192610498Y-73830820D01*
X192574188Y-73950518D01*
X192561928Y-74075000D01*
X192565000Y-74089250D01*
X192723750Y-74248000D01*
X193923000Y-74248000D01*
X193923000Y-73252000D01*
X194177000Y-73252000D01*
X194177000Y-74248000D01*
X195376250Y-74248000D01*
X195535000Y-74089250D01*
X195538072Y-74075000D01*
X195525812Y-73950518D01*
X195489502Y-73830820D01*
X195446302Y-73750000D01*
X195489502Y-73669180D01*
X195525812Y-73549482D01*
X195538072Y-73425000D01*
X195535000Y-73410750D01*
X195376250Y-73252000D01*
X194177000Y-73252000D01*
X193923000Y-73252000D01*
X192723750Y-73252000D01*
X192565000Y-73410750D01*
X192561928Y-73425000D01*
X186861841Y-73425000D01*
X185611841Y-72175000D01*
X192561928Y-72175000D01*
X192574188Y-72299482D01*
X192610498Y-72419180D01*
X192653698Y-72500000D01*
X192610498Y-72580820D01*
X192574188Y-72700518D01*
X192561928Y-72825000D01*
X192565000Y-72839250D01*
X192723750Y-72998000D01*
X193923000Y-72998000D01*
X193923000Y-72002000D01*
X194177000Y-72002000D01*
X194177000Y-72998000D01*
X195376250Y-72998000D01*
X195535000Y-72839250D01*
X195538072Y-72825000D01*
X195525812Y-72700518D01*
X195489502Y-72580820D01*
X195446302Y-72500000D01*
X195489502Y-72419180D01*
X195525812Y-72299482D01*
X195538072Y-72175000D01*
X195535000Y-72160750D01*
X195376250Y-72002000D01*
X194177000Y-72002000D01*
X193923000Y-72002000D01*
X192723750Y-72002000D01*
X192565000Y-72160750D01*
X192561928Y-72175000D01*
X185611841Y-72175000D01*
X185011841Y-71575000D01*
X192561928Y-71575000D01*
X192565000Y-71589250D01*
X192723750Y-71748000D01*
X193923000Y-71748000D01*
X193923000Y-71098750D01*
X194177000Y-71098750D01*
X194177000Y-71748000D01*
X195376250Y-71748000D01*
X195535000Y-71589250D01*
X195538072Y-71575000D01*
X195525812Y-71450518D01*
X195489502Y-71330820D01*
X195430537Y-71220506D01*
X195351185Y-71123815D01*
X195254494Y-71044463D01*
X195144180Y-70985498D01*
X195024482Y-70949188D01*
X194900000Y-70936928D01*
X194335750Y-70940000D01*
X194177000Y-71098750D01*
X193923000Y-71098750D01*
X193764250Y-70940000D01*
X193200000Y-70936928D01*
X193075518Y-70949188D01*
X192955820Y-70985498D01*
X192845506Y-71044463D01*
X192748815Y-71123815D01*
X192669463Y-71220506D01*
X192610498Y-71330820D01*
X192574188Y-71450518D01*
X192561928Y-71575000D01*
X185011841Y-71575000D01*
X183045000Y-69608160D01*
X183045000Y-68618356D01*
X183066506Y-68400000D01*
X183045000Y-68181644D01*
X183045000Y-59460994D01*
X183046575Y-59445000D01*
X187816654Y-59445000D01*
X188035010Y-59466506D01*
X188253366Y-59445000D01*
X188253373Y-59445000D01*
X188906382Y-59380684D01*
X189744268Y-59126514D01*
X190516468Y-58713765D01*
X191193307Y-58158297D01*
X191332509Y-57988679D01*
X192297495Y-57023693D01*
X192713764Y-56516468D01*
X193126513Y-55744268D01*
X193380684Y-54906383D01*
X193466506Y-54035010D01*
X193380684Y-53163638D01*
X193126513Y-52325752D01*
X192713764Y-51553552D01*
X192158297Y-50876713D01*
X192138072Y-50860115D01*
X192138072Y-50660000D01*
X195754969Y-50660000D01*
X195530937Y-50884032D01*
X195530937Y-50884032D01*
G37*
X195530937Y-50884032D02*
X195253512Y-51299227D01*
X195062418Y-51760568D01*
X194965000Y-52250324D01*
X194965000Y-52749676D01*
X195062418Y-53239432D01*
X195253512Y-53700773D01*
X195530937Y-54115968D01*
X195884032Y-54469063D01*
X196299227Y-54746488D01*
X196760568Y-54937582D01*
X197250324Y-55035000D01*
X197749676Y-55035000D01*
X198239432Y-54937582D01*
X198700773Y-54746488D01*
X199115968Y-54469063D01*
X199340000Y-54245031D01*
X199340000Y-57862150D01*
X197285750Y-57865000D01*
X197127000Y-58023750D01*
X197127000Y-58468692D01*
X197117477Y-58466649D01*
X196913623Y-58463587D01*
X196873000Y-58471035D01*
X196873000Y-58023750D01*
X196714250Y-57865000D01*
X194500000Y-57861928D01*
X194375518Y-57874188D01*
X194255820Y-57910498D01*
X194145506Y-57969463D01*
X194048815Y-58048815D01*
X193969463Y-58145506D01*
X193910498Y-58255820D01*
X193874188Y-58375518D01*
X193861928Y-58500000D01*
X193865000Y-60714250D01*
X194023750Y-60873000D01*
X194468692Y-60873000D01*
X194466649Y-60882523D01*
X194463587Y-61086377D01*
X194471035Y-61127000D01*
X194023750Y-61127000D01*
X193865000Y-61285750D01*
X193861928Y-63500000D01*
X193874188Y-63624482D01*
X193910498Y-63744180D01*
X193969463Y-63854494D01*
X194048815Y-63951185D01*
X194145506Y-64030537D01*
X194255820Y-64089502D01*
X194375518Y-64125812D01*
X194500000Y-64138072D01*
X196714250Y-64135000D01*
X196873000Y-63976250D01*
X196873000Y-63531308D01*
X196882523Y-63533351D01*
X197086377Y-63536413D01*
X197127000Y-63528965D01*
X197127000Y-63976250D01*
X197285750Y-64135000D01*
X199340000Y-64137850D01*
X199340000Y-69378142D01*
X199288405Y-69281614D01*
X199177962Y-69147038D01*
X199043386Y-69036595D01*
X198889850Y-68954528D01*
X198723254Y-68903992D01*
X198550000Y-68886928D01*
X196250000Y-68886928D01*
X196076746Y-68903992D01*
X195910150Y-68954528D01*
X195756614Y-69036595D01*
X195622038Y-69147038D01*
X195511595Y-69281614D01*
X195429528Y-69435150D01*
X195378992Y-69601746D01*
X195361928Y-69775000D01*
X195361928Y-70275000D01*
X195378992Y-70448254D01*
X195429528Y-70614850D01*
X195511595Y-70768386D01*
X195622038Y-70902962D01*
X195756614Y-71013405D01*
X195910150Y-71095472D01*
X196076746Y-71146008D01*
X196250000Y-71163072D01*
X198550000Y-71163072D01*
X198723254Y-71146008D01*
X198889850Y-71095472D01*
X199043386Y-71013405D01*
X199177962Y-70902962D01*
X199288405Y-70768386D01*
X199340000Y-70671858D01*
X199340001Y-79328142D01*
X199288405Y-79231614D01*
X199177962Y-79097038D01*
X199043386Y-78986595D01*
X198889850Y-78904528D01*
X198723254Y-78853992D01*
X198550000Y-78836928D01*
X196250000Y-78836928D01*
X196076746Y-78853992D01*
X195910150Y-78904528D01*
X195756614Y-78986595D01*
X195622038Y-79097038D01*
X195511595Y-79231614D01*
X195429528Y-79385150D01*
X195378992Y-79551746D01*
X195361928Y-79725000D01*
X195361928Y-80225000D01*
X195378992Y-80398254D01*
X195429528Y-80564850D01*
X195511595Y-80718386D01*
X195622038Y-80852962D01*
X195756614Y-80963405D01*
X195910150Y-81045472D01*
X196076746Y-81096008D01*
X196250000Y-81113072D01*
X198550000Y-81113072D01*
X198723254Y-81096008D01*
X198889850Y-81045472D01*
X199043386Y-80963405D01*
X199177962Y-80852962D01*
X199288405Y-80718386D01*
X199340001Y-80621858D01*
X199340001Y-85861928D01*
X199139885Y-85861928D01*
X199123287Y-85841703D01*
X198446448Y-85286235D01*
X197674248Y-84873486D01*
X196836362Y-84619316D01*
X196183353Y-84555000D01*
X193841179Y-84555000D01*
X183045000Y-73758822D01*
X183045000Y-72481841D01*
X186871292Y-76308133D01*
X186903104Y-76346896D01*
X187057810Y-76473860D01*
X187234313Y-76568202D01*
X187367732Y-76608674D01*
X187425828Y-76626298D01*
X187445177Y-76628204D01*
X187575098Y-76641000D01*
X187575105Y-76641000D01*
X187624999Y-76645914D01*
X187674893Y-76641000D01*
X192570202Y-76641000D01*
X192561928Y-76725000D01*
X192561928Y-77025000D01*
X192577071Y-77178745D01*
X192621916Y-77326582D01*
X192694742Y-77462829D01*
X192725247Y-77500000D01*
X192694742Y-77537171D01*
X192621916Y-77673418D01*
X192577071Y-77821255D01*
X192561928Y-77975000D01*
X192561928Y-78275000D01*
X192577071Y-78428745D01*
X192621916Y-78576582D01*
X192694742Y-78712829D01*
X192792749Y-78832251D01*
X192912171Y-78930258D01*
X193048418Y-79003084D01*
X193196255Y-79047929D01*
X193350000Y-79063072D01*
X193649715Y-79063072D01*
X193659313Y-79068202D01*
X193850829Y-79126298D01*
X194050000Y-79145915D01*
X194249170Y-79126298D01*
X194440686Y-79068202D01*
X194450284Y-79063072D01*
X194750000Y-79063072D01*
X194903745Y-79047929D01*
X195051582Y-79003084D01*
X195187829Y-78930258D01*
X195307251Y-78832251D01*
X195405258Y-78712829D01*
X195478084Y-78576582D01*
X195522929Y-78428745D01*
X195538072Y-78275000D01*
X195538072Y-77975000D01*
X195522929Y-77821255D01*
X195478084Y-77673418D01*
X195405258Y-77537171D01*
X195374753Y-77500000D01*
X195405258Y-77462829D01*
X195478084Y-77326582D01*
X195522929Y-77178745D01*
X195538072Y-77025000D01*
X195538072Y-76725000D01*
X195522929Y-76571255D01*
X195478084Y-76423418D01*
X195405258Y-76287171D01*
X195374753Y-76250000D01*
X195405258Y-76212829D01*
X195478084Y-76076582D01*
X195522929Y-75928745D01*
X195538072Y-75775000D01*
X195538072Y-75475000D01*
X195522929Y-75321255D01*
X195478084Y-75173418D01*
X195412744Y-75051175D01*
X195430537Y-75029494D01*
X195489502Y-74919180D01*
X195525812Y-74799482D01*
X195538072Y-74675000D01*
X195535000Y-74660750D01*
X195376250Y-74502000D01*
X194177000Y-74502000D01*
X194177000Y-74522000D01*
X193923000Y-74522000D01*
X193923000Y-74502000D01*
X192723750Y-74502000D01*
X192616750Y-74609000D01*
X188045841Y-74609000D01*
X186861841Y-73425000D01*
X192561928Y-73425000D01*
X192574188Y-73549482D01*
X192610498Y-73669180D01*
X192653698Y-73750000D01*
X192610498Y-73830820D01*
X192574188Y-73950518D01*
X192561928Y-74075000D01*
X192565000Y-74089250D01*
X192723750Y-74248000D01*
X193923000Y-74248000D01*
X193923000Y-73252000D01*
X194177000Y-73252000D01*
X194177000Y-74248000D01*
X195376250Y-74248000D01*
X195535000Y-74089250D01*
X195538072Y-74075000D01*
X195525812Y-73950518D01*
X195489502Y-73830820D01*
X195446302Y-73750000D01*
X195489502Y-73669180D01*
X195525812Y-73549482D01*
X195538072Y-73425000D01*
X195535000Y-73410750D01*
X195376250Y-73252000D01*
X194177000Y-73252000D01*
X193923000Y-73252000D01*
X192723750Y-73252000D01*
X192565000Y-73410750D01*
X192561928Y-73425000D01*
X186861841Y-73425000D01*
X185611841Y-72175000D01*
X192561928Y-72175000D01*
X192574188Y-72299482D01*
X192610498Y-72419180D01*
X192653698Y-72500000D01*
X192610498Y-72580820D01*
X192574188Y-72700518D01*
X192561928Y-72825000D01*
X192565000Y-72839250D01*
X192723750Y-72998000D01*
X193923000Y-72998000D01*
X193923000Y-72002000D01*
X194177000Y-72002000D01*
X194177000Y-72998000D01*
X195376250Y-72998000D01*
X195535000Y-72839250D01*
X195538072Y-72825000D01*
X195525812Y-72700518D01*
X195489502Y-72580820D01*
X195446302Y-72500000D01*
X195489502Y-72419180D01*
X195525812Y-72299482D01*
X195538072Y-72175000D01*
X195535000Y-72160750D01*
X195376250Y-72002000D01*
X194177000Y-72002000D01*
X193923000Y-72002000D01*
X192723750Y-72002000D01*
X192565000Y-72160750D01*
X192561928Y-72175000D01*
X185611841Y-72175000D01*
X185011841Y-71575000D01*
X192561928Y-71575000D01*
X192565000Y-71589250D01*
X192723750Y-71748000D01*
X193923000Y-71748000D01*
X193923000Y-71098750D01*
X194177000Y-71098750D01*
X194177000Y-71748000D01*
X195376250Y-71748000D01*
X195535000Y-71589250D01*
X195538072Y-71575000D01*
X195525812Y-71450518D01*
X195489502Y-71330820D01*
X195430537Y-71220506D01*
X195351185Y-71123815D01*
X195254494Y-71044463D01*
X195144180Y-70985498D01*
X195024482Y-70949188D01*
X194900000Y-70936928D01*
X194335750Y-70940000D01*
X194177000Y-71098750D01*
X193923000Y-71098750D01*
X193764250Y-70940000D01*
X193200000Y-70936928D01*
X193075518Y-70949188D01*
X192955820Y-70985498D01*
X192845506Y-71044463D01*
X192748815Y-71123815D01*
X192669463Y-71220506D01*
X192610498Y-71330820D01*
X192574188Y-71450518D01*
X192561928Y-71575000D01*
X185011841Y-71575000D01*
X183045000Y-69608160D01*
X183045000Y-68618356D01*
X183066506Y-68400000D01*
X183045000Y-68181644D01*
X183045000Y-59460994D01*
X183046575Y-59445000D01*
X187816654Y-59445000D01*
X188035010Y-59466506D01*
X188253366Y-59445000D01*
X188253373Y-59445000D01*
X188906382Y-59380684D01*
X189744268Y-59126514D01*
X190516468Y-58713765D01*
X191193307Y-58158297D01*
X191332509Y-57988679D01*
X192297495Y-57023693D01*
X192713764Y-56516468D01*
X193126513Y-55744268D01*
X193380684Y-54906383D01*
X193466506Y-54035010D01*
X193380684Y-53163638D01*
X193126513Y-52325752D01*
X192713764Y-51553552D01*
X192158297Y-50876713D01*
X192138072Y-50860115D01*
X192138072Y-50660000D01*
X195754969Y-50660000D01*
X195530937Y-50884032D01*
G36*
X197127000Y-62419110D02*
G01*
X197127000Y-62580890D01*
X197014143Y-62693748D01*
X197000000Y-62679605D01*
X196985858Y-62693748D01*
X196873000Y-62580890D01*
X196873000Y-62419110D01*
X196985858Y-62306253D01*
X197000000Y-62320395D01*
X197014143Y-62306253D01*
X197127000Y-62419110D01*
X197127000Y-62419110D01*
G37*
X197127000Y-62419110D02*
X197127000Y-62580890D01*
X197014143Y-62693748D01*
X197000000Y-62679605D01*
X196985858Y-62693748D01*
X196873000Y-62580890D01*
X196873000Y-62419110D01*
X196985858Y-62306253D01*
X197000000Y-62320395D01*
X197014143Y-62306253D01*
X197127000Y-62419110D01*
G36*
X197147000Y-60939110D02*
G01*
X197147000Y-61060890D01*
X197014143Y-61193748D01*
X197000000Y-61179605D01*
X196985858Y-61193748D01*
X196806253Y-61014143D01*
X196820395Y-61000000D01*
X196806253Y-60985858D01*
X196985858Y-60806253D01*
X197000000Y-60820395D01*
X197014143Y-60806253D01*
X197147000Y-60939110D01*
X197147000Y-60939110D01*
G37*
X197147000Y-60939110D02*
X197147000Y-61060890D01*
X197014143Y-61193748D01*
X197000000Y-61179605D01*
X196985858Y-61193748D01*
X196806253Y-61014143D01*
X196820395Y-61000000D01*
X196806253Y-60985858D01*
X196985858Y-60806253D01*
X197000000Y-60820395D01*
X197014143Y-60806253D01*
X197147000Y-60939110D01*
G36*
X195693748Y-60985858D02*
G01*
X195679605Y-61000000D01*
X195693748Y-61014143D01*
X195580890Y-61127000D01*
X195419110Y-61127000D01*
X195306253Y-61014143D01*
X195320395Y-61000000D01*
X195306253Y-60985858D01*
X195419110Y-60873000D01*
X195580890Y-60873000D01*
X195693748Y-60985858D01*
X195693748Y-60985858D01*
G37*
X195693748Y-60985858D02*
X195679605Y-61000000D01*
X195693748Y-61014143D01*
X195580890Y-61127000D01*
X195419110Y-61127000D01*
X195306253Y-61014143D01*
X195320395Y-61000000D01*
X195306253Y-60985858D01*
X195419110Y-60873000D01*
X195580890Y-60873000D01*
X195693748Y-60985858D01*
G36*
X197127000Y-59419110D02*
G01*
X197127000Y-59580890D01*
X197014143Y-59693748D01*
X197000000Y-59679605D01*
X196985858Y-59693748D01*
X196873000Y-59580890D01*
X196873000Y-59419110D01*
X196985858Y-59306253D01*
X197000000Y-59320395D01*
X197014143Y-59306253D01*
X197127000Y-59419110D01*
X197127000Y-59419110D01*
G37*
X197127000Y-59419110D02*
X197127000Y-59580890D01*
X197014143Y-59693748D01*
X197000000Y-59679605D01*
X196985858Y-59693748D01*
X196873000Y-59580890D01*
X196873000Y-59419110D01*
X196985858Y-59306253D01*
X197000000Y-59320395D01*
X197014143Y-59306253D01*
X197127000Y-59419110D01*
G36*
X157865000Y-52714250D02*
G01*
X158023750Y-52873000D01*
X158468692Y-52873000D01*
X158466649Y-52882523D01*
X158463587Y-53086377D01*
X158471035Y-53127000D01*
X158023750Y-53127000D01*
X157865000Y-53285750D01*
X157861928Y-55500000D01*
X157874188Y-55624482D01*
X157910498Y-55744180D01*
X157969463Y-55854494D01*
X158048815Y-55951185D01*
X158145506Y-56030537D01*
X158255820Y-56089502D01*
X158375518Y-56125812D01*
X158500000Y-56138072D01*
X160714250Y-56135000D01*
X160873000Y-55976250D01*
X160873000Y-55531308D01*
X160882523Y-55533351D01*
X161086377Y-55536413D01*
X161127000Y-55528965D01*
X161127000Y-55976250D01*
X161285750Y-56135000D01*
X163500000Y-56138072D01*
X163624482Y-56125812D01*
X163744180Y-56089502D01*
X163854494Y-56030537D01*
X163951185Y-55951185D01*
X164030537Y-55854494D01*
X164089502Y-55744180D01*
X164125812Y-55624482D01*
X164138072Y-55500000D01*
X164135000Y-53285750D01*
X163976250Y-53127000D01*
X163531308Y-53127000D01*
X163533351Y-53117477D01*
X163536413Y-52913623D01*
X163528965Y-52873000D01*
X163976250Y-52873000D01*
X164135000Y-52714250D01*
X164135378Y-52441314D01*
X169020919Y-52441314D01*
X171400000Y-54820395D01*
X173779081Y-52441314D01*
X173442894Y-51972132D01*
X172812932Y-51631763D01*
X172128673Y-51420834D01*
X171416411Y-51347450D01*
X170703518Y-51414431D01*
X170017391Y-51619204D01*
X169384397Y-51953898D01*
X169357106Y-51972132D01*
X169020919Y-52441314D01*
X164135378Y-52441314D01*
X164137850Y-50660000D01*
X177594511Y-50660000D01*
X176890742Y-50873486D01*
X176118542Y-51286235D01*
X175441703Y-51841703D01*
X174886235Y-52518542D01*
X174541148Y-53164155D01*
X174446102Y-52984397D01*
X174427868Y-52957106D01*
X173958686Y-52620919D01*
X171579605Y-55000000D01*
X171593748Y-55014143D01*
X171414143Y-55193748D01*
X171400000Y-55179605D01*
X171385858Y-55193748D01*
X171206253Y-55014143D01*
X171220395Y-55000000D01*
X168841314Y-52620919D01*
X168372132Y-52957106D01*
X168031763Y-53587068D01*
X167820834Y-54271327D01*
X167747450Y-54983589D01*
X167814431Y-55696482D01*
X168019204Y-56382609D01*
X168353898Y-57015603D01*
X168372132Y-57042894D01*
X168841312Y-57379080D01*
X168727860Y-57492532D01*
X168800329Y-57565001D01*
X156856145Y-57565001D01*
X156516468Y-57286235D01*
X155744268Y-56873486D01*
X154906382Y-56619316D01*
X154035010Y-56533493D01*
X153163639Y-56619316D01*
X152325753Y-56873486D01*
X151553553Y-57286235D01*
X150876714Y-57841703D01*
X150860116Y-57861928D01*
X150660000Y-57861928D01*
X150660000Y-54245031D01*
X150884032Y-54469063D01*
X151299227Y-54746488D01*
X151760568Y-54937582D01*
X152250324Y-55035000D01*
X152749676Y-55035000D01*
X153239432Y-54937582D01*
X153700773Y-54746488D01*
X154115968Y-54469063D01*
X154469063Y-54115968D01*
X154746488Y-53700773D01*
X154937582Y-53239432D01*
X155035000Y-52749676D01*
X155035000Y-52250324D01*
X154937582Y-51760568D01*
X154746488Y-51299227D01*
X154469063Y-50884032D01*
X154245031Y-50660000D01*
X157862150Y-50660000D01*
X157865000Y-52714250D01*
X157865000Y-52714250D01*
G37*
X157865000Y-52714250D02*
X158023750Y-52873000D01*
X158468692Y-52873000D01*
X158466649Y-52882523D01*
X158463587Y-53086377D01*
X158471035Y-53127000D01*
X158023750Y-53127000D01*
X157865000Y-53285750D01*
X157861928Y-55500000D01*
X157874188Y-55624482D01*
X157910498Y-55744180D01*
X157969463Y-55854494D01*
X158048815Y-55951185D01*
X158145506Y-56030537D01*
X158255820Y-56089502D01*
X158375518Y-56125812D01*
X158500000Y-56138072D01*
X160714250Y-56135000D01*
X160873000Y-55976250D01*
X160873000Y-55531308D01*
X160882523Y-55533351D01*
X161086377Y-55536413D01*
X161127000Y-55528965D01*
X161127000Y-55976250D01*
X161285750Y-56135000D01*
X163500000Y-56138072D01*
X163624482Y-56125812D01*
X163744180Y-56089502D01*
X163854494Y-56030537D01*
X163951185Y-55951185D01*
X164030537Y-55854494D01*
X164089502Y-55744180D01*
X164125812Y-55624482D01*
X164138072Y-55500000D01*
X164135000Y-53285750D01*
X163976250Y-53127000D01*
X163531308Y-53127000D01*
X163533351Y-53117477D01*
X163536413Y-52913623D01*
X163528965Y-52873000D01*
X163976250Y-52873000D01*
X164135000Y-52714250D01*
X164135378Y-52441314D01*
X169020919Y-52441314D01*
X171400000Y-54820395D01*
X173779081Y-52441314D01*
X173442894Y-51972132D01*
X172812932Y-51631763D01*
X172128673Y-51420834D01*
X171416411Y-51347450D01*
X170703518Y-51414431D01*
X170017391Y-51619204D01*
X169384397Y-51953898D01*
X169357106Y-51972132D01*
X169020919Y-52441314D01*
X164135378Y-52441314D01*
X164137850Y-50660000D01*
X177594511Y-50660000D01*
X176890742Y-50873486D01*
X176118542Y-51286235D01*
X175441703Y-51841703D01*
X174886235Y-52518542D01*
X174541148Y-53164155D01*
X174446102Y-52984397D01*
X174427868Y-52957106D01*
X173958686Y-52620919D01*
X171579605Y-55000000D01*
X171593748Y-55014143D01*
X171414143Y-55193748D01*
X171400000Y-55179605D01*
X171385858Y-55193748D01*
X171206253Y-55014143D01*
X171220395Y-55000000D01*
X168841314Y-52620919D01*
X168372132Y-52957106D01*
X168031763Y-53587068D01*
X167820834Y-54271327D01*
X167747450Y-54983589D01*
X167814431Y-55696482D01*
X168019204Y-56382609D01*
X168353898Y-57015603D01*
X168372132Y-57042894D01*
X168841312Y-57379080D01*
X168727860Y-57492532D01*
X168800329Y-57565001D01*
X156856145Y-57565001D01*
X156516468Y-57286235D01*
X155744268Y-56873486D01*
X154906382Y-56619316D01*
X154035010Y-56533493D01*
X153163639Y-56619316D01*
X152325753Y-56873486D01*
X151553553Y-57286235D01*
X150876714Y-57841703D01*
X150860116Y-57861928D01*
X150660000Y-57861928D01*
X150660000Y-54245031D01*
X150884032Y-54469063D01*
X151299227Y-54746488D01*
X151760568Y-54937582D01*
X152250324Y-55035000D01*
X152749676Y-55035000D01*
X153239432Y-54937582D01*
X153700773Y-54746488D01*
X154115968Y-54469063D01*
X154469063Y-54115968D01*
X154746488Y-53700773D01*
X154937582Y-53239432D01*
X155035000Y-52749676D01*
X155035000Y-52250324D01*
X154937582Y-51760568D01*
X154746488Y-51299227D01*
X154469063Y-50884032D01*
X154245031Y-50660000D01*
X157862150Y-50660000D01*
X157865000Y-52714250D01*
G36*
X161127000Y-54419110D02*
G01*
X161127000Y-54580890D01*
X161014143Y-54693748D01*
X161000000Y-54679605D01*
X160985858Y-54693748D01*
X160873000Y-54580890D01*
X160873000Y-54419110D01*
X160985858Y-54306253D01*
X161000000Y-54320395D01*
X161014143Y-54306253D01*
X161127000Y-54419110D01*
X161127000Y-54419110D01*
G37*
X161127000Y-54419110D02*
X161127000Y-54580890D01*
X161014143Y-54693748D01*
X161000000Y-54679605D01*
X160985858Y-54693748D01*
X160873000Y-54580890D01*
X160873000Y-54419110D01*
X160985858Y-54306253D01*
X161000000Y-54320395D01*
X161014143Y-54306253D01*
X161127000Y-54419110D01*
G36*
X161193748Y-52985858D02*
G01*
X161179605Y-53000000D01*
X161193748Y-53014143D01*
X161014143Y-53193748D01*
X161000000Y-53179605D01*
X160985858Y-53193748D01*
X160806253Y-53014143D01*
X160820395Y-53000000D01*
X160806253Y-52985858D01*
X160939110Y-52853000D01*
X161060890Y-52853000D01*
X161193748Y-52985858D01*
X161193748Y-52985858D01*
G37*
X161193748Y-52985858D02*
X161179605Y-53000000D01*
X161193748Y-53014143D01*
X161014143Y-53193748D01*
X161000000Y-53179605D01*
X160985858Y-53193748D01*
X160806253Y-53014143D01*
X160820395Y-53000000D01*
X160806253Y-52985858D01*
X160939110Y-52853000D01*
X161060890Y-52853000D01*
X161193748Y-52985858D01*
G36*
X159693748Y-52985858D02*
G01*
X159679605Y-53000000D01*
X159693748Y-53014143D01*
X159580890Y-53127000D01*
X159419110Y-53127000D01*
X159306253Y-53014143D01*
X159320395Y-53000000D01*
X159306253Y-52985858D01*
X159419110Y-52873000D01*
X159580890Y-52873000D01*
X159693748Y-52985858D01*
X159693748Y-52985858D01*
G37*
X159693748Y-52985858D02*
X159679605Y-53000000D01*
X159693748Y-53014143D01*
X159580890Y-53127000D01*
X159419110Y-53127000D01*
X159306253Y-53014143D01*
X159320395Y-53000000D01*
X159306253Y-52985858D01*
X159419110Y-52873000D01*
X159580890Y-52873000D01*
X159693748Y-52985858D01*
G36*
X162693748Y-52985858D02*
G01*
X162679605Y-53000000D01*
X162693748Y-53014143D01*
X162580890Y-53127000D01*
X162419110Y-53127000D01*
X162306253Y-53014143D01*
X162320395Y-53000000D01*
X162306253Y-52985858D01*
X162419110Y-52873000D01*
X162580890Y-52873000D01*
X162693748Y-52985858D01*
X162693748Y-52985858D01*
G37*
X162693748Y-52985858D02*
X162679605Y-53000000D01*
X162693748Y-53014143D01*
X162580890Y-53127000D01*
X162419110Y-53127000D01*
X162306253Y-53014143D01*
X162320395Y-53000000D01*
X162306253Y-52985858D01*
X162419110Y-52873000D01*
X162580890Y-52873000D01*
X162693748Y-52985858D01*
M02*
