G04 #@! TF.GenerationSoftware,KiCad,Pcbnew,(5.1.4-0-10_14)*
G04 #@! TF.CreationDate,2021-01-04T23:19:36-07:00*
G04 #@! TF.ProjectId,Power,506f7765-722e-46b6-9963-61645f706362,rev?*
G04 #@! TF.SameCoordinates,Original*
G04 #@! TF.FileFunction,Legend,Top*
G04 #@! TF.FilePolarity,Positive*
%FSLAX46Y46*%
G04 Gerber Fmt 4.6, Leading zero omitted, Abs format (unit mm)*
G04 Created by KiCad (PCBNEW (5.1.4-0-10_14)) date 2021-01-04 23:19:36*
%MOMM*%
%LPD*%
G04 APERTURE LIST*
%ADD10C,0.150000*%
%ADD11C,0.120000*%
%ADD12C,0.300000*%
G04 APERTURE END LIST*
D10*
X152047619Y-64976190D02*
X151047619Y-65309523D01*
X152047619Y-65642857D01*
X151047619Y-66500000D02*
X151047619Y-65928571D01*
X151047619Y-66214285D02*
X152047619Y-66214285D01*
X151904761Y-66119047D01*
X151809523Y-66023809D01*
X151761904Y-65928571D01*
X151142857Y-66928571D02*
X151095238Y-66976190D01*
X151047619Y-66928571D01*
X151095238Y-66880952D01*
X151142857Y-66928571D01*
X151047619Y-66928571D01*
X152047619Y-67595238D02*
X152047619Y-67690476D01*
X152000000Y-67785714D01*
X151952380Y-67833333D01*
X151857142Y-67880952D01*
X151666666Y-67928571D01*
X151428571Y-67928571D01*
X151238095Y-67880952D01*
X151142857Y-67833333D01*
X151095238Y-67785714D01*
X151047619Y-67690476D01*
X151047619Y-67595238D01*
X151095238Y-67500000D01*
X151142857Y-67452380D01*
X151238095Y-67404761D01*
X151428571Y-67357142D01*
X151666666Y-67357142D01*
X151857142Y-67404761D01*
X151952380Y-67452380D01*
X152000000Y-67500000D01*
X152047619Y-67595238D01*
X191619047Y-73071428D02*
X192380952Y-73071428D01*
X191619047Y-77071428D02*
X192380952Y-77071428D01*
X192000000Y-77452380D02*
X192000000Y-76690476D01*
X157619047Y-73071428D02*
X158380952Y-73071428D01*
X157619047Y-77071428D02*
X158380952Y-77071428D01*
X158000000Y-77452380D02*
X158000000Y-76690476D01*
D11*
X151440000Y-70785000D02*
X151440000Y-79215000D01*
X155710000Y-80485000D02*
X155710000Y-78685000D01*
X154260000Y-80485000D02*
X155710000Y-80485000D01*
X155710000Y-71315000D02*
X156700000Y-71315000D01*
X155710000Y-69515000D02*
X155710000Y-71315000D01*
X154260000Y-69515000D02*
X155710000Y-69515000D01*
X198610000Y-70785000D02*
X198610000Y-79215000D01*
X194140000Y-80485000D02*
X194140000Y-78685000D01*
X195740000Y-80485000D02*
X194140000Y-80485000D01*
X194140000Y-71315000D02*
X193200000Y-71315000D01*
X194140000Y-69515000D02*
X194140000Y-71315000D01*
X195740000Y-69515000D02*
X194140000Y-69515000D01*
D12*
X157142857Y-61761904D02*
X157142857Y-60238095D01*
X157904761Y-61000000D02*
X156380952Y-61000000D01*
X160238095Y-57142857D02*
X161761904Y-57142857D01*
X160238095Y-93142857D02*
X161761904Y-93142857D01*
X161000000Y-93904761D02*
X161000000Y-92380952D01*
X156238095Y-89142857D02*
X157761904Y-89142857D01*
X193142857Y-89761904D02*
X193142857Y-88238095D01*
X193904761Y-89000000D02*
X192380952Y-89000000D01*
X188238095Y-93142857D02*
X189761904Y-93142857D01*
X188238095Y-57142857D02*
X189761904Y-57142857D01*
X189000000Y-57904761D02*
X189000000Y-56380952D01*
X192238095Y-61142857D02*
X193761904Y-61142857D01*
X178238095Y-92142857D02*
X179761904Y-92142857D01*
X179000000Y-92904761D02*
X179000000Y-91380952D01*
X170238095Y-92142857D02*
X171761904Y-92142857D01*
X170738095Y-60142857D02*
X172261904Y-60142857D01*
X171500000Y-60904761D02*
X171500000Y-59380952D01*
X177738095Y-60142857D02*
X179261904Y-60142857D01*
M02*
