M48
; DRILL file {KiCad (5.1.4-0-10_14)} date Monday, 04 January 2021 at 23:19:39
; FORMAT={-:-/ absolute / inch / decimal}
; #@! TF.CreationDate,2021-01-04T23:19:39-07:00
; #@! TF.GenerationSoftware,Kicad,Pcbnew,(5.1.4-0-10_14)
FMAT,2
INCH
T1C0.0157
T2C0.0866
T3C0.1772
%
G90
G05
T1
X6.0236Y-2.9528
X6.0236Y-3.3071
X6.1024Y-3.7008
X6.1417Y-2.126
X6.3386Y-2.7165
X6.4173Y-2.9134
X6.5354Y-2.2047
X6.5748Y-2.0472
X6.5748Y-3.5827
X6.6535Y-2.7165
X6.7717Y-3.2677
X6.7717Y-3.4646
X7.2441Y-3.5433
X7.2835Y-3.8189
X7.3228Y-2.4016
X7.3622Y-2.7559
X7.5591Y-2.5591
X7.5984Y-3.189
X7.6772Y-2.2047
X7.6772Y-3.7008
X7.7953Y-2.9528
X7.3819Y-2.0276
X7.3819Y-2.0866
X7.3819Y-2.1457
X7.4409Y-2.0276
X7.4409Y-2.0866
X7.4409Y-2.1457
X7.5Y-2.0276
X7.5Y-2.0866
X7.5Y-2.1457
X5.9646Y-3.4449
X5.9646Y-3.5039
X7.6969Y-2.4606
X7.7559Y-2.4016
X7.7559Y-2.4606
X7.815Y-2.3425
X7.815Y-2.4016
X5.9646Y-3.563
X7.6969Y-2.4016
X6.0236Y-3.4449
X6.0236Y-3.5039
X6.0236Y-3.563
X6.0827Y-3.4449
X6.0827Y-3.5039
X6.0827Y-3.563
X6.2795Y-3.7598
X6.2795Y-3.8189
X7.7559Y-2.3425
X6.2795Y-3.878
X6.3386Y-3.7598
X6.3386Y-3.8189
X6.3386Y-3.878
X6.3976Y-3.7598
X6.3976Y-3.8189
X6.3976Y-3.878
X7.6969Y-2.3425
X7.3819Y-3.7598
X7.815Y-2.4606
X5.9646Y-2.3425
X5.9646Y-2.4016
X5.9646Y-2.4606
X6.0236Y-2.3425
X6.0236Y-2.4016
X6.0236Y-2.4606
X6.0827Y-2.3425
X6.0827Y-2.4016
X6.0827Y-2.4606
X6.2795Y-2.0276
X6.2795Y-2.0866
X6.2795Y-2.1457
X6.3386Y-2.0276
X6.3386Y-2.0866
X6.3386Y-2.1457
X6.3976Y-2.0276
X6.3976Y-2.0866
X6.3976Y-2.1457
X7.3819Y-3.8189
X6.6732Y-3.7205
X6.6732Y-3.7795
X6.6732Y-3.8386
X6.7323Y-3.7205
X6.7323Y-3.7795
X6.7323Y-3.8386
X6.7913Y-3.7205
X6.7913Y-3.7795
X6.7913Y-3.8386
X6.9882Y-3.7205
X6.9882Y-3.7795
X6.9882Y-3.8386
X7.4409Y-3.8189
X7.3819Y-3.878
X7.4409Y-3.7598
X7.815Y-3.4449
X7.0472Y-3.7205
X7.0472Y-3.7795
X7.0472Y-3.8386
X7.1063Y-3.7205
X7.1063Y-3.7795
X7.1063Y-3.8386
X7.4409Y-3.878
X7.5Y-3.7598
X7.5Y-3.8189
X7.5Y-3.878
X7.6969Y-3.4449
X7.6969Y-3.5039
X7.6969Y-3.563
X7.7559Y-3.4449
X7.7559Y-3.5039
X7.7559Y-3.563
X7.815Y-3.5039
X7.815Y-3.563
T2
X7.7756Y-3.8386
X6.0039Y-3.8386
X7.7756Y-2.0669
X6.0039Y-2.0669
T3
X6.748Y-2.1654
X7.0315Y-2.1654
T0
M30
