G04 #@! TF.GenerationSoftware,KiCad,Pcbnew,(5.1.4-0-10_14)*
G04 #@! TF.CreationDate,2021-01-04T23:19:36-07:00*
G04 #@! TF.ProjectId,Power,506f7765-722e-46b6-9963-61645f706362,rev?*
G04 #@! TF.SameCoordinates,Original*
G04 #@! TF.FileFunction,Copper,L2,Bot*
G04 #@! TF.FilePolarity,Positive*
%FSLAX46Y46*%
G04 Gerber Fmt 4.6, Leading zero omitted, Abs format (unit mm)*
G04 Created by KiCad (PCBNEW (5.1.4-0-10_14)) date 2021-01-04 23:19:36*
%MOMM*%
%LPD*%
G04 APERTURE LIST*
%ADD10C,0.800000*%
%ADD11C,3.800000*%
%ADD12C,6.000000*%
%ADD13C,0.254000*%
G04 APERTURE END LIST*
D10*
X162500000Y-51500000D03*
X162500000Y-53000000D03*
X162500000Y-54500000D03*
X161000000Y-54500000D03*
X161000000Y-53000000D03*
X161000000Y-51500000D03*
X159500000Y-51500000D03*
X159500000Y-53000000D03*
X159500000Y-54500000D03*
X154500000Y-62500000D03*
X153000000Y-62500000D03*
X153000000Y-61000000D03*
X154500000Y-61000000D03*
X154500000Y-59500000D03*
X153000000Y-59500000D03*
X151500000Y-59500000D03*
X151500000Y-61000000D03*
X151500000Y-62500000D03*
X151500000Y-87500000D03*
X153000000Y-87500000D03*
X154500000Y-87500000D03*
X154500000Y-89000000D03*
X153000000Y-89000000D03*
X151500000Y-89000000D03*
X151500000Y-90500000D03*
X153000000Y-90500000D03*
X154500000Y-90500000D03*
X162500000Y-95500000D03*
X162500000Y-97000000D03*
X161000000Y-97000000D03*
X161000000Y-95500000D03*
X159500000Y-95500000D03*
X159500000Y-97000000D03*
X159500000Y-98500000D03*
X161000000Y-98500000D03*
X162500000Y-98500000D03*
X187500000Y-98500000D03*
X187500000Y-97000000D03*
X187500000Y-95500000D03*
X189000000Y-95500000D03*
X189000000Y-97000000D03*
X189000000Y-98500000D03*
X190500000Y-98500000D03*
X190500000Y-97000000D03*
X190500000Y-95500000D03*
X195500000Y-87500000D03*
X197000000Y-87500000D03*
X197000000Y-89000000D03*
X195500000Y-89000000D03*
X195500000Y-90500000D03*
X197000000Y-90500000D03*
X198500000Y-90500000D03*
X198500000Y-89000000D03*
X198500000Y-87500000D03*
X198500000Y-62500000D03*
X197000000Y-62500000D03*
X195500000Y-62500000D03*
X195500000Y-61000000D03*
X197000000Y-61000000D03*
X198500000Y-61000000D03*
X198500000Y-59500000D03*
X197000000Y-59500000D03*
X195500000Y-59500000D03*
X187500000Y-54500000D03*
X187500000Y-53000000D03*
X189000000Y-53000000D03*
X189000000Y-54500000D03*
X190500000Y-54500000D03*
X190500000Y-53000000D03*
X190500000Y-51500000D03*
X189000000Y-51500000D03*
X187500000Y-51500000D03*
D11*
X197500000Y-52500000D03*
X197500000Y-97500000D03*
X152500000Y-52500000D03*
X152500000Y-97500000D03*
D10*
X179000000Y-94500000D03*
X179000000Y-96000000D03*
X180500000Y-96000000D03*
X180500000Y-94500000D03*
X180500000Y-97500000D03*
X179000000Y-97500000D03*
X177500000Y-97500000D03*
X172500000Y-97500000D03*
X171000000Y-97500000D03*
X169500000Y-97500000D03*
X169500000Y-96000000D03*
X171000000Y-96000000D03*
X172500000Y-96000000D03*
X172500000Y-94500000D03*
X171000000Y-94500000D03*
X169500000Y-94500000D03*
X177500000Y-96000000D03*
X177500000Y-94500000D03*
D12*
X178600000Y-55000000D03*
X171400000Y-55000000D03*
D10*
X167000000Y-91000000D03*
X172000000Y-88000000D03*
X172000000Y-83000000D03*
X153000000Y-84000000D03*
X155000000Y-94000000D03*
X153000000Y-75000000D03*
X161000000Y-69000000D03*
X169000000Y-69000000D03*
X163000000Y-74000000D03*
X156000000Y-54000000D03*
X166000000Y-56000000D03*
X167000000Y-52000000D03*
X195000000Y-56000000D03*
X186000000Y-61000000D03*
X192000000Y-65000000D03*
X187000000Y-70000000D03*
X198000000Y-75000000D03*
X193000000Y-81000000D03*
X184000000Y-90000000D03*
X195000000Y-94000000D03*
X185000000Y-97000000D03*
D13*
G36*
X158973164Y-50793559D02*
G01*
X159500000Y-51320395D01*
X160026836Y-50793559D01*
X160011821Y-50660000D01*
X160488179Y-50660000D01*
X160473164Y-50793559D01*
X161000000Y-51320395D01*
X161526836Y-50793559D01*
X161511821Y-50660000D01*
X161988179Y-50660000D01*
X161973164Y-50793559D01*
X162500000Y-51320395D01*
X163026836Y-50793559D01*
X163011821Y-50660000D01*
X186894198Y-50660000D01*
X186840226Y-50696063D01*
X186696063Y-50840226D01*
X186582795Y-51009744D01*
X186504774Y-51198102D01*
X186465000Y-51398061D01*
X186465000Y-51601939D01*
X186504774Y-51801898D01*
X186582795Y-51990256D01*
X186696063Y-52159774D01*
X186786289Y-52250000D01*
X186696063Y-52340226D01*
X186582795Y-52509744D01*
X186504774Y-52698102D01*
X186465000Y-52898061D01*
X186465000Y-53101939D01*
X186504774Y-53301898D01*
X186582795Y-53490256D01*
X186696063Y-53659774D01*
X186786289Y-53750000D01*
X186696063Y-53840226D01*
X186582795Y-54009744D01*
X186504774Y-54198102D01*
X186465000Y-54398061D01*
X186465000Y-54601939D01*
X186504774Y-54801898D01*
X186582795Y-54990256D01*
X186696063Y-55159774D01*
X186840226Y-55303937D01*
X187009744Y-55417205D01*
X187198102Y-55495226D01*
X187398061Y-55535000D01*
X187601939Y-55535000D01*
X187801898Y-55495226D01*
X187990256Y-55417205D01*
X188159774Y-55303937D01*
X188250000Y-55213711D01*
X188340226Y-55303937D01*
X188509744Y-55417205D01*
X188698102Y-55495226D01*
X188898061Y-55535000D01*
X189101939Y-55535000D01*
X189301898Y-55495226D01*
X189490256Y-55417205D01*
X189659774Y-55303937D01*
X189750000Y-55213711D01*
X189840226Y-55303937D01*
X190009744Y-55417205D01*
X190198102Y-55495226D01*
X190398061Y-55535000D01*
X190601939Y-55535000D01*
X190801898Y-55495226D01*
X190990256Y-55417205D01*
X191159774Y-55303937D01*
X191303937Y-55159774D01*
X191417205Y-54990256D01*
X191495226Y-54801898D01*
X191535000Y-54601939D01*
X191535000Y-54398061D01*
X191495226Y-54198102D01*
X191417205Y-54009744D01*
X191303937Y-53840226D01*
X191213711Y-53750000D01*
X191303937Y-53659774D01*
X191417205Y-53490256D01*
X191495226Y-53301898D01*
X191535000Y-53101939D01*
X191535000Y-52898061D01*
X191495226Y-52698102D01*
X191417205Y-52509744D01*
X191303937Y-52340226D01*
X191213711Y-52250000D01*
X191303937Y-52159774D01*
X191417205Y-51990256D01*
X191495226Y-51801898D01*
X191535000Y-51601939D01*
X191535000Y-51398061D01*
X191495226Y-51198102D01*
X191417205Y-51009744D01*
X191303937Y-50840226D01*
X191159774Y-50696063D01*
X191105802Y-50660000D01*
X195754969Y-50660000D01*
X195530937Y-50884032D01*
X195253512Y-51299227D01*
X195062418Y-51760568D01*
X194965000Y-52250324D01*
X194965000Y-52749676D01*
X195062418Y-53239432D01*
X195253512Y-53700773D01*
X195530937Y-54115968D01*
X195884032Y-54469063D01*
X196299227Y-54746488D01*
X196760568Y-54937582D01*
X197250324Y-55035000D01*
X197749676Y-55035000D01*
X198239432Y-54937582D01*
X198700773Y-54746488D01*
X199115968Y-54469063D01*
X199340000Y-54245031D01*
X199340000Y-58988179D01*
X199206441Y-58973164D01*
X198679605Y-59500000D01*
X199206441Y-60026836D01*
X199340000Y-60011821D01*
X199340000Y-60488179D01*
X199206441Y-60473164D01*
X198679605Y-61000000D01*
X199206441Y-61526836D01*
X199340000Y-61511821D01*
X199340000Y-61988179D01*
X199206441Y-61973164D01*
X198679605Y-62500000D01*
X199206441Y-63026836D01*
X199340000Y-63011821D01*
X199340001Y-86894199D01*
X199303937Y-86840226D01*
X199159774Y-86696063D01*
X198990256Y-86582795D01*
X198801898Y-86504774D01*
X198601939Y-86465000D01*
X198398061Y-86465000D01*
X198198102Y-86504774D01*
X198009744Y-86582795D01*
X197840226Y-86696063D01*
X197750000Y-86786289D01*
X197659774Y-86696063D01*
X197490256Y-86582795D01*
X197301898Y-86504774D01*
X197101939Y-86465000D01*
X196898061Y-86465000D01*
X196698102Y-86504774D01*
X196509744Y-86582795D01*
X196340226Y-86696063D01*
X196250000Y-86786289D01*
X196159774Y-86696063D01*
X195990256Y-86582795D01*
X195801898Y-86504774D01*
X195601939Y-86465000D01*
X195398061Y-86465000D01*
X195198102Y-86504774D01*
X195009744Y-86582795D01*
X194840226Y-86696063D01*
X194696063Y-86840226D01*
X194582795Y-87009744D01*
X194504774Y-87198102D01*
X194465000Y-87398061D01*
X194465000Y-87601939D01*
X194504774Y-87801898D01*
X194582795Y-87990256D01*
X194696063Y-88159774D01*
X194786289Y-88250000D01*
X194696063Y-88340226D01*
X194582795Y-88509744D01*
X194504774Y-88698102D01*
X194465000Y-88898061D01*
X194465000Y-89101939D01*
X194504774Y-89301898D01*
X194582795Y-89490256D01*
X194696063Y-89659774D01*
X194786289Y-89750000D01*
X194696063Y-89840226D01*
X194582795Y-90009744D01*
X194504774Y-90198102D01*
X194465000Y-90398061D01*
X194465000Y-90601939D01*
X194504774Y-90801898D01*
X194582795Y-90990256D01*
X194696063Y-91159774D01*
X194840226Y-91303937D01*
X195009744Y-91417205D01*
X195198102Y-91495226D01*
X195398061Y-91535000D01*
X195601939Y-91535000D01*
X195801898Y-91495226D01*
X195990256Y-91417205D01*
X196159774Y-91303937D01*
X196250000Y-91213711D01*
X196340226Y-91303937D01*
X196509744Y-91417205D01*
X196698102Y-91495226D01*
X196898061Y-91535000D01*
X197101939Y-91535000D01*
X197301898Y-91495226D01*
X197490256Y-91417205D01*
X197659774Y-91303937D01*
X197750000Y-91213711D01*
X197840226Y-91303937D01*
X198009744Y-91417205D01*
X198198102Y-91495226D01*
X198398061Y-91535000D01*
X198601939Y-91535000D01*
X198801898Y-91495226D01*
X198990256Y-91417205D01*
X199159774Y-91303937D01*
X199303937Y-91159774D01*
X199340001Y-91105801D01*
X199340001Y-95754970D01*
X199115968Y-95530937D01*
X198700773Y-95253512D01*
X198239432Y-95062418D01*
X197749676Y-94965000D01*
X197250324Y-94965000D01*
X196760568Y-95062418D01*
X196299227Y-95253512D01*
X195884032Y-95530937D01*
X195530937Y-95884032D01*
X195253512Y-96299227D01*
X195062418Y-96760568D01*
X194965000Y-97250324D01*
X194965000Y-97749676D01*
X195062418Y-98239432D01*
X195253512Y-98700773D01*
X195530937Y-99115968D01*
X195754969Y-99340000D01*
X191011821Y-99340000D01*
X191026836Y-99206441D01*
X190500000Y-98679605D01*
X189973164Y-99206441D01*
X189988179Y-99340000D01*
X189511821Y-99340000D01*
X189526836Y-99206441D01*
X189000000Y-98679605D01*
X188473164Y-99206441D01*
X188488179Y-99340000D01*
X188011821Y-99340000D01*
X188026836Y-99206441D01*
X187500000Y-98679605D01*
X186973164Y-99206441D01*
X186988179Y-99340000D01*
X163105802Y-99340000D01*
X163159774Y-99303937D01*
X163303937Y-99159774D01*
X163417205Y-98990256D01*
X163495226Y-98801898D01*
X163535000Y-98601939D01*
X163535000Y-98586377D01*
X186463587Y-98586377D01*
X186500353Y-98786912D01*
X186575534Y-98976420D01*
X186590264Y-99003981D01*
X186793559Y-99026836D01*
X187320395Y-98500000D01*
X187679605Y-98500000D01*
X188022603Y-98842998D01*
X188075534Y-98976420D01*
X188090264Y-99003981D01*
X188195406Y-99015801D01*
X188206441Y-99026836D01*
X188250000Y-99021939D01*
X188293559Y-99026836D01*
X188304594Y-99015801D01*
X188409736Y-99003981D01*
X188480691Y-98839704D01*
X188820395Y-98500000D01*
X189179605Y-98500000D01*
X189522603Y-98842998D01*
X189575534Y-98976420D01*
X189590264Y-99003981D01*
X189695406Y-99015801D01*
X189706441Y-99026836D01*
X189750000Y-99021939D01*
X189793559Y-99026836D01*
X189804594Y-99015801D01*
X189909736Y-99003981D01*
X189980691Y-98839704D01*
X190320395Y-98500000D01*
X190679605Y-98500000D01*
X191206441Y-99026836D01*
X191409736Y-99003981D01*
X191490577Y-98816816D01*
X191533351Y-98617477D01*
X191536413Y-98413623D01*
X191499647Y-98213088D01*
X191424466Y-98023580D01*
X191409736Y-97996019D01*
X191206441Y-97973164D01*
X190679605Y-98500000D01*
X190320395Y-98500000D01*
X189977397Y-98157002D01*
X189924466Y-98023580D01*
X189909736Y-97996019D01*
X189804594Y-97984199D01*
X189793559Y-97973164D01*
X189750000Y-97978061D01*
X189706441Y-97973164D01*
X189695406Y-97984199D01*
X189590264Y-97996019D01*
X189519309Y-98160296D01*
X189179605Y-98500000D01*
X188820395Y-98500000D01*
X188477397Y-98157002D01*
X188424466Y-98023580D01*
X188409736Y-97996019D01*
X188304594Y-97984199D01*
X188293559Y-97973164D01*
X188250000Y-97978061D01*
X188206441Y-97973164D01*
X188195406Y-97984199D01*
X188090264Y-97996019D01*
X188019309Y-98160296D01*
X187679605Y-98500000D01*
X187320395Y-98500000D01*
X186793559Y-97973164D01*
X186590264Y-97996019D01*
X186509423Y-98183184D01*
X186466649Y-98382523D01*
X186463587Y-98586377D01*
X163535000Y-98586377D01*
X163535000Y-98398061D01*
X163496885Y-98206441D01*
X168973164Y-98206441D01*
X168996019Y-98409736D01*
X169183184Y-98490577D01*
X169382523Y-98533351D01*
X169586377Y-98536413D01*
X169786912Y-98499647D01*
X169976420Y-98424466D01*
X170003981Y-98409736D01*
X170026836Y-98206441D01*
X170473164Y-98206441D01*
X170496019Y-98409736D01*
X170683184Y-98490577D01*
X170882523Y-98533351D01*
X171086377Y-98536413D01*
X171286912Y-98499647D01*
X171476420Y-98424466D01*
X171503981Y-98409736D01*
X171526836Y-98206441D01*
X171973164Y-98206441D01*
X171996019Y-98409736D01*
X172183184Y-98490577D01*
X172382523Y-98533351D01*
X172586377Y-98536413D01*
X172786912Y-98499647D01*
X172976420Y-98424466D01*
X173003981Y-98409736D01*
X173026836Y-98206441D01*
X172500000Y-97679605D01*
X171973164Y-98206441D01*
X171526836Y-98206441D01*
X171000000Y-97679605D01*
X170473164Y-98206441D01*
X170026836Y-98206441D01*
X169500000Y-97679605D01*
X168973164Y-98206441D01*
X163496885Y-98206441D01*
X163495226Y-98198102D01*
X163417205Y-98009744D01*
X163303937Y-97840226D01*
X163213711Y-97750000D01*
X163303937Y-97659774D01*
X163352979Y-97586377D01*
X168463587Y-97586377D01*
X168500353Y-97786912D01*
X168575534Y-97976420D01*
X168590264Y-98003981D01*
X168793559Y-98026836D01*
X169320395Y-97500000D01*
X169679605Y-97500000D01*
X170022603Y-97842998D01*
X170075534Y-97976420D01*
X170090264Y-98003981D01*
X170195406Y-98015801D01*
X170206441Y-98026836D01*
X170250000Y-98021939D01*
X170293559Y-98026836D01*
X170304594Y-98015801D01*
X170409736Y-98003981D01*
X170480691Y-97839704D01*
X170820395Y-97500000D01*
X171179605Y-97500000D01*
X171522603Y-97842998D01*
X171575534Y-97976420D01*
X171590264Y-98003981D01*
X171695406Y-98015801D01*
X171706441Y-98026836D01*
X171750000Y-98021939D01*
X171793559Y-98026836D01*
X171804594Y-98015801D01*
X171909736Y-98003981D01*
X171980691Y-97839704D01*
X172320395Y-97500000D01*
X172679605Y-97500000D01*
X173206441Y-98026836D01*
X173409736Y-98003981D01*
X173490577Y-97816816D01*
X173533351Y-97617477D01*
X173536413Y-97413623D01*
X173499647Y-97213088D01*
X173424466Y-97023580D01*
X173409736Y-96996019D01*
X173206441Y-96973164D01*
X172679605Y-97500000D01*
X172320395Y-97500000D01*
X171977397Y-97157002D01*
X171924466Y-97023580D01*
X171909736Y-96996019D01*
X171804594Y-96984199D01*
X171793559Y-96973164D01*
X171750000Y-96978061D01*
X171706441Y-96973164D01*
X171695406Y-96984199D01*
X171590264Y-96996019D01*
X171519309Y-97160296D01*
X171179605Y-97500000D01*
X170820395Y-97500000D01*
X170477397Y-97157002D01*
X170424466Y-97023580D01*
X170409736Y-96996019D01*
X170304594Y-96984199D01*
X170293559Y-96973164D01*
X170250000Y-96978061D01*
X170206441Y-96973164D01*
X170195406Y-96984199D01*
X170090264Y-96996019D01*
X170019309Y-97160296D01*
X169679605Y-97500000D01*
X169320395Y-97500000D01*
X168793559Y-96973164D01*
X168590264Y-96996019D01*
X168509423Y-97183184D01*
X168466649Y-97382523D01*
X168463587Y-97586377D01*
X163352979Y-97586377D01*
X163417205Y-97490256D01*
X163495226Y-97301898D01*
X163535000Y-97101939D01*
X163535000Y-96898061D01*
X163496885Y-96706441D01*
X168973164Y-96706441D01*
X168978061Y-96750000D01*
X168973164Y-96793559D01*
X168984199Y-96804594D01*
X168996019Y-96909736D01*
X169160296Y-96980691D01*
X169500000Y-97320395D01*
X169842998Y-96977397D01*
X169976420Y-96924466D01*
X170003981Y-96909736D01*
X170015801Y-96804594D01*
X170026836Y-96793559D01*
X170021939Y-96750000D01*
X170026836Y-96706441D01*
X170473164Y-96706441D01*
X170478061Y-96750000D01*
X170473164Y-96793559D01*
X170484199Y-96804594D01*
X170496019Y-96909736D01*
X170660296Y-96980691D01*
X171000000Y-97320395D01*
X171342998Y-96977397D01*
X171476420Y-96924466D01*
X171503981Y-96909736D01*
X171515801Y-96804594D01*
X171526836Y-96793559D01*
X171521939Y-96750000D01*
X171526836Y-96706441D01*
X171973164Y-96706441D01*
X171978061Y-96750000D01*
X171973164Y-96793559D01*
X171984199Y-96804594D01*
X171996019Y-96909736D01*
X172160296Y-96980691D01*
X172500000Y-97320395D01*
X172842998Y-96977397D01*
X172976420Y-96924466D01*
X173003981Y-96909736D01*
X173015801Y-96804594D01*
X173026836Y-96793559D01*
X173021939Y-96750000D01*
X173026836Y-96706441D01*
X173015801Y-96695406D01*
X173003981Y-96590264D01*
X172839704Y-96519309D01*
X172500000Y-96179605D01*
X172157002Y-96522603D01*
X172023580Y-96575534D01*
X171996019Y-96590264D01*
X171984199Y-96695406D01*
X171973164Y-96706441D01*
X171526836Y-96706441D01*
X171515801Y-96695406D01*
X171503981Y-96590264D01*
X171339704Y-96519309D01*
X171000000Y-96179605D01*
X170657002Y-96522603D01*
X170523580Y-96575534D01*
X170496019Y-96590264D01*
X170484199Y-96695406D01*
X170473164Y-96706441D01*
X170026836Y-96706441D01*
X170015801Y-96695406D01*
X170003981Y-96590264D01*
X169839704Y-96519309D01*
X169500000Y-96179605D01*
X169157002Y-96522603D01*
X169023580Y-96575534D01*
X168996019Y-96590264D01*
X168984199Y-96695406D01*
X168973164Y-96706441D01*
X163496885Y-96706441D01*
X163495226Y-96698102D01*
X163417205Y-96509744D01*
X163303937Y-96340226D01*
X163213711Y-96250000D01*
X163303937Y-96159774D01*
X163352979Y-96086377D01*
X168463587Y-96086377D01*
X168500353Y-96286912D01*
X168575534Y-96476420D01*
X168590264Y-96503981D01*
X168793559Y-96526836D01*
X169320395Y-96000000D01*
X169679605Y-96000000D01*
X170022603Y-96342998D01*
X170075534Y-96476420D01*
X170090264Y-96503981D01*
X170195406Y-96515801D01*
X170206441Y-96526836D01*
X170250000Y-96521939D01*
X170293559Y-96526836D01*
X170304594Y-96515801D01*
X170409736Y-96503981D01*
X170480691Y-96339704D01*
X170820395Y-96000000D01*
X171179605Y-96000000D01*
X171522603Y-96342998D01*
X171575534Y-96476420D01*
X171590264Y-96503981D01*
X171695406Y-96515801D01*
X171706441Y-96526836D01*
X171750000Y-96521939D01*
X171793559Y-96526836D01*
X171804594Y-96515801D01*
X171909736Y-96503981D01*
X171980691Y-96339704D01*
X172320395Y-96000000D01*
X172679605Y-96000000D01*
X173206441Y-96526836D01*
X173409736Y-96503981D01*
X173490577Y-96316816D01*
X173533351Y-96117477D01*
X173536413Y-95913623D01*
X173499647Y-95713088D01*
X173424466Y-95523580D01*
X173409736Y-95496019D01*
X173206441Y-95473164D01*
X172679605Y-96000000D01*
X172320395Y-96000000D01*
X171977397Y-95657002D01*
X171924466Y-95523580D01*
X171909736Y-95496019D01*
X171804594Y-95484199D01*
X171793559Y-95473164D01*
X171750000Y-95478061D01*
X171706441Y-95473164D01*
X171695406Y-95484199D01*
X171590264Y-95496019D01*
X171519309Y-95660296D01*
X171179605Y-96000000D01*
X170820395Y-96000000D01*
X170477397Y-95657002D01*
X170424466Y-95523580D01*
X170409736Y-95496019D01*
X170304594Y-95484199D01*
X170293559Y-95473164D01*
X170250000Y-95478061D01*
X170206441Y-95473164D01*
X170195406Y-95484199D01*
X170090264Y-95496019D01*
X170019309Y-95660296D01*
X169679605Y-96000000D01*
X169320395Y-96000000D01*
X168793559Y-95473164D01*
X168590264Y-95496019D01*
X168509423Y-95683184D01*
X168466649Y-95882523D01*
X168463587Y-96086377D01*
X163352979Y-96086377D01*
X163417205Y-95990256D01*
X163495226Y-95801898D01*
X163535000Y-95601939D01*
X163535000Y-95398061D01*
X163496885Y-95206441D01*
X168973164Y-95206441D01*
X168978061Y-95250000D01*
X168973164Y-95293559D01*
X168984199Y-95304594D01*
X168996019Y-95409736D01*
X169160296Y-95480691D01*
X169500000Y-95820395D01*
X169842998Y-95477397D01*
X169976420Y-95424466D01*
X170003981Y-95409736D01*
X170015801Y-95304594D01*
X170026836Y-95293559D01*
X170021939Y-95250000D01*
X170026836Y-95206441D01*
X170473164Y-95206441D01*
X170478061Y-95250000D01*
X170473164Y-95293559D01*
X170484199Y-95304594D01*
X170496019Y-95409736D01*
X170660296Y-95480691D01*
X171000000Y-95820395D01*
X171342998Y-95477397D01*
X171476420Y-95424466D01*
X171503981Y-95409736D01*
X171515801Y-95304594D01*
X171526836Y-95293559D01*
X171521939Y-95250000D01*
X171526836Y-95206441D01*
X171973164Y-95206441D01*
X171978061Y-95250000D01*
X171973164Y-95293559D01*
X171984199Y-95304594D01*
X171996019Y-95409736D01*
X172160296Y-95480691D01*
X172500000Y-95820395D01*
X172842998Y-95477397D01*
X172976420Y-95424466D01*
X173003981Y-95409736D01*
X173015801Y-95304594D01*
X173026836Y-95293559D01*
X173021939Y-95250000D01*
X173026836Y-95206441D01*
X173015801Y-95195406D01*
X173003981Y-95090264D01*
X172839704Y-95019309D01*
X172500000Y-94679605D01*
X172157002Y-95022603D01*
X172023580Y-95075534D01*
X171996019Y-95090264D01*
X171984199Y-95195406D01*
X171973164Y-95206441D01*
X171526836Y-95206441D01*
X171515801Y-95195406D01*
X171503981Y-95090264D01*
X171339704Y-95019309D01*
X171000000Y-94679605D01*
X170657002Y-95022603D01*
X170523580Y-95075534D01*
X170496019Y-95090264D01*
X170484199Y-95195406D01*
X170473164Y-95206441D01*
X170026836Y-95206441D01*
X170015801Y-95195406D01*
X170003981Y-95090264D01*
X169839704Y-95019309D01*
X169500000Y-94679605D01*
X169157002Y-95022603D01*
X169023580Y-95075534D01*
X168996019Y-95090264D01*
X168984199Y-95195406D01*
X168973164Y-95206441D01*
X163496885Y-95206441D01*
X163495226Y-95198102D01*
X163417205Y-95009744D01*
X163303937Y-94840226D01*
X163159774Y-94696063D01*
X162995617Y-94586377D01*
X168463587Y-94586377D01*
X168500353Y-94786912D01*
X168575534Y-94976420D01*
X168590264Y-95003981D01*
X168793559Y-95026836D01*
X169320395Y-94500000D01*
X169679605Y-94500000D01*
X170022603Y-94842998D01*
X170075534Y-94976420D01*
X170090264Y-95003981D01*
X170195406Y-95015801D01*
X170206441Y-95026836D01*
X170250000Y-95021939D01*
X170293559Y-95026836D01*
X170304594Y-95015801D01*
X170409736Y-95003981D01*
X170480691Y-94839704D01*
X170820395Y-94500000D01*
X171179605Y-94500000D01*
X171522603Y-94842998D01*
X171575534Y-94976420D01*
X171590264Y-95003981D01*
X171695406Y-95015801D01*
X171706441Y-95026836D01*
X171750000Y-95021939D01*
X171793559Y-95026836D01*
X171804594Y-95015801D01*
X171909736Y-95003981D01*
X171980691Y-94839704D01*
X172320395Y-94500000D01*
X172679605Y-94500000D01*
X173206441Y-95026836D01*
X173409736Y-95003981D01*
X173490577Y-94816816D01*
X173533351Y-94617477D01*
X173536413Y-94413623D01*
X173533560Y-94398061D01*
X176465000Y-94398061D01*
X176465000Y-94601939D01*
X176504774Y-94801898D01*
X176582795Y-94990256D01*
X176696063Y-95159774D01*
X176786289Y-95250000D01*
X176696063Y-95340226D01*
X176582795Y-95509744D01*
X176504774Y-95698102D01*
X176465000Y-95898061D01*
X176465000Y-96101939D01*
X176504774Y-96301898D01*
X176582795Y-96490256D01*
X176696063Y-96659774D01*
X176786289Y-96750000D01*
X176696063Y-96840226D01*
X176582795Y-97009744D01*
X176504774Y-97198102D01*
X176465000Y-97398061D01*
X176465000Y-97601939D01*
X176504774Y-97801898D01*
X176582795Y-97990256D01*
X176696063Y-98159774D01*
X176840226Y-98303937D01*
X177009744Y-98417205D01*
X177198102Y-98495226D01*
X177398061Y-98535000D01*
X177601939Y-98535000D01*
X177801898Y-98495226D01*
X177990256Y-98417205D01*
X178159774Y-98303937D01*
X178250000Y-98213711D01*
X178340226Y-98303937D01*
X178509744Y-98417205D01*
X178698102Y-98495226D01*
X178898061Y-98535000D01*
X179101939Y-98535000D01*
X179301898Y-98495226D01*
X179490256Y-98417205D01*
X179659774Y-98303937D01*
X179750000Y-98213711D01*
X179840226Y-98303937D01*
X180009744Y-98417205D01*
X180198102Y-98495226D01*
X180398061Y-98535000D01*
X180601939Y-98535000D01*
X180801898Y-98495226D01*
X180990256Y-98417205D01*
X181159774Y-98303937D01*
X181303937Y-98159774D01*
X181417205Y-97990256D01*
X181495226Y-97801898D01*
X181514213Y-97706441D01*
X186973164Y-97706441D01*
X186978061Y-97750000D01*
X186973164Y-97793559D01*
X186984199Y-97804594D01*
X186996019Y-97909736D01*
X187160296Y-97980691D01*
X187500000Y-98320395D01*
X187842998Y-97977397D01*
X187976420Y-97924466D01*
X188003981Y-97909736D01*
X188015801Y-97804594D01*
X188026836Y-97793559D01*
X188021939Y-97750000D01*
X188026836Y-97706441D01*
X188473164Y-97706441D01*
X188478061Y-97750000D01*
X188473164Y-97793559D01*
X188484199Y-97804594D01*
X188496019Y-97909736D01*
X188660296Y-97980691D01*
X189000000Y-98320395D01*
X189342998Y-97977397D01*
X189476420Y-97924466D01*
X189503981Y-97909736D01*
X189515801Y-97804594D01*
X189526836Y-97793559D01*
X189521939Y-97750000D01*
X189526836Y-97706441D01*
X189973164Y-97706441D01*
X189978061Y-97750000D01*
X189973164Y-97793559D01*
X189984199Y-97804594D01*
X189996019Y-97909736D01*
X190160296Y-97980691D01*
X190500000Y-98320395D01*
X190842998Y-97977397D01*
X190976420Y-97924466D01*
X191003981Y-97909736D01*
X191015801Y-97804594D01*
X191026836Y-97793559D01*
X191021939Y-97750000D01*
X191026836Y-97706441D01*
X191015801Y-97695406D01*
X191003981Y-97590264D01*
X190839704Y-97519309D01*
X190500000Y-97179605D01*
X190157002Y-97522603D01*
X190023580Y-97575534D01*
X189996019Y-97590264D01*
X189984199Y-97695406D01*
X189973164Y-97706441D01*
X189526836Y-97706441D01*
X189515801Y-97695406D01*
X189503981Y-97590264D01*
X189339704Y-97519309D01*
X189000000Y-97179605D01*
X188657002Y-97522603D01*
X188523580Y-97575534D01*
X188496019Y-97590264D01*
X188484199Y-97695406D01*
X188473164Y-97706441D01*
X188026836Y-97706441D01*
X188015801Y-97695406D01*
X188003981Y-97590264D01*
X187839704Y-97519309D01*
X187500000Y-97179605D01*
X187157002Y-97522603D01*
X187023580Y-97575534D01*
X186996019Y-97590264D01*
X186984199Y-97695406D01*
X186973164Y-97706441D01*
X181514213Y-97706441D01*
X181535000Y-97601939D01*
X181535000Y-97398061D01*
X181495226Y-97198102D01*
X181448948Y-97086377D01*
X186463587Y-97086377D01*
X186500353Y-97286912D01*
X186575534Y-97476420D01*
X186590264Y-97503981D01*
X186793559Y-97526836D01*
X187320395Y-97000000D01*
X187679605Y-97000000D01*
X188022603Y-97342998D01*
X188075534Y-97476420D01*
X188090264Y-97503981D01*
X188195406Y-97515801D01*
X188206441Y-97526836D01*
X188250000Y-97521939D01*
X188293559Y-97526836D01*
X188304594Y-97515801D01*
X188409736Y-97503981D01*
X188480691Y-97339704D01*
X188820395Y-97000000D01*
X189179605Y-97000000D01*
X189522603Y-97342998D01*
X189575534Y-97476420D01*
X189590264Y-97503981D01*
X189695406Y-97515801D01*
X189706441Y-97526836D01*
X189750000Y-97521939D01*
X189793559Y-97526836D01*
X189804594Y-97515801D01*
X189909736Y-97503981D01*
X189980691Y-97339704D01*
X190320395Y-97000000D01*
X190679605Y-97000000D01*
X191206441Y-97526836D01*
X191409736Y-97503981D01*
X191490577Y-97316816D01*
X191533351Y-97117477D01*
X191536413Y-96913623D01*
X191499647Y-96713088D01*
X191424466Y-96523580D01*
X191409736Y-96496019D01*
X191206441Y-96473164D01*
X190679605Y-97000000D01*
X190320395Y-97000000D01*
X189977397Y-96657002D01*
X189924466Y-96523580D01*
X189909736Y-96496019D01*
X189804594Y-96484199D01*
X189793559Y-96473164D01*
X189750000Y-96478061D01*
X189706441Y-96473164D01*
X189695406Y-96484199D01*
X189590264Y-96496019D01*
X189519309Y-96660296D01*
X189179605Y-97000000D01*
X188820395Y-97000000D01*
X188477397Y-96657002D01*
X188424466Y-96523580D01*
X188409736Y-96496019D01*
X188304594Y-96484199D01*
X188293559Y-96473164D01*
X188250000Y-96478061D01*
X188206441Y-96473164D01*
X188195406Y-96484199D01*
X188090264Y-96496019D01*
X188019309Y-96660296D01*
X187679605Y-97000000D01*
X187320395Y-97000000D01*
X186793559Y-96473164D01*
X186590264Y-96496019D01*
X186509423Y-96683184D01*
X186466649Y-96882523D01*
X186463587Y-97086377D01*
X181448948Y-97086377D01*
X181417205Y-97009744D01*
X181303937Y-96840226D01*
X181213711Y-96750000D01*
X181303937Y-96659774D01*
X181417205Y-96490256D01*
X181495226Y-96301898D01*
X181514213Y-96206441D01*
X186973164Y-96206441D01*
X186978061Y-96250000D01*
X186973164Y-96293559D01*
X186984199Y-96304594D01*
X186996019Y-96409736D01*
X187160296Y-96480691D01*
X187500000Y-96820395D01*
X187842998Y-96477397D01*
X187976420Y-96424466D01*
X188003981Y-96409736D01*
X188015801Y-96304594D01*
X188026836Y-96293559D01*
X188021939Y-96250000D01*
X188026836Y-96206441D01*
X188473164Y-96206441D01*
X188478061Y-96250000D01*
X188473164Y-96293559D01*
X188484199Y-96304594D01*
X188496019Y-96409736D01*
X188660296Y-96480691D01*
X189000000Y-96820395D01*
X189342998Y-96477397D01*
X189476420Y-96424466D01*
X189503981Y-96409736D01*
X189515801Y-96304594D01*
X189526836Y-96293559D01*
X189521939Y-96250000D01*
X189526836Y-96206441D01*
X189973164Y-96206441D01*
X189978061Y-96250000D01*
X189973164Y-96293559D01*
X189984199Y-96304594D01*
X189996019Y-96409736D01*
X190160296Y-96480691D01*
X190500000Y-96820395D01*
X190842998Y-96477397D01*
X190976420Y-96424466D01*
X191003981Y-96409736D01*
X191015801Y-96304594D01*
X191026836Y-96293559D01*
X191021939Y-96250000D01*
X191026836Y-96206441D01*
X191015801Y-96195406D01*
X191003981Y-96090264D01*
X190839704Y-96019309D01*
X190500000Y-95679605D01*
X190157002Y-96022603D01*
X190023580Y-96075534D01*
X189996019Y-96090264D01*
X189984199Y-96195406D01*
X189973164Y-96206441D01*
X189526836Y-96206441D01*
X189515801Y-96195406D01*
X189503981Y-96090264D01*
X189339704Y-96019309D01*
X189000000Y-95679605D01*
X188657002Y-96022603D01*
X188523580Y-96075534D01*
X188496019Y-96090264D01*
X188484199Y-96195406D01*
X188473164Y-96206441D01*
X188026836Y-96206441D01*
X188015801Y-96195406D01*
X188003981Y-96090264D01*
X187839704Y-96019309D01*
X187500000Y-95679605D01*
X187157002Y-96022603D01*
X187023580Y-96075534D01*
X186996019Y-96090264D01*
X186984199Y-96195406D01*
X186973164Y-96206441D01*
X181514213Y-96206441D01*
X181535000Y-96101939D01*
X181535000Y-95898061D01*
X181495226Y-95698102D01*
X181448948Y-95586377D01*
X186463587Y-95586377D01*
X186500353Y-95786912D01*
X186575534Y-95976420D01*
X186590264Y-96003981D01*
X186793559Y-96026836D01*
X187320395Y-95500000D01*
X187679605Y-95500000D01*
X188022603Y-95842998D01*
X188075534Y-95976420D01*
X188090264Y-96003981D01*
X188195406Y-96015801D01*
X188206441Y-96026836D01*
X188250000Y-96021939D01*
X188293559Y-96026836D01*
X188304594Y-96015801D01*
X188409736Y-96003981D01*
X188480691Y-95839704D01*
X188820395Y-95500000D01*
X189179605Y-95500000D01*
X189522603Y-95842998D01*
X189575534Y-95976420D01*
X189590264Y-96003981D01*
X189695406Y-96015801D01*
X189706441Y-96026836D01*
X189750000Y-96021939D01*
X189793559Y-96026836D01*
X189804594Y-96015801D01*
X189909736Y-96003981D01*
X189980691Y-95839704D01*
X190320395Y-95500000D01*
X190679605Y-95500000D01*
X191206441Y-96026836D01*
X191409736Y-96003981D01*
X191490577Y-95816816D01*
X191533351Y-95617477D01*
X191536413Y-95413623D01*
X191499647Y-95213088D01*
X191424466Y-95023580D01*
X191409736Y-94996019D01*
X191206441Y-94973164D01*
X190679605Y-95500000D01*
X190320395Y-95500000D01*
X189977397Y-95157002D01*
X189924466Y-95023580D01*
X189909736Y-94996019D01*
X189804594Y-94984199D01*
X189793559Y-94973164D01*
X189750000Y-94978061D01*
X189706441Y-94973164D01*
X189695406Y-94984199D01*
X189590264Y-94996019D01*
X189519309Y-95160296D01*
X189179605Y-95500000D01*
X188820395Y-95500000D01*
X188477397Y-95157002D01*
X188424466Y-95023580D01*
X188409736Y-94996019D01*
X188304594Y-94984199D01*
X188293559Y-94973164D01*
X188250000Y-94978061D01*
X188206441Y-94973164D01*
X188195406Y-94984199D01*
X188090264Y-94996019D01*
X188019309Y-95160296D01*
X187679605Y-95500000D01*
X187320395Y-95500000D01*
X186793559Y-94973164D01*
X186590264Y-94996019D01*
X186509423Y-95183184D01*
X186466649Y-95382523D01*
X186463587Y-95586377D01*
X181448948Y-95586377D01*
X181417205Y-95509744D01*
X181303937Y-95340226D01*
X181213711Y-95250000D01*
X181303937Y-95159774D01*
X181417205Y-94990256D01*
X181495226Y-94801898D01*
X181496884Y-94793559D01*
X186973164Y-94793559D01*
X187500000Y-95320395D01*
X188026836Y-94793559D01*
X188473164Y-94793559D01*
X189000000Y-95320395D01*
X189526836Y-94793559D01*
X189973164Y-94793559D01*
X190500000Y-95320395D01*
X191026836Y-94793559D01*
X191003981Y-94590264D01*
X190816816Y-94509423D01*
X190617477Y-94466649D01*
X190413623Y-94463587D01*
X190213088Y-94500353D01*
X190023580Y-94575534D01*
X189996019Y-94590264D01*
X189973164Y-94793559D01*
X189526836Y-94793559D01*
X189503981Y-94590264D01*
X189316816Y-94509423D01*
X189117477Y-94466649D01*
X188913623Y-94463587D01*
X188713088Y-94500353D01*
X188523580Y-94575534D01*
X188496019Y-94590264D01*
X188473164Y-94793559D01*
X188026836Y-94793559D01*
X188003981Y-94590264D01*
X187816816Y-94509423D01*
X187617477Y-94466649D01*
X187413623Y-94463587D01*
X187213088Y-94500353D01*
X187023580Y-94575534D01*
X186996019Y-94590264D01*
X186973164Y-94793559D01*
X181496884Y-94793559D01*
X181535000Y-94601939D01*
X181535000Y-94398061D01*
X181495226Y-94198102D01*
X181417205Y-94009744D01*
X181303937Y-93840226D01*
X181159774Y-93696063D01*
X180990256Y-93582795D01*
X180801898Y-93504774D01*
X180601939Y-93465000D01*
X180398061Y-93465000D01*
X180198102Y-93504774D01*
X180009744Y-93582795D01*
X179840226Y-93696063D01*
X179750000Y-93786289D01*
X179659774Y-93696063D01*
X179490256Y-93582795D01*
X179301898Y-93504774D01*
X179101939Y-93465000D01*
X178898061Y-93465000D01*
X178698102Y-93504774D01*
X178509744Y-93582795D01*
X178340226Y-93696063D01*
X178250000Y-93786289D01*
X178159774Y-93696063D01*
X177990256Y-93582795D01*
X177801898Y-93504774D01*
X177601939Y-93465000D01*
X177398061Y-93465000D01*
X177198102Y-93504774D01*
X177009744Y-93582795D01*
X176840226Y-93696063D01*
X176696063Y-93840226D01*
X176582795Y-94009744D01*
X176504774Y-94198102D01*
X176465000Y-94398061D01*
X173533560Y-94398061D01*
X173499647Y-94213088D01*
X173424466Y-94023580D01*
X173409736Y-93996019D01*
X173206441Y-93973164D01*
X172679605Y-94500000D01*
X172320395Y-94500000D01*
X171977397Y-94157002D01*
X171924466Y-94023580D01*
X171909736Y-93996019D01*
X171804594Y-93984199D01*
X171793559Y-93973164D01*
X171750000Y-93978061D01*
X171706441Y-93973164D01*
X171695406Y-93984199D01*
X171590264Y-93996019D01*
X171519309Y-94160296D01*
X171179605Y-94500000D01*
X170820395Y-94500000D01*
X170477397Y-94157002D01*
X170424466Y-94023580D01*
X170409736Y-93996019D01*
X170304594Y-93984199D01*
X170293559Y-93973164D01*
X170250000Y-93978061D01*
X170206441Y-93973164D01*
X170195406Y-93984199D01*
X170090264Y-93996019D01*
X170019309Y-94160296D01*
X169679605Y-94500000D01*
X169320395Y-94500000D01*
X168793559Y-93973164D01*
X168590264Y-93996019D01*
X168509423Y-94183184D01*
X168466649Y-94382523D01*
X168463587Y-94586377D01*
X162995617Y-94586377D01*
X162990256Y-94582795D01*
X162801898Y-94504774D01*
X162601939Y-94465000D01*
X162398061Y-94465000D01*
X162198102Y-94504774D01*
X162009744Y-94582795D01*
X161840226Y-94696063D01*
X161750000Y-94786289D01*
X161659774Y-94696063D01*
X161490256Y-94582795D01*
X161301898Y-94504774D01*
X161101939Y-94465000D01*
X160898061Y-94465000D01*
X160698102Y-94504774D01*
X160509744Y-94582795D01*
X160340226Y-94696063D01*
X160250000Y-94786289D01*
X160159774Y-94696063D01*
X159990256Y-94582795D01*
X159801898Y-94504774D01*
X159601939Y-94465000D01*
X159398061Y-94465000D01*
X159198102Y-94504774D01*
X159009744Y-94582795D01*
X158840226Y-94696063D01*
X158696063Y-94840226D01*
X158582795Y-95009744D01*
X158504774Y-95198102D01*
X158465000Y-95398061D01*
X158465000Y-95601939D01*
X158504774Y-95801898D01*
X158582795Y-95990256D01*
X158696063Y-96159774D01*
X158786289Y-96250000D01*
X158696063Y-96340226D01*
X158582795Y-96509744D01*
X158504774Y-96698102D01*
X158465000Y-96898061D01*
X158465000Y-97101939D01*
X158504774Y-97301898D01*
X158582795Y-97490256D01*
X158696063Y-97659774D01*
X158786289Y-97750000D01*
X158696063Y-97840226D01*
X158582795Y-98009744D01*
X158504774Y-98198102D01*
X158465000Y-98398061D01*
X158465000Y-98601939D01*
X158504774Y-98801898D01*
X158582795Y-98990256D01*
X158696063Y-99159774D01*
X158840226Y-99303937D01*
X158894198Y-99340000D01*
X154245031Y-99340000D01*
X154469063Y-99115968D01*
X154746488Y-98700773D01*
X154937582Y-98239432D01*
X155035000Y-97749676D01*
X155035000Y-97250324D01*
X154937582Y-96760568D01*
X154746488Y-96299227D01*
X154469063Y-95884032D01*
X154115968Y-95530937D01*
X153700773Y-95253512D01*
X153239432Y-95062418D01*
X152749676Y-94965000D01*
X152250324Y-94965000D01*
X151760568Y-95062418D01*
X151299227Y-95253512D01*
X150884032Y-95530937D01*
X150660000Y-95754969D01*
X150660000Y-93793559D01*
X168973164Y-93793559D01*
X169500000Y-94320395D01*
X170026836Y-93793559D01*
X170473164Y-93793559D01*
X171000000Y-94320395D01*
X171526836Y-93793559D01*
X171973164Y-93793559D01*
X172500000Y-94320395D01*
X173026836Y-93793559D01*
X173003981Y-93590264D01*
X172816816Y-93509423D01*
X172617477Y-93466649D01*
X172413623Y-93463587D01*
X172213088Y-93500353D01*
X172023580Y-93575534D01*
X171996019Y-93590264D01*
X171973164Y-93793559D01*
X171526836Y-93793559D01*
X171503981Y-93590264D01*
X171316816Y-93509423D01*
X171117477Y-93466649D01*
X170913623Y-93463587D01*
X170713088Y-93500353D01*
X170523580Y-93575534D01*
X170496019Y-93590264D01*
X170473164Y-93793559D01*
X170026836Y-93793559D01*
X170003981Y-93590264D01*
X169816816Y-93509423D01*
X169617477Y-93466649D01*
X169413623Y-93463587D01*
X169213088Y-93500353D01*
X169023580Y-93575534D01*
X168996019Y-93590264D01*
X168973164Y-93793559D01*
X150660000Y-93793559D01*
X150660000Y-91206441D01*
X150973164Y-91206441D01*
X150996019Y-91409736D01*
X151183184Y-91490577D01*
X151382523Y-91533351D01*
X151586377Y-91536413D01*
X151786912Y-91499647D01*
X151976420Y-91424466D01*
X152003981Y-91409736D01*
X152026836Y-91206441D01*
X152473164Y-91206441D01*
X152496019Y-91409736D01*
X152683184Y-91490577D01*
X152882523Y-91533351D01*
X153086377Y-91536413D01*
X153286912Y-91499647D01*
X153476420Y-91424466D01*
X153503981Y-91409736D01*
X153526836Y-91206441D01*
X153973164Y-91206441D01*
X153996019Y-91409736D01*
X154183184Y-91490577D01*
X154382523Y-91533351D01*
X154586377Y-91536413D01*
X154786912Y-91499647D01*
X154976420Y-91424466D01*
X155003981Y-91409736D01*
X155026836Y-91206441D01*
X154500000Y-90679605D01*
X153973164Y-91206441D01*
X153526836Y-91206441D01*
X153000000Y-90679605D01*
X152473164Y-91206441D01*
X152026836Y-91206441D01*
X151500000Y-90679605D01*
X150973164Y-91206441D01*
X150660000Y-91206441D01*
X150660000Y-91011821D01*
X150793559Y-91026836D01*
X151320395Y-90500000D01*
X151679605Y-90500000D01*
X152022603Y-90842998D01*
X152075534Y-90976420D01*
X152090264Y-91003981D01*
X152195406Y-91015801D01*
X152206441Y-91026836D01*
X152250000Y-91021939D01*
X152293559Y-91026836D01*
X152304594Y-91015801D01*
X152409736Y-91003981D01*
X152480691Y-90839704D01*
X152820395Y-90500000D01*
X153179605Y-90500000D01*
X153522603Y-90842998D01*
X153575534Y-90976420D01*
X153590264Y-91003981D01*
X153695406Y-91015801D01*
X153706441Y-91026836D01*
X153750000Y-91021939D01*
X153793559Y-91026836D01*
X153804594Y-91015801D01*
X153909736Y-91003981D01*
X153980691Y-90839704D01*
X154320395Y-90500000D01*
X154679605Y-90500000D01*
X155206441Y-91026836D01*
X155409736Y-91003981D01*
X155490577Y-90816816D01*
X155533351Y-90617477D01*
X155536413Y-90413623D01*
X155499647Y-90213088D01*
X155424466Y-90023580D01*
X155409736Y-89996019D01*
X155206441Y-89973164D01*
X154679605Y-90500000D01*
X154320395Y-90500000D01*
X153977397Y-90157002D01*
X153924466Y-90023580D01*
X153909736Y-89996019D01*
X153804594Y-89984199D01*
X153793559Y-89973164D01*
X153750000Y-89978061D01*
X153706441Y-89973164D01*
X153695406Y-89984199D01*
X153590264Y-89996019D01*
X153519309Y-90160296D01*
X153179605Y-90500000D01*
X152820395Y-90500000D01*
X152477397Y-90157002D01*
X152424466Y-90023580D01*
X152409736Y-89996019D01*
X152304594Y-89984199D01*
X152293559Y-89973164D01*
X152250000Y-89978061D01*
X152206441Y-89973164D01*
X152195406Y-89984199D01*
X152090264Y-89996019D01*
X152019309Y-90160296D01*
X151679605Y-90500000D01*
X151320395Y-90500000D01*
X150793559Y-89973164D01*
X150660000Y-89988179D01*
X150660000Y-89706441D01*
X150973164Y-89706441D01*
X150978061Y-89750000D01*
X150973164Y-89793559D01*
X150984199Y-89804594D01*
X150996019Y-89909736D01*
X151160296Y-89980691D01*
X151500000Y-90320395D01*
X151842998Y-89977397D01*
X151976420Y-89924466D01*
X152003981Y-89909736D01*
X152015801Y-89804594D01*
X152026836Y-89793559D01*
X152021939Y-89750000D01*
X152026836Y-89706441D01*
X152473164Y-89706441D01*
X152478061Y-89750000D01*
X152473164Y-89793559D01*
X152484199Y-89804594D01*
X152496019Y-89909736D01*
X152660296Y-89980691D01*
X153000000Y-90320395D01*
X153342998Y-89977397D01*
X153476420Y-89924466D01*
X153503981Y-89909736D01*
X153515801Y-89804594D01*
X153526836Y-89793559D01*
X153521939Y-89750000D01*
X153526836Y-89706441D01*
X153973164Y-89706441D01*
X153978061Y-89750000D01*
X153973164Y-89793559D01*
X153984199Y-89804594D01*
X153996019Y-89909736D01*
X154160296Y-89980691D01*
X154500000Y-90320395D01*
X154842998Y-89977397D01*
X154976420Y-89924466D01*
X155003981Y-89909736D01*
X155015801Y-89804594D01*
X155026836Y-89793559D01*
X155021939Y-89750000D01*
X155026836Y-89706441D01*
X155015801Y-89695406D01*
X155003981Y-89590264D01*
X154839704Y-89519309D01*
X154500000Y-89179605D01*
X154157002Y-89522603D01*
X154023580Y-89575534D01*
X153996019Y-89590264D01*
X153984199Y-89695406D01*
X153973164Y-89706441D01*
X153526836Y-89706441D01*
X153515801Y-89695406D01*
X153503981Y-89590264D01*
X153339704Y-89519309D01*
X153000000Y-89179605D01*
X152657002Y-89522603D01*
X152523580Y-89575534D01*
X152496019Y-89590264D01*
X152484199Y-89695406D01*
X152473164Y-89706441D01*
X152026836Y-89706441D01*
X152015801Y-89695406D01*
X152003981Y-89590264D01*
X151839704Y-89519309D01*
X151500000Y-89179605D01*
X151157002Y-89522603D01*
X151023580Y-89575534D01*
X150996019Y-89590264D01*
X150984199Y-89695406D01*
X150973164Y-89706441D01*
X150660000Y-89706441D01*
X150660000Y-89511821D01*
X150793559Y-89526836D01*
X151320395Y-89000000D01*
X151679605Y-89000000D01*
X152022603Y-89342998D01*
X152075534Y-89476420D01*
X152090264Y-89503981D01*
X152195406Y-89515801D01*
X152206441Y-89526836D01*
X152250000Y-89521939D01*
X152293559Y-89526836D01*
X152304594Y-89515801D01*
X152409736Y-89503981D01*
X152480691Y-89339704D01*
X152820395Y-89000000D01*
X153179605Y-89000000D01*
X153522603Y-89342998D01*
X153575534Y-89476420D01*
X153590264Y-89503981D01*
X153695406Y-89515801D01*
X153706441Y-89526836D01*
X153750000Y-89521939D01*
X153793559Y-89526836D01*
X153804594Y-89515801D01*
X153909736Y-89503981D01*
X153980691Y-89339704D01*
X154320395Y-89000000D01*
X154679605Y-89000000D01*
X155206441Y-89526836D01*
X155409736Y-89503981D01*
X155490577Y-89316816D01*
X155533351Y-89117477D01*
X155536413Y-88913623D01*
X155499647Y-88713088D01*
X155424466Y-88523580D01*
X155409736Y-88496019D01*
X155206441Y-88473164D01*
X154679605Y-89000000D01*
X154320395Y-89000000D01*
X153977397Y-88657002D01*
X153924466Y-88523580D01*
X153909736Y-88496019D01*
X153804594Y-88484199D01*
X153793559Y-88473164D01*
X153750000Y-88478061D01*
X153706441Y-88473164D01*
X153695406Y-88484199D01*
X153590264Y-88496019D01*
X153519309Y-88660296D01*
X153179605Y-89000000D01*
X152820395Y-89000000D01*
X152477397Y-88657002D01*
X152424466Y-88523580D01*
X152409736Y-88496019D01*
X152304594Y-88484199D01*
X152293559Y-88473164D01*
X152250000Y-88478061D01*
X152206441Y-88473164D01*
X152195406Y-88484199D01*
X152090264Y-88496019D01*
X152019309Y-88660296D01*
X151679605Y-89000000D01*
X151320395Y-89000000D01*
X150793559Y-88473164D01*
X150660000Y-88488179D01*
X150660000Y-88206441D01*
X150973164Y-88206441D01*
X150978061Y-88250000D01*
X150973164Y-88293559D01*
X150984199Y-88304594D01*
X150996019Y-88409736D01*
X151160296Y-88480691D01*
X151500000Y-88820395D01*
X151842998Y-88477397D01*
X151976420Y-88424466D01*
X152003981Y-88409736D01*
X152015801Y-88304594D01*
X152026836Y-88293559D01*
X152021939Y-88250000D01*
X152026836Y-88206441D01*
X152473164Y-88206441D01*
X152478061Y-88250000D01*
X152473164Y-88293559D01*
X152484199Y-88304594D01*
X152496019Y-88409736D01*
X152660296Y-88480691D01*
X153000000Y-88820395D01*
X153342998Y-88477397D01*
X153476420Y-88424466D01*
X153503981Y-88409736D01*
X153515801Y-88304594D01*
X153526836Y-88293559D01*
X153521939Y-88250000D01*
X153526836Y-88206441D01*
X153973164Y-88206441D01*
X153978061Y-88250000D01*
X153973164Y-88293559D01*
X153984199Y-88304594D01*
X153996019Y-88409736D01*
X154160296Y-88480691D01*
X154500000Y-88820395D01*
X154842998Y-88477397D01*
X154976420Y-88424466D01*
X155003981Y-88409736D01*
X155015801Y-88304594D01*
X155026836Y-88293559D01*
X155021939Y-88250000D01*
X155026836Y-88206441D01*
X155015801Y-88195406D01*
X155003981Y-88090264D01*
X154839704Y-88019309D01*
X154500000Y-87679605D01*
X154157002Y-88022603D01*
X154023580Y-88075534D01*
X153996019Y-88090264D01*
X153984199Y-88195406D01*
X153973164Y-88206441D01*
X153526836Y-88206441D01*
X153515801Y-88195406D01*
X153503981Y-88090264D01*
X153339704Y-88019309D01*
X153000000Y-87679605D01*
X152657002Y-88022603D01*
X152523580Y-88075534D01*
X152496019Y-88090264D01*
X152484199Y-88195406D01*
X152473164Y-88206441D01*
X152026836Y-88206441D01*
X152015801Y-88195406D01*
X152003981Y-88090264D01*
X151839704Y-88019309D01*
X151500000Y-87679605D01*
X151157002Y-88022603D01*
X151023580Y-88075534D01*
X150996019Y-88090264D01*
X150984199Y-88195406D01*
X150973164Y-88206441D01*
X150660000Y-88206441D01*
X150660000Y-88011821D01*
X150793559Y-88026836D01*
X151320395Y-87500000D01*
X151679605Y-87500000D01*
X152022603Y-87842998D01*
X152075534Y-87976420D01*
X152090264Y-88003981D01*
X152195406Y-88015801D01*
X152206441Y-88026836D01*
X152250000Y-88021939D01*
X152293559Y-88026836D01*
X152304594Y-88015801D01*
X152409736Y-88003981D01*
X152480691Y-87839704D01*
X152820395Y-87500000D01*
X153179605Y-87500000D01*
X153522603Y-87842998D01*
X153575534Y-87976420D01*
X153590264Y-88003981D01*
X153695406Y-88015801D01*
X153706441Y-88026836D01*
X153750000Y-88021939D01*
X153793559Y-88026836D01*
X153804594Y-88015801D01*
X153909736Y-88003981D01*
X153980691Y-87839704D01*
X154320395Y-87500000D01*
X154679605Y-87500000D01*
X155206441Y-88026836D01*
X155409736Y-88003981D01*
X155490577Y-87816816D01*
X155533351Y-87617477D01*
X155536413Y-87413623D01*
X155499647Y-87213088D01*
X155424466Y-87023580D01*
X155409736Y-86996019D01*
X155206441Y-86973164D01*
X154679605Y-87500000D01*
X154320395Y-87500000D01*
X153977397Y-87157002D01*
X153924466Y-87023580D01*
X153909736Y-86996019D01*
X153804594Y-86984199D01*
X153793559Y-86973164D01*
X153750000Y-86978061D01*
X153706441Y-86973164D01*
X153695406Y-86984199D01*
X153590264Y-86996019D01*
X153519309Y-87160296D01*
X153179605Y-87500000D01*
X152820395Y-87500000D01*
X152477397Y-87157002D01*
X152424466Y-87023580D01*
X152409736Y-86996019D01*
X152304594Y-86984199D01*
X152293559Y-86973164D01*
X152250000Y-86978061D01*
X152206441Y-86973164D01*
X152195406Y-86984199D01*
X152090264Y-86996019D01*
X152019309Y-87160296D01*
X151679605Y-87500000D01*
X151320395Y-87500000D01*
X150793559Y-86973164D01*
X150660000Y-86988179D01*
X150660000Y-86793559D01*
X150973164Y-86793559D01*
X151500000Y-87320395D01*
X152026836Y-86793559D01*
X152473164Y-86793559D01*
X153000000Y-87320395D01*
X153526836Y-86793559D01*
X153973164Y-86793559D01*
X154500000Y-87320395D01*
X155026836Y-86793559D01*
X155003981Y-86590264D01*
X154816816Y-86509423D01*
X154617477Y-86466649D01*
X154413623Y-86463587D01*
X154213088Y-86500353D01*
X154023580Y-86575534D01*
X153996019Y-86590264D01*
X153973164Y-86793559D01*
X153526836Y-86793559D01*
X153503981Y-86590264D01*
X153316816Y-86509423D01*
X153117477Y-86466649D01*
X152913623Y-86463587D01*
X152713088Y-86500353D01*
X152523580Y-86575534D01*
X152496019Y-86590264D01*
X152473164Y-86793559D01*
X152026836Y-86793559D01*
X152003981Y-86590264D01*
X151816816Y-86509423D01*
X151617477Y-86466649D01*
X151413623Y-86463587D01*
X151213088Y-86500353D01*
X151023580Y-86575534D01*
X150996019Y-86590264D01*
X150973164Y-86793559D01*
X150660000Y-86793559D01*
X150660000Y-63105802D01*
X150696063Y-63159774D01*
X150840226Y-63303937D01*
X151009744Y-63417205D01*
X151198102Y-63495226D01*
X151398061Y-63535000D01*
X151601939Y-63535000D01*
X151801898Y-63495226D01*
X151990256Y-63417205D01*
X152159774Y-63303937D01*
X152250000Y-63213711D01*
X152340226Y-63303937D01*
X152509744Y-63417205D01*
X152698102Y-63495226D01*
X152898061Y-63535000D01*
X153101939Y-63535000D01*
X153301898Y-63495226D01*
X153490256Y-63417205D01*
X153659774Y-63303937D01*
X153750000Y-63213711D01*
X153840226Y-63303937D01*
X154009744Y-63417205D01*
X154198102Y-63495226D01*
X154398061Y-63535000D01*
X154601939Y-63535000D01*
X154801898Y-63495226D01*
X154990256Y-63417205D01*
X155159774Y-63303937D01*
X155257270Y-63206441D01*
X194973164Y-63206441D01*
X194996019Y-63409736D01*
X195183184Y-63490577D01*
X195382523Y-63533351D01*
X195586377Y-63536413D01*
X195786912Y-63499647D01*
X195976420Y-63424466D01*
X196003981Y-63409736D01*
X196026836Y-63206441D01*
X196473164Y-63206441D01*
X196496019Y-63409736D01*
X196683184Y-63490577D01*
X196882523Y-63533351D01*
X197086377Y-63536413D01*
X197286912Y-63499647D01*
X197476420Y-63424466D01*
X197503981Y-63409736D01*
X197526836Y-63206441D01*
X197973164Y-63206441D01*
X197996019Y-63409736D01*
X198183184Y-63490577D01*
X198382523Y-63533351D01*
X198586377Y-63536413D01*
X198786912Y-63499647D01*
X198976420Y-63424466D01*
X199003981Y-63409736D01*
X199026836Y-63206441D01*
X198500000Y-62679605D01*
X197973164Y-63206441D01*
X197526836Y-63206441D01*
X197000000Y-62679605D01*
X196473164Y-63206441D01*
X196026836Y-63206441D01*
X195500000Y-62679605D01*
X194973164Y-63206441D01*
X155257270Y-63206441D01*
X155303937Y-63159774D01*
X155417205Y-62990256D01*
X155495226Y-62801898D01*
X155535000Y-62601939D01*
X155535000Y-62586377D01*
X194463587Y-62586377D01*
X194500353Y-62786912D01*
X194575534Y-62976420D01*
X194590264Y-63003981D01*
X194793559Y-63026836D01*
X195320395Y-62500000D01*
X195679605Y-62500000D01*
X196022603Y-62842998D01*
X196075534Y-62976420D01*
X196090264Y-63003981D01*
X196195406Y-63015801D01*
X196206441Y-63026836D01*
X196250000Y-63021939D01*
X196293559Y-63026836D01*
X196304594Y-63015801D01*
X196409736Y-63003981D01*
X196480691Y-62839704D01*
X196820395Y-62500000D01*
X197179605Y-62500000D01*
X197522603Y-62842998D01*
X197575534Y-62976420D01*
X197590264Y-63003981D01*
X197695406Y-63015801D01*
X197706441Y-63026836D01*
X197750000Y-63021939D01*
X197793559Y-63026836D01*
X197804594Y-63015801D01*
X197909736Y-63003981D01*
X197980691Y-62839704D01*
X198320395Y-62500000D01*
X197977397Y-62157002D01*
X197924466Y-62023580D01*
X197909736Y-61996019D01*
X197804594Y-61984199D01*
X197793559Y-61973164D01*
X197750000Y-61978061D01*
X197706441Y-61973164D01*
X197695406Y-61984199D01*
X197590264Y-61996019D01*
X197519309Y-62160296D01*
X197179605Y-62500000D01*
X196820395Y-62500000D01*
X196477397Y-62157002D01*
X196424466Y-62023580D01*
X196409736Y-61996019D01*
X196304594Y-61984199D01*
X196293559Y-61973164D01*
X196250000Y-61978061D01*
X196206441Y-61973164D01*
X196195406Y-61984199D01*
X196090264Y-61996019D01*
X196019309Y-62160296D01*
X195679605Y-62500000D01*
X195320395Y-62500000D01*
X194793559Y-61973164D01*
X194590264Y-61996019D01*
X194509423Y-62183184D01*
X194466649Y-62382523D01*
X194463587Y-62586377D01*
X155535000Y-62586377D01*
X155535000Y-62398061D01*
X155495226Y-62198102D01*
X155417205Y-62009744D01*
X155303937Y-61840226D01*
X155213711Y-61750000D01*
X155257270Y-61706441D01*
X194973164Y-61706441D01*
X194978061Y-61750000D01*
X194973164Y-61793559D01*
X194984199Y-61804594D01*
X194996019Y-61909736D01*
X195160296Y-61980691D01*
X195500000Y-62320395D01*
X195842998Y-61977397D01*
X195976420Y-61924466D01*
X196003981Y-61909736D01*
X196015801Y-61804594D01*
X196026836Y-61793559D01*
X196021939Y-61750000D01*
X196026836Y-61706441D01*
X196473164Y-61706441D01*
X196478061Y-61750000D01*
X196473164Y-61793559D01*
X196484199Y-61804594D01*
X196496019Y-61909736D01*
X196660296Y-61980691D01*
X197000000Y-62320395D01*
X197342998Y-61977397D01*
X197476420Y-61924466D01*
X197503981Y-61909736D01*
X197515801Y-61804594D01*
X197526836Y-61793559D01*
X197521939Y-61750000D01*
X197526836Y-61706441D01*
X197973164Y-61706441D01*
X197978061Y-61750000D01*
X197973164Y-61793559D01*
X197984199Y-61804594D01*
X197996019Y-61909736D01*
X198160296Y-61980691D01*
X198500000Y-62320395D01*
X198842998Y-61977397D01*
X198976420Y-61924466D01*
X199003981Y-61909736D01*
X199015801Y-61804594D01*
X199026836Y-61793559D01*
X199021939Y-61750000D01*
X199026836Y-61706441D01*
X199015801Y-61695406D01*
X199003981Y-61590264D01*
X198839704Y-61519309D01*
X198500000Y-61179605D01*
X198157002Y-61522603D01*
X198023580Y-61575534D01*
X197996019Y-61590264D01*
X197984199Y-61695406D01*
X197973164Y-61706441D01*
X197526836Y-61706441D01*
X197515801Y-61695406D01*
X197503981Y-61590264D01*
X197339704Y-61519309D01*
X197000000Y-61179605D01*
X196657002Y-61522603D01*
X196523580Y-61575534D01*
X196496019Y-61590264D01*
X196484199Y-61695406D01*
X196473164Y-61706441D01*
X196026836Y-61706441D01*
X196015801Y-61695406D01*
X196003981Y-61590264D01*
X195839704Y-61519309D01*
X195500000Y-61179605D01*
X195157002Y-61522603D01*
X195023580Y-61575534D01*
X194996019Y-61590264D01*
X194984199Y-61695406D01*
X194973164Y-61706441D01*
X155257270Y-61706441D01*
X155303937Y-61659774D01*
X155417205Y-61490256D01*
X155495226Y-61301898D01*
X155535000Y-61101939D01*
X155535000Y-61086377D01*
X194463587Y-61086377D01*
X194500353Y-61286912D01*
X194575534Y-61476420D01*
X194590264Y-61503981D01*
X194793559Y-61526836D01*
X195320395Y-61000000D01*
X195679605Y-61000000D01*
X196022603Y-61342998D01*
X196075534Y-61476420D01*
X196090264Y-61503981D01*
X196195406Y-61515801D01*
X196206441Y-61526836D01*
X196250000Y-61521939D01*
X196293559Y-61526836D01*
X196304594Y-61515801D01*
X196409736Y-61503981D01*
X196480691Y-61339704D01*
X196820395Y-61000000D01*
X197179605Y-61000000D01*
X197522603Y-61342998D01*
X197575534Y-61476420D01*
X197590264Y-61503981D01*
X197695406Y-61515801D01*
X197706441Y-61526836D01*
X197750000Y-61521939D01*
X197793559Y-61526836D01*
X197804594Y-61515801D01*
X197909736Y-61503981D01*
X197980691Y-61339704D01*
X198320395Y-61000000D01*
X197977397Y-60657002D01*
X197924466Y-60523580D01*
X197909736Y-60496019D01*
X197804594Y-60484199D01*
X197793559Y-60473164D01*
X197750000Y-60478061D01*
X197706441Y-60473164D01*
X197695406Y-60484199D01*
X197590264Y-60496019D01*
X197519309Y-60660296D01*
X197179605Y-61000000D01*
X196820395Y-61000000D01*
X196477397Y-60657002D01*
X196424466Y-60523580D01*
X196409736Y-60496019D01*
X196304594Y-60484199D01*
X196293559Y-60473164D01*
X196250000Y-60478061D01*
X196206441Y-60473164D01*
X196195406Y-60484199D01*
X196090264Y-60496019D01*
X196019309Y-60660296D01*
X195679605Y-61000000D01*
X195320395Y-61000000D01*
X194793559Y-60473164D01*
X194590264Y-60496019D01*
X194509423Y-60683184D01*
X194466649Y-60882523D01*
X194463587Y-61086377D01*
X155535000Y-61086377D01*
X155535000Y-60898061D01*
X155495226Y-60698102D01*
X155417205Y-60509744D01*
X155303937Y-60340226D01*
X155213711Y-60250000D01*
X155257270Y-60206441D01*
X194973164Y-60206441D01*
X194978061Y-60250000D01*
X194973164Y-60293559D01*
X194984199Y-60304594D01*
X194996019Y-60409736D01*
X195160296Y-60480691D01*
X195500000Y-60820395D01*
X195842998Y-60477397D01*
X195976420Y-60424466D01*
X196003981Y-60409736D01*
X196015801Y-60304594D01*
X196026836Y-60293559D01*
X196021939Y-60250000D01*
X196026836Y-60206441D01*
X196473164Y-60206441D01*
X196478061Y-60250000D01*
X196473164Y-60293559D01*
X196484199Y-60304594D01*
X196496019Y-60409736D01*
X196660296Y-60480691D01*
X197000000Y-60820395D01*
X197342998Y-60477397D01*
X197476420Y-60424466D01*
X197503981Y-60409736D01*
X197515801Y-60304594D01*
X197526836Y-60293559D01*
X197521939Y-60250000D01*
X197526836Y-60206441D01*
X197973164Y-60206441D01*
X197978061Y-60250000D01*
X197973164Y-60293559D01*
X197984199Y-60304594D01*
X197996019Y-60409736D01*
X198160296Y-60480691D01*
X198500000Y-60820395D01*
X198842998Y-60477397D01*
X198976420Y-60424466D01*
X199003981Y-60409736D01*
X199015801Y-60304594D01*
X199026836Y-60293559D01*
X199021939Y-60250000D01*
X199026836Y-60206441D01*
X199015801Y-60195406D01*
X199003981Y-60090264D01*
X198839704Y-60019309D01*
X198500000Y-59679605D01*
X198157002Y-60022603D01*
X198023580Y-60075534D01*
X197996019Y-60090264D01*
X197984199Y-60195406D01*
X197973164Y-60206441D01*
X197526836Y-60206441D01*
X197515801Y-60195406D01*
X197503981Y-60090264D01*
X197339704Y-60019309D01*
X197000000Y-59679605D01*
X196657002Y-60022603D01*
X196523580Y-60075534D01*
X196496019Y-60090264D01*
X196484199Y-60195406D01*
X196473164Y-60206441D01*
X196026836Y-60206441D01*
X196015801Y-60195406D01*
X196003981Y-60090264D01*
X195839704Y-60019309D01*
X195500000Y-59679605D01*
X195157002Y-60022603D01*
X195023580Y-60075534D01*
X194996019Y-60090264D01*
X194984199Y-60195406D01*
X194973164Y-60206441D01*
X155257270Y-60206441D01*
X155303937Y-60159774D01*
X155417205Y-59990256D01*
X155495226Y-59801898D01*
X155535000Y-59601939D01*
X155535000Y-59586377D01*
X194463587Y-59586377D01*
X194500353Y-59786912D01*
X194575534Y-59976420D01*
X194590264Y-60003981D01*
X194793559Y-60026836D01*
X195320395Y-59500000D01*
X195679605Y-59500000D01*
X196022603Y-59842998D01*
X196075534Y-59976420D01*
X196090264Y-60003981D01*
X196195406Y-60015801D01*
X196206441Y-60026836D01*
X196250000Y-60021939D01*
X196293559Y-60026836D01*
X196304594Y-60015801D01*
X196409736Y-60003981D01*
X196480691Y-59839704D01*
X196820395Y-59500000D01*
X197179605Y-59500000D01*
X197522603Y-59842998D01*
X197575534Y-59976420D01*
X197590264Y-60003981D01*
X197695406Y-60015801D01*
X197706441Y-60026836D01*
X197750000Y-60021939D01*
X197793559Y-60026836D01*
X197804594Y-60015801D01*
X197909736Y-60003981D01*
X197980691Y-59839704D01*
X198320395Y-59500000D01*
X197977397Y-59157002D01*
X197924466Y-59023580D01*
X197909736Y-58996019D01*
X197804594Y-58984199D01*
X197793559Y-58973164D01*
X197750000Y-58978061D01*
X197706441Y-58973164D01*
X197695406Y-58984199D01*
X197590264Y-58996019D01*
X197519309Y-59160296D01*
X197179605Y-59500000D01*
X196820395Y-59500000D01*
X196477397Y-59157002D01*
X196424466Y-59023580D01*
X196409736Y-58996019D01*
X196304594Y-58984199D01*
X196293559Y-58973164D01*
X196250000Y-58978061D01*
X196206441Y-58973164D01*
X196195406Y-58984199D01*
X196090264Y-58996019D01*
X196019309Y-59160296D01*
X195679605Y-59500000D01*
X195320395Y-59500000D01*
X194793559Y-58973164D01*
X194590264Y-58996019D01*
X194509423Y-59183184D01*
X194466649Y-59382523D01*
X194463587Y-59586377D01*
X155535000Y-59586377D01*
X155535000Y-59398061D01*
X155495226Y-59198102D01*
X155417205Y-59009744D01*
X155303937Y-58840226D01*
X155257270Y-58793559D01*
X194973164Y-58793559D01*
X195500000Y-59320395D01*
X196026836Y-58793559D01*
X196473164Y-58793559D01*
X197000000Y-59320395D01*
X197526836Y-58793559D01*
X197973164Y-58793559D01*
X198500000Y-59320395D01*
X199026836Y-58793559D01*
X199003981Y-58590264D01*
X198816816Y-58509423D01*
X198617477Y-58466649D01*
X198413623Y-58463587D01*
X198213088Y-58500353D01*
X198023580Y-58575534D01*
X197996019Y-58590264D01*
X197973164Y-58793559D01*
X197526836Y-58793559D01*
X197503981Y-58590264D01*
X197316816Y-58509423D01*
X197117477Y-58466649D01*
X196913623Y-58463587D01*
X196713088Y-58500353D01*
X196523580Y-58575534D01*
X196496019Y-58590264D01*
X196473164Y-58793559D01*
X196026836Y-58793559D01*
X196003981Y-58590264D01*
X195816816Y-58509423D01*
X195617477Y-58466649D01*
X195413623Y-58463587D01*
X195213088Y-58500353D01*
X195023580Y-58575534D01*
X194996019Y-58590264D01*
X194973164Y-58793559D01*
X155257270Y-58793559D01*
X155159774Y-58696063D01*
X154990256Y-58582795D01*
X154801898Y-58504774D01*
X154601939Y-58465000D01*
X154398061Y-58465000D01*
X154198102Y-58504774D01*
X154009744Y-58582795D01*
X153840226Y-58696063D01*
X153750000Y-58786289D01*
X153659774Y-58696063D01*
X153490256Y-58582795D01*
X153301898Y-58504774D01*
X153101939Y-58465000D01*
X152898061Y-58465000D01*
X152698102Y-58504774D01*
X152509744Y-58582795D01*
X152340226Y-58696063D01*
X152250000Y-58786289D01*
X152159774Y-58696063D01*
X151990256Y-58582795D01*
X151801898Y-58504774D01*
X151601939Y-58465000D01*
X151398061Y-58465000D01*
X151198102Y-58504774D01*
X151009744Y-58582795D01*
X150840226Y-58696063D01*
X150696063Y-58840226D01*
X150660000Y-58894198D01*
X150660000Y-57558686D01*
X169020919Y-57558686D01*
X169357106Y-58027868D01*
X169987068Y-58368237D01*
X170671327Y-58579166D01*
X171383589Y-58652550D01*
X172096482Y-58585569D01*
X172782609Y-58380796D01*
X173415603Y-58046102D01*
X173442894Y-58027868D01*
X173779081Y-57558686D01*
X171400000Y-55179605D01*
X169020919Y-57558686D01*
X150660000Y-57558686D01*
X150660000Y-55206441D01*
X158973164Y-55206441D01*
X158996019Y-55409736D01*
X159183184Y-55490577D01*
X159382523Y-55533351D01*
X159586377Y-55536413D01*
X159786912Y-55499647D01*
X159976420Y-55424466D01*
X160003981Y-55409736D01*
X160026836Y-55206441D01*
X160473164Y-55206441D01*
X160496019Y-55409736D01*
X160683184Y-55490577D01*
X160882523Y-55533351D01*
X161086377Y-55536413D01*
X161286912Y-55499647D01*
X161476420Y-55424466D01*
X161503981Y-55409736D01*
X161526836Y-55206441D01*
X161973164Y-55206441D01*
X161996019Y-55409736D01*
X162183184Y-55490577D01*
X162382523Y-55533351D01*
X162586377Y-55536413D01*
X162786912Y-55499647D01*
X162976420Y-55424466D01*
X163003981Y-55409736D01*
X163026836Y-55206441D01*
X162500000Y-54679605D01*
X161973164Y-55206441D01*
X161526836Y-55206441D01*
X161000000Y-54679605D01*
X160473164Y-55206441D01*
X160026836Y-55206441D01*
X159500000Y-54679605D01*
X158973164Y-55206441D01*
X150660000Y-55206441D01*
X150660000Y-54245031D01*
X150884032Y-54469063D01*
X151299227Y-54746488D01*
X151760568Y-54937582D01*
X152250324Y-55035000D01*
X152749676Y-55035000D01*
X153239432Y-54937582D01*
X153700773Y-54746488D01*
X153940395Y-54586377D01*
X158463587Y-54586377D01*
X158500353Y-54786912D01*
X158575534Y-54976420D01*
X158590264Y-55003981D01*
X158793559Y-55026836D01*
X159320395Y-54500000D01*
X159679605Y-54500000D01*
X160022603Y-54842998D01*
X160075534Y-54976420D01*
X160090264Y-55003981D01*
X160195406Y-55015801D01*
X160206441Y-55026836D01*
X160250000Y-55021939D01*
X160293559Y-55026836D01*
X160304594Y-55015801D01*
X160409736Y-55003981D01*
X160480691Y-54839704D01*
X160820395Y-54500000D01*
X161179605Y-54500000D01*
X161522603Y-54842998D01*
X161575534Y-54976420D01*
X161590264Y-55003981D01*
X161695406Y-55015801D01*
X161706441Y-55026836D01*
X161750000Y-55021939D01*
X161793559Y-55026836D01*
X161804594Y-55015801D01*
X161909736Y-55003981D01*
X161980691Y-54839704D01*
X162320395Y-54500000D01*
X162679605Y-54500000D01*
X163206441Y-55026836D01*
X163409736Y-55003981D01*
X163418543Y-54983589D01*
X167747450Y-54983589D01*
X167814431Y-55696482D01*
X168019204Y-56382609D01*
X168353898Y-57015603D01*
X168372132Y-57042894D01*
X168841314Y-57379081D01*
X171220395Y-55000000D01*
X171579605Y-55000000D01*
X173958686Y-57379081D01*
X174427868Y-57042894D01*
X174768237Y-56412932D01*
X174979166Y-55728673D01*
X174999490Y-55531409D01*
X175104691Y-56060290D01*
X175378705Y-56721818D01*
X175776511Y-57317177D01*
X176282823Y-57823489D01*
X176878182Y-58221295D01*
X177539710Y-58495309D01*
X178241984Y-58635000D01*
X178958016Y-58635000D01*
X179660290Y-58495309D01*
X180321818Y-58221295D01*
X180917177Y-57823489D01*
X181423489Y-57317177D01*
X181821295Y-56721818D01*
X182095309Y-56060290D01*
X182235000Y-55358016D01*
X182235000Y-54641984D01*
X182095309Y-53939710D01*
X181821295Y-53278182D01*
X181423489Y-52682823D01*
X180917177Y-52176511D01*
X180321818Y-51778705D01*
X179660290Y-51504691D01*
X178958016Y-51365000D01*
X178241984Y-51365000D01*
X177539710Y-51504691D01*
X176878182Y-51778705D01*
X176282823Y-52176511D01*
X175776511Y-52682823D01*
X175378705Y-53278182D01*
X175104691Y-53939710D01*
X175000569Y-54463166D01*
X174985569Y-54303518D01*
X174780796Y-53617391D01*
X174446102Y-52984397D01*
X174427868Y-52957106D01*
X173958686Y-52620919D01*
X171579605Y-55000000D01*
X171220395Y-55000000D01*
X168841314Y-52620919D01*
X168372132Y-52957106D01*
X168031763Y-53587068D01*
X167820834Y-54271327D01*
X167747450Y-54983589D01*
X163418543Y-54983589D01*
X163490577Y-54816816D01*
X163533351Y-54617477D01*
X163536413Y-54413623D01*
X163499647Y-54213088D01*
X163424466Y-54023580D01*
X163409736Y-53996019D01*
X163206441Y-53973164D01*
X162679605Y-54500000D01*
X162320395Y-54500000D01*
X161977397Y-54157002D01*
X161924466Y-54023580D01*
X161909736Y-53996019D01*
X161804594Y-53984199D01*
X161793559Y-53973164D01*
X161750000Y-53978061D01*
X161706441Y-53973164D01*
X161695406Y-53984199D01*
X161590264Y-53996019D01*
X161519309Y-54160296D01*
X161179605Y-54500000D01*
X160820395Y-54500000D01*
X160477397Y-54157002D01*
X160424466Y-54023580D01*
X160409736Y-53996019D01*
X160304594Y-53984199D01*
X160293559Y-53973164D01*
X160250000Y-53978061D01*
X160206441Y-53973164D01*
X160195406Y-53984199D01*
X160090264Y-53996019D01*
X160019309Y-54160296D01*
X159679605Y-54500000D01*
X159320395Y-54500000D01*
X158793559Y-53973164D01*
X158590264Y-53996019D01*
X158509423Y-54183184D01*
X158466649Y-54382523D01*
X158463587Y-54586377D01*
X153940395Y-54586377D01*
X154115968Y-54469063D01*
X154469063Y-54115968D01*
X154742700Y-53706441D01*
X158973164Y-53706441D01*
X158978061Y-53750000D01*
X158973164Y-53793559D01*
X158984199Y-53804594D01*
X158996019Y-53909736D01*
X159160296Y-53980691D01*
X159500000Y-54320395D01*
X159842998Y-53977397D01*
X159976420Y-53924466D01*
X160003981Y-53909736D01*
X160015801Y-53804594D01*
X160026836Y-53793559D01*
X160021939Y-53750000D01*
X160026836Y-53706441D01*
X160473164Y-53706441D01*
X160478061Y-53750000D01*
X160473164Y-53793559D01*
X160484199Y-53804594D01*
X160496019Y-53909736D01*
X160660296Y-53980691D01*
X161000000Y-54320395D01*
X161342998Y-53977397D01*
X161476420Y-53924466D01*
X161503981Y-53909736D01*
X161515801Y-53804594D01*
X161526836Y-53793559D01*
X161521939Y-53750000D01*
X161526836Y-53706441D01*
X161973164Y-53706441D01*
X161978061Y-53750000D01*
X161973164Y-53793559D01*
X161984199Y-53804594D01*
X161996019Y-53909736D01*
X162160296Y-53980691D01*
X162500000Y-54320395D01*
X162842998Y-53977397D01*
X162976420Y-53924466D01*
X163003981Y-53909736D01*
X163015801Y-53804594D01*
X163026836Y-53793559D01*
X163021939Y-53750000D01*
X163026836Y-53706441D01*
X163015801Y-53695406D01*
X163003981Y-53590264D01*
X162839704Y-53519309D01*
X162500000Y-53179605D01*
X162157002Y-53522603D01*
X162023580Y-53575534D01*
X161996019Y-53590264D01*
X161984199Y-53695406D01*
X161973164Y-53706441D01*
X161526836Y-53706441D01*
X161515801Y-53695406D01*
X161503981Y-53590264D01*
X161339704Y-53519309D01*
X161000000Y-53179605D01*
X160657002Y-53522603D01*
X160523580Y-53575534D01*
X160496019Y-53590264D01*
X160484199Y-53695406D01*
X160473164Y-53706441D01*
X160026836Y-53706441D01*
X160015801Y-53695406D01*
X160003981Y-53590264D01*
X159839704Y-53519309D01*
X159500000Y-53179605D01*
X159157002Y-53522603D01*
X159023580Y-53575534D01*
X158996019Y-53590264D01*
X158984199Y-53695406D01*
X158973164Y-53706441D01*
X154742700Y-53706441D01*
X154746488Y-53700773D01*
X154937582Y-53239432D01*
X154968026Y-53086377D01*
X158463587Y-53086377D01*
X158500353Y-53286912D01*
X158575534Y-53476420D01*
X158590264Y-53503981D01*
X158793559Y-53526836D01*
X159320395Y-53000000D01*
X159679605Y-53000000D01*
X160022603Y-53342998D01*
X160075534Y-53476420D01*
X160090264Y-53503981D01*
X160195406Y-53515801D01*
X160206441Y-53526836D01*
X160250000Y-53521939D01*
X160293559Y-53526836D01*
X160304594Y-53515801D01*
X160409736Y-53503981D01*
X160480691Y-53339704D01*
X160820395Y-53000000D01*
X161179605Y-53000000D01*
X161522603Y-53342998D01*
X161575534Y-53476420D01*
X161590264Y-53503981D01*
X161695406Y-53515801D01*
X161706441Y-53526836D01*
X161750000Y-53521939D01*
X161793559Y-53526836D01*
X161804594Y-53515801D01*
X161909736Y-53503981D01*
X161980691Y-53339704D01*
X162320395Y-53000000D01*
X162679605Y-53000000D01*
X163206441Y-53526836D01*
X163409736Y-53503981D01*
X163490577Y-53316816D01*
X163533351Y-53117477D01*
X163536413Y-52913623D01*
X163499647Y-52713088D01*
X163424466Y-52523580D01*
X163409736Y-52496019D01*
X163206441Y-52473164D01*
X162679605Y-53000000D01*
X162320395Y-53000000D01*
X161977397Y-52657002D01*
X161924466Y-52523580D01*
X161909736Y-52496019D01*
X161804594Y-52484199D01*
X161793559Y-52473164D01*
X161750000Y-52478061D01*
X161706441Y-52473164D01*
X161695406Y-52484199D01*
X161590264Y-52496019D01*
X161519309Y-52660296D01*
X161179605Y-53000000D01*
X160820395Y-53000000D01*
X160477397Y-52657002D01*
X160424466Y-52523580D01*
X160409736Y-52496019D01*
X160304594Y-52484199D01*
X160293559Y-52473164D01*
X160250000Y-52478061D01*
X160206441Y-52473164D01*
X160195406Y-52484199D01*
X160090264Y-52496019D01*
X160019309Y-52660296D01*
X159679605Y-53000000D01*
X159320395Y-53000000D01*
X158793559Y-52473164D01*
X158590264Y-52496019D01*
X158509423Y-52683184D01*
X158466649Y-52882523D01*
X158463587Y-53086377D01*
X154968026Y-53086377D01*
X155035000Y-52749676D01*
X155035000Y-52250324D01*
X155026272Y-52206441D01*
X158973164Y-52206441D01*
X158978061Y-52250000D01*
X158973164Y-52293559D01*
X158984199Y-52304594D01*
X158996019Y-52409736D01*
X159160296Y-52480691D01*
X159500000Y-52820395D01*
X159842998Y-52477397D01*
X159976420Y-52424466D01*
X160003981Y-52409736D01*
X160015801Y-52304594D01*
X160026836Y-52293559D01*
X160021939Y-52250000D01*
X160026836Y-52206441D01*
X160473164Y-52206441D01*
X160478061Y-52250000D01*
X160473164Y-52293559D01*
X160484199Y-52304594D01*
X160496019Y-52409736D01*
X160660296Y-52480691D01*
X161000000Y-52820395D01*
X161342998Y-52477397D01*
X161476420Y-52424466D01*
X161503981Y-52409736D01*
X161515801Y-52304594D01*
X161526836Y-52293559D01*
X161521939Y-52250000D01*
X161526836Y-52206441D01*
X161973164Y-52206441D01*
X161978061Y-52250000D01*
X161973164Y-52293559D01*
X161984199Y-52304594D01*
X161996019Y-52409736D01*
X162160296Y-52480691D01*
X162500000Y-52820395D01*
X162842998Y-52477397D01*
X162933951Y-52441314D01*
X169020919Y-52441314D01*
X171400000Y-54820395D01*
X173779081Y-52441314D01*
X173442894Y-51972132D01*
X172812932Y-51631763D01*
X172128673Y-51420834D01*
X171416411Y-51347450D01*
X170703518Y-51414431D01*
X170017391Y-51619204D01*
X169384397Y-51953898D01*
X169357106Y-51972132D01*
X169020919Y-52441314D01*
X162933951Y-52441314D01*
X162976420Y-52424466D01*
X163003981Y-52409736D01*
X163015801Y-52304594D01*
X163026836Y-52293559D01*
X163021939Y-52250000D01*
X163026836Y-52206441D01*
X163015801Y-52195406D01*
X163003981Y-52090264D01*
X162839704Y-52019309D01*
X162500000Y-51679605D01*
X162157002Y-52022603D01*
X162023580Y-52075534D01*
X161996019Y-52090264D01*
X161984199Y-52195406D01*
X161973164Y-52206441D01*
X161526836Y-52206441D01*
X161515801Y-52195406D01*
X161503981Y-52090264D01*
X161339704Y-52019309D01*
X161000000Y-51679605D01*
X160657002Y-52022603D01*
X160523580Y-52075534D01*
X160496019Y-52090264D01*
X160484199Y-52195406D01*
X160473164Y-52206441D01*
X160026836Y-52206441D01*
X160015801Y-52195406D01*
X160003981Y-52090264D01*
X159839704Y-52019309D01*
X159500000Y-51679605D01*
X159157002Y-52022603D01*
X159023580Y-52075534D01*
X158996019Y-52090264D01*
X158984199Y-52195406D01*
X158973164Y-52206441D01*
X155026272Y-52206441D01*
X154937582Y-51760568D01*
X154865430Y-51586377D01*
X158463587Y-51586377D01*
X158500353Y-51786912D01*
X158575534Y-51976420D01*
X158590264Y-52003981D01*
X158793559Y-52026836D01*
X159320395Y-51500000D01*
X159679605Y-51500000D01*
X160022603Y-51842998D01*
X160075534Y-51976420D01*
X160090264Y-52003981D01*
X160195406Y-52015801D01*
X160206441Y-52026836D01*
X160250000Y-52021939D01*
X160293559Y-52026836D01*
X160304594Y-52015801D01*
X160409736Y-52003981D01*
X160480691Y-51839704D01*
X160820395Y-51500000D01*
X161179605Y-51500000D01*
X161522603Y-51842998D01*
X161575534Y-51976420D01*
X161590264Y-52003981D01*
X161695406Y-52015801D01*
X161706441Y-52026836D01*
X161750000Y-52021939D01*
X161793559Y-52026836D01*
X161804594Y-52015801D01*
X161909736Y-52003981D01*
X161980691Y-51839704D01*
X162320395Y-51500000D01*
X162679605Y-51500000D01*
X163206441Y-52026836D01*
X163409736Y-52003981D01*
X163490577Y-51816816D01*
X163533351Y-51617477D01*
X163536413Y-51413623D01*
X163499647Y-51213088D01*
X163424466Y-51023580D01*
X163409736Y-50996019D01*
X163206441Y-50973164D01*
X162679605Y-51500000D01*
X162320395Y-51500000D01*
X161977397Y-51157002D01*
X161924466Y-51023580D01*
X161909736Y-50996019D01*
X161804594Y-50984199D01*
X161793559Y-50973164D01*
X161750000Y-50978061D01*
X161706441Y-50973164D01*
X161695406Y-50984199D01*
X161590264Y-50996019D01*
X161519309Y-51160296D01*
X161179605Y-51500000D01*
X160820395Y-51500000D01*
X160477397Y-51157002D01*
X160424466Y-51023580D01*
X160409736Y-50996019D01*
X160304594Y-50984199D01*
X160293559Y-50973164D01*
X160250000Y-50978061D01*
X160206441Y-50973164D01*
X160195406Y-50984199D01*
X160090264Y-50996019D01*
X160019309Y-51160296D01*
X159679605Y-51500000D01*
X159320395Y-51500000D01*
X158793559Y-50973164D01*
X158590264Y-50996019D01*
X158509423Y-51183184D01*
X158466649Y-51382523D01*
X158463587Y-51586377D01*
X154865430Y-51586377D01*
X154746488Y-51299227D01*
X154469063Y-50884032D01*
X154245031Y-50660000D01*
X158988179Y-50660000D01*
X158973164Y-50793559D01*
X158973164Y-50793559D01*
G37*
X158973164Y-50793559D02*
X159500000Y-51320395D01*
X160026836Y-50793559D01*
X160011821Y-50660000D01*
X160488179Y-50660000D01*
X160473164Y-50793559D01*
X161000000Y-51320395D01*
X161526836Y-50793559D01*
X161511821Y-50660000D01*
X161988179Y-50660000D01*
X161973164Y-50793559D01*
X162500000Y-51320395D01*
X163026836Y-50793559D01*
X163011821Y-50660000D01*
X186894198Y-50660000D01*
X186840226Y-50696063D01*
X186696063Y-50840226D01*
X186582795Y-51009744D01*
X186504774Y-51198102D01*
X186465000Y-51398061D01*
X186465000Y-51601939D01*
X186504774Y-51801898D01*
X186582795Y-51990256D01*
X186696063Y-52159774D01*
X186786289Y-52250000D01*
X186696063Y-52340226D01*
X186582795Y-52509744D01*
X186504774Y-52698102D01*
X186465000Y-52898061D01*
X186465000Y-53101939D01*
X186504774Y-53301898D01*
X186582795Y-53490256D01*
X186696063Y-53659774D01*
X186786289Y-53750000D01*
X186696063Y-53840226D01*
X186582795Y-54009744D01*
X186504774Y-54198102D01*
X186465000Y-54398061D01*
X186465000Y-54601939D01*
X186504774Y-54801898D01*
X186582795Y-54990256D01*
X186696063Y-55159774D01*
X186840226Y-55303937D01*
X187009744Y-55417205D01*
X187198102Y-55495226D01*
X187398061Y-55535000D01*
X187601939Y-55535000D01*
X187801898Y-55495226D01*
X187990256Y-55417205D01*
X188159774Y-55303937D01*
X188250000Y-55213711D01*
X188340226Y-55303937D01*
X188509744Y-55417205D01*
X188698102Y-55495226D01*
X188898061Y-55535000D01*
X189101939Y-55535000D01*
X189301898Y-55495226D01*
X189490256Y-55417205D01*
X189659774Y-55303937D01*
X189750000Y-55213711D01*
X189840226Y-55303937D01*
X190009744Y-55417205D01*
X190198102Y-55495226D01*
X190398061Y-55535000D01*
X190601939Y-55535000D01*
X190801898Y-55495226D01*
X190990256Y-55417205D01*
X191159774Y-55303937D01*
X191303937Y-55159774D01*
X191417205Y-54990256D01*
X191495226Y-54801898D01*
X191535000Y-54601939D01*
X191535000Y-54398061D01*
X191495226Y-54198102D01*
X191417205Y-54009744D01*
X191303937Y-53840226D01*
X191213711Y-53750000D01*
X191303937Y-53659774D01*
X191417205Y-53490256D01*
X191495226Y-53301898D01*
X191535000Y-53101939D01*
X191535000Y-52898061D01*
X191495226Y-52698102D01*
X191417205Y-52509744D01*
X191303937Y-52340226D01*
X191213711Y-52250000D01*
X191303937Y-52159774D01*
X191417205Y-51990256D01*
X191495226Y-51801898D01*
X191535000Y-51601939D01*
X191535000Y-51398061D01*
X191495226Y-51198102D01*
X191417205Y-51009744D01*
X191303937Y-50840226D01*
X191159774Y-50696063D01*
X191105802Y-50660000D01*
X195754969Y-50660000D01*
X195530937Y-50884032D01*
X195253512Y-51299227D01*
X195062418Y-51760568D01*
X194965000Y-52250324D01*
X194965000Y-52749676D01*
X195062418Y-53239432D01*
X195253512Y-53700773D01*
X195530937Y-54115968D01*
X195884032Y-54469063D01*
X196299227Y-54746488D01*
X196760568Y-54937582D01*
X197250324Y-55035000D01*
X197749676Y-55035000D01*
X198239432Y-54937582D01*
X198700773Y-54746488D01*
X199115968Y-54469063D01*
X199340000Y-54245031D01*
X199340000Y-58988179D01*
X199206441Y-58973164D01*
X198679605Y-59500000D01*
X199206441Y-60026836D01*
X199340000Y-60011821D01*
X199340000Y-60488179D01*
X199206441Y-60473164D01*
X198679605Y-61000000D01*
X199206441Y-61526836D01*
X199340000Y-61511821D01*
X199340000Y-61988179D01*
X199206441Y-61973164D01*
X198679605Y-62500000D01*
X199206441Y-63026836D01*
X199340000Y-63011821D01*
X199340001Y-86894199D01*
X199303937Y-86840226D01*
X199159774Y-86696063D01*
X198990256Y-86582795D01*
X198801898Y-86504774D01*
X198601939Y-86465000D01*
X198398061Y-86465000D01*
X198198102Y-86504774D01*
X198009744Y-86582795D01*
X197840226Y-86696063D01*
X197750000Y-86786289D01*
X197659774Y-86696063D01*
X197490256Y-86582795D01*
X197301898Y-86504774D01*
X197101939Y-86465000D01*
X196898061Y-86465000D01*
X196698102Y-86504774D01*
X196509744Y-86582795D01*
X196340226Y-86696063D01*
X196250000Y-86786289D01*
X196159774Y-86696063D01*
X195990256Y-86582795D01*
X195801898Y-86504774D01*
X195601939Y-86465000D01*
X195398061Y-86465000D01*
X195198102Y-86504774D01*
X195009744Y-86582795D01*
X194840226Y-86696063D01*
X194696063Y-86840226D01*
X194582795Y-87009744D01*
X194504774Y-87198102D01*
X194465000Y-87398061D01*
X194465000Y-87601939D01*
X194504774Y-87801898D01*
X194582795Y-87990256D01*
X194696063Y-88159774D01*
X194786289Y-88250000D01*
X194696063Y-88340226D01*
X194582795Y-88509744D01*
X194504774Y-88698102D01*
X194465000Y-88898061D01*
X194465000Y-89101939D01*
X194504774Y-89301898D01*
X194582795Y-89490256D01*
X194696063Y-89659774D01*
X194786289Y-89750000D01*
X194696063Y-89840226D01*
X194582795Y-90009744D01*
X194504774Y-90198102D01*
X194465000Y-90398061D01*
X194465000Y-90601939D01*
X194504774Y-90801898D01*
X194582795Y-90990256D01*
X194696063Y-91159774D01*
X194840226Y-91303937D01*
X195009744Y-91417205D01*
X195198102Y-91495226D01*
X195398061Y-91535000D01*
X195601939Y-91535000D01*
X195801898Y-91495226D01*
X195990256Y-91417205D01*
X196159774Y-91303937D01*
X196250000Y-91213711D01*
X196340226Y-91303937D01*
X196509744Y-91417205D01*
X196698102Y-91495226D01*
X196898061Y-91535000D01*
X197101939Y-91535000D01*
X197301898Y-91495226D01*
X197490256Y-91417205D01*
X197659774Y-91303937D01*
X197750000Y-91213711D01*
X197840226Y-91303937D01*
X198009744Y-91417205D01*
X198198102Y-91495226D01*
X198398061Y-91535000D01*
X198601939Y-91535000D01*
X198801898Y-91495226D01*
X198990256Y-91417205D01*
X199159774Y-91303937D01*
X199303937Y-91159774D01*
X199340001Y-91105801D01*
X199340001Y-95754970D01*
X199115968Y-95530937D01*
X198700773Y-95253512D01*
X198239432Y-95062418D01*
X197749676Y-94965000D01*
X197250324Y-94965000D01*
X196760568Y-95062418D01*
X196299227Y-95253512D01*
X195884032Y-95530937D01*
X195530937Y-95884032D01*
X195253512Y-96299227D01*
X195062418Y-96760568D01*
X194965000Y-97250324D01*
X194965000Y-97749676D01*
X195062418Y-98239432D01*
X195253512Y-98700773D01*
X195530937Y-99115968D01*
X195754969Y-99340000D01*
X191011821Y-99340000D01*
X191026836Y-99206441D01*
X190500000Y-98679605D01*
X189973164Y-99206441D01*
X189988179Y-99340000D01*
X189511821Y-99340000D01*
X189526836Y-99206441D01*
X189000000Y-98679605D01*
X188473164Y-99206441D01*
X188488179Y-99340000D01*
X188011821Y-99340000D01*
X188026836Y-99206441D01*
X187500000Y-98679605D01*
X186973164Y-99206441D01*
X186988179Y-99340000D01*
X163105802Y-99340000D01*
X163159774Y-99303937D01*
X163303937Y-99159774D01*
X163417205Y-98990256D01*
X163495226Y-98801898D01*
X163535000Y-98601939D01*
X163535000Y-98586377D01*
X186463587Y-98586377D01*
X186500353Y-98786912D01*
X186575534Y-98976420D01*
X186590264Y-99003981D01*
X186793559Y-99026836D01*
X187320395Y-98500000D01*
X187679605Y-98500000D01*
X188022603Y-98842998D01*
X188075534Y-98976420D01*
X188090264Y-99003981D01*
X188195406Y-99015801D01*
X188206441Y-99026836D01*
X188250000Y-99021939D01*
X188293559Y-99026836D01*
X188304594Y-99015801D01*
X188409736Y-99003981D01*
X188480691Y-98839704D01*
X188820395Y-98500000D01*
X189179605Y-98500000D01*
X189522603Y-98842998D01*
X189575534Y-98976420D01*
X189590264Y-99003981D01*
X189695406Y-99015801D01*
X189706441Y-99026836D01*
X189750000Y-99021939D01*
X189793559Y-99026836D01*
X189804594Y-99015801D01*
X189909736Y-99003981D01*
X189980691Y-98839704D01*
X190320395Y-98500000D01*
X190679605Y-98500000D01*
X191206441Y-99026836D01*
X191409736Y-99003981D01*
X191490577Y-98816816D01*
X191533351Y-98617477D01*
X191536413Y-98413623D01*
X191499647Y-98213088D01*
X191424466Y-98023580D01*
X191409736Y-97996019D01*
X191206441Y-97973164D01*
X190679605Y-98500000D01*
X190320395Y-98500000D01*
X189977397Y-98157002D01*
X189924466Y-98023580D01*
X189909736Y-97996019D01*
X189804594Y-97984199D01*
X189793559Y-97973164D01*
X189750000Y-97978061D01*
X189706441Y-97973164D01*
X189695406Y-97984199D01*
X189590264Y-97996019D01*
X189519309Y-98160296D01*
X189179605Y-98500000D01*
X188820395Y-98500000D01*
X188477397Y-98157002D01*
X188424466Y-98023580D01*
X188409736Y-97996019D01*
X188304594Y-97984199D01*
X188293559Y-97973164D01*
X188250000Y-97978061D01*
X188206441Y-97973164D01*
X188195406Y-97984199D01*
X188090264Y-97996019D01*
X188019309Y-98160296D01*
X187679605Y-98500000D01*
X187320395Y-98500000D01*
X186793559Y-97973164D01*
X186590264Y-97996019D01*
X186509423Y-98183184D01*
X186466649Y-98382523D01*
X186463587Y-98586377D01*
X163535000Y-98586377D01*
X163535000Y-98398061D01*
X163496885Y-98206441D01*
X168973164Y-98206441D01*
X168996019Y-98409736D01*
X169183184Y-98490577D01*
X169382523Y-98533351D01*
X169586377Y-98536413D01*
X169786912Y-98499647D01*
X169976420Y-98424466D01*
X170003981Y-98409736D01*
X170026836Y-98206441D01*
X170473164Y-98206441D01*
X170496019Y-98409736D01*
X170683184Y-98490577D01*
X170882523Y-98533351D01*
X171086377Y-98536413D01*
X171286912Y-98499647D01*
X171476420Y-98424466D01*
X171503981Y-98409736D01*
X171526836Y-98206441D01*
X171973164Y-98206441D01*
X171996019Y-98409736D01*
X172183184Y-98490577D01*
X172382523Y-98533351D01*
X172586377Y-98536413D01*
X172786912Y-98499647D01*
X172976420Y-98424466D01*
X173003981Y-98409736D01*
X173026836Y-98206441D01*
X172500000Y-97679605D01*
X171973164Y-98206441D01*
X171526836Y-98206441D01*
X171000000Y-97679605D01*
X170473164Y-98206441D01*
X170026836Y-98206441D01*
X169500000Y-97679605D01*
X168973164Y-98206441D01*
X163496885Y-98206441D01*
X163495226Y-98198102D01*
X163417205Y-98009744D01*
X163303937Y-97840226D01*
X163213711Y-97750000D01*
X163303937Y-97659774D01*
X163352979Y-97586377D01*
X168463587Y-97586377D01*
X168500353Y-97786912D01*
X168575534Y-97976420D01*
X168590264Y-98003981D01*
X168793559Y-98026836D01*
X169320395Y-97500000D01*
X169679605Y-97500000D01*
X170022603Y-97842998D01*
X170075534Y-97976420D01*
X170090264Y-98003981D01*
X170195406Y-98015801D01*
X170206441Y-98026836D01*
X170250000Y-98021939D01*
X170293559Y-98026836D01*
X170304594Y-98015801D01*
X170409736Y-98003981D01*
X170480691Y-97839704D01*
X170820395Y-97500000D01*
X171179605Y-97500000D01*
X171522603Y-97842998D01*
X171575534Y-97976420D01*
X171590264Y-98003981D01*
X171695406Y-98015801D01*
X171706441Y-98026836D01*
X171750000Y-98021939D01*
X171793559Y-98026836D01*
X171804594Y-98015801D01*
X171909736Y-98003981D01*
X171980691Y-97839704D01*
X172320395Y-97500000D01*
X172679605Y-97500000D01*
X173206441Y-98026836D01*
X173409736Y-98003981D01*
X173490577Y-97816816D01*
X173533351Y-97617477D01*
X173536413Y-97413623D01*
X173499647Y-97213088D01*
X173424466Y-97023580D01*
X173409736Y-96996019D01*
X173206441Y-96973164D01*
X172679605Y-97500000D01*
X172320395Y-97500000D01*
X171977397Y-97157002D01*
X171924466Y-97023580D01*
X171909736Y-96996019D01*
X171804594Y-96984199D01*
X171793559Y-96973164D01*
X171750000Y-96978061D01*
X171706441Y-96973164D01*
X171695406Y-96984199D01*
X171590264Y-96996019D01*
X171519309Y-97160296D01*
X171179605Y-97500000D01*
X170820395Y-97500000D01*
X170477397Y-97157002D01*
X170424466Y-97023580D01*
X170409736Y-96996019D01*
X170304594Y-96984199D01*
X170293559Y-96973164D01*
X170250000Y-96978061D01*
X170206441Y-96973164D01*
X170195406Y-96984199D01*
X170090264Y-96996019D01*
X170019309Y-97160296D01*
X169679605Y-97500000D01*
X169320395Y-97500000D01*
X168793559Y-96973164D01*
X168590264Y-96996019D01*
X168509423Y-97183184D01*
X168466649Y-97382523D01*
X168463587Y-97586377D01*
X163352979Y-97586377D01*
X163417205Y-97490256D01*
X163495226Y-97301898D01*
X163535000Y-97101939D01*
X163535000Y-96898061D01*
X163496885Y-96706441D01*
X168973164Y-96706441D01*
X168978061Y-96750000D01*
X168973164Y-96793559D01*
X168984199Y-96804594D01*
X168996019Y-96909736D01*
X169160296Y-96980691D01*
X169500000Y-97320395D01*
X169842998Y-96977397D01*
X169976420Y-96924466D01*
X170003981Y-96909736D01*
X170015801Y-96804594D01*
X170026836Y-96793559D01*
X170021939Y-96750000D01*
X170026836Y-96706441D01*
X170473164Y-96706441D01*
X170478061Y-96750000D01*
X170473164Y-96793559D01*
X170484199Y-96804594D01*
X170496019Y-96909736D01*
X170660296Y-96980691D01*
X171000000Y-97320395D01*
X171342998Y-96977397D01*
X171476420Y-96924466D01*
X171503981Y-96909736D01*
X171515801Y-96804594D01*
X171526836Y-96793559D01*
X171521939Y-96750000D01*
X171526836Y-96706441D01*
X171973164Y-96706441D01*
X171978061Y-96750000D01*
X171973164Y-96793559D01*
X171984199Y-96804594D01*
X171996019Y-96909736D01*
X172160296Y-96980691D01*
X172500000Y-97320395D01*
X172842998Y-96977397D01*
X172976420Y-96924466D01*
X173003981Y-96909736D01*
X173015801Y-96804594D01*
X173026836Y-96793559D01*
X173021939Y-96750000D01*
X173026836Y-96706441D01*
X173015801Y-96695406D01*
X173003981Y-96590264D01*
X172839704Y-96519309D01*
X172500000Y-96179605D01*
X172157002Y-96522603D01*
X172023580Y-96575534D01*
X171996019Y-96590264D01*
X171984199Y-96695406D01*
X171973164Y-96706441D01*
X171526836Y-96706441D01*
X171515801Y-96695406D01*
X171503981Y-96590264D01*
X171339704Y-96519309D01*
X171000000Y-96179605D01*
X170657002Y-96522603D01*
X170523580Y-96575534D01*
X170496019Y-96590264D01*
X170484199Y-96695406D01*
X170473164Y-96706441D01*
X170026836Y-96706441D01*
X170015801Y-96695406D01*
X170003981Y-96590264D01*
X169839704Y-96519309D01*
X169500000Y-96179605D01*
X169157002Y-96522603D01*
X169023580Y-96575534D01*
X168996019Y-96590264D01*
X168984199Y-96695406D01*
X168973164Y-96706441D01*
X163496885Y-96706441D01*
X163495226Y-96698102D01*
X163417205Y-96509744D01*
X163303937Y-96340226D01*
X163213711Y-96250000D01*
X163303937Y-96159774D01*
X163352979Y-96086377D01*
X168463587Y-96086377D01*
X168500353Y-96286912D01*
X168575534Y-96476420D01*
X168590264Y-96503981D01*
X168793559Y-96526836D01*
X169320395Y-96000000D01*
X169679605Y-96000000D01*
X170022603Y-96342998D01*
X170075534Y-96476420D01*
X170090264Y-96503981D01*
X170195406Y-96515801D01*
X170206441Y-96526836D01*
X170250000Y-96521939D01*
X170293559Y-96526836D01*
X170304594Y-96515801D01*
X170409736Y-96503981D01*
X170480691Y-96339704D01*
X170820395Y-96000000D01*
X171179605Y-96000000D01*
X171522603Y-96342998D01*
X171575534Y-96476420D01*
X171590264Y-96503981D01*
X171695406Y-96515801D01*
X171706441Y-96526836D01*
X171750000Y-96521939D01*
X171793559Y-96526836D01*
X171804594Y-96515801D01*
X171909736Y-96503981D01*
X171980691Y-96339704D01*
X172320395Y-96000000D01*
X172679605Y-96000000D01*
X173206441Y-96526836D01*
X173409736Y-96503981D01*
X173490577Y-96316816D01*
X173533351Y-96117477D01*
X173536413Y-95913623D01*
X173499647Y-95713088D01*
X173424466Y-95523580D01*
X173409736Y-95496019D01*
X173206441Y-95473164D01*
X172679605Y-96000000D01*
X172320395Y-96000000D01*
X171977397Y-95657002D01*
X171924466Y-95523580D01*
X171909736Y-95496019D01*
X171804594Y-95484199D01*
X171793559Y-95473164D01*
X171750000Y-95478061D01*
X171706441Y-95473164D01*
X171695406Y-95484199D01*
X171590264Y-95496019D01*
X171519309Y-95660296D01*
X171179605Y-96000000D01*
X170820395Y-96000000D01*
X170477397Y-95657002D01*
X170424466Y-95523580D01*
X170409736Y-95496019D01*
X170304594Y-95484199D01*
X170293559Y-95473164D01*
X170250000Y-95478061D01*
X170206441Y-95473164D01*
X170195406Y-95484199D01*
X170090264Y-95496019D01*
X170019309Y-95660296D01*
X169679605Y-96000000D01*
X169320395Y-96000000D01*
X168793559Y-95473164D01*
X168590264Y-95496019D01*
X168509423Y-95683184D01*
X168466649Y-95882523D01*
X168463587Y-96086377D01*
X163352979Y-96086377D01*
X163417205Y-95990256D01*
X163495226Y-95801898D01*
X163535000Y-95601939D01*
X163535000Y-95398061D01*
X163496885Y-95206441D01*
X168973164Y-95206441D01*
X168978061Y-95250000D01*
X168973164Y-95293559D01*
X168984199Y-95304594D01*
X168996019Y-95409736D01*
X169160296Y-95480691D01*
X169500000Y-95820395D01*
X169842998Y-95477397D01*
X169976420Y-95424466D01*
X170003981Y-95409736D01*
X170015801Y-95304594D01*
X170026836Y-95293559D01*
X170021939Y-95250000D01*
X170026836Y-95206441D01*
X170473164Y-95206441D01*
X170478061Y-95250000D01*
X170473164Y-95293559D01*
X170484199Y-95304594D01*
X170496019Y-95409736D01*
X170660296Y-95480691D01*
X171000000Y-95820395D01*
X171342998Y-95477397D01*
X171476420Y-95424466D01*
X171503981Y-95409736D01*
X171515801Y-95304594D01*
X171526836Y-95293559D01*
X171521939Y-95250000D01*
X171526836Y-95206441D01*
X171973164Y-95206441D01*
X171978061Y-95250000D01*
X171973164Y-95293559D01*
X171984199Y-95304594D01*
X171996019Y-95409736D01*
X172160296Y-95480691D01*
X172500000Y-95820395D01*
X172842998Y-95477397D01*
X172976420Y-95424466D01*
X173003981Y-95409736D01*
X173015801Y-95304594D01*
X173026836Y-95293559D01*
X173021939Y-95250000D01*
X173026836Y-95206441D01*
X173015801Y-95195406D01*
X173003981Y-95090264D01*
X172839704Y-95019309D01*
X172500000Y-94679605D01*
X172157002Y-95022603D01*
X172023580Y-95075534D01*
X171996019Y-95090264D01*
X171984199Y-95195406D01*
X171973164Y-95206441D01*
X171526836Y-95206441D01*
X171515801Y-95195406D01*
X171503981Y-95090264D01*
X171339704Y-95019309D01*
X171000000Y-94679605D01*
X170657002Y-95022603D01*
X170523580Y-95075534D01*
X170496019Y-95090264D01*
X170484199Y-95195406D01*
X170473164Y-95206441D01*
X170026836Y-95206441D01*
X170015801Y-95195406D01*
X170003981Y-95090264D01*
X169839704Y-95019309D01*
X169500000Y-94679605D01*
X169157002Y-95022603D01*
X169023580Y-95075534D01*
X168996019Y-95090264D01*
X168984199Y-95195406D01*
X168973164Y-95206441D01*
X163496885Y-95206441D01*
X163495226Y-95198102D01*
X163417205Y-95009744D01*
X163303937Y-94840226D01*
X163159774Y-94696063D01*
X162995617Y-94586377D01*
X168463587Y-94586377D01*
X168500353Y-94786912D01*
X168575534Y-94976420D01*
X168590264Y-95003981D01*
X168793559Y-95026836D01*
X169320395Y-94500000D01*
X169679605Y-94500000D01*
X170022603Y-94842998D01*
X170075534Y-94976420D01*
X170090264Y-95003981D01*
X170195406Y-95015801D01*
X170206441Y-95026836D01*
X170250000Y-95021939D01*
X170293559Y-95026836D01*
X170304594Y-95015801D01*
X170409736Y-95003981D01*
X170480691Y-94839704D01*
X170820395Y-94500000D01*
X171179605Y-94500000D01*
X171522603Y-94842998D01*
X171575534Y-94976420D01*
X171590264Y-95003981D01*
X171695406Y-95015801D01*
X171706441Y-95026836D01*
X171750000Y-95021939D01*
X171793559Y-95026836D01*
X171804594Y-95015801D01*
X171909736Y-95003981D01*
X171980691Y-94839704D01*
X172320395Y-94500000D01*
X172679605Y-94500000D01*
X173206441Y-95026836D01*
X173409736Y-95003981D01*
X173490577Y-94816816D01*
X173533351Y-94617477D01*
X173536413Y-94413623D01*
X173533560Y-94398061D01*
X176465000Y-94398061D01*
X176465000Y-94601939D01*
X176504774Y-94801898D01*
X176582795Y-94990256D01*
X176696063Y-95159774D01*
X176786289Y-95250000D01*
X176696063Y-95340226D01*
X176582795Y-95509744D01*
X176504774Y-95698102D01*
X176465000Y-95898061D01*
X176465000Y-96101939D01*
X176504774Y-96301898D01*
X176582795Y-96490256D01*
X176696063Y-96659774D01*
X176786289Y-96750000D01*
X176696063Y-96840226D01*
X176582795Y-97009744D01*
X176504774Y-97198102D01*
X176465000Y-97398061D01*
X176465000Y-97601939D01*
X176504774Y-97801898D01*
X176582795Y-97990256D01*
X176696063Y-98159774D01*
X176840226Y-98303937D01*
X177009744Y-98417205D01*
X177198102Y-98495226D01*
X177398061Y-98535000D01*
X177601939Y-98535000D01*
X177801898Y-98495226D01*
X177990256Y-98417205D01*
X178159774Y-98303937D01*
X178250000Y-98213711D01*
X178340226Y-98303937D01*
X178509744Y-98417205D01*
X178698102Y-98495226D01*
X178898061Y-98535000D01*
X179101939Y-98535000D01*
X179301898Y-98495226D01*
X179490256Y-98417205D01*
X179659774Y-98303937D01*
X179750000Y-98213711D01*
X179840226Y-98303937D01*
X180009744Y-98417205D01*
X180198102Y-98495226D01*
X180398061Y-98535000D01*
X180601939Y-98535000D01*
X180801898Y-98495226D01*
X180990256Y-98417205D01*
X181159774Y-98303937D01*
X181303937Y-98159774D01*
X181417205Y-97990256D01*
X181495226Y-97801898D01*
X181514213Y-97706441D01*
X186973164Y-97706441D01*
X186978061Y-97750000D01*
X186973164Y-97793559D01*
X186984199Y-97804594D01*
X186996019Y-97909736D01*
X187160296Y-97980691D01*
X187500000Y-98320395D01*
X187842998Y-97977397D01*
X187976420Y-97924466D01*
X188003981Y-97909736D01*
X188015801Y-97804594D01*
X188026836Y-97793559D01*
X188021939Y-97750000D01*
X188026836Y-97706441D01*
X188473164Y-97706441D01*
X188478061Y-97750000D01*
X188473164Y-97793559D01*
X188484199Y-97804594D01*
X188496019Y-97909736D01*
X188660296Y-97980691D01*
X189000000Y-98320395D01*
X189342998Y-97977397D01*
X189476420Y-97924466D01*
X189503981Y-97909736D01*
X189515801Y-97804594D01*
X189526836Y-97793559D01*
X189521939Y-97750000D01*
X189526836Y-97706441D01*
X189973164Y-97706441D01*
X189978061Y-97750000D01*
X189973164Y-97793559D01*
X189984199Y-97804594D01*
X189996019Y-97909736D01*
X190160296Y-97980691D01*
X190500000Y-98320395D01*
X190842998Y-97977397D01*
X190976420Y-97924466D01*
X191003981Y-97909736D01*
X191015801Y-97804594D01*
X191026836Y-97793559D01*
X191021939Y-97750000D01*
X191026836Y-97706441D01*
X191015801Y-97695406D01*
X191003981Y-97590264D01*
X190839704Y-97519309D01*
X190500000Y-97179605D01*
X190157002Y-97522603D01*
X190023580Y-97575534D01*
X189996019Y-97590264D01*
X189984199Y-97695406D01*
X189973164Y-97706441D01*
X189526836Y-97706441D01*
X189515801Y-97695406D01*
X189503981Y-97590264D01*
X189339704Y-97519309D01*
X189000000Y-97179605D01*
X188657002Y-97522603D01*
X188523580Y-97575534D01*
X188496019Y-97590264D01*
X188484199Y-97695406D01*
X188473164Y-97706441D01*
X188026836Y-97706441D01*
X188015801Y-97695406D01*
X188003981Y-97590264D01*
X187839704Y-97519309D01*
X187500000Y-97179605D01*
X187157002Y-97522603D01*
X187023580Y-97575534D01*
X186996019Y-97590264D01*
X186984199Y-97695406D01*
X186973164Y-97706441D01*
X181514213Y-97706441D01*
X181535000Y-97601939D01*
X181535000Y-97398061D01*
X181495226Y-97198102D01*
X181448948Y-97086377D01*
X186463587Y-97086377D01*
X186500353Y-97286912D01*
X186575534Y-97476420D01*
X186590264Y-97503981D01*
X186793559Y-97526836D01*
X187320395Y-97000000D01*
X187679605Y-97000000D01*
X188022603Y-97342998D01*
X188075534Y-97476420D01*
X188090264Y-97503981D01*
X188195406Y-97515801D01*
X188206441Y-97526836D01*
X188250000Y-97521939D01*
X188293559Y-97526836D01*
X188304594Y-97515801D01*
X188409736Y-97503981D01*
X188480691Y-97339704D01*
X188820395Y-97000000D01*
X189179605Y-97000000D01*
X189522603Y-97342998D01*
X189575534Y-97476420D01*
X189590264Y-97503981D01*
X189695406Y-97515801D01*
X189706441Y-97526836D01*
X189750000Y-97521939D01*
X189793559Y-97526836D01*
X189804594Y-97515801D01*
X189909736Y-97503981D01*
X189980691Y-97339704D01*
X190320395Y-97000000D01*
X190679605Y-97000000D01*
X191206441Y-97526836D01*
X191409736Y-97503981D01*
X191490577Y-97316816D01*
X191533351Y-97117477D01*
X191536413Y-96913623D01*
X191499647Y-96713088D01*
X191424466Y-96523580D01*
X191409736Y-96496019D01*
X191206441Y-96473164D01*
X190679605Y-97000000D01*
X190320395Y-97000000D01*
X189977397Y-96657002D01*
X189924466Y-96523580D01*
X189909736Y-96496019D01*
X189804594Y-96484199D01*
X189793559Y-96473164D01*
X189750000Y-96478061D01*
X189706441Y-96473164D01*
X189695406Y-96484199D01*
X189590264Y-96496019D01*
X189519309Y-96660296D01*
X189179605Y-97000000D01*
X188820395Y-97000000D01*
X188477397Y-96657002D01*
X188424466Y-96523580D01*
X188409736Y-96496019D01*
X188304594Y-96484199D01*
X188293559Y-96473164D01*
X188250000Y-96478061D01*
X188206441Y-96473164D01*
X188195406Y-96484199D01*
X188090264Y-96496019D01*
X188019309Y-96660296D01*
X187679605Y-97000000D01*
X187320395Y-97000000D01*
X186793559Y-96473164D01*
X186590264Y-96496019D01*
X186509423Y-96683184D01*
X186466649Y-96882523D01*
X186463587Y-97086377D01*
X181448948Y-97086377D01*
X181417205Y-97009744D01*
X181303937Y-96840226D01*
X181213711Y-96750000D01*
X181303937Y-96659774D01*
X181417205Y-96490256D01*
X181495226Y-96301898D01*
X181514213Y-96206441D01*
X186973164Y-96206441D01*
X186978061Y-96250000D01*
X186973164Y-96293559D01*
X186984199Y-96304594D01*
X186996019Y-96409736D01*
X187160296Y-96480691D01*
X187500000Y-96820395D01*
X187842998Y-96477397D01*
X187976420Y-96424466D01*
X188003981Y-96409736D01*
X188015801Y-96304594D01*
X188026836Y-96293559D01*
X188021939Y-96250000D01*
X188026836Y-96206441D01*
X188473164Y-96206441D01*
X188478061Y-96250000D01*
X188473164Y-96293559D01*
X188484199Y-96304594D01*
X188496019Y-96409736D01*
X188660296Y-96480691D01*
X189000000Y-96820395D01*
X189342998Y-96477397D01*
X189476420Y-96424466D01*
X189503981Y-96409736D01*
X189515801Y-96304594D01*
X189526836Y-96293559D01*
X189521939Y-96250000D01*
X189526836Y-96206441D01*
X189973164Y-96206441D01*
X189978061Y-96250000D01*
X189973164Y-96293559D01*
X189984199Y-96304594D01*
X189996019Y-96409736D01*
X190160296Y-96480691D01*
X190500000Y-96820395D01*
X190842998Y-96477397D01*
X190976420Y-96424466D01*
X191003981Y-96409736D01*
X191015801Y-96304594D01*
X191026836Y-96293559D01*
X191021939Y-96250000D01*
X191026836Y-96206441D01*
X191015801Y-96195406D01*
X191003981Y-96090264D01*
X190839704Y-96019309D01*
X190500000Y-95679605D01*
X190157002Y-96022603D01*
X190023580Y-96075534D01*
X189996019Y-96090264D01*
X189984199Y-96195406D01*
X189973164Y-96206441D01*
X189526836Y-96206441D01*
X189515801Y-96195406D01*
X189503981Y-96090264D01*
X189339704Y-96019309D01*
X189000000Y-95679605D01*
X188657002Y-96022603D01*
X188523580Y-96075534D01*
X188496019Y-96090264D01*
X188484199Y-96195406D01*
X188473164Y-96206441D01*
X188026836Y-96206441D01*
X188015801Y-96195406D01*
X188003981Y-96090264D01*
X187839704Y-96019309D01*
X187500000Y-95679605D01*
X187157002Y-96022603D01*
X187023580Y-96075534D01*
X186996019Y-96090264D01*
X186984199Y-96195406D01*
X186973164Y-96206441D01*
X181514213Y-96206441D01*
X181535000Y-96101939D01*
X181535000Y-95898061D01*
X181495226Y-95698102D01*
X181448948Y-95586377D01*
X186463587Y-95586377D01*
X186500353Y-95786912D01*
X186575534Y-95976420D01*
X186590264Y-96003981D01*
X186793559Y-96026836D01*
X187320395Y-95500000D01*
X187679605Y-95500000D01*
X188022603Y-95842998D01*
X188075534Y-95976420D01*
X188090264Y-96003981D01*
X188195406Y-96015801D01*
X188206441Y-96026836D01*
X188250000Y-96021939D01*
X188293559Y-96026836D01*
X188304594Y-96015801D01*
X188409736Y-96003981D01*
X188480691Y-95839704D01*
X188820395Y-95500000D01*
X189179605Y-95500000D01*
X189522603Y-95842998D01*
X189575534Y-95976420D01*
X189590264Y-96003981D01*
X189695406Y-96015801D01*
X189706441Y-96026836D01*
X189750000Y-96021939D01*
X189793559Y-96026836D01*
X189804594Y-96015801D01*
X189909736Y-96003981D01*
X189980691Y-95839704D01*
X190320395Y-95500000D01*
X190679605Y-95500000D01*
X191206441Y-96026836D01*
X191409736Y-96003981D01*
X191490577Y-95816816D01*
X191533351Y-95617477D01*
X191536413Y-95413623D01*
X191499647Y-95213088D01*
X191424466Y-95023580D01*
X191409736Y-94996019D01*
X191206441Y-94973164D01*
X190679605Y-95500000D01*
X190320395Y-95500000D01*
X189977397Y-95157002D01*
X189924466Y-95023580D01*
X189909736Y-94996019D01*
X189804594Y-94984199D01*
X189793559Y-94973164D01*
X189750000Y-94978061D01*
X189706441Y-94973164D01*
X189695406Y-94984199D01*
X189590264Y-94996019D01*
X189519309Y-95160296D01*
X189179605Y-95500000D01*
X188820395Y-95500000D01*
X188477397Y-95157002D01*
X188424466Y-95023580D01*
X188409736Y-94996019D01*
X188304594Y-94984199D01*
X188293559Y-94973164D01*
X188250000Y-94978061D01*
X188206441Y-94973164D01*
X188195406Y-94984199D01*
X188090264Y-94996019D01*
X188019309Y-95160296D01*
X187679605Y-95500000D01*
X187320395Y-95500000D01*
X186793559Y-94973164D01*
X186590264Y-94996019D01*
X186509423Y-95183184D01*
X186466649Y-95382523D01*
X186463587Y-95586377D01*
X181448948Y-95586377D01*
X181417205Y-95509744D01*
X181303937Y-95340226D01*
X181213711Y-95250000D01*
X181303937Y-95159774D01*
X181417205Y-94990256D01*
X181495226Y-94801898D01*
X181496884Y-94793559D01*
X186973164Y-94793559D01*
X187500000Y-95320395D01*
X188026836Y-94793559D01*
X188473164Y-94793559D01*
X189000000Y-95320395D01*
X189526836Y-94793559D01*
X189973164Y-94793559D01*
X190500000Y-95320395D01*
X191026836Y-94793559D01*
X191003981Y-94590264D01*
X190816816Y-94509423D01*
X190617477Y-94466649D01*
X190413623Y-94463587D01*
X190213088Y-94500353D01*
X190023580Y-94575534D01*
X189996019Y-94590264D01*
X189973164Y-94793559D01*
X189526836Y-94793559D01*
X189503981Y-94590264D01*
X189316816Y-94509423D01*
X189117477Y-94466649D01*
X188913623Y-94463587D01*
X188713088Y-94500353D01*
X188523580Y-94575534D01*
X188496019Y-94590264D01*
X188473164Y-94793559D01*
X188026836Y-94793559D01*
X188003981Y-94590264D01*
X187816816Y-94509423D01*
X187617477Y-94466649D01*
X187413623Y-94463587D01*
X187213088Y-94500353D01*
X187023580Y-94575534D01*
X186996019Y-94590264D01*
X186973164Y-94793559D01*
X181496884Y-94793559D01*
X181535000Y-94601939D01*
X181535000Y-94398061D01*
X181495226Y-94198102D01*
X181417205Y-94009744D01*
X181303937Y-93840226D01*
X181159774Y-93696063D01*
X180990256Y-93582795D01*
X180801898Y-93504774D01*
X180601939Y-93465000D01*
X180398061Y-93465000D01*
X180198102Y-93504774D01*
X180009744Y-93582795D01*
X179840226Y-93696063D01*
X179750000Y-93786289D01*
X179659774Y-93696063D01*
X179490256Y-93582795D01*
X179301898Y-93504774D01*
X179101939Y-93465000D01*
X178898061Y-93465000D01*
X178698102Y-93504774D01*
X178509744Y-93582795D01*
X178340226Y-93696063D01*
X178250000Y-93786289D01*
X178159774Y-93696063D01*
X177990256Y-93582795D01*
X177801898Y-93504774D01*
X177601939Y-93465000D01*
X177398061Y-93465000D01*
X177198102Y-93504774D01*
X177009744Y-93582795D01*
X176840226Y-93696063D01*
X176696063Y-93840226D01*
X176582795Y-94009744D01*
X176504774Y-94198102D01*
X176465000Y-94398061D01*
X173533560Y-94398061D01*
X173499647Y-94213088D01*
X173424466Y-94023580D01*
X173409736Y-93996019D01*
X173206441Y-93973164D01*
X172679605Y-94500000D01*
X172320395Y-94500000D01*
X171977397Y-94157002D01*
X171924466Y-94023580D01*
X171909736Y-93996019D01*
X171804594Y-93984199D01*
X171793559Y-93973164D01*
X171750000Y-93978061D01*
X171706441Y-93973164D01*
X171695406Y-93984199D01*
X171590264Y-93996019D01*
X171519309Y-94160296D01*
X171179605Y-94500000D01*
X170820395Y-94500000D01*
X170477397Y-94157002D01*
X170424466Y-94023580D01*
X170409736Y-93996019D01*
X170304594Y-93984199D01*
X170293559Y-93973164D01*
X170250000Y-93978061D01*
X170206441Y-93973164D01*
X170195406Y-93984199D01*
X170090264Y-93996019D01*
X170019309Y-94160296D01*
X169679605Y-94500000D01*
X169320395Y-94500000D01*
X168793559Y-93973164D01*
X168590264Y-93996019D01*
X168509423Y-94183184D01*
X168466649Y-94382523D01*
X168463587Y-94586377D01*
X162995617Y-94586377D01*
X162990256Y-94582795D01*
X162801898Y-94504774D01*
X162601939Y-94465000D01*
X162398061Y-94465000D01*
X162198102Y-94504774D01*
X162009744Y-94582795D01*
X161840226Y-94696063D01*
X161750000Y-94786289D01*
X161659774Y-94696063D01*
X161490256Y-94582795D01*
X161301898Y-94504774D01*
X161101939Y-94465000D01*
X160898061Y-94465000D01*
X160698102Y-94504774D01*
X160509744Y-94582795D01*
X160340226Y-94696063D01*
X160250000Y-94786289D01*
X160159774Y-94696063D01*
X159990256Y-94582795D01*
X159801898Y-94504774D01*
X159601939Y-94465000D01*
X159398061Y-94465000D01*
X159198102Y-94504774D01*
X159009744Y-94582795D01*
X158840226Y-94696063D01*
X158696063Y-94840226D01*
X158582795Y-95009744D01*
X158504774Y-95198102D01*
X158465000Y-95398061D01*
X158465000Y-95601939D01*
X158504774Y-95801898D01*
X158582795Y-95990256D01*
X158696063Y-96159774D01*
X158786289Y-96250000D01*
X158696063Y-96340226D01*
X158582795Y-96509744D01*
X158504774Y-96698102D01*
X158465000Y-96898061D01*
X158465000Y-97101939D01*
X158504774Y-97301898D01*
X158582795Y-97490256D01*
X158696063Y-97659774D01*
X158786289Y-97750000D01*
X158696063Y-97840226D01*
X158582795Y-98009744D01*
X158504774Y-98198102D01*
X158465000Y-98398061D01*
X158465000Y-98601939D01*
X158504774Y-98801898D01*
X158582795Y-98990256D01*
X158696063Y-99159774D01*
X158840226Y-99303937D01*
X158894198Y-99340000D01*
X154245031Y-99340000D01*
X154469063Y-99115968D01*
X154746488Y-98700773D01*
X154937582Y-98239432D01*
X155035000Y-97749676D01*
X155035000Y-97250324D01*
X154937582Y-96760568D01*
X154746488Y-96299227D01*
X154469063Y-95884032D01*
X154115968Y-95530937D01*
X153700773Y-95253512D01*
X153239432Y-95062418D01*
X152749676Y-94965000D01*
X152250324Y-94965000D01*
X151760568Y-95062418D01*
X151299227Y-95253512D01*
X150884032Y-95530937D01*
X150660000Y-95754969D01*
X150660000Y-93793559D01*
X168973164Y-93793559D01*
X169500000Y-94320395D01*
X170026836Y-93793559D01*
X170473164Y-93793559D01*
X171000000Y-94320395D01*
X171526836Y-93793559D01*
X171973164Y-93793559D01*
X172500000Y-94320395D01*
X173026836Y-93793559D01*
X173003981Y-93590264D01*
X172816816Y-93509423D01*
X172617477Y-93466649D01*
X172413623Y-93463587D01*
X172213088Y-93500353D01*
X172023580Y-93575534D01*
X171996019Y-93590264D01*
X171973164Y-93793559D01*
X171526836Y-93793559D01*
X171503981Y-93590264D01*
X171316816Y-93509423D01*
X171117477Y-93466649D01*
X170913623Y-93463587D01*
X170713088Y-93500353D01*
X170523580Y-93575534D01*
X170496019Y-93590264D01*
X170473164Y-93793559D01*
X170026836Y-93793559D01*
X170003981Y-93590264D01*
X169816816Y-93509423D01*
X169617477Y-93466649D01*
X169413623Y-93463587D01*
X169213088Y-93500353D01*
X169023580Y-93575534D01*
X168996019Y-93590264D01*
X168973164Y-93793559D01*
X150660000Y-93793559D01*
X150660000Y-91206441D01*
X150973164Y-91206441D01*
X150996019Y-91409736D01*
X151183184Y-91490577D01*
X151382523Y-91533351D01*
X151586377Y-91536413D01*
X151786912Y-91499647D01*
X151976420Y-91424466D01*
X152003981Y-91409736D01*
X152026836Y-91206441D01*
X152473164Y-91206441D01*
X152496019Y-91409736D01*
X152683184Y-91490577D01*
X152882523Y-91533351D01*
X153086377Y-91536413D01*
X153286912Y-91499647D01*
X153476420Y-91424466D01*
X153503981Y-91409736D01*
X153526836Y-91206441D01*
X153973164Y-91206441D01*
X153996019Y-91409736D01*
X154183184Y-91490577D01*
X154382523Y-91533351D01*
X154586377Y-91536413D01*
X154786912Y-91499647D01*
X154976420Y-91424466D01*
X155003981Y-91409736D01*
X155026836Y-91206441D01*
X154500000Y-90679605D01*
X153973164Y-91206441D01*
X153526836Y-91206441D01*
X153000000Y-90679605D01*
X152473164Y-91206441D01*
X152026836Y-91206441D01*
X151500000Y-90679605D01*
X150973164Y-91206441D01*
X150660000Y-91206441D01*
X150660000Y-91011821D01*
X150793559Y-91026836D01*
X151320395Y-90500000D01*
X151679605Y-90500000D01*
X152022603Y-90842998D01*
X152075534Y-90976420D01*
X152090264Y-91003981D01*
X152195406Y-91015801D01*
X152206441Y-91026836D01*
X152250000Y-91021939D01*
X152293559Y-91026836D01*
X152304594Y-91015801D01*
X152409736Y-91003981D01*
X152480691Y-90839704D01*
X152820395Y-90500000D01*
X153179605Y-90500000D01*
X153522603Y-90842998D01*
X153575534Y-90976420D01*
X153590264Y-91003981D01*
X153695406Y-91015801D01*
X153706441Y-91026836D01*
X153750000Y-91021939D01*
X153793559Y-91026836D01*
X153804594Y-91015801D01*
X153909736Y-91003981D01*
X153980691Y-90839704D01*
X154320395Y-90500000D01*
X154679605Y-90500000D01*
X155206441Y-91026836D01*
X155409736Y-91003981D01*
X155490577Y-90816816D01*
X155533351Y-90617477D01*
X155536413Y-90413623D01*
X155499647Y-90213088D01*
X155424466Y-90023580D01*
X155409736Y-89996019D01*
X155206441Y-89973164D01*
X154679605Y-90500000D01*
X154320395Y-90500000D01*
X153977397Y-90157002D01*
X153924466Y-90023580D01*
X153909736Y-89996019D01*
X153804594Y-89984199D01*
X153793559Y-89973164D01*
X153750000Y-89978061D01*
X153706441Y-89973164D01*
X153695406Y-89984199D01*
X153590264Y-89996019D01*
X153519309Y-90160296D01*
X153179605Y-90500000D01*
X152820395Y-90500000D01*
X152477397Y-90157002D01*
X152424466Y-90023580D01*
X152409736Y-89996019D01*
X152304594Y-89984199D01*
X152293559Y-89973164D01*
X152250000Y-89978061D01*
X152206441Y-89973164D01*
X152195406Y-89984199D01*
X152090264Y-89996019D01*
X152019309Y-90160296D01*
X151679605Y-90500000D01*
X151320395Y-90500000D01*
X150793559Y-89973164D01*
X150660000Y-89988179D01*
X150660000Y-89706441D01*
X150973164Y-89706441D01*
X150978061Y-89750000D01*
X150973164Y-89793559D01*
X150984199Y-89804594D01*
X150996019Y-89909736D01*
X151160296Y-89980691D01*
X151500000Y-90320395D01*
X151842998Y-89977397D01*
X151976420Y-89924466D01*
X152003981Y-89909736D01*
X152015801Y-89804594D01*
X152026836Y-89793559D01*
X152021939Y-89750000D01*
X152026836Y-89706441D01*
X152473164Y-89706441D01*
X152478061Y-89750000D01*
X152473164Y-89793559D01*
X152484199Y-89804594D01*
X152496019Y-89909736D01*
X152660296Y-89980691D01*
X153000000Y-90320395D01*
X153342998Y-89977397D01*
X153476420Y-89924466D01*
X153503981Y-89909736D01*
X153515801Y-89804594D01*
X153526836Y-89793559D01*
X153521939Y-89750000D01*
X153526836Y-89706441D01*
X153973164Y-89706441D01*
X153978061Y-89750000D01*
X153973164Y-89793559D01*
X153984199Y-89804594D01*
X153996019Y-89909736D01*
X154160296Y-89980691D01*
X154500000Y-90320395D01*
X154842998Y-89977397D01*
X154976420Y-89924466D01*
X155003981Y-89909736D01*
X155015801Y-89804594D01*
X155026836Y-89793559D01*
X155021939Y-89750000D01*
X155026836Y-89706441D01*
X155015801Y-89695406D01*
X155003981Y-89590264D01*
X154839704Y-89519309D01*
X154500000Y-89179605D01*
X154157002Y-89522603D01*
X154023580Y-89575534D01*
X153996019Y-89590264D01*
X153984199Y-89695406D01*
X153973164Y-89706441D01*
X153526836Y-89706441D01*
X153515801Y-89695406D01*
X153503981Y-89590264D01*
X153339704Y-89519309D01*
X153000000Y-89179605D01*
X152657002Y-89522603D01*
X152523580Y-89575534D01*
X152496019Y-89590264D01*
X152484199Y-89695406D01*
X152473164Y-89706441D01*
X152026836Y-89706441D01*
X152015801Y-89695406D01*
X152003981Y-89590264D01*
X151839704Y-89519309D01*
X151500000Y-89179605D01*
X151157002Y-89522603D01*
X151023580Y-89575534D01*
X150996019Y-89590264D01*
X150984199Y-89695406D01*
X150973164Y-89706441D01*
X150660000Y-89706441D01*
X150660000Y-89511821D01*
X150793559Y-89526836D01*
X151320395Y-89000000D01*
X151679605Y-89000000D01*
X152022603Y-89342998D01*
X152075534Y-89476420D01*
X152090264Y-89503981D01*
X152195406Y-89515801D01*
X152206441Y-89526836D01*
X152250000Y-89521939D01*
X152293559Y-89526836D01*
X152304594Y-89515801D01*
X152409736Y-89503981D01*
X152480691Y-89339704D01*
X152820395Y-89000000D01*
X153179605Y-89000000D01*
X153522603Y-89342998D01*
X153575534Y-89476420D01*
X153590264Y-89503981D01*
X153695406Y-89515801D01*
X153706441Y-89526836D01*
X153750000Y-89521939D01*
X153793559Y-89526836D01*
X153804594Y-89515801D01*
X153909736Y-89503981D01*
X153980691Y-89339704D01*
X154320395Y-89000000D01*
X154679605Y-89000000D01*
X155206441Y-89526836D01*
X155409736Y-89503981D01*
X155490577Y-89316816D01*
X155533351Y-89117477D01*
X155536413Y-88913623D01*
X155499647Y-88713088D01*
X155424466Y-88523580D01*
X155409736Y-88496019D01*
X155206441Y-88473164D01*
X154679605Y-89000000D01*
X154320395Y-89000000D01*
X153977397Y-88657002D01*
X153924466Y-88523580D01*
X153909736Y-88496019D01*
X153804594Y-88484199D01*
X153793559Y-88473164D01*
X153750000Y-88478061D01*
X153706441Y-88473164D01*
X153695406Y-88484199D01*
X153590264Y-88496019D01*
X153519309Y-88660296D01*
X153179605Y-89000000D01*
X152820395Y-89000000D01*
X152477397Y-88657002D01*
X152424466Y-88523580D01*
X152409736Y-88496019D01*
X152304594Y-88484199D01*
X152293559Y-88473164D01*
X152250000Y-88478061D01*
X152206441Y-88473164D01*
X152195406Y-88484199D01*
X152090264Y-88496019D01*
X152019309Y-88660296D01*
X151679605Y-89000000D01*
X151320395Y-89000000D01*
X150793559Y-88473164D01*
X150660000Y-88488179D01*
X150660000Y-88206441D01*
X150973164Y-88206441D01*
X150978061Y-88250000D01*
X150973164Y-88293559D01*
X150984199Y-88304594D01*
X150996019Y-88409736D01*
X151160296Y-88480691D01*
X151500000Y-88820395D01*
X151842998Y-88477397D01*
X151976420Y-88424466D01*
X152003981Y-88409736D01*
X152015801Y-88304594D01*
X152026836Y-88293559D01*
X152021939Y-88250000D01*
X152026836Y-88206441D01*
X152473164Y-88206441D01*
X152478061Y-88250000D01*
X152473164Y-88293559D01*
X152484199Y-88304594D01*
X152496019Y-88409736D01*
X152660296Y-88480691D01*
X153000000Y-88820395D01*
X153342998Y-88477397D01*
X153476420Y-88424466D01*
X153503981Y-88409736D01*
X153515801Y-88304594D01*
X153526836Y-88293559D01*
X153521939Y-88250000D01*
X153526836Y-88206441D01*
X153973164Y-88206441D01*
X153978061Y-88250000D01*
X153973164Y-88293559D01*
X153984199Y-88304594D01*
X153996019Y-88409736D01*
X154160296Y-88480691D01*
X154500000Y-88820395D01*
X154842998Y-88477397D01*
X154976420Y-88424466D01*
X155003981Y-88409736D01*
X155015801Y-88304594D01*
X155026836Y-88293559D01*
X155021939Y-88250000D01*
X155026836Y-88206441D01*
X155015801Y-88195406D01*
X155003981Y-88090264D01*
X154839704Y-88019309D01*
X154500000Y-87679605D01*
X154157002Y-88022603D01*
X154023580Y-88075534D01*
X153996019Y-88090264D01*
X153984199Y-88195406D01*
X153973164Y-88206441D01*
X153526836Y-88206441D01*
X153515801Y-88195406D01*
X153503981Y-88090264D01*
X153339704Y-88019309D01*
X153000000Y-87679605D01*
X152657002Y-88022603D01*
X152523580Y-88075534D01*
X152496019Y-88090264D01*
X152484199Y-88195406D01*
X152473164Y-88206441D01*
X152026836Y-88206441D01*
X152015801Y-88195406D01*
X152003981Y-88090264D01*
X151839704Y-88019309D01*
X151500000Y-87679605D01*
X151157002Y-88022603D01*
X151023580Y-88075534D01*
X150996019Y-88090264D01*
X150984199Y-88195406D01*
X150973164Y-88206441D01*
X150660000Y-88206441D01*
X150660000Y-88011821D01*
X150793559Y-88026836D01*
X151320395Y-87500000D01*
X151679605Y-87500000D01*
X152022603Y-87842998D01*
X152075534Y-87976420D01*
X152090264Y-88003981D01*
X152195406Y-88015801D01*
X152206441Y-88026836D01*
X152250000Y-88021939D01*
X152293559Y-88026836D01*
X152304594Y-88015801D01*
X152409736Y-88003981D01*
X152480691Y-87839704D01*
X152820395Y-87500000D01*
X153179605Y-87500000D01*
X153522603Y-87842998D01*
X153575534Y-87976420D01*
X153590264Y-88003981D01*
X153695406Y-88015801D01*
X153706441Y-88026836D01*
X153750000Y-88021939D01*
X153793559Y-88026836D01*
X153804594Y-88015801D01*
X153909736Y-88003981D01*
X153980691Y-87839704D01*
X154320395Y-87500000D01*
X154679605Y-87500000D01*
X155206441Y-88026836D01*
X155409736Y-88003981D01*
X155490577Y-87816816D01*
X155533351Y-87617477D01*
X155536413Y-87413623D01*
X155499647Y-87213088D01*
X155424466Y-87023580D01*
X155409736Y-86996019D01*
X155206441Y-86973164D01*
X154679605Y-87500000D01*
X154320395Y-87500000D01*
X153977397Y-87157002D01*
X153924466Y-87023580D01*
X153909736Y-86996019D01*
X153804594Y-86984199D01*
X153793559Y-86973164D01*
X153750000Y-86978061D01*
X153706441Y-86973164D01*
X153695406Y-86984199D01*
X153590264Y-86996019D01*
X153519309Y-87160296D01*
X153179605Y-87500000D01*
X152820395Y-87500000D01*
X152477397Y-87157002D01*
X152424466Y-87023580D01*
X152409736Y-86996019D01*
X152304594Y-86984199D01*
X152293559Y-86973164D01*
X152250000Y-86978061D01*
X152206441Y-86973164D01*
X152195406Y-86984199D01*
X152090264Y-86996019D01*
X152019309Y-87160296D01*
X151679605Y-87500000D01*
X151320395Y-87500000D01*
X150793559Y-86973164D01*
X150660000Y-86988179D01*
X150660000Y-86793559D01*
X150973164Y-86793559D01*
X151500000Y-87320395D01*
X152026836Y-86793559D01*
X152473164Y-86793559D01*
X153000000Y-87320395D01*
X153526836Y-86793559D01*
X153973164Y-86793559D01*
X154500000Y-87320395D01*
X155026836Y-86793559D01*
X155003981Y-86590264D01*
X154816816Y-86509423D01*
X154617477Y-86466649D01*
X154413623Y-86463587D01*
X154213088Y-86500353D01*
X154023580Y-86575534D01*
X153996019Y-86590264D01*
X153973164Y-86793559D01*
X153526836Y-86793559D01*
X153503981Y-86590264D01*
X153316816Y-86509423D01*
X153117477Y-86466649D01*
X152913623Y-86463587D01*
X152713088Y-86500353D01*
X152523580Y-86575534D01*
X152496019Y-86590264D01*
X152473164Y-86793559D01*
X152026836Y-86793559D01*
X152003981Y-86590264D01*
X151816816Y-86509423D01*
X151617477Y-86466649D01*
X151413623Y-86463587D01*
X151213088Y-86500353D01*
X151023580Y-86575534D01*
X150996019Y-86590264D01*
X150973164Y-86793559D01*
X150660000Y-86793559D01*
X150660000Y-63105802D01*
X150696063Y-63159774D01*
X150840226Y-63303937D01*
X151009744Y-63417205D01*
X151198102Y-63495226D01*
X151398061Y-63535000D01*
X151601939Y-63535000D01*
X151801898Y-63495226D01*
X151990256Y-63417205D01*
X152159774Y-63303937D01*
X152250000Y-63213711D01*
X152340226Y-63303937D01*
X152509744Y-63417205D01*
X152698102Y-63495226D01*
X152898061Y-63535000D01*
X153101939Y-63535000D01*
X153301898Y-63495226D01*
X153490256Y-63417205D01*
X153659774Y-63303937D01*
X153750000Y-63213711D01*
X153840226Y-63303937D01*
X154009744Y-63417205D01*
X154198102Y-63495226D01*
X154398061Y-63535000D01*
X154601939Y-63535000D01*
X154801898Y-63495226D01*
X154990256Y-63417205D01*
X155159774Y-63303937D01*
X155257270Y-63206441D01*
X194973164Y-63206441D01*
X194996019Y-63409736D01*
X195183184Y-63490577D01*
X195382523Y-63533351D01*
X195586377Y-63536413D01*
X195786912Y-63499647D01*
X195976420Y-63424466D01*
X196003981Y-63409736D01*
X196026836Y-63206441D01*
X196473164Y-63206441D01*
X196496019Y-63409736D01*
X196683184Y-63490577D01*
X196882523Y-63533351D01*
X197086377Y-63536413D01*
X197286912Y-63499647D01*
X197476420Y-63424466D01*
X197503981Y-63409736D01*
X197526836Y-63206441D01*
X197973164Y-63206441D01*
X197996019Y-63409736D01*
X198183184Y-63490577D01*
X198382523Y-63533351D01*
X198586377Y-63536413D01*
X198786912Y-63499647D01*
X198976420Y-63424466D01*
X199003981Y-63409736D01*
X199026836Y-63206441D01*
X198500000Y-62679605D01*
X197973164Y-63206441D01*
X197526836Y-63206441D01*
X197000000Y-62679605D01*
X196473164Y-63206441D01*
X196026836Y-63206441D01*
X195500000Y-62679605D01*
X194973164Y-63206441D01*
X155257270Y-63206441D01*
X155303937Y-63159774D01*
X155417205Y-62990256D01*
X155495226Y-62801898D01*
X155535000Y-62601939D01*
X155535000Y-62586377D01*
X194463587Y-62586377D01*
X194500353Y-62786912D01*
X194575534Y-62976420D01*
X194590264Y-63003981D01*
X194793559Y-63026836D01*
X195320395Y-62500000D01*
X195679605Y-62500000D01*
X196022603Y-62842998D01*
X196075534Y-62976420D01*
X196090264Y-63003981D01*
X196195406Y-63015801D01*
X196206441Y-63026836D01*
X196250000Y-63021939D01*
X196293559Y-63026836D01*
X196304594Y-63015801D01*
X196409736Y-63003981D01*
X196480691Y-62839704D01*
X196820395Y-62500000D01*
X197179605Y-62500000D01*
X197522603Y-62842998D01*
X197575534Y-62976420D01*
X197590264Y-63003981D01*
X197695406Y-63015801D01*
X197706441Y-63026836D01*
X197750000Y-63021939D01*
X197793559Y-63026836D01*
X197804594Y-63015801D01*
X197909736Y-63003981D01*
X197980691Y-62839704D01*
X198320395Y-62500000D01*
X197977397Y-62157002D01*
X197924466Y-62023580D01*
X197909736Y-61996019D01*
X197804594Y-61984199D01*
X197793559Y-61973164D01*
X197750000Y-61978061D01*
X197706441Y-61973164D01*
X197695406Y-61984199D01*
X197590264Y-61996019D01*
X197519309Y-62160296D01*
X197179605Y-62500000D01*
X196820395Y-62500000D01*
X196477397Y-62157002D01*
X196424466Y-62023580D01*
X196409736Y-61996019D01*
X196304594Y-61984199D01*
X196293559Y-61973164D01*
X196250000Y-61978061D01*
X196206441Y-61973164D01*
X196195406Y-61984199D01*
X196090264Y-61996019D01*
X196019309Y-62160296D01*
X195679605Y-62500000D01*
X195320395Y-62500000D01*
X194793559Y-61973164D01*
X194590264Y-61996019D01*
X194509423Y-62183184D01*
X194466649Y-62382523D01*
X194463587Y-62586377D01*
X155535000Y-62586377D01*
X155535000Y-62398061D01*
X155495226Y-62198102D01*
X155417205Y-62009744D01*
X155303937Y-61840226D01*
X155213711Y-61750000D01*
X155257270Y-61706441D01*
X194973164Y-61706441D01*
X194978061Y-61750000D01*
X194973164Y-61793559D01*
X194984199Y-61804594D01*
X194996019Y-61909736D01*
X195160296Y-61980691D01*
X195500000Y-62320395D01*
X195842998Y-61977397D01*
X195976420Y-61924466D01*
X196003981Y-61909736D01*
X196015801Y-61804594D01*
X196026836Y-61793559D01*
X196021939Y-61750000D01*
X196026836Y-61706441D01*
X196473164Y-61706441D01*
X196478061Y-61750000D01*
X196473164Y-61793559D01*
X196484199Y-61804594D01*
X196496019Y-61909736D01*
X196660296Y-61980691D01*
X197000000Y-62320395D01*
X197342998Y-61977397D01*
X197476420Y-61924466D01*
X197503981Y-61909736D01*
X197515801Y-61804594D01*
X197526836Y-61793559D01*
X197521939Y-61750000D01*
X197526836Y-61706441D01*
X197973164Y-61706441D01*
X197978061Y-61750000D01*
X197973164Y-61793559D01*
X197984199Y-61804594D01*
X197996019Y-61909736D01*
X198160296Y-61980691D01*
X198500000Y-62320395D01*
X198842998Y-61977397D01*
X198976420Y-61924466D01*
X199003981Y-61909736D01*
X199015801Y-61804594D01*
X199026836Y-61793559D01*
X199021939Y-61750000D01*
X199026836Y-61706441D01*
X199015801Y-61695406D01*
X199003981Y-61590264D01*
X198839704Y-61519309D01*
X198500000Y-61179605D01*
X198157002Y-61522603D01*
X198023580Y-61575534D01*
X197996019Y-61590264D01*
X197984199Y-61695406D01*
X197973164Y-61706441D01*
X197526836Y-61706441D01*
X197515801Y-61695406D01*
X197503981Y-61590264D01*
X197339704Y-61519309D01*
X197000000Y-61179605D01*
X196657002Y-61522603D01*
X196523580Y-61575534D01*
X196496019Y-61590264D01*
X196484199Y-61695406D01*
X196473164Y-61706441D01*
X196026836Y-61706441D01*
X196015801Y-61695406D01*
X196003981Y-61590264D01*
X195839704Y-61519309D01*
X195500000Y-61179605D01*
X195157002Y-61522603D01*
X195023580Y-61575534D01*
X194996019Y-61590264D01*
X194984199Y-61695406D01*
X194973164Y-61706441D01*
X155257270Y-61706441D01*
X155303937Y-61659774D01*
X155417205Y-61490256D01*
X155495226Y-61301898D01*
X155535000Y-61101939D01*
X155535000Y-61086377D01*
X194463587Y-61086377D01*
X194500353Y-61286912D01*
X194575534Y-61476420D01*
X194590264Y-61503981D01*
X194793559Y-61526836D01*
X195320395Y-61000000D01*
X195679605Y-61000000D01*
X196022603Y-61342998D01*
X196075534Y-61476420D01*
X196090264Y-61503981D01*
X196195406Y-61515801D01*
X196206441Y-61526836D01*
X196250000Y-61521939D01*
X196293559Y-61526836D01*
X196304594Y-61515801D01*
X196409736Y-61503981D01*
X196480691Y-61339704D01*
X196820395Y-61000000D01*
X197179605Y-61000000D01*
X197522603Y-61342998D01*
X197575534Y-61476420D01*
X197590264Y-61503981D01*
X197695406Y-61515801D01*
X197706441Y-61526836D01*
X197750000Y-61521939D01*
X197793559Y-61526836D01*
X197804594Y-61515801D01*
X197909736Y-61503981D01*
X197980691Y-61339704D01*
X198320395Y-61000000D01*
X197977397Y-60657002D01*
X197924466Y-60523580D01*
X197909736Y-60496019D01*
X197804594Y-60484199D01*
X197793559Y-60473164D01*
X197750000Y-60478061D01*
X197706441Y-60473164D01*
X197695406Y-60484199D01*
X197590264Y-60496019D01*
X197519309Y-60660296D01*
X197179605Y-61000000D01*
X196820395Y-61000000D01*
X196477397Y-60657002D01*
X196424466Y-60523580D01*
X196409736Y-60496019D01*
X196304594Y-60484199D01*
X196293559Y-60473164D01*
X196250000Y-60478061D01*
X196206441Y-60473164D01*
X196195406Y-60484199D01*
X196090264Y-60496019D01*
X196019309Y-60660296D01*
X195679605Y-61000000D01*
X195320395Y-61000000D01*
X194793559Y-60473164D01*
X194590264Y-60496019D01*
X194509423Y-60683184D01*
X194466649Y-60882523D01*
X194463587Y-61086377D01*
X155535000Y-61086377D01*
X155535000Y-60898061D01*
X155495226Y-60698102D01*
X155417205Y-60509744D01*
X155303937Y-60340226D01*
X155213711Y-60250000D01*
X155257270Y-60206441D01*
X194973164Y-60206441D01*
X194978061Y-60250000D01*
X194973164Y-60293559D01*
X194984199Y-60304594D01*
X194996019Y-60409736D01*
X195160296Y-60480691D01*
X195500000Y-60820395D01*
X195842998Y-60477397D01*
X195976420Y-60424466D01*
X196003981Y-60409736D01*
X196015801Y-60304594D01*
X196026836Y-60293559D01*
X196021939Y-60250000D01*
X196026836Y-60206441D01*
X196473164Y-60206441D01*
X196478061Y-60250000D01*
X196473164Y-60293559D01*
X196484199Y-60304594D01*
X196496019Y-60409736D01*
X196660296Y-60480691D01*
X197000000Y-60820395D01*
X197342998Y-60477397D01*
X197476420Y-60424466D01*
X197503981Y-60409736D01*
X197515801Y-60304594D01*
X197526836Y-60293559D01*
X197521939Y-60250000D01*
X197526836Y-60206441D01*
X197973164Y-60206441D01*
X197978061Y-60250000D01*
X197973164Y-60293559D01*
X197984199Y-60304594D01*
X197996019Y-60409736D01*
X198160296Y-60480691D01*
X198500000Y-60820395D01*
X198842998Y-60477397D01*
X198976420Y-60424466D01*
X199003981Y-60409736D01*
X199015801Y-60304594D01*
X199026836Y-60293559D01*
X199021939Y-60250000D01*
X199026836Y-60206441D01*
X199015801Y-60195406D01*
X199003981Y-60090264D01*
X198839704Y-60019309D01*
X198500000Y-59679605D01*
X198157002Y-60022603D01*
X198023580Y-60075534D01*
X197996019Y-60090264D01*
X197984199Y-60195406D01*
X197973164Y-60206441D01*
X197526836Y-60206441D01*
X197515801Y-60195406D01*
X197503981Y-60090264D01*
X197339704Y-60019309D01*
X197000000Y-59679605D01*
X196657002Y-60022603D01*
X196523580Y-60075534D01*
X196496019Y-60090264D01*
X196484199Y-60195406D01*
X196473164Y-60206441D01*
X196026836Y-60206441D01*
X196015801Y-60195406D01*
X196003981Y-60090264D01*
X195839704Y-60019309D01*
X195500000Y-59679605D01*
X195157002Y-60022603D01*
X195023580Y-60075534D01*
X194996019Y-60090264D01*
X194984199Y-60195406D01*
X194973164Y-60206441D01*
X155257270Y-60206441D01*
X155303937Y-60159774D01*
X155417205Y-59990256D01*
X155495226Y-59801898D01*
X155535000Y-59601939D01*
X155535000Y-59586377D01*
X194463587Y-59586377D01*
X194500353Y-59786912D01*
X194575534Y-59976420D01*
X194590264Y-60003981D01*
X194793559Y-60026836D01*
X195320395Y-59500000D01*
X195679605Y-59500000D01*
X196022603Y-59842998D01*
X196075534Y-59976420D01*
X196090264Y-60003981D01*
X196195406Y-60015801D01*
X196206441Y-60026836D01*
X196250000Y-60021939D01*
X196293559Y-60026836D01*
X196304594Y-60015801D01*
X196409736Y-60003981D01*
X196480691Y-59839704D01*
X196820395Y-59500000D01*
X197179605Y-59500000D01*
X197522603Y-59842998D01*
X197575534Y-59976420D01*
X197590264Y-60003981D01*
X197695406Y-60015801D01*
X197706441Y-60026836D01*
X197750000Y-60021939D01*
X197793559Y-60026836D01*
X197804594Y-60015801D01*
X197909736Y-60003981D01*
X197980691Y-59839704D01*
X198320395Y-59500000D01*
X197977397Y-59157002D01*
X197924466Y-59023580D01*
X197909736Y-58996019D01*
X197804594Y-58984199D01*
X197793559Y-58973164D01*
X197750000Y-58978061D01*
X197706441Y-58973164D01*
X197695406Y-58984199D01*
X197590264Y-58996019D01*
X197519309Y-59160296D01*
X197179605Y-59500000D01*
X196820395Y-59500000D01*
X196477397Y-59157002D01*
X196424466Y-59023580D01*
X196409736Y-58996019D01*
X196304594Y-58984199D01*
X196293559Y-58973164D01*
X196250000Y-58978061D01*
X196206441Y-58973164D01*
X196195406Y-58984199D01*
X196090264Y-58996019D01*
X196019309Y-59160296D01*
X195679605Y-59500000D01*
X195320395Y-59500000D01*
X194793559Y-58973164D01*
X194590264Y-58996019D01*
X194509423Y-59183184D01*
X194466649Y-59382523D01*
X194463587Y-59586377D01*
X155535000Y-59586377D01*
X155535000Y-59398061D01*
X155495226Y-59198102D01*
X155417205Y-59009744D01*
X155303937Y-58840226D01*
X155257270Y-58793559D01*
X194973164Y-58793559D01*
X195500000Y-59320395D01*
X196026836Y-58793559D01*
X196473164Y-58793559D01*
X197000000Y-59320395D01*
X197526836Y-58793559D01*
X197973164Y-58793559D01*
X198500000Y-59320395D01*
X199026836Y-58793559D01*
X199003981Y-58590264D01*
X198816816Y-58509423D01*
X198617477Y-58466649D01*
X198413623Y-58463587D01*
X198213088Y-58500353D01*
X198023580Y-58575534D01*
X197996019Y-58590264D01*
X197973164Y-58793559D01*
X197526836Y-58793559D01*
X197503981Y-58590264D01*
X197316816Y-58509423D01*
X197117477Y-58466649D01*
X196913623Y-58463587D01*
X196713088Y-58500353D01*
X196523580Y-58575534D01*
X196496019Y-58590264D01*
X196473164Y-58793559D01*
X196026836Y-58793559D01*
X196003981Y-58590264D01*
X195816816Y-58509423D01*
X195617477Y-58466649D01*
X195413623Y-58463587D01*
X195213088Y-58500353D01*
X195023580Y-58575534D01*
X194996019Y-58590264D01*
X194973164Y-58793559D01*
X155257270Y-58793559D01*
X155159774Y-58696063D01*
X154990256Y-58582795D01*
X154801898Y-58504774D01*
X154601939Y-58465000D01*
X154398061Y-58465000D01*
X154198102Y-58504774D01*
X154009744Y-58582795D01*
X153840226Y-58696063D01*
X153750000Y-58786289D01*
X153659774Y-58696063D01*
X153490256Y-58582795D01*
X153301898Y-58504774D01*
X153101939Y-58465000D01*
X152898061Y-58465000D01*
X152698102Y-58504774D01*
X152509744Y-58582795D01*
X152340226Y-58696063D01*
X152250000Y-58786289D01*
X152159774Y-58696063D01*
X151990256Y-58582795D01*
X151801898Y-58504774D01*
X151601939Y-58465000D01*
X151398061Y-58465000D01*
X151198102Y-58504774D01*
X151009744Y-58582795D01*
X150840226Y-58696063D01*
X150696063Y-58840226D01*
X150660000Y-58894198D01*
X150660000Y-57558686D01*
X169020919Y-57558686D01*
X169357106Y-58027868D01*
X169987068Y-58368237D01*
X170671327Y-58579166D01*
X171383589Y-58652550D01*
X172096482Y-58585569D01*
X172782609Y-58380796D01*
X173415603Y-58046102D01*
X173442894Y-58027868D01*
X173779081Y-57558686D01*
X171400000Y-55179605D01*
X169020919Y-57558686D01*
X150660000Y-57558686D01*
X150660000Y-55206441D01*
X158973164Y-55206441D01*
X158996019Y-55409736D01*
X159183184Y-55490577D01*
X159382523Y-55533351D01*
X159586377Y-55536413D01*
X159786912Y-55499647D01*
X159976420Y-55424466D01*
X160003981Y-55409736D01*
X160026836Y-55206441D01*
X160473164Y-55206441D01*
X160496019Y-55409736D01*
X160683184Y-55490577D01*
X160882523Y-55533351D01*
X161086377Y-55536413D01*
X161286912Y-55499647D01*
X161476420Y-55424466D01*
X161503981Y-55409736D01*
X161526836Y-55206441D01*
X161973164Y-55206441D01*
X161996019Y-55409736D01*
X162183184Y-55490577D01*
X162382523Y-55533351D01*
X162586377Y-55536413D01*
X162786912Y-55499647D01*
X162976420Y-55424466D01*
X163003981Y-55409736D01*
X163026836Y-55206441D01*
X162500000Y-54679605D01*
X161973164Y-55206441D01*
X161526836Y-55206441D01*
X161000000Y-54679605D01*
X160473164Y-55206441D01*
X160026836Y-55206441D01*
X159500000Y-54679605D01*
X158973164Y-55206441D01*
X150660000Y-55206441D01*
X150660000Y-54245031D01*
X150884032Y-54469063D01*
X151299227Y-54746488D01*
X151760568Y-54937582D01*
X152250324Y-55035000D01*
X152749676Y-55035000D01*
X153239432Y-54937582D01*
X153700773Y-54746488D01*
X153940395Y-54586377D01*
X158463587Y-54586377D01*
X158500353Y-54786912D01*
X158575534Y-54976420D01*
X158590264Y-55003981D01*
X158793559Y-55026836D01*
X159320395Y-54500000D01*
X159679605Y-54500000D01*
X160022603Y-54842998D01*
X160075534Y-54976420D01*
X160090264Y-55003981D01*
X160195406Y-55015801D01*
X160206441Y-55026836D01*
X160250000Y-55021939D01*
X160293559Y-55026836D01*
X160304594Y-55015801D01*
X160409736Y-55003981D01*
X160480691Y-54839704D01*
X160820395Y-54500000D01*
X161179605Y-54500000D01*
X161522603Y-54842998D01*
X161575534Y-54976420D01*
X161590264Y-55003981D01*
X161695406Y-55015801D01*
X161706441Y-55026836D01*
X161750000Y-55021939D01*
X161793559Y-55026836D01*
X161804594Y-55015801D01*
X161909736Y-55003981D01*
X161980691Y-54839704D01*
X162320395Y-54500000D01*
X162679605Y-54500000D01*
X163206441Y-55026836D01*
X163409736Y-55003981D01*
X163418543Y-54983589D01*
X167747450Y-54983589D01*
X167814431Y-55696482D01*
X168019204Y-56382609D01*
X168353898Y-57015603D01*
X168372132Y-57042894D01*
X168841314Y-57379081D01*
X171220395Y-55000000D01*
X171579605Y-55000000D01*
X173958686Y-57379081D01*
X174427868Y-57042894D01*
X174768237Y-56412932D01*
X174979166Y-55728673D01*
X174999490Y-55531409D01*
X175104691Y-56060290D01*
X175378705Y-56721818D01*
X175776511Y-57317177D01*
X176282823Y-57823489D01*
X176878182Y-58221295D01*
X177539710Y-58495309D01*
X178241984Y-58635000D01*
X178958016Y-58635000D01*
X179660290Y-58495309D01*
X180321818Y-58221295D01*
X180917177Y-57823489D01*
X181423489Y-57317177D01*
X181821295Y-56721818D01*
X182095309Y-56060290D01*
X182235000Y-55358016D01*
X182235000Y-54641984D01*
X182095309Y-53939710D01*
X181821295Y-53278182D01*
X181423489Y-52682823D01*
X180917177Y-52176511D01*
X180321818Y-51778705D01*
X179660290Y-51504691D01*
X178958016Y-51365000D01*
X178241984Y-51365000D01*
X177539710Y-51504691D01*
X176878182Y-51778705D01*
X176282823Y-52176511D01*
X175776511Y-52682823D01*
X175378705Y-53278182D01*
X175104691Y-53939710D01*
X175000569Y-54463166D01*
X174985569Y-54303518D01*
X174780796Y-53617391D01*
X174446102Y-52984397D01*
X174427868Y-52957106D01*
X173958686Y-52620919D01*
X171579605Y-55000000D01*
X171220395Y-55000000D01*
X168841314Y-52620919D01*
X168372132Y-52957106D01*
X168031763Y-53587068D01*
X167820834Y-54271327D01*
X167747450Y-54983589D01*
X163418543Y-54983589D01*
X163490577Y-54816816D01*
X163533351Y-54617477D01*
X163536413Y-54413623D01*
X163499647Y-54213088D01*
X163424466Y-54023580D01*
X163409736Y-53996019D01*
X163206441Y-53973164D01*
X162679605Y-54500000D01*
X162320395Y-54500000D01*
X161977397Y-54157002D01*
X161924466Y-54023580D01*
X161909736Y-53996019D01*
X161804594Y-53984199D01*
X161793559Y-53973164D01*
X161750000Y-53978061D01*
X161706441Y-53973164D01*
X161695406Y-53984199D01*
X161590264Y-53996019D01*
X161519309Y-54160296D01*
X161179605Y-54500000D01*
X160820395Y-54500000D01*
X160477397Y-54157002D01*
X160424466Y-54023580D01*
X160409736Y-53996019D01*
X160304594Y-53984199D01*
X160293559Y-53973164D01*
X160250000Y-53978061D01*
X160206441Y-53973164D01*
X160195406Y-53984199D01*
X160090264Y-53996019D01*
X160019309Y-54160296D01*
X159679605Y-54500000D01*
X159320395Y-54500000D01*
X158793559Y-53973164D01*
X158590264Y-53996019D01*
X158509423Y-54183184D01*
X158466649Y-54382523D01*
X158463587Y-54586377D01*
X153940395Y-54586377D01*
X154115968Y-54469063D01*
X154469063Y-54115968D01*
X154742700Y-53706441D01*
X158973164Y-53706441D01*
X158978061Y-53750000D01*
X158973164Y-53793559D01*
X158984199Y-53804594D01*
X158996019Y-53909736D01*
X159160296Y-53980691D01*
X159500000Y-54320395D01*
X159842998Y-53977397D01*
X159976420Y-53924466D01*
X160003981Y-53909736D01*
X160015801Y-53804594D01*
X160026836Y-53793559D01*
X160021939Y-53750000D01*
X160026836Y-53706441D01*
X160473164Y-53706441D01*
X160478061Y-53750000D01*
X160473164Y-53793559D01*
X160484199Y-53804594D01*
X160496019Y-53909736D01*
X160660296Y-53980691D01*
X161000000Y-54320395D01*
X161342998Y-53977397D01*
X161476420Y-53924466D01*
X161503981Y-53909736D01*
X161515801Y-53804594D01*
X161526836Y-53793559D01*
X161521939Y-53750000D01*
X161526836Y-53706441D01*
X161973164Y-53706441D01*
X161978061Y-53750000D01*
X161973164Y-53793559D01*
X161984199Y-53804594D01*
X161996019Y-53909736D01*
X162160296Y-53980691D01*
X162500000Y-54320395D01*
X162842998Y-53977397D01*
X162976420Y-53924466D01*
X163003981Y-53909736D01*
X163015801Y-53804594D01*
X163026836Y-53793559D01*
X163021939Y-53750000D01*
X163026836Y-53706441D01*
X163015801Y-53695406D01*
X163003981Y-53590264D01*
X162839704Y-53519309D01*
X162500000Y-53179605D01*
X162157002Y-53522603D01*
X162023580Y-53575534D01*
X161996019Y-53590264D01*
X161984199Y-53695406D01*
X161973164Y-53706441D01*
X161526836Y-53706441D01*
X161515801Y-53695406D01*
X161503981Y-53590264D01*
X161339704Y-53519309D01*
X161000000Y-53179605D01*
X160657002Y-53522603D01*
X160523580Y-53575534D01*
X160496019Y-53590264D01*
X160484199Y-53695406D01*
X160473164Y-53706441D01*
X160026836Y-53706441D01*
X160015801Y-53695406D01*
X160003981Y-53590264D01*
X159839704Y-53519309D01*
X159500000Y-53179605D01*
X159157002Y-53522603D01*
X159023580Y-53575534D01*
X158996019Y-53590264D01*
X158984199Y-53695406D01*
X158973164Y-53706441D01*
X154742700Y-53706441D01*
X154746488Y-53700773D01*
X154937582Y-53239432D01*
X154968026Y-53086377D01*
X158463587Y-53086377D01*
X158500353Y-53286912D01*
X158575534Y-53476420D01*
X158590264Y-53503981D01*
X158793559Y-53526836D01*
X159320395Y-53000000D01*
X159679605Y-53000000D01*
X160022603Y-53342998D01*
X160075534Y-53476420D01*
X160090264Y-53503981D01*
X160195406Y-53515801D01*
X160206441Y-53526836D01*
X160250000Y-53521939D01*
X160293559Y-53526836D01*
X160304594Y-53515801D01*
X160409736Y-53503981D01*
X160480691Y-53339704D01*
X160820395Y-53000000D01*
X161179605Y-53000000D01*
X161522603Y-53342998D01*
X161575534Y-53476420D01*
X161590264Y-53503981D01*
X161695406Y-53515801D01*
X161706441Y-53526836D01*
X161750000Y-53521939D01*
X161793559Y-53526836D01*
X161804594Y-53515801D01*
X161909736Y-53503981D01*
X161980691Y-53339704D01*
X162320395Y-53000000D01*
X162679605Y-53000000D01*
X163206441Y-53526836D01*
X163409736Y-53503981D01*
X163490577Y-53316816D01*
X163533351Y-53117477D01*
X163536413Y-52913623D01*
X163499647Y-52713088D01*
X163424466Y-52523580D01*
X163409736Y-52496019D01*
X163206441Y-52473164D01*
X162679605Y-53000000D01*
X162320395Y-53000000D01*
X161977397Y-52657002D01*
X161924466Y-52523580D01*
X161909736Y-52496019D01*
X161804594Y-52484199D01*
X161793559Y-52473164D01*
X161750000Y-52478061D01*
X161706441Y-52473164D01*
X161695406Y-52484199D01*
X161590264Y-52496019D01*
X161519309Y-52660296D01*
X161179605Y-53000000D01*
X160820395Y-53000000D01*
X160477397Y-52657002D01*
X160424466Y-52523580D01*
X160409736Y-52496019D01*
X160304594Y-52484199D01*
X160293559Y-52473164D01*
X160250000Y-52478061D01*
X160206441Y-52473164D01*
X160195406Y-52484199D01*
X160090264Y-52496019D01*
X160019309Y-52660296D01*
X159679605Y-53000000D01*
X159320395Y-53000000D01*
X158793559Y-52473164D01*
X158590264Y-52496019D01*
X158509423Y-52683184D01*
X158466649Y-52882523D01*
X158463587Y-53086377D01*
X154968026Y-53086377D01*
X155035000Y-52749676D01*
X155035000Y-52250324D01*
X155026272Y-52206441D01*
X158973164Y-52206441D01*
X158978061Y-52250000D01*
X158973164Y-52293559D01*
X158984199Y-52304594D01*
X158996019Y-52409736D01*
X159160296Y-52480691D01*
X159500000Y-52820395D01*
X159842998Y-52477397D01*
X159976420Y-52424466D01*
X160003981Y-52409736D01*
X160015801Y-52304594D01*
X160026836Y-52293559D01*
X160021939Y-52250000D01*
X160026836Y-52206441D01*
X160473164Y-52206441D01*
X160478061Y-52250000D01*
X160473164Y-52293559D01*
X160484199Y-52304594D01*
X160496019Y-52409736D01*
X160660296Y-52480691D01*
X161000000Y-52820395D01*
X161342998Y-52477397D01*
X161476420Y-52424466D01*
X161503981Y-52409736D01*
X161515801Y-52304594D01*
X161526836Y-52293559D01*
X161521939Y-52250000D01*
X161526836Y-52206441D01*
X161973164Y-52206441D01*
X161978061Y-52250000D01*
X161973164Y-52293559D01*
X161984199Y-52304594D01*
X161996019Y-52409736D01*
X162160296Y-52480691D01*
X162500000Y-52820395D01*
X162842998Y-52477397D01*
X162933951Y-52441314D01*
X169020919Y-52441314D01*
X171400000Y-54820395D01*
X173779081Y-52441314D01*
X173442894Y-51972132D01*
X172812932Y-51631763D01*
X172128673Y-51420834D01*
X171416411Y-51347450D01*
X170703518Y-51414431D01*
X170017391Y-51619204D01*
X169384397Y-51953898D01*
X169357106Y-51972132D01*
X169020919Y-52441314D01*
X162933951Y-52441314D01*
X162976420Y-52424466D01*
X163003981Y-52409736D01*
X163015801Y-52304594D01*
X163026836Y-52293559D01*
X163021939Y-52250000D01*
X163026836Y-52206441D01*
X163015801Y-52195406D01*
X163003981Y-52090264D01*
X162839704Y-52019309D01*
X162500000Y-51679605D01*
X162157002Y-52022603D01*
X162023580Y-52075534D01*
X161996019Y-52090264D01*
X161984199Y-52195406D01*
X161973164Y-52206441D01*
X161526836Y-52206441D01*
X161515801Y-52195406D01*
X161503981Y-52090264D01*
X161339704Y-52019309D01*
X161000000Y-51679605D01*
X160657002Y-52022603D01*
X160523580Y-52075534D01*
X160496019Y-52090264D01*
X160484199Y-52195406D01*
X160473164Y-52206441D01*
X160026836Y-52206441D01*
X160015801Y-52195406D01*
X160003981Y-52090264D01*
X159839704Y-52019309D01*
X159500000Y-51679605D01*
X159157002Y-52022603D01*
X159023580Y-52075534D01*
X158996019Y-52090264D01*
X158984199Y-52195406D01*
X158973164Y-52206441D01*
X155026272Y-52206441D01*
X154937582Y-51760568D01*
X154865430Y-51586377D01*
X158463587Y-51586377D01*
X158500353Y-51786912D01*
X158575534Y-51976420D01*
X158590264Y-52003981D01*
X158793559Y-52026836D01*
X159320395Y-51500000D01*
X159679605Y-51500000D01*
X160022603Y-51842998D01*
X160075534Y-51976420D01*
X160090264Y-52003981D01*
X160195406Y-52015801D01*
X160206441Y-52026836D01*
X160250000Y-52021939D01*
X160293559Y-52026836D01*
X160304594Y-52015801D01*
X160409736Y-52003981D01*
X160480691Y-51839704D01*
X160820395Y-51500000D01*
X161179605Y-51500000D01*
X161522603Y-51842998D01*
X161575534Y-51976420D01*
X161590264Y-52003981D01*
X161695406Y-52015801D01*
X161706441Y-52026836D01*
X161750000Y-52021939D01*
X161793559Y-52026836D01*
X161804594Y-52015801D01*
X161909736Y-52003981D01*
X161980691Y-51839704D01*
X162320395Y-51500000D01*
X162679605Y-51500000D01*
X163206441Y-52026836D01*
X163409736Y-52003981D01*
X163490577Y-51816816D01*
X163533351Y-51617477D01*
X163536413Y-51413623D01*
X163499647Y-51213088D01*
X163424466Y-51023580D01*
X163409736Y-50996019D01*
X163206441Y-50973164D01*
X162679605Y-51500000D01*
X162320395Y-51500000D01*
X161977397Y-51157002D01*
X161924466Y-51023580D01*
X161909736Y-50996019D01*
X161804594Y-50984199D01*
X161793559Y-50973164D01*
X161750000Y-50978061D01*
X161706441Y-50973164D01*
X161695406Y-50984199D01*
X161590264Y-50996019D01*
X161519309Y-51160296D01*
X161179605Y-51500000D01*
X160820395Y-51500000D01*
X160477397Y-51157002D01*
X160424466Y-51023580D01*
X160409736Y-50996019D01*
X160304594Y-50984199D01*
X160293559Y-50973164D01*
X160250000Y-50978061D01*
X160206441Y-50973164D01*
X160195406Y-50984199D01*
X160090264Y-50996019D01*
X160019309Y-51160296D01*
X159679605Y-51500000D01*
X159320395Y-51500000D01*
X158793559Y-50973164D01*
X158590264Y-50996019D01*
X158509423Y-51183184D01*
X158466649Y-51382523D01*
X158463587Y-51586377D01*
X154865430Y-51586377D01*
X154746488Y-51299227D01*
X154469063Y-50884032D01*
X154245031Y-50660000D01*
X158988179Y-50660000D01*
X158973164Y-50793559D01*
M02*
