G04 #@! TF.GenerationSoftware,KiCad,Pcbnew,(5.1.4-0-10_14)*
G04 #@! TF.CreationDate,2021-01-04T23:19:36-07:00*
G04 #@! TF.ProjectId,Power,506f7765-722e-46b6-9963-61645f706362,rev?*
G04 #@! TF.SameCoordinates,Original*
G04 #@! TF.FileFunction,Soldermask,Top*
G04 #@! TF.FilePolarity,Negative*
%FSLAX46Y46*%
G04 Gerber Fmt 4.6, Leading zero omitted, Abs format (unit mm)*
G04 Created by KiCad (PCBNEW (5.1.4-0-10_14)) date 2021-01-04 23:19:36*
%MOMM*%
%LPD*%
G04 APERTURE LIST*
%ADD10C,0.100000*%
G04 APERTURE END LIST*
D10*
G36*
X191551000Y-99551000D02*
G01*
X186449000Y-99551000D01*
X186449000Y-94449000D01*
X191551000Y-94449000D01*
X191551000Y-99551000D01*
X191551000Y-99551000D01*
G37*
G36*
X163551000Y-99551000D02*
G01*
X158449000Y-99551000D01*
X158449000Y-94449000D01*
X163551000Y-94449000D01*
X163551000Y-99551000D01*
X163551000Y-99551000D01*
G37*
G36*
X198069085Y-95623975D02*
G01*
X198424143Y-95771045D01*
X198424145Y-95771046D01*
X198743690Y-95984559D01*
X199015441Y-96256310D01*
X199211010Y-96549000D01*
X199228955Y-96575857D01*
X199376025Y-96930915D01*
X199451000Y-97307842D01*
X199451000Y-97692158D01*
X199376025Y-98069085D01*
X199228955Y-98424143D01*
X199228954Y-98424145D01*
X199015441Y-98743690D01*
X198743690Y-99015441D01*
X198424145Y-99228954D01*
X198424144Y-99228955D01*
X198424143Y-99228955D01*
X198069085Y-99376025D01*
X197692158Y-99451000D01*
X197307842Y-99451000D01*
X196930915Y-99376025D01*
X196575857Y-99228955D01*
X196575856Y-99228955D01*
X196575855Y-99228954D01*
X196256310Y-99015441D01*
X195984559Y-98743690D01*
X195771046Y-98424145D01*
X195771045Y-98424143D01*
X195623975Y-98069085D01*
X195549000Y-97692158D01*
X195549000Y-97307842D01*
X195623975Y-96930915D01*
X195771045Y-96575857D01*
X195788990Y-96549000D01*
X195984559Y-96256310D01*
X196256310Y-95984559D01*
X196575855Y-95771046D01*
X196575857Y-95771045D01*
X196930915Y-95623975D01*
X197307842Y-95549000D01*
X197692158Y-95549000D01*
X198069085Y-95623975D01*
X198069085Y-95623975D01*
G37*
G36*
X153069085Y-95623975D02*
G01*
X153424143Y-95771045D01*
X153424145Y-95771046D01*
X153743690Y-95984559D01*
X154015441Y-96256310D01*
X154211010Y-96549000D01*
X154228955Y-96575857D01*
X154376025Y-96930915D01*
X154451000Y-97307842D01*
X154451000Y-97692158D01*
X154376025Y-98069085D01*
X154228955Y-98424143D01*
X154228954Y-98424145D01*
X154015441Y-98743690D01*
X153743690Y-99015441D01*
X153424145Y-99228954D01*
X153424144Y-99228955D01*
X153424143Y-99228955D01*
X153069085Y-99376025D01*
X152692158Y-99451000D01*
X152307842Y-99451000D01*
X151930915Y-99376025D01*
X151575857Y-99228955D01*
X151575856Y-99228955D01*
X151575855Y-99228954D01*
X151256310Y-99015441D01*
X150984559Y-98743690D01*
X150771046Y-98424145D01*
X150771045Y-98424143D01*
X150623975Y-98069085D01*
X150549000Y-97692158D01*
X150549000Y-97307842D01*
X150623975Y-96930915D01*
X150771045Y-96575857D01*
X150788990Y-96549000D01*
X150984559Y-96256310D01*
X151256310Y-95984559D01*
X151575855Y-95771046D01*
X151575857Y-95771045D01*
X151930915Y-95623975D01*
X152307842Y-95549000D01*
X152692158Y-95549000D01*
X153069085Y-95623975D01*
X153069085Y-95623975D01*
G37*
G36*
X173551000Y-98551000D02*
G01*
X168449000Y-98551000D01*
X168449000Y-93449000D01*
X173551000Y-93449000D01*
X173551000Y-98551000D01*
X173551000Y-98551000D01*
G37*
G36*
X181551000Y-98551000D02*
G01*
X176449000Y-98551000D01*
X176449000Y-93449000D01*
X181551000Y-93449000D01*
X181551000Y-98551000D01*
X181551000Y-98551000D01*
G37*
G36*
X199551000Y-91551000D02*
G01*
X194449000Y-91551000D01*
X194449000Y-86449000D01*
X199551000Y-86449000D01*
X199551000Y-91551000D01*
X199551000Y-91551000D01*
G37*
G36*
X155551000Y-91551000D02*
G01*
X150449000Y-91551000D01*
X150449000Y-86449000D01*
X155551000Y-86449000D01*
X155551000Y-91551000D01*
X155551000Y-91551000D01*
G37*
G36*
X153879434Y-79428686D02*
G01*
X153919284Y-79440774D01*
X153955999Y-79460399D01*
X153988186Y-79486814D01*
X154014601Y-79519001D01*
X154034226Y-79555716D01*
X154046314Y-79595566D01*
X154051000Y-79643141D01*
X154051000Y-80306859D01*
X154046314Y-80354434D01*
X154034226Y-80394284D01*
X154014601Y-80430999D01*
X153988186Y-80463186D01*
X153955999Y-80489601D01*
X153919284Y-80509226D01*
X153879434Y-80521314D01*
X153831859Y-80526000D01*
X151468141Y-80526000D01*
X151420566Y-80521314D01*
X151380716Y-80509226D01*
X151344001Y-80489601D01*
X151311814Y-80463186D01*
X151285399Y-80430999D01*
X151265774Y-80394284D01*
X151253686Y-80354434D01*
X151249000Y-80306859D01*
X151249000Y-79643141D01*
X151253686Y-79595566D01*
X151265774Y-79555716D01*
X151285399Y-79519001D01*
X151311814Y-79486814D01*
X151344001Y-79460399D01*
X151380716Y-79440774D01*
X151420566Y-79428686D01*
X151468141Y-79424000D01*
X153831859Y-79424000D01*
X153879434Y-79428686D01*
X153879434Y-79428686D01*
G37*
G36*
X198679434Y-79428686D02*
G01*
X198719284Y-79440774D01*
X198755999Y-79460399D01*
X198788186Y-79486814D01*
X198814601Y-79519001D01*
X198834226Y-79555716D01*
X198846314Y-79595566D01*
X198851000Y-79643141D01*
X198851000Y-80306859D01*
X198846314Y-80354434D01*
X198834226Y-80394284D01*
X198814601Y-80430999D01*
X198788186Y-80463186D01*
X198755999Y-80489601D01*
X198719284Y-80509226D01*
X198679434Y-80521314D01*
X198631859Y-80526000D01*
X196168141Y-80526000D01*
X196120566Y-80521314D01*
X196080716Y-80509226D01*
X196044001Y-80489601D01*
X196011814Y-80463186D01*
X195985399Y-80430999D01*
X195965774Y-80394284D01*
X195953686Y-80354434D01*
X195949000Y-80306859D01*
X195949000Y-79643141D01*
X195953686Y-79595566D01*
X195965774Y-79555716D01*
X195985399Y-79519001D01*
X196011814Y-79486814D01*
X196044001Y-79460399D01*
X196080716Y-79440774D01*
X196120566Y-79428686D01*
X196168141Y-79424000D01*
X198631859Y-79424000D01*
X198679434Y-79428686D01*
X198679434Y-79428686D01*
G37*
G36*
X156659928Y-77776764D02*
G01*
X156681009Y-77783160D01*
X156700445Y-77793548D01*
X156717476Y-77807524D01*
X156731452Y-77824555D01*
X156741840Y-77843991D01*
X156748236Y-77865072D01*
X156751000Y-77893140D01*
X156751000Y-78356860D01*
X156748236Y-78384928D01*
X156741840Y-78406009D01*
X156731452Y-78425445D01*
X156717476Y-78442476D01*
X156700445Y-78456452D01*
X156681009Y-78466840D01*
X156659928Y-78473236D01*
X156631860Y-78476000D01*
X155068140Y-78476000D01*
X155040072Y-78473236D01*
X155018991Y-78466840D01*
X154999555Y-78456452D01*
X154982524Y-78442476D01*
X154968548Y-78425445D01*
X154958160Y-78406009D01*
X154951764Y-78384928D01*
X154949000Y-78356860D01*
X154949000Y-77893140D01*
X154951764Y-77865072D01*
X154958160Y-77843991D01*
X154968548Y-77824555D01*
X154982524Y-77807524D01*
X154999555Y-77793548D01*
X155018991Y-77783160D01*
X155040072Y-77776764D01*
X155068140Y-77774000D01*
X156631860Y-77774000D01*
X156659928Y-77776764D01*
X156659928Y-77776764D01*
G37*
G36*
X194859928Y-77776764D02*
G01*
X194881009Y-77783160D01*
X194900445Y-77793548D01*
X194917476Y-77807524D01*
X194931452Y-77824555D01*
X194941840Y-77843991D01*
X194948236Y-77865072D01*
X194951000Y-77893140D01*
X194951000Y-78356860D01*
X194948236Y-78384928D01*
X194941840Y-78406009D01*
X194931452Y-78425445D01*
X194917476Y-78442476D01*
X194900445Y-78456452D01*
X194881009Y-78466840D01*
X194859928Y-78473236D01*
X194831860Y-78476000D01*
X193268140Y-78476000D01*
X193240072Y-78473236D01*
X193218991Y-78466840D01*
X193199555Y-78456452D01*
X193182524Y-78442476D01*
X193168548Y-78425445D01*
X193158160Y-78406009D01*
X193151764Y-78384928D01*
X193149000Y-78356860D01*
X193149000Y-77893140D01*
X193151764Y-77865072D01*
X193158160Y-77843991D01*
X193168548Y-77824555D01*
X193182524Y-77807524D01*
X193199555Y-77793548D01*
X193218991Y-77783160D01*
X193240072Y-77776764D01*
X193268140Y-77774000D01*
X194831860Y-77774000D01*
X194859928Y-77776764D01*
X194859928Y-77776764D01*
G37*
G36*
X156659928Y-76526764D02*
G01*
X156681009Y-76533160D01*
X156700445Y-76543548D01*
X156717476Y-76557524D01*
X156731452Y-76574555D01*
X156741840Y-76593991D01*
X156748236Y-76615072D01*
X156751000Y-76643140D01*
X156751000Y-77106860D01*
X156748236Y-77134928D01*
X156741840Y-77156009D01*
X156731452Y-77175445D01*
X156717476Y-77192476D01*
X156700445Y-77206452D01*
X156681009Y-77216840D01*
X156659928Y-77223236D01*
X156631860Y-77226000D01*
X155068140Y-77226000D01*
X155040072Y-77223236D01*
X155018991Y-77216840D01*
X154999555Y-77206452D01*
X154982524Y-77192476D01*
X154968548Y-77175445D01*
X154958160Y-77156009D01*
X154951764Y-77134928D01*
X154949000Y-77106860D01*
X154949000Y-76643140D01*
X154951764Y-76615072D01*
X154958160Y-76593991D01*
X154968548Y-76574555D01*
X154982524Y-76557524D01*
X154999555Y-76543548D01*
X155018991Y-76533160D01*
X155040072Y-76526764D01*
X155068140Y-76524000D01*
X156631860Y-76524000D01*
X156659928Y-76526764D01*
X156659928Y-76526764D01*
G37*
G36*
X194859928Y-76526764D02*
G01*
X194881009Y-76533160D01*
X194900445Y-76543548D01*
X194917476Y-76557524D01*
X194931452Y-76574555D01*
X194941840Y-76593991D01*
X194948236Y-76615072D01*
X194951000Y-76643140D01*
X194951000Y-77106860D01*
X194948236Y-77134928D01*
X194941840Y-77156009D01*
X194931452Y-77175445D01*
X194917476Y-77192476D01*
X194900445Y-77206452D01*
X194881009Y-77216840D01*
X194859928Y-77223236D01*
X194831860Y-77226000D01*
X193268140Y-77226000D01*
X193240072Y-77223236D01*
X193218991Y-77216840D01*
X193199555Y-77206452D01*
X193182524Y-77192476D01*
X193168548Y-77175445D01*
X193158160Y-77156009D01*
X193151764Y-77134928D01*
X193149000Y-77106860D01*
X193149000Y-76643140D01*
X193151764Y-76615072D01*
X193158160Y-76593991D01*
X193168548Y-76574555D01*
X193182524Y-76557524D01*
X193199555Y-76543548D01*
X193218991Y-76533160D01*
X193240072Y-76526764D01*
X193268140Y-76524000D01*
X194831860Y-76524000D01*
X194859928Y-76526764D01*
X194859928Y-76526764D01*
G37*
G36*
X194859928Y-75276764D02*
G01*
X194881009Y-75283160D01*
X194900445Y-75293548D01*
X194917476Y-75307524D01*
X194931452Y-75324555D01*
X194941840Y-75343991D01*
X194948236Y-75365072D01*
X194951000Y-75393140D01*
X194951000Y-75856860D01*
X194948236Y-75884928D01*
X194941840Y-75906009D01*
X194931452Y-75925445D01*
X194917476Y-75942476D01*
X194900445Y-75956452D01*
X194881009Y-75966840D01*
X194859928Y-75973236D01*
X194831860Y-75976000D01*
X193268140Y-75976000D01*
X193240072Y-75973236D01*
X193218991Y-75966840D01*
X193199555Y-75956452D01*
X193182524Y-75942476D01*
X193168548Y-75925445D01*
X193158160Y-75906009D01*
X193151764Y-75884928D01*
X193149000Y-75856860D01*
X193149000Y-75393140D01*
X193151764Y-75365072D01*
X193158160Y-75343991D01*
X193168548Y-75324555D01*
X193182524Y-75307524D01*
X193199555Y-75293548D01*
X193218991Y-75283160D01*
X193240072Y-75276764D01*
X193268140Y-75274000D01*
X194831860Y-75274000D01*
X194859928Y-75276764D01*
X194859928Y-75276764D01*
G37*
G36*
X156659928Y-75276764D02*
G01*
X156681009Y-75283160D01*
X156700445Y-75293548D01*
X156717476Y-75307524D01*
X156731452Y-75324555D01*
X156741840Y-75343991D01*
X156748236Y-75365072D01*
X156751000Y-75393140D01*
X156751000Y-75856860D01*
X156748236Y-75884928D01*
X156741840Y-75906009D01*
X156731452Y-75925445D01*
X156717476Y-75942476D01*
X156700445Y-75956452D01*
X156681009Y-75966840D01*
X156659928Y-75973236D01*
X156631860Y-75976000D01*
X155068140Y-75976000D01*
X155040072Y-75973236D01*
X155018991Y-75966840D01*
X154999555Y-75956452D01*
X154982524Y-75942476D01*
X154968548Y-75925445D01*
X154958160Y-75906009D01*
X154951764Y-75884928D01*
X154949000Y-75856860D01*
X154949000Y-75393140D01*
X154951764Y-75365072D01*
X154958160Y-75343991D01*
X154968548Y-75324555D01*
X154982524Y-75307524D01*
X154999555Y-75293548D01*
X155018991Y-75283160D01*
X155040072Y-75276764D01*
X155068140Y-75274000D01*
X156631860Y-75274000D01*
X156659928Y-75276764D01*
X156659928Y-75276764D01*
G37*
G36*
X194859928Y-74026764D02*
G01*
X194881009Y-74033160D01*
X194900445Y-74043548D01*
X194917476Y-74057524D01*
X194931452Y-74074555D01*
X194941840Y-74093991D01*
X194948236Y-74115072D01*
X194951000Y-74143140D01*
X194951000Y-74606860D01*
X194948236Y-74634928D01*
X194941840Y-74656009D01*
X194931452Y-74675445D01*
X194917476Y-74692476D01*
X194900445Y-74706452D01*
X194881009Y-74716840D01*
X194859928Y-74723236D01*
X194831860Y-74726000D01*
X193268140Y-74726000D01*
X193240072Y-74723236D01*
X193218991Y-74716840D01*
X193199555Y-74706452D01*
X193182524Y-74692476D01*
X193168548Y-74675445D01*
X193158160Y-74656009D01*
X193151764Y-74634928D01*
X193149000Y-74606860D01*
X193149000Y-74143140D01*
X193151764Y-74115072D01*
X193158160Y-74093991D01*
X193168548Y-74074555D01*
X193182524Y-74057524D01*
X193199555Y-74043548D01*
X193218991Y-74033160D01*
X193240072Y-74026764D01*
X193268140Y-74024000D01*
X194831860Y-74024000D01*
X194859928Y-74026764D01*
X194859928Y-74026764D01*
G37*
G36*
X156659928Y-74026764D02*
G01*
X156681009Y-74033160D01*
X156700445Y-74043548D01*
X156717476Y-74057524D01*
X156731452Y-74074555D01*
X156741840Y-74093991D01*
X156748236Y-74115072D01*
X156751000Y-74143140D01*
X156751000Y-74606860D01*
X156748236Y-74634928D01*
X156741840Y-74656009D01*
X156731452Y-74675445D01*
X156717476Y-74692476D01*
X156700445Y-74706452D01*
X156681009Y-74716840D01*
X156659928Y-74723236D01*
X156631860Y-74726000D01*
X155068140Y-74726000D01*
X155040072Y-74723236D01*
X155018991Y-74716840D01*
X154999555Y-74706452D01*
X154982524Y-74692476D01*
X154968548Y-74675445D01*
X154958160Y-74656009D01*
X154951764Y-74634928D01*
X154949000Y-74606860D01*
X154949000Y-74143140D01*
X154951764Y-74115072D01*
X154958160Y-74093991D01*
X154968548Y-74074555D01*
X154982524Y-74057524D01*
X154999555Y-74043548D01*
X155018991Y-74033160D01*
X155040072Y-74026764D01*
X155068140Y-74024000D01*
X156631860Y-74024000D01*
X156659928Y-74026764D01*
X156659928Y-74026764D01*
G37*
G36*
X194859928Y-72776764D02*
G01*
X194881009Y-72783160D01*
X194900445Y-72793548D01*
X194917476Y-72807524D01*
X194931452Y-72824555D01*
X194941840Y-72843991D01*
X194948236Y-72865072D01*
X194951000Y-72893140D01*
X194951000Y-73356860D01*
X194948236Y-73384928D01*
X194941840Y-73406009D01*
X194931452Y-73425445D01*
X194917476Y-73442476D01*
X194900445Y-73456452D01*
X194881009Y-73466840D01*
X194859928Y-73473236D01*
X194831860Y-73476000D01*
X193268140Y-73476000D01*
X193240072Y-73473236D01*
X193218991Y-73466840D01*
X193199555Y-73456452D01*
X193182524Y-73442476D01*
X193168548Y-73425445D01*
X193158160Y-73406009D01*
X193151764Y-73384928D01*
X193149000Y-73356860D01*
X193149000Y-72893140D01*
X193151764Y-72865072D01*
X193158160Y-72843991D01*
X193168548Y-72824555D01*
X193182524Y-72807524D01*
X193199555Y-72793548D01*
X193218991Y-72783160D01*
X193240072Y-72776764D01*
X193268140Y-72774000D01*
X194831860Y-72774000D01*
X194859928Y-72776764D01*
X194859928Y-72776764D01*
G37*
G36*
X156659928Y-72776764D02*
G01*
X156681009Y-72783160D01*
X156700445Y-72793548D01*
X156717476Y-72807524D01*
X156731452Y-72824555D01*
X156741840Y-72843991D01*
X156748236Y-72865072D01*
X156751000Y-72893140D01*
X156751000Y-73356860D01*
X156748236Y-73384928D01*
X156741840Y-73406009D01*
X156731452Y-73425445D01*
X156717476Y-73442476D01*
X156700445Y-73456452D01*
X156681009Y-73466840D01*
X156659928Y-73473236D01*
X156631860Y-73476000D01*
X155068140Y-73476000D01*
X155040072Y-73473236D01*
X155018991Y-73466840D01*
X154999555Y-73456452D01*
X154982524Y-73442476D01*
X154968548Y-73425445D01*
X154958160Y-73406009D01*
X154951764Y-73384928D01*
X154949000Y-73356860D01*
X154949000Y-72893140D01*
X154951764Y-72865072D01*
X154958160Y-72843991D01*
X154968548Y-72824555D01*
X154982524Y-72807524D01*
X154999555Y-72793548D01*
X155018991Y-72783160D01*
X155040072Y-72776764D01*
X155068140Y-72774000D01*
X156631860Y-72774000D01*
X156659928Y-72776764D01*
X156659928Y-72776764D01*
G37*
G36*
X194859928Y-71526764D02*
G01*
X194881009Y-71533160D01*
X194900445Y-71543548D01*
X194917476Y-71557524D01*
X194931452Y-71574555D01*
X194941840Y-71593991D01*
X194948236Y-71615072D01*
X194951000Y-71643140D01*
X194951000Y-72106860D01*
X194948236Y-72134928D01*
X194941840Y-72156009D01*
X194931452Y-72175445D01*
X194917476Y-72192476D01*
X194900445Y-72206452D01*
X194881009Y-72216840D01*
X194859928Y-72223236D01*
X194831860Y-72226000D01*
X193268140Y-72226000D01*
X193240072Y-72223236D01*
X193218991Y-72216840D01*
X193199555Y-72206452D01*
X193182524Y-72192476D01*
X193168548Y-72175445D01*
X193158160Y-72156009D01*
X193151764Y-72134928D01*
X193149000Y-72106860D01*
X193149000Y-71643140D01*
X193151764Y-71615072D01*
X193158160Y-71593991D01*
X193168548Y-71574555D01*
X193182524Y-71557524D01*
X193199555Y-71543548D01*
X193218991Y-71533160D01*
X193240072Y-71526764D01*
X193268140Y-71524000D01*
X194831860Y-71524000D01*
X194859928Y-71526764D01*
X194859928Y-71526764D01*
G37*
G36*
X156659928Y-71526764D02*
G01*
X156681009Y-71533160D01*
X156700445Y-71543548D01*
X156717476Y-71557524D01*
X156731452Y-71574555D01*
X156741840Y-71593991D01*
X156748236Y-71615072D01*
X156751000Y-71643140D01*
X156751000Y-72106860D01*
X156748236Y-72134928D01*
X156741840Y-72156009D01*
X156731452Y-72175445D01*
X156717476Y-72192476D01*
X156700445Y-72206452D01*
X156681009Y-72216840D01*
X156659928Y-72223236D01*
X156631860Y-72226000D01*
X155068140Y-72226000D01*
X155040072Y-72223236D01*
X155018991Y-72216840D01*
X154999555Y-72206452D01*
X154982524Y-72192476D01*
X154968548Y-72175445D01*
X154958160Y-72156009D01*
X154951764Y-72134928D01*
X154949000Y-72106860D01*
X154949000Y-71643140D01*
X154951764Y-71615072D01*
X154958160Y-71593991D01*
X154968548Y-71574555D01*
X154982524Y-71557524D01*
X154999555Y-71543548D01*
X155018991Y-71533160D01*
X155040072Y-71526764D01*
X155068140Y-71524000D01*
X156631860Y-71524000D01*
X156659928Y-71526764D01*
X156659928Y-71526764D01*
G37*
G36*
X198679434Y-69478686D02*
G01*
X198719284Y-69490774D01*
X198755999Y-69510399D01*
X198788186Y-69536814D01*
X198814601Y-69569001D01*
X198834226Y-69605716D01*
X198846314Y-69645566D01*
X198851000Y-69693141D01*
X198851000Y-70356859D01*
X198846314Y-70404434D01*
X198834226Y-70444284D01*
X198814601Y-70480999D01*
X198788186Y-70513186D01*
X198755999Y-70539601D01*
X198719284Y-70559226D01*
X198679434Y-70571314D01*
X198631859Y-70576000D01*
X196168141Y-70576000D01*
X196120566Y-70571314D01*
X196080716Y-70559226D01*
X196044001Y-70539601D01*
X196011814Y-70513186D01*
X195985399Y-70480999D01*
X195965774Y-70444284D01*
X195953686Y-70404434D01*
X195949000Y-70356859D01*
X195949000Y-69693141D01*
X195953686Y-69645566D01*
X195965774Y-69605716D01*
X195985399Y-69569001D01*
X196011814Y-69536814D01*
X196044001Y-69510399D01*
X196080716Y-69490774D01*
X196120566Y-69478686D01*
X196168141Y-69474000D01*
X198631859Y-69474000D01*
X198679434Y-69478686D01*
X198679434Y-69478686D01*
G37*
G36*
X153879434Y-69478686D02*
G01*
X153919284Y-69490774D01*
X153955999Y-69510399D01*
X153988186Y-69536814D01*
X154014601Y-69569001D01*
X154034226Y-69605716D01*
X154046314Y-69645566D01*
X154051000Y-69693141D01*
X154051000Y-70356859D01*
X154046314Y-70404434D01*
X154034226Y-70444284D01*
X154014601Y-70480999D01*
X153988186Y-70513186D01*
X153955999Y-70539601D01*
X153919284Y-70559226D01*
X153879434Y-70571314D01*
X153831859Y-70576000D01*
X151468141Y-70576000D01*
X151420566Y-70571314D01*
X151380716Y-70559226D01*
X151344001Y-70539601D01*
X151311814Y-70513186D01*
X151285399Y-70480999D01*
X151265774Y-70444284D01*
X151253686Y-70404434D01*
X151249000Y-70356859D01*
X151249000Y-69693141D01*
X151253686Y-69645566D01*
X151265774Y-69605716D01*
X151285399Y-69569001D01*
X151311814Y-69536814D01*
X151344001Y-69510399D01*
X151380716Y-69490774D01*
X151420566Y-69478686D01*
X151468141Y-69474000D01*
X153831859Y-69474000D01*
X153879434Y-69478686D01*
X153879434Y-69478686D01*
G37*
G36*
X155551000Y-63551000D02*
G01*
X150449000Y-63551000D01*
X150449000Y-58449000D01*
X155551000Y-58449000D01*
X155551000Y-63551000D01*
X155551000Y-63551000D01*
G37*
G36*
X199551000Y-63551000D02*
G01*
X194449000Y-63551000D01*
X194449000Y-58449000D01*
X199551000Y-58449000D01*
X199551000Y-63551000D01*
X199551000Y-63551000D01*
G37*
G36*
X172289943Y-52066248D02*
G01*
X172845189Y-52296238D01*
X172862557Y-52307843D01*
X173344899Y-52630134D01*
X173769866Y-53055101D01*
X173779210Y-53069086D01*
X174103762Y-53554811D01*
X174333752Y-54110057D01*
X174451000Y-54699501D01*
X174451000Y-55300499D01*
X174333752Y-55889943D01*
X174103762Y-56445189D01*
X174103761Y-56445190D01*
X173769866Y-56944899D01*
X173344899Y-57369866D01*
X173093347Y-57537948D01*
X172845189Y-57703762D01*
X172289943Y-57933752D01*
X171700499Y-58051000D01*
X171099501Y-58051000D01*
X170510057Y-57933752D01*
X169954811Y-57703762D01*
X169706653Y-57537948D01*
X169455101Y-57369866D01*
X169030134Y-56944899D01*
X168696239Y-56445190D01*
X168696238Y-56445189D01*
X168466248Y-55889943D01*
X168349000Y-55300499D01*
X168349000Y-54699501D01*
X168466248Y-54110057D01*
X168696238Y-53554811D01*
X169020790Y-53069086D01*
X169030134Y-53055101D01*
X169455101Y-52630134D01*
X169937443Y-52307843D01*
X169954811Y-52296238D01*
X170510057Y-52066248D01*
X171099501Y-51949000D01*
X171700499Y-51949000D01*
X172289943Y-52066248D01*
X172289943Y-52066248D01*
G37*
G36*
X179489943Y-52066248D02*
G01*
X180045189Y-52296238D01*
X180062557Y-52307843D01*
X180544899Y-52630134D01*
X180969866Y-53055101D01*
X180979210Y-53069086D01*
X181303762Y-53554811D01*
X181533752Y-54110057D01*
X181651000Y-54699501D01*
X181651000Y-55300499D01*
X181533752Y-55889943D01*
X181303762Y-56445189D01*
X181303761Y-56445190D01*
X180969866Y-56944899D01*
X180544899Y-57369866D01*
X180293347Y-57537948D01*
X180045189Y-57703762D01*
X179489943Y-57933752D01*
X178900499Y-58051000D01*
X178299501Y-58051000D01*
X177710057Y-57933752D01*
X177154811Y-57703762D01*
X176906653Y-57537948D01*
X176655101Y-57369866D01*
X176230134Y-56944899D01*
X175896239Y-56445190D01*
X175896238Y-56445189D01*
X175666248Y-55889943D01*
X175549000Y-55300499D01*
X175549000Y-54699501D01*
X175666248Y-54110057D01*
X175896238Y-53554811D01*
X176220790Y-53069086D01*
X176230134Y-53055101D01*
X176655101Y-52630134D01*
X177137443Y-52307843D01*
X177154811Y-52296238D01*
X177710057Y-52066248D01*
X178299501Y-51949000D01*
X178900499Y-51949000D01*
X179489943Y-52066248D01*
X179489943Y-52066248D01*
G37*
G36*
X191551000Y-55551000D02*
G01*
X186449000Y-55551000D01*
X186449000Y-50449000D01*
X191551000Y-50449000D01*
X191551000Y-55551000D01*
X191551000Y-55551000D01*
G37*
G36*
X163551000Y-55551000D02*
G01*
X158449000Y-55551000D01*
X158449000Y-50449000D01*
X163551000Y-50449000D01*
X163551000Y-55551000D01*
X163551000Y-55551000D01*
G37*
G36*
X198069085Y-50623975D02*
G01*
X198424143Y-50771045D01*
X198424145Y-50771046D01*
X198743690Y-50984559D01*
X199015441Y-51256310D01*
X199228954Y-51575855D01*
X199228955Y-51575857D01*
X199376025Y-51930915D01*
X199451000Y-52307842D01*
X199451000Y-52692158D01*
X199376025Y-53069085D01*
X199228955Y-53424143D01*
X199228954Y-53424145D01*
X199015441Y-53743690D01*
X198743690Y-54015441D01*
X198424145Y-54228954D01*
X198424144Y-54228955D01*
X198424143Y-54228955D01*
X198069085Y-54376025D01*
X197692158Y-54451000D01*
X197307842Y-54451000D01*
X196930915Y-54376025D01*
X196575857Y-54228955D01*
X196575856Y-54228955D01*
X196575855Y-54228954D01*
X196256310Y-54015441D01*
X195984559Y-53743690D01*
X195771046Y-53424145D01*
X195771045Y-53424143D01*
X195623975Y-53069085D01*
X195549000Y-52692158D01*
X195549000Y-52307842D01*
X195623975Y-51930915D01*
X195771045Y-51575857D01*
X195771046Y-51575855D01*
X195984559Y-51256310D01*
X196256310Y-50984559D01*
X196575855Y-50771046D01*
X196575857Y-50771045D01*
X196930915Y-50623975D01*
X197307842Y-50549000D01*
X197692158Y-50549000D01*
X198069085Y-50623975D01*
X198069085Y-50623975D01*
G37*
G36*
X153069085Y-50623975D02*
G01*
X153424143Y-50771045D01*
X153424145Y-50771046D01*
X153743690Y-50984559D01*
X154015441Y-51256310D01*
X154228954Y-51575855D01*
X154228955Y-51575857D01*
X154376025Y-51930915D01*
X154451000Y-52307842D01*
X154451000Y-52692158D01*
X154376025Y-53069085D01*
X154228955Y-53424143D01*
X154228954Y-53424145D01*
X154015441Y-53743690D01*
X153743690Y-54015441D01*
X153424145Y-54228954D01*
X153424144Y-54228955D01*
X153424143Y-54228955D01*
X153069085Y-54376025D01*
X152692158Y-54451000D01*
X152307842Y-54451000D01*
X151930915Y-54376025D01*
X151575857Y-54228955D01*
X151575856Y-54228955D01*
X151575855Y-54228954D01*
X151256310Y-54015441D01*
X150984559Y-53743690D01*
X150771046Y-53424145D01*
X150771045Y-53424143D01*
X150623975Y-53069085D01*
X150549000Y-52692158D01*
X150549000Y-52307842D01*
X150623975Y-51930915D01*
X150771045Y-51575857D01*
X150771046Y-51575855D01*
X150984559Y-51256310D01*
X151256310Y-50984559D01*
X151575855Y-50771046D01*
X151575857Y-50771045D01*
X151930915Y-50623975D01*
X152307842Y-50549000D01*
X152692158Y-50549000D01*
X153069085Y-50623975D01*
X153069085Y-50623975D01*
G37*
M02*
