G04 #@! TF.GenerationSoftware,KiCad,Pcbnew,(5.1.4-0-10_14)*
G04 #@! TF.CreationDate,2021-01-04T23:24:54-07:00*
G04 #@! TF.ProjectId,Power,506f7765-722e-46b6-9963-61645f706362,rev?*
G04 #@! TF.SameCoordinates,Original*
G04 #@! TF.FileFunction,Soldermask,Bot*
G04 #@! TF.FilePolarity,Negative*
%FSLAX46Y46*%
G04 Gerber Fmt 4.6, Leading zero omitted, Abs format (unit mm)*
G04 Created by KiCad (PCBNEW (5.1.4-0-10_14)) date 2021-01-04 23:24:54*
%MOMM*%
%LPD*%
G04 APERTURE LIST*
%ADD10C,0.100000*%
G04 APERTURE END LIST*
D10*
G36*
X198069085Y-95623975D02*
G01*
X198424143Y-95771045D01*
X198424145Y-95771046D01*
X198743690Y-95984559D01*
X199015441Y-96256310D01*
X199211010Y-96549000D01*
X199228955Y-96575857D01*
X199376025Y-96930915D01*
X199451000Y-97307842D01*
X199451000Y-97692158D01*
X199376025Y-98069085D01*
X199228955Y-98424143D01*
X199228954Y-98424145D01*
X199015441Y-98743690D01*
X198743690Y-99015441D01*
X198424145Y-99228954D01*
X198424144Y-99228955D01*
X198424143Y-99228955D01*
X198069085Y-99376025D01*
X197692158Y-99451000D01*
X197307842Y-99451000D01*
X196930915Y-99376025D01*
X196575857Y-99228955D01*
X196575856Y-99228955D01*
X196575855Y-99228954D01*
X196256310Y-99015441D01*
X195984559Y-98743690D01*
X195771046Y-98424145D01*
X195771045Y-98424143D01*
X195623975Y-98069085D01*
X195549000Y-97692158D01*
X195549000Y-97307842D01*
X195623975Y-96930915D01*
X195771045Y-96575857D01*
X195788990Y-96549000D01*
X195984559Y-96256310D01*
X196256310Y-95984559D01*
X196575855Y-95771046D01*
X196575857Y-95771045D01*
X196930915Y-95623975D01*
X197307842Y-95549000D01*
X197692158Y-95549000D01*
X198069085Y-95623975D01*
X198069085Y-95623975D01*
G37*
G36*
X153069085Y-95623975D02*
G01*
X153424143Y-95771045D01*
X153424145Y-95771046D01*
X153743690Y-95984559D01*
X154015441Y-96256310D01*
X154211010Y-96549000D01*
X154228955Y-96575857D01*
X154376025Y-96930915D01*
X154451000Y-97307842D01*
X154451000Y-97692158D01*
X154376025Y-98069085D01*
X154228955Y-98424143D01*
X154228954Y-98424145D01*
X154015441Y-98743690D01*
X153743690Y-99015441D01*
X153424145Y-99228954D01*
X153424144Y-99228955D01*
X153424143Y-99228955D01*
X153069085Y-99376025D01*
X152692158Y-99451000D01*
X152307842Y-99451000D01*
X151930915Y-99376025D01*
X151575857Y-99228955D01*
X151575856Y-99228955D01*
X151575855Y-99228954D01*
X151256310Y-99015441D01*
X150984559Y-98743690D01*
X150771046Y-98424145D01*
X150771045Y-98424143D01*
X150623975Y-98069085D01*
X150549000Y-97692158D01*
X150549000Y-97307842D01*
X150623975Y-96930915D01*
X150771045Y-96575857D01*
X150788990Y-96549000D01*
X150984559Y-96256310D01*
X151256310Y-95984559D01*
X151575855Y-95771046D01*
X151575857Y-95771045D01*
X151930915Y-95623975D01*
X152307842Y-95549000D01*
X152692158Y-95549000D01*
X153069085Y-95623975D01*
X153069085Y-95623975D01*
G37*
G36*
X190631552Y-98066331D02*
G01*
X190713627Y-98100328D01*
X190713629Y-98100329D01*
X190750813Y-98125175D01*
X190787495Y-98149685D01*
X190850315Y-98212505D01*
X190899672Y-98286373D01*
X190933669Y-98368448D01*
X190951000Y-98455579D01*
X190951000Y-98544421D01*
X190933669Y-98631552D01*
X190899672Y-98713627D01*
X190899671Y-98713629D01*
X190850314Y-98787496D01*
X190787496Y-98850314D01*
X190713629Y-98899671D01*
X190713628Y-98899672D01*
X190713627Y-98899672D01*
X190631552Y-98933669D01*
X190544421Y-98951000D01*
X190455579Y-98951000D01*
X190368448Y-98933669D01*
X190286373Y-98899672D01*
X190286372Y-98899672D01*
X190286371Y-98899671D01*
X190212504Y-98850314D01*
X190149686Y-98787496D01*
X190100329Y-98713629D01*
X190100328Y-98713627D01*
X190066331Y-98631552D01*
X190049000Y-98544421D01*
X190049000Y-98455579D01*
X190066331Y-98368448D01*
X190100328Y-98286373D01*
X190149685Y-98212505D01*
X190212505Y-98149685D01*
X190249187Y-98125175D01*
X190286371Y-98100329D01*
X190286373Y-98100328D01*
X190368448Y-98066331D01*
X190455579Y-98049000D01*
X190544421Y-98049000D01*
X190631552Y-98066331D01*
X190631552Y-98066331D01*
G37*
G36*
X189131552Y-98066331D02*
G01*
X189213627Y-98100328D01*
X189213629Y-98100329D01*
X189250813Y-98125175D01*
X189287495Y-98149685D01*
X189350315Y-98212505D01*
X189399672Y-98286373D01*
X189433669Y-98368448D01*
X189451000Y-98455579D01*
X189451000Y-98544421D01*
X189433669Y-98631552D01*
X189399672Y-98713627D01*
X189399671Y-98713629D01*
X189350314Y-98787496D01*
X189287496Y-98850314D01*
X189213629Y-98899671D01*
X189213628Y-98899672D01*
X189213627Y-98899672D01*
X189131552Y-98933669D01*
X189044421Y-98951000D01*
X188955579Y-98951000D01*
X188868448Y-98933669D01*
X188786373Y-98899672D01*
X188786372Y-98899672D01*
X188786371Y-98899671D01*
X188712504Y-98850314D01*
X188649686Y-98787496D01*
X188600329Y-98713629D01*
X188600328Y-98713627D01*
X188566331Y-98631552D01*
X188549000Y-98544421D01*
X188549000Y-98455579D01*
X188566331Y-98368448D01*
X188600328Y-98286373D01*
X188649685Y-98212505D01*
X188712505Y-98149685D01*
X188749187Y-98125175D01*
X188786371Y-98100329D01*
X188786373Y-98100328D01*
X188868448Y-98066331D01*
X188955579Y-98049000D01*
X189044421Y-98049000D01*
X189131552Y-98066331D01*
X189131552Y-98066331D01*
G37*
G36*
X187631552Y-98066331D02*
G01*
X187713627Y-98100328D01*
X187713629Y-98100329D01*
X187750813Y-98125175D01*
X187787495Y-98149685D01*
X187850315Y-98212505D01*
X187899672Y-98286373D01*
X187933669Y-98368448D01*
X187951000Y-98455579D01*
X187951000Y-98544421D01*
X187933669Y-98631552D01*
X187899672Y-98713627D01*
X187899671Y-98713629D01*
X187850314Y-98787496D01*
X187787496Y-98850314D01*
X187713629Y-98899671D01*
X187713628Y-98899672D01*
X187713627Y-98899672D01*
X187631552Y-98933669D01*
X187544421Y-98951000D01*
X187455579Y-98951000D01*
X187368448Y-98933669D01*
X187286373Y-98899672D01*
X187286372Y-98899672D01*
X187286371Y-98899671D01*
X187212504Y-98850314D01*
X187149686Y-98787496D01*
X187100329Y-98713629D01*
X187100328Y-98713627D01*
X187066331Y-98631552D01*
X187049000Y-98544421D01*
X187049000Y-98455579D01*
X187066331Y-98368448D01*
X187100328Y-98286373D01*
X187149685Y-98212505D01*
X187212505Y-98149685D01*
X187249187Y-98125175D01*
X187286371Y-98100329D01*
X187286373Y-98100328D01*
X187368448Y-98066331D01*
X187455579Y-98049000D01*
X187544421Y-98049000D01*
X187631552Y-98066331D01*
X187631552Y-98066331D01*
G37*
G36*
X162631552Y-98066331D02*
G01*
X162713627Y-98100328D01*
X162713629Y-98100329D01*
X162750813Y-98125175D01*
X162787495Y-98149685D01*
X162850315Y-98212505D01*
X162899672Y-98286373D01*
X162933669Y-98368448D01*
X162951000Y-98455579D01*
X162951000Y-98544421D01*
X162933669Y-98631552D01*
X162899672Y-98713627D01*
X162899671Y-98713629D01*
X162850314Y-98787496D01*
X162787496Y-98850314D01*
X162713629Y-98899671D01*
X162713628Y-98899672D01*
X162713627Y-98899672D01*
X162631552Y-98933669D01*
X162544421Y-98951000D01*
X162455579Y-98951000D01*
X162368448Y-98933669D01*
X162286373Y-98899672D01*
X162286372Y-98899672D01*
X162286371Y-98899671D01*
X162212504Y-98850314D01*
X162149686Y-98787496D01*
X162100329Y-98713629D01*
X162100328Y-98713627D01*
X162066331Y-98631552D01*
X162049000Y-98544421D01*
X162049000Y-98455579D01*
X162066331Y-98368448D01*
X162100328Y-98286373D01*
X162149685Y-98212505D01*
X162212505Y-98149685D01*
X162249187Y-98125175D01*
X162286371Y-98100329D01*
X162286373Y-98100328D01*
X162368448Y-98066331D01*
X162455579Y-98049000D01*
X162544421Y-98049000D01*
X162631552Y-98066331D01*
X162631552Y-98066331D01*
G37*
G36*
X161131552Y-98066331D02*
G01*
X161213627Y-98100328D01*
X161213629Y-98100329D01*
X161250813Y-98125175D01*
X161287495Y-98149685D01*
X161350315Y-98212505D01*
X161399672Y-98286373D01*
X161433669Y-98368448D01*
X161451000Y-98455579D01*
X161451000Y-98544421D01*
X161433669Y-98631552D01*
X161399672Y-98713627D01*
X161399671Y-98713629D01*
X161350314Y-98787496D01*
X161287496Y-98850314D01*
X161213629Y-98899671D01*
X161213628Y-98899672D01*
X161213627Y-98899672D01*
X161131552Y-98933669D01*
X161044421Y-98951000D01*
X160955579Y-98951000D01*
X160868448Y-98933669D01*
X160786373Y-98899672D01*
X160786372Y-98899672D01*
X160786371Y-98899671D01*
X160712504Y-98850314D01*
X160649686Y-98787496D01*
X160600329Y-98713629D01*
X160600328Y-98713627D01*
X160566331Y-98631552D01*
X160549000Y-98544421D01*
X160549000Y-98455579D01*
X160566331Y-98368448D01*
X160600328Y-98286373D01*
X160649685Y-98212505D01*
X160712505Y-98149685D01*
X160749187Y-98125175D01*
X160786371Y-98100329D01*
X160786373Y-98100328D01*
X160868448Y-98066331D01*
X160955579Y-98049000D01*
X161044421Y-98049000D01*
X161131552Y-98066331D01*
X161131552Y-98066331D01*
G37*
G36*
X159631552Y-98066331D02*
G01*
X159713627Y-98100328D01*
X159713629Y-98100329D01*
X159750813Y-98125175D01*
X159787495Y-98149685D01*
X159850315Y-98212505D01*
X159899672Y-98286373D01*
X159933669Y-98368448D01*
X159951000Y-98455579D01*
X159951000Y-98544421D01*
X159933669Y-98631552D01*
X159899672Y-98713627D01*
X159899671Y-98713629D01*
X159850314Y-98787496D01*
X159787496Y-98850314D01*
X159713629Y-98899671D01*
X159713628Y-98899672D01*
X159713627Y-98899672D01*
X159631552Y-98933669D01*
X159544421Y-98951000D01*
X159455579Y-98951000D01*
X159368448Y-98933669D01*
X159286373Y-98899672D01*
X159286372Y-98899672D01*
X159286371Y-98899671D01*
X159212504Y-98850314D01*
X159149686Y-98787496D01*
X159100329Y-98713629D01*
X159100328Y-98713627D01*
X159066331Y-98631552D01*
X159049000Y-98544421D01*
X159049000Y-98455579D01*
X159066331Y-98368448D01*
X159100328Y-98286373D01*
X159149685Y-98212505D01*
X159212505Y-98149685D01*
X159249187Y-98125175D01*
X159286371Y-98100329D01*
X159286373Y-98100328D01*
X159368448Y-98066331D01*
X159455579Y-98049000D01*
X159544421Y-98049000D01*
X159631552Y-98066331D01*
X159631552Y-98066331D01*
G37*
G36*
X169631552Y-97066331D02*
G01*
X169713627Y-97100328D01*
X169713629Y-97100329D01*
X169750813Y-97125175D01*
X169787495Y-97149685D01*
X169850315Y-97212505D01*
X169899672Y-97286373D01*
X169933669Y-97368448D01*
X169951000Y-97455579D01*
X169951000Y-97544421D01*
X169933669Y-97631552D01*
X169899672Y-97713627D01*
X169899671Y-97713629D01*
X169850314Y-97787496D01*
X169787496Y-97850314D01*
X169713629Y-97899671D01*
X169713628Y-97899672D01*
X169713627Y-97899672D01*
X169631552Y-97933669D01*
X169544421Y-97951000D01*
X169455579Y-97951000D01*
X169368448Y-97933669D01*
X169286373Y-97899672D01*
X169286372Y-97899672D01*
X169286371Y-97899671D01*
X169212504Y-97850314D01*
X169149686Y-97787496D01*
X169100329Y-97713629D01*
X169100328Y-97713627D01*
X169066331Y-97631552D01*
X169049000Y-97544421D01*
X169049000Y-97455579D01*
X169066331Y-97368448D01*
X169100328Y-97286373D01*
X169149685Y-97212505D01*
X169212505Y-97149685D01*
X169249187Y-97125175D01*
X169286371Y-97100329D01*
X169286373Y-97100328D01*
X169368448Y-97066331D01*
X169455579Y-97049000D01*
X169544421Y-97049000D01*
X169631552Y-97066331D01*
X169631552Y-97066331D01*
G37*
G36*
X171131552Y-97066331D02*
G01*
X171213627Y-97100328D01*
X171213629Y-97100329D01*
X171250813Y-97125175D01*
X171287495Y-97149685D01*
X171350315Y-97212505D01*
X171399672Y-97286373D01*
X171433669Y-97368448D01*
X171451000Y-97455579D01*
X171451000Y-97544421D01*
X171433669Y-97631552D01*
X171399672Y-97713627D01*
X171399671Y-97713629D01*
X171350314Y-97787496D01*
X171287496Y-97850314D01*
X171213629Y-97899671D01*
X171213628Y-97899672D01*
X171213627Y-97899672D01*
X171131552Y-97933669D01*
X171044421Y-97951000D01*
X170955579Y-97951000D01*
X170868448Y-97933669D01*
X170786373Y-97899672D01*
X170786372Y-97899672D01*
X170786371Y-97899671D01*
X170712504Y-97850314D01*
X170649686Y-97787496D01*
X170600329Y-97713629D01*
X170600328Y-97713627D01*
X170566331Y-97631552D01*
X170549000Y-97544421D01*
X170549000Y-97455579D01*
X170566331Y-97368448D01*
X170600328Y-97286373D01*
X170649685Y-97212505D01*
X170712505Y-97149685D01*
X170749187Y-97125175D01*
X170786371Y-97100329D01*
X170786373Y-97100328D01*
X170868448Y-97066331D01*
X170955579Y-97049000D01*
X171044421Y-97049000D01*
X171131552Y-97066331D01*
X171131552Y-97066331D01*
G37*
G36*
X172631552Y-97066331D02*
G01*
X172713627Y-97100328D01*
X172713629Y-97100329D01*
X172750813Y-97125175D01*
X172787495Y-97149685D01*
X172850315Y-97212505D01*
X172899672Y-97286373D01*
X172933669Y-97368448D01*
X172951000Y-97455579D01*
X172951000Y-97544421D01*
X172933669Y-97631552D01*
X172899672Y-97713627D01*
X172899671Y-97713629D01*
X172850314Y-97787496D01*
X172787496Y-97850314D01*
X172713629Y-97899671D01*
X172713628Y-97899672D01*
X172713627Y-97899672D01*
X172631552Y-97933669D01*
X172544421Y-97951000D01*
X172455579Y-97951000D01*
X172368448Y-97933669D01*
X172286373Y-97899672D01*
X172286372Y-97899672D01*
X172286371Y-97899671D01*
X172212504Y-97850314D01*
X172149686Y-97787496D01*
X172100329Y-97713629D01*
X172100328Y-97713627D01*
X172066331Y-97631552D01*
X172049000Y-97544421D01*
X172049000Y-97455579D01*
X172066331Y-97368448D01*
X172100328Y-97286373D01*
X172149685Y-97212505D01*
X172212505Y-97149685D01*
X172249187Y-97125175D01*
X172286371Y-97100329D01*
X172286373Y-97100328D01*
X172368448Y-97066331D01*
X172455579Y-97049000D01*
X172544421Y-97049000D01*
X172631552Y-97066331D01*
X172631552Y-97066331D01*
G37*
G36*
X177631552Y-97066331D02*
G01*
X177713627Y-97100328D01*
X177713629Y-97100329D01*
X177750813Y-97125175D01*
X177787495Y-97149685D01*
X177850315Y-97212505D01*
X177899672Y-97286373D01*
X177933669Y-97368448D01*
X177951000Y-97455579D01*
X177951000Y-97544421D01*
X177933669Y-97631552D01*
X177899672Y-97713627D01*
X177899671Y-97713629D01*
X177850314Y-97787496D01*
X177787496Y-97850314D01*
X177713629Y-97899671D01*
X177713628Y-97899672D01*
X177713627Y-97899672D01*
X177631552Y-97933669D01*
X177544421Y-97951000D01*
X177455579Y-97951000D01*
X177368448Y-97933669D01*
X177286373Y-97899672D01*
X177286372Y-97899672D01*
X177286371Y-97899671D01*
X177212504Y-97850314D01*
X177149686Y-97787496D01*
X177100329Y-97713629D01*
X177100328Y-97713627D01*
X177066331Y-97631552D01*
X177049000Y-97544421D01*
X177049000Y-97455579D01*
X177066331Y-97368448D01*
X177100328Y-97286373D01*
X177149685Y-97212505D01*
X177212505Y-97149685D01*
X177249187Y-97125175D01*
X177286371Y-97100329D01*
X177286373Y-97100328D01*
X177368448Y-97066331D01*
X177455579Y-97049000D01*
X177544421Y-97049000D01*
X177631552Y-97066331D01*
X177631552Y-97066331D01*
G37*
G36*
X179131552Y-97066331D02*
G01*
X179213627Y-97100328D01*
X179213629Y-97100329D01*
X179250813Y-97125175D01*
X179287495Y-97149685D01*
X179350315Y-97212505D01*
X179399672Y-97286373D01*
X179433669Y-97368448D01*
X179451000Y-97455579D01*
X179451000Y-97544421D01*
X179433669Y-97631552D01*
X179399672Y-97713627D01*
X179399671Y-97713629D01*
X179350314Y-97787496D01*
X179287496Y-97850314D01*
X179213629Y-97899671D01*
X179213628Y-97899672D01*
X179213627Y-97899672D01*
X179131552Y-97933669D01*
X179044421Y-97951000D01*
X178955579Y-97951000D01*
X178868448Y-97933669D01*
X178786373Y-97899672D01*
X178786372Y-97899672D01*
X178786371Y-97899671D01*
X178712504Y-97850314D01*
X178649686Y-97787496D01*
X178600329Y-97713629D01*
X178600328Y-97713627D01*
X178566331Y-97631552D01*
X178549000Y-97544421D01*
X178549000Y-97455579D01*
X178566331Y-97368448D01*
X178600328Y-97286373D01*
X178649685Y-97212505D01*
X178712505Y-97149685D01*
X178749187Y-97125175D01*
X178786371Y-97100329D01*
X178786373Y-97100328D01*
X178868448Y-97066331D01*
X178955579Y-97049000D01*
X179044421Y-97049000D01*
X179131552Y-97066331D01*
X179131552Y-97066331D01*
G37*
G36*
X180631552Y-97066331D02*
G01*
X180713627Y-97100328D01*
X180713629Y-97100329D01*
X180750813Y-97125175D01*
X180787495Y-97149685D01*
X180850315Y-97212505D01*
X180899672Y-97286373D01*
X180933669Y-97368448D01*
X180951000Y-97455579D01*
X180951000Y-97544421D01*
X180933669Y-97631552D01*
X180899672Y-97713627D01*
X180899671Y-97713629D01*
X180850314Y-97787496D01*
X180787496Y-97850314D01*
X180713629Y-97899671D01*
X180713628Y-97899672D01*
X180713627Y-97899672D01*
X180631552Y-97933669D01*
X180544421Y-97951000D01*
X180455579Y-97951000D01*
X180368448Y-97933669D01*
X180286373Y-97899672D01*
X180286372Y-97899672D01*
X180286371Y-97899671D01*
X180212504Y-97850314D01*
X180149686Y-97787496D01*
X180100329Y-97713629D01*
X180100328Y-97713627D01*
X180066331Y-97631552D01*
X180049000Y-97544421D01*
X180049000Y-97455579D01*
X180066331Y-97368448D01*
X180100328Y-97286373D01*
X180149685Y-97212505D01*
X180212505Y-97149685D01*
X180249187Y-97125175D01*
X180286371Y-97100329D01*
X180286373Y-97100328D01*
X180368448Y-97066331D01*
X180455579Y-97049000D01*
X180544421Y-97049000D01*
X180631552Y-97066331D01*
X180631552Y-97066331D01*
G37*
G36*
X162631552Y-96566331D02*
G01*
X162713627Y-96600328D01*
X162713629Y-96600329D01*
X162750813Y-96625175D01*
X162787495Y-96649685D01*
X162850315Y-96712505D01*
X162899672Y-96786373D01*
X162933669Y-96868448D01*
X162951000Y-96955579D01*
X162951000Y-97044421D01*
X162933669Y-97131552D01*
X162899672Y-97213627D01*
X162851065Y-97286373D01*
X162850314Y-97287496D01*
X162787496Y-97350314D01*
X162713629Y-97399671D01*
X162713628Y-97399672D01*
X162713627Y-97399672D01*
X162631552Y-97433669D01*
X162544421Y-97451000D01*
X162455579Y-97451000D01*
X162368448Y-97433669D01*
X162286373Y-97399672D01*
X162286372Y-97399672D01*
X162286371Y-97399671D01*
X162212504Y-97350314D01*
X162149686Y-97287496D01*
X162148936Y-97286373D01*
X162100328Y-97213627D01*
X162066331Y-97131552D01*
X162049000Y-97044421D01*
X162049000Y-96955579D01*
X162066331Y-96868448D01*
X162100328Y-96786373D01*
X162149685Y-96712505D01*
X162212505Y-96649685D01*
X162249187Y-96625175D01*
X162286371Y-96600329D01*
X162286373Y-96600328D01*
X162368448Y-96566331D01*
X162455579Y-96549000D01*
X162544421Y-96549000D01*
X162631552Y-96566331D01*
X162631552Y-96566331D01*
G37*
G36*
X161131552Y-96566331D02*
G01*
X161213627Y-96600328D01*
X161213629Y-96600329D01*
X161250813Y-96625175D01*
X161287495Y-96649685D01*
X161350315Y-96712505D01*
X161399672Y-96786373D01*
X161433669Y-96868448D01*
X161451000Y-96955579D01*
X161451000Y-97044421D01*
X161433669Y-97131552D01*
X161399672Y-97213627D01*
X161351065Y-97286373D01*
X161350314Y-97287496D01*
X161287496Y-97350314D01*
X161213629Y-97399671D01*
X161213628Y-97399672D01*
X161213627Y-97399672D01*
X161131552Y-97433669D01*
X161044421Y-97451000D01*
X160955579Y-97451000D01*
X160868448Y-97433669D01*
X160786373Y-97399672D01*
X160786372Y-97399672D01*
X160786371Y-97399671D01*
X160712504Y-97350314D01*
X160649686Y-97287496D01*
X160648936Y-97286373D01*
X160600328Y-97213627D01*
X160566331Y-97131552D01*
X160549000Y-97044421D01*
X160549000Y-96955579D01*
X160566331Y-96868448D01*
X160600328Y-96786373D01*
X160649685Y-96712505D01*
X160712505Y-96649685D01*
X160749187Y-96625175D01*
X160786371Y-96600329D01*
X160786373Y-96600328D01*
X160868448Y-96566331D01*
X160955579Y-96549000D01*
X161044421Y-96549000D01*
X161131552Y-96566331D01*
X161131552Y-96566331D01*
G37*
G36*
X159631552Y-96566331D02*
G01*
X159713627Y-96600328D01*
X159713629Y-96600329D01*
X159750813Y-96625175D01*
X159787495Y-96649685D01*
X159850315Y-96712505D01*
X159899672Y-96786373D01*
X159933669Y-96868448D01*
X159951000Y-96955579D01*
X159951000Y-97044421D01*
X159933669Y-97131552D01*
X159899672Y-97213627D01*
X159851065Y-97286373D01*
X159850314Y-97287496D01*
X159787496Y-97350314D01*
X159713629Y-97399671D01*
X159713628Y-97399672D01*
X159713627Y-97399672D01*
X159631552Y-97433669D01*
X159544421Y-97451000D01*
X159455579Y-97451000D01*
X159368448Y-97433669D01*
X159286373Y-97399672D01*
X159286372Y-97399672D01*
X159286371Y-97399671D01*
X159212504Y-97350314D01*
X159149686Y-97287496D01*
X159148936Y-97286373D01*
X159100328Y-97213627D01*
X159066331Y-97131552D01*
X159049000Y-97044421D01*
X159049000Y-96955579D01*
X159066331Y-96868448D01*
X159100328Y-96786373D01*
X159149685Y-96712505D01*
X159212505Y-96649685D01*
X159249187Y-96625175D01*
X159286371Y-96600329D01*
X159286373Y-96600328D01*
X159368448Y-96566331D01*
X159455579Y-96549000D01*
X159544421Y-96549000D01*
X159631552Y-96566331D01*
X159631552Y-96566331D01*
G37*
G36*
X187631552Y-96566331D02*
G01*
X187713627Y-96600328D01*
X187713629Y-96600329D01*
X187750813Y-96625175D01*
X187787495Y-96649685D01*
X187850315Y-96712505D01*
X187899672Y-96786373D01*
X187933669Y-96868448D01*
X187951000Y-96955579D01*
X187951000Y-97044421D01*
X187933669Y-97131552D01*
X187899672Y-97213627D01*
X187851065Y-97286373D01*
X187850314Y-97287496D01*
X187787496Y-97350314D01*
X187713629Y-97399671D01*
X187713628Y-97399672D01*
X187713627Y-97399672D01*
X187631552Y-97433669D01*
X187544421Y-97451000D01*
X187455579Y-97451000D01*
X187368448Y-97433669D01*
X187286373Y-97399672D01*
X187286372Y-97399672D01*
X187286371Y-97399671D01*
X187212504Y-97350314D01*
X187149686Y-97287496D01*
X187148936Y-97286373D01*
X187100328Y-97213627D01*
X187066331Y-97131552D01*
X187049000Y-97044421D01*
X187049000Y-96955579D01*
X187066331Y-96868448D01*
X187100328Y-96786373D01*
X187149685Y-96712505D01*
X187212505Y-96649685D01*
X187249187Y-96625175D01*
X187286371Y-96600329D01*
X187286373Y-96600328D01*
X187368448Y-96566331D01*
X187455579Y-96549000D01*
X187544421Y-96549000D01*
X187631552Y-96566331D01*
X187631552Y-96566331D01*
G37*
G36*
X189131552Y-96566331D02*
G01*
X189213627Y-96600328D01*
X189213629Y-96600329D01*
X189250813Y-96625175D01*
X189287495Y-96649685D01*
X189350315Y-96712505D01*
X189399672Y-96786373D01*
X189433669Y-96868448D01*
X189451000Y-96955579D01*
X189451000Y-97044421D01*
X189433669Y-97131552D01*
X189399672Y-97213627D01*
X189351065Y-97286373D01*
X189350314Y-97287496D01*
X189287496Y-97350314D01*
X189213629Y-97399671D01*
X189213628Y-97399672D01*
X189213627Y-97399672D01*
X189131552Y-97433669D01*
X189044421Y-97451000D01*
X188955579Y-97451000D01*
X188868448Y-97433669D01*
X188786373Y-97399672D01*
X188786372Y-97399672D01*
X188786371Y-97399671D01*
X188712504Y-97350314D01*
X188649686Y-97287496D01*
X188648936Y-97286373D01*
X188600328Y-97213627D01*
X188566331Y-97131552D01*
X188549000Y-97044421D01*
X188549000Y-96955579D01*
X188566331Y-96868448D01*
X188600328Y-96786373D01*
X188649685Y-96712505D01*
X188712505Y-96649685D01*
X188749187Y-96625175D01*
X188786371Y-96600329D01*
X188786373Y-96600328D01*
X188868448Y-96566331D01*
X188955579Y-96549000D01*
X189044421Y-96549000D01*
X189131552Y-96566331D01*
X189131552Y-96566331D01*
G37*
G36*
X190631552Y-96566331D02*
G01*
X190713627Y-96600328D01*
X190713629Y-96600329D01*
X190750813Y-96625175D01*
X190787495Y-96649685D01*
X190850315Y-96712505D01*
X190899672Y-96786373D01*
X190933669Y-96868448D01*
X190951000Y-96955579D01*
X190951000Y-97044421D01*
X190933669Y-97131552D01*
X190899672Y-97213627D01*
X190851065Y-97286373D01*
X190850314Y-97287496D01*
X190787496Y-97350314D01*
X190713629Y-97399671D01*
X190713628Y-97399672D01*
X190713627Y-97399672D01*
X190631552Y-97433669D01*
X190544421Y-97451000D01*
X190455579Y-97451000D01*
X190368448Y-97433669D01*
X190286373Y-97399672D01*
X190286372Y-97399672D01*
X190286371Y-97399671D01*
X190212504Y-97350314D01*
X190149686Y-97287496D01*
X190148936Y-97286373D01*
X190100328Y-97213627D01*
X190066331Y-97131552D01*
X190049000Y-97044421D01*
X190049000Y-96955579D01*
X190066331Y-96868448D01*
X190100328Y-96786373D01*
X190149685Y-96712505D01*
X190212505Y-96649685D01*
X190249187Y-96625175D01*
X190286371Y-96600329D01*
X190286373Y-96600328D01*
X190368448Y-96566331D01*
X190455579Y-96549000D01*
X190544421Y-96549000D01*
X190631552Y-96566331D01*
X190631552Y-96566331D01*
G37*
G36*
X177631552Y-95566331D02*
G01*
X177713627Y-95600328D01*
X177713629Y-95600329D01*
X177749017Y-95623975D01*
X177787495Y-95649685D01*
X177850315Y-95712505D01*
X177899672Y-95786373D01*
X177933669Y-95868448D01*
X177951000Y-95955579D01*
X177951000Y-96044421D01*
X177933669Y-96131552D01*
X177899672Y-96213627D01*
X177899671Y-96213629D01*
X177850314Y-96287496D01*
X177787496Y-96350314D01*
X177713629Y-96399671D01*
X177713628Y-96399672D01*
X177713627Y-96399672D01*
X177631552Y-96433669D01*
X177544421Y-96451000D01*
X177455579Y-96451000D01*
X177368448Y-96433669D01*
X177286373Y-96399672D01*
X177286372Y-96399672D01*
X177286371Y-96399671D01*
X177212504Y-96350314D01*
X177149686Y-96287496D01*
X177100329Y-96213629D01*
X177100328Y-96213627D01*
X177066331Y-96131552D01*
X177049000Y-96044421D01*
X177049000Y-95955579D01*
X177066331Y-95868448D01*
X177100328Y-95786373D01*
X177149685Y-95712505D01*
X177212505Y-95649685D01*
X177250983Y-95623975D01*
X177286371Y-95600329D01*
X177286373Y-95600328D01*
X177368448Y-95566331D01*
X177455579Y-95549000D01*
X177544421Y-95549000D01*
X177631552Y-95566331D01*
X177631552Y-95566331D01*
G37*
G36*
X179131552Y-95566331D02*
G01*
X179213627Y-95600328D01*
X179213629Y-95600329D01*
X179249017Y-95623975D01*
X179287495Y-95649685D01*
X179350315Y-95712505D01*
X179399672Y-95786373D01*
X179433669Y-95868448D01*
X179451000Y-95955579D01*
X179451000Y-96044421D01*
X179433669Y-96131552D01*
X179399672Y-96213627D01*
X179399671Y-96213629D01*
X179350314Y-96287496D01*
X179287496Y-96350314D01*
X179213629Y-96399671D01*
X179213628Y-96399672D01*
X179213627Y-96399672D01*
X179131552Y-96433669D01*
X179044421Y-96451000D01*
X178955579Y-96451000D01*
X178868448Y-96433669D01*
X178786373Y-96399672D01*
X178786372Y-96399672D01*
X178786371Y-96399671D01*
X178712504Y-96350314D01*
X178649686Y-96287496D01*
X178600329Y-96213629D01*
X178600328Y-96213627D01*
X178566331Y-96131552D01*
X178549000Y-96044421D01*
X178549000Y-95955579D01*
X178566331Y-95868448D01*
X178600328Y-95786373D01*
X178649685Y-95712505D01*
X178712505Y-95649685D01*
X178750983Y-95623975D01*
X178786371Y-95600329D01*
X178786373Y-95600328D01*
X178868448Y-95566331D01*
X178955579Y-95549000D01*
X179044421Y-95549000D01*
X179131552Y-95566331D01*
X179131552Y-95566331D01*
G37*
G36*
X180631552Y-95566331D02*
G01*
X180713627Y-95600328D01*
X180713629Y-95600329D01*
X180749017Y-95623975D01*
X180787495Y-95649685D01*
X180850315Y-95712505D01*
X180899672Y-95786373D01*
X180933669Y-95868448D01*
X180951000Y-95955579D01*
X180951000Y-96044421D01*
X180933669Y-96131552D01*
X180899672Y-96213627D01*
X180899671Y-96213629D01*
X180850314Y-96287496D01*
X180787496Y-96350314D01*
X180713629Y-96399671D01*
X180713628Y-96399672D01*
X180713627Y-96399672D01*
X180631552Y-96433669D01*
X180544421Y-96451000D01*
X180455579Y-96451000D01*
X180368448Y-96433669D01*
X180286373Y-96399672D01*
X180286372Y-96399672D01*
X180286371Y-96399671D01*
X180212504Y-96350314D01*
X180149686Y-96287496D01*
X180100329Y-96213629D01*
X180100328Y-96213627D01*
X180066331Y-96131552D01*
X180049000Y-96044421D01*
X180049000Y-95955579D01*
X180066331Y-95868448D01*
X180100328Y-95786373D01*
X180149685Y-95712505D01*
X180212505Y-95649685D01*
X180250983Y-95623975D01*
X180286371Y-95600329D01*
X180286373Y-95600328D01*
X180368448Y-95566331D01*
X180455579Y-95549000D01*
X180544421Y-95549000D01*
X180631552Y-95566331D01*
X180631552Y-95566331D01*
G37*
G36*
X169631552Y-95566331D02*
G01*
X169713627Y-95600328D01*
X169713629Y-95600329D01*
X169749017Y-95623975D01*
X169787495Y-95649685D01*
X169850315Y-95712505D01*
X169899672Y-95786373D01*
X169933669Y-95868448D01*
X169951000Y-95955579D01*
X169951000Y-96044421D01*
X169933669Y-96131552D01*
X169899672Y-96213627D01*
X169899671Y-96213629D01*
X169850314Y-96287496D01*
X169787496Y-96350314D01*
X169713629Y-96399671D01*
X169713628Y-96399672D01*
X169713627Y-96399672D01*
X169631552Y-96433669D01*
X169544421Y-96451000D01*
X169455579Y-96451000D01*
X169368448Y-96433669D01*
X169286373Y-96399672D01*
X169286372Y-96399672D01*
X169286371Y-96399671D01*
X169212504Y-96350314D01*
X169149686Y-96287496D01*
X169100329Y-96213629D01*
X169100328Y-96213627D01*
X169066331Y-96131552D01*
X169049000Y-96044421D01*
X169049000Y-95955579D01*
X169066331Y-95868448D01*
X169100328Y-95786373D01*
X169149685Y-95712505D01*
X169212505Y-95649685D01*
X169250983Y-95623975D01*
X169286371Y-95600329D01*
X169286373Y-95600328D01*
X169368448Y-95566331D01*
X169455579Y-95549000D01*
X169544421Y-95549000D01*
X169631552Y-95566331D01*
X169631552Y-95566331D01*
G37*
G36*
X171131552Y-95566331D02*
G01*
X171213627Y-95600328D01*
X171213629Y-95600329D01*
X171249017Y-95623975D01*
X171287495Y-95649685D01*
X171350315Y-95712505D01*
X171399672Y-95786373D01*
X171433669Y-95868448D01*
X171451000Y-95955579D01*
X171451000Y-96044421D01*
X171433669Y-96131552D01*
X171399672Y-96213627D01*
X171399671Y-96213629D01*
X171350314Y-96287496D01*
X171287496Y-96350314D01*
X171213629Y-96399671D01*
X171213628Y-96399672D01*
X171213627Y-96399672D01*
X171131552Y-96433669D01*
X171044421Y-96451000D01*
X170955579Y-96451000D01*
X170868448Y-96433669D01*
X170786373Y-96399672D01*
X170786372Y-96399672D01*
X170786371Y-96399671D01*
X170712504Y-96350314D01*
X170649686Y-96287496D01*
X170600329Y-96213629D01*
X170600328Y-96213627D01*
X170566331Y-96131552D01*
X170549000Y-96044421D01*
X170549000Y-95955579D01*
X170566331Y-95868448D01*
X170600328Y-95786373D01*
X170649685Y-95712505D01*
X170712505Y-95649685D01*
X170750983Y-95623975D01*
X170786371Y-95600329D01*
X170786373Y-95600328D01*
X170868448Y-95566331D01*
X170955579Y-95549000D01*
X171044421Y-95549000D01*
X171131552Y-95566331D01*
X171131552Y-95566331D01*
G37*
G36*
X172631552Y-95566331D02*
G01*
X172713627Y-95600328D01*
X172713629Y-95600329D01*
X172749017Y-95623975D01*
X172787495Y-95649685D01*
X172850315Y-95712505D01*
X172899672Y-95786373D01*
X172933669Y-95868448D01*
X172951000Y-95955579D01*
X172951000Y-96044421D01*
X172933669Y-96131552D01*
X172899672Y-96213627D01*
X172899671Y-96213629D01*
X172850314Y-96287496D01*
X172787496Y-96350314D01*
X172713629Y-96399671D01*
X172713628Y-96399672D01*
X172713627Y-96399672D01*
X172631552Y-96433669D01*
X172544421Y-96451000D01*
X172455579Y-96451000D01*
X172368448Y-96433669D01*
X172286373Y-96399672D01*
X172286372Y-96399672D01*
X172286371Y-96399671D01*
X172212504Y-96350314D01*
X172149686Y-96287496D01*
X172100329Y-96213629D01*
X172100328Y-96213627D01*
X172066331Y-96131552D01*
X172049000Y-96044421D01*
X172049000Y-95955579D01*
X172066331Y-95868448D01*
X172100328Y-95786373D01*
X172149685Y-95712505D01*
X172212505Y-95649685D01*
X172250983Y-95623975D01*
X172286371Y-95600329D01*
X172286373Y-95600328D01*
X172368448Y-95566331D01*
X172455579Y-95549000D01*
X172544421Y-95549000D01*
X172631552Y-95566331D01*
X172631552Y-95566331D01*
G37*
G36*
X189131552Y-95066331D02*
G01*
X189213627Y-95100328D01*
X189213629Y-95100329D01*
X189250813Y-95125175D01*
X189287495Y-95149685D01*
X189350315Y-95212505D01*
X189399672Y-95286373D01*
X189433669Y-95368448D01*
X189451000Y-95455579D01*
X189451000Y-95544421D01*
X189433669Y-95631552D01*
X189399672Y-95713627D01*
X189351065Y-95786373D01*
X189350314Y-95787496D01*
X189287496Y-95850314D01*
X189213629Y-95899671D01*
X189213628Y-95899672D01*
X189213627Y-95899672D01*
X189131552Y-95933669D01*
X189044421Y-95951000D01*
X188955579Y-95951000D01*
X188868448Y-95933669D01*
X188786373Y-95899672D01*
X188786372Y-95899672D01*
X188786371Y-95899671D01*
X188712504Y-95850314D01*
X188649686Y-95787496D01*
X188648936Y-95786373D01*
X188600328Y-95713627D01*
X188566331Y-95631552D01*
X188549000Y-95544421D01*
X188549000Y-95455579D01*
X188566331Y-95368448D01*
X188600328Y-95286373D01*
X188649685Y-95212505D01*
X188712505Y-95149685D01*
X188749187Y-95125175D01*
X188786371Y-95100329D01*
X188786373Y-95100328D01*
X188868448Y-95066331D01*
X188955579Y-95049000D01*
X189044421Y-95049000D01*
X189131552Y-95066331D01*
X189131552Y-95066331D01*
G37*
G36*
X187631552Y-95066331D02*
G01*
X187713627Y-95100328D01*
X187713629Y-95100329D01*
X187750813Y-95125175D01*
X187787495Y-95149685D01*
X187850315Y-95212505D01*
X187899672Y-95286373D01*
X187933669Y-95368448D01*
X187951000Y-95455579D01*
X187951000Y-95544421D01*
X187933669Y-95631552D01*
X187899672Y-95713627D01*
X187851065Y-95786373D01*
X187850314Y-95787496D01*
X187787496Y-95850314D01*
X187713629Y-95899671D01*
X187713628Y-95899672D01*
X187713627Y-95899672D01*
X187631552Y-95933669D01*
X187544421Y-95951000D01*
X187455579Y-95951000D01*
X187368448Y-95933669D01*
X187286373Y-95899672D01*
X187286372Y-95899672D01*
X187286371Y-95899671D01*
X187212504Y-95850314D01*
X187149686Y-95787496D01*
X187148936Y-95786373D01*
X187100328Y-95713627D01*
X187066331Y-95631552D01*
X187049000Y-95544421D01*
X187049000Y-95455579D01*
X187066331Y-95368448D01*
X187100328Y-95286373D01*
X187149685Y-95212505D01*
X187212505Y-95149685D01*
X187249187Y-95125175D01*
X187286371Y-95100329D01*
X187286373Y-95100328D01*
X187368448Y-95066331D01*
X187455579Y-95049000D01*
X187544421Y-95049000D01*
X187631552Y-95066331D01*
X187631552Y-95066331D01*
G37*
G36*
X159631552Y-95066331D02*
G01*
X159713627Y-95100328D01*
X159713629Y-95100329D01*
X159750813Y-95125175D01*
X159787495Y-95149685D01*
X159850315Y-95212505D01*
X159899672Y-95286373D01*
X159933669Y-95368448D01*
X159951000Y-95455579D01*
X159951000Y-95544421D01*
X159933669Y-95631552D01*
X159899672Y-95713627D01*
X159851065Y-95786373D01*
X159850314Y-95787496D01*
X159787496Y-95850314D01*
X159713629Y-95899671D01*
X159713628Y-95899672D01*
X159713627Y-95899672D01*
X159631552Y-95933669D01*
X159544421Y-95951000D01*
X159455579Y-95951000D01*
X159368448Y-95933669D01*
X159286373Y-95899672D01*
X159286372Y-95899672D01*
X159286371Y-95899671D01*
X159212504Y-95850314D01*
X159149686Y-95787496D01*
X159148936Y-95786373D01*
X159100328Y-95713627D01*
X159066331Y-95631552D01*
X159049000Y-95544421D01*
X159049000Y-95455579D01*
X159066331Y-95368448D01*
X159100328Y-95286373D01*
X159149685Y-95212505D01*
X159212505Y-95149685D01*
X159249187Y-95125175D01*
X159286371Y-95100329D01*
X159286373Y-95100328D01*
X159368448Y-95066331D01*
X159455579Y-95049000D01*
X159544421Y-95049000D01*
X159631552Y-95066331D01*
X159631552Y-95066331D01*
G37*
G36*
X161131552Y-95066331D02*
G01*
X161213627Y-95100328D01*
X161213629Y-95100329D01*
X161250813Y-95125175D01*
X161287495Y-95149685D01*
X161350315Y-95212505D01*
X161399672Y-95286373D01*
X161433669Y-95368448D01*
X161451000Y-95455579D01*
X161451000Y-95544421D01*
X161433669Y-95631552D01*
X161399672Y-95713627D01*
X161351065Y-95786373D01*
X161350314Y-95787496D01*
X161287496Y-95850314D01*
X161213629Y-95899671D01*
X161213628Y-95899672D01*
X161213627Y-95899672D01*
X161131552Y-95933669D01*
X161044421Y-95951000D01*
X160955579Y-95951000D01*
X160868448Y-95933669D01*
X160786373Y-95899672D01*
X160786372Y-95899672D01*
X160786371Y-95899671D01*
X160712504Y-95850314D01*
X160649686Y-95787496D01*
X160648936Y-95786373D01*
X160600328Y-95713627D01*
X160566331Y-95631552D01*
X160549000Y-95544421D01*
X160549000Y-95455579D01*
X160566331Y-95368448D01*
X160600328Y-95286373D01*
X160649685Y-95212505D01*
X160712505Y-95149685D01*
X160749187Y-95125175D01*
X160786371Y-95100329D01*
X160786373Y-95100328D01*
X160868448Y-95066331D01*
X160955579Y-95049000D01*
X161044421Y-95049000D01*
X161131552Y-95066331D01*
X161131552Y-95066331D01*
G37*
G36*
X162631552Y-95066331D02*
G01*
X162713627Y-95100328D01*
X162713629Y-95100329D01*
X162750813Y-95125175D01*
X162787495Y-95149685D01*
X162850315Y-95212505D01*
X162899672Y-95286373D01*
X162933669Y-95368448D01*
X162951000Y-95455579D01*
X162951000Y-95544421D01*
X162933669Y-95631552D01*
X162899672Y-95713627D01*
X162851065Y-95786373D01*
X162850314Y-95787496D01*
X162787496Y-95850314D01*
X162713629Y-95899671D01*
X162713628Y-95899672D01*
X162713627Y-95899672D01*
X162631552Y-95933669D01*
X162544421Y-95951000D01*
X162455579Y-95951000D01*
X162368448Y-95933669D01*
X162286373Y-95899672D01*
X162286372Y-95899672D01*
X162286371Y-95899671D01*
X162212504Y-95850314D01*
X162149686Y-95787496D01*
X162148936Y-95786373D01*
X162100328Y-95713627D01*
X162066331Y-95631552D01*
X162049000Y-95544421D01*
X162049000Y-95455579D01*
X162066331Y-95368448D01*
X162100328Y-95286373D01*
X162149685Y-95212505D01*
X162212505Y-95149685D01*
X162249187Y-95125175D01*
X162286371Y-95100329D01*
X162286373Y-95100328D01*
X162368448Y-95066331D01*
X162455579Y-95049000D01*
X162544421Y-95049000D01*
X162631552Y-95066331D01*
X162631552Y-95066331D01*
G37*
G36*
X190631552Y-95066331D02*
G01*
X190713627Y-95100328D01*
X190713629Y-95100329D01*
X190750813Y-95125175D01*
X190787495Y-95149685D01*
X190850315Y-95212505D01*
X190899672Y-95286373D01*
X190933669Y-95368448D01*
X190951000Y-95455579D01*
X190951000Y-95544421D01*
X190933669Y-95631552D01*
X190899672Y-95713627D01*
X190851065Y-95786373D01*
X190850314Y-95787496D01*
X190787496Y-95850314D01*
X190713629Y-95899671D01*
X190713628Y-95899672D01*
X190713627Y-95899672D01*
X190631552Y-95933669D01*
X190544421Y-95951000D01*
X190455579Y-95951000D01*
X190368448Y-95933669D01*
X190286373Y-95899672D01*
X190286372Y-95899672D01*
X190286371Y-95899671D01*
X190212504Y-95850314D01*
X190149686Y-95787496D01*
X190148936Y-95786373D01*
X190100328Y-95713627D01*
X190066331Y-95631552D01*
X190049000Y-95544421D01*
X190049000Y-95455579D01*
X190066331Y-95368448D01*
X190100328Y-95286373D01*
X190149685Y-95212505D01*
X190212505Y-95149685D01*
X190249187Y-95125175D01*
X190286371Y-95100329D01*
X190286373Y-95100328D01*
X190368448Y-95066331D01*
X190455579Y-95049000D01*
X190544421Y-95049000D01*
X190631552Y-95066331D01*
X190631552Y-95066331D01*
G37*
G36*
X177631552Y-94066331D02*
G01*
X177713627Y-94100328D01*
X177713629Y-94100329D01*
X177750813Y-94125175D01*
X177787495Y-94149685D01*
X177850315Y-94212505D01*
X177899672Y-94286373D01*
X177933669Y-94368448D01*
X177951000Y-94455579D01*
X177951000Y-94544421D01*
X177933669Y-94631552D01*
X177899672Y-94713627D01*
X177899671Y-94713629D01*
X177850314Y-94787496D01*
X177787496Y-94850314D01*
X177713629Y-94899671D01*
X177713628Y-94899672D01*
X177713627Y-94899672D01*
X177631552Y-94933669D01*
X177544421Y-94951000D01*
X177455579Y-94951000D01*
X177368448Y-94933669D01*
X177286373Y-94899672D01*
X177286372Y-94899672D01*
X177286371Y-94899671D01*
X177212504Y-94850314D01*
X177149686Y-94787496D01*
X177100329Y-94713629D01*
X177100328Y-94713627D01*
X177066331Y-94631552D01*
X177049000Y-94544421D01*
X177049000Y-94455579D01*
X177066331Y-94368448D01*
X177100328Y-94286373D01*
X177149685Y-94212505D01*
X177212505Y-94149685D01*
X177249187Y-94125175D01*
X177286371Y-94100329D01*
X177286373Y-94100328D01*
X177368448Y-94066331D01*
X177455579Y-94049000D01*
X177544421Y-94049000D01*
X177631552Y-94066331D01*
X177631552Y-94066331D01*
G37*
G36*
X180631552Y-94066331D02*
G01*
X180713627Y-94100328D01*
X180713629Y-94100329D01*
X180750813Y-94125175D01*
X180787495Y-94149685D01*
X180850315Y-94212505D01*
X180899672Y-94286373D01*
X180933669Y-94368448D01*
X180951000Y-94455579D01*
X180951000Y-94544421D01*
X180933669Y-94631552D01*
X180899672Y-94713627D01*
X180899671Y-94713629D01*
X180850314Y-94787496D01*
X180787496Y-94850314D01*
X180713629Y-94899671D01*
X180713628Y-94899672D01*
X180713627Y-94899672D01*
X180631552Y-94933669D01*
X180544421Y-94951000D01*
X180455579Y-94951000D01*
X180368448Y-94933669D01*
X180286373Y-94899672D01*
X180286372Y-94899672D01*
X180286371Y-94899671D01*
X180212504Y-94850314D01*
X180149686Y-94787496D01*
X180100329Y-94713629D01*
X180100328Y-94713627D01*
X180066331Y-94631552D01*
X180049000Y-94544421D01*
X180049000Y-94455579D01*
X180066331Y-94368448D01*
X180100328Y-94286373D01*
X180149685Y-94212505D01*
X180212505Y-94149685D01*
X180249187Y-94125175D01*
X180286371Y-94100329D01*
X180286373Y-94100328D01*
X180368448Y-94066331D01*
X180455579Y-94049000D01*
X180544421Y-94049000D01*
X180631552Y-94066331D01*
X180631552Y-94066331D01*
G37*
G36*
X179131552Y-94066331D02*
G01*
X179213627Y-94100328D01*
X179213629Y-94100329D01*
X179250813Y-94125175D01*
X179287495Y-94149685D01*
X179350315Y-94212505D01*
X179399672Y-94286373D01*
X179433669Y-94368448D01*
X179451000Y-94455579D01*
X179451000Y-94544421D01*
X179433669Y-94631552D01*
X179399672Y-94713627D01*
X179399671Y-94713629D01*
X179350314Y-94787496D01*
X179287496Y-94850314D01*
X179213629Y-94899671D01*
X179213628Y-94899672D01*
X179213627Y-94899672D01*
X179131552Y-94933669D01*
X179044421Y-94951000D01*
X178955579Y-94951000D01*
X178868448Y-94933669D01*
X178786373Y-94899672D01*
X178786372Y-94899672D01*
X178786371Y-94899671D01*
X178712504Y-94850314D01*
X178649686Y-94787496D01*
X178600329Y-94713629D01*
X178600328Y-94713627D01*
X178566331Y-94631552D01*
X178549000Y-94544421D01*
X178549000Y-94455579D01*
X178566331Y-94368448D01*
X178600328Y-94286373D01*
X178649685Y-94212505D01*
X178712505Y-94149685D01*
X178749187Y-94125175D01*
X178786371Y-94100329D01*
X178786373Y-94100328D01*
X178868448Y-94066331D01*
X178955579Y-94049000D01*
X179044421Y-94049000D01*
X179131552Y-94066331D01*
X179131552Y-94066331D01*
G37*
G36*
X169631552Y-94066331D02*
G01*
X169713627Y-94100328D01*
X169713629Y-94100329D01*
X169750813Y-94125175D01*
X169787495Y-94149685D01*
X169850315Y-94212505D01*
X169899672Y-94286373D01*
X169933669Y-94368448D01*
X169951000Y-94455579D01*
X169951000Y-94544421D01*
X169933669Y-94631552D01*
X169899672Y-94713627D01*
X169899671Y-94713629D01*
X169850314Y-94787496D01*
X169787496Y-94850314D01*
X169713629Y-94899671D01*
X169713628Y-94899672D01*
X169713627Y-94899672D01*
X169631552Y-94933669D01*
X169544421Y-94951000D01*
X169455579Y-94951000D01*
X169368448Y-94933669D01*
X169286373Y-94899672D01*
X169286372Y-94899672D01*
X169286371Y-94899671D01*
X169212504Y-94850314D01*
X169149686Y-94787496D01*
X169100329Y-94713629D01*
X169100328Y-94713627D01*
X169066331Y-94631552D01*
X169049000Y-94544421D01*
X169049000Y-94455579D01*
X169066331Y-94368448D01*
X169100328Y-94286373D01*
X169149685Y-94212505D01*
X169212505Y-94149685D01*
X169249187Y-94125175D01*
X169286371Y-94100329D01*
X169286373Y-94100328D01*
X169368448Y-94066331D01*
X169455579Y-94049000D01*
X169544421Y-94049000D01*
X169631552Y-94066331D01*
X169631552Y-94066331D01*
G37*
G36*
X171131552Y-94066331D02*
G01*
X171213627Y-94100328D01*
X171213629Y-94100329D01*
X171250813Y-94125175D01*
X171287495Y-94149685D01*
X171350315Y-94212505D01*
X171399672Y-94286373D01*
X171433669Y-94368448D01*
X171451000Y-94455579D01*
X171451000Y-94544421D01*
X171433669Y-94631552D01*
X171399672Y-94713627D01*
X171399671Y-94713629D01*
X171350314Y-94787496D01*
X171287496Y-94850314D01*
X171213629Y-94899671D01*
X171213628Y-94899672D01*
X171213627Y-94899672D01*
X171131552Y-94933669D01*
X171044421Y-94951000D01*
X170955579Y-94951000D01*
X170868448Y-94933669D01*
X170786373Y-94899672D01*
X170786372Y-94899672D01*
X170786371Y-94899671D01*
X170712504Y-94850314D01*
X170649686Y-94787496D01*
X170600329Y-94713629D01*
X170600328Y-94713627D01*
X170566331Y-94631552D01*
X170549000Y-94544421D01*
X170549000Y-94455579D01*
X170566331Y-94368448D01*
X170600328Y-94286373D01*
X170649685Y-94212505D01*
X170712505Y-94149685D01*
X170749187Y-94125175D01*
X170786371Y-94100329D01*
X170786373Y-94100328D01*
X170868448Y-94066331D01*
X170955579Y-94049000D01*
X171044421Y-94049000D01*
X171131552Y-94066331D01*
X171131552Y-94066331D01*
G37*
G36*
X172631552Y-94066331D02*
G01*
X172713627Y-94100328D01*
X172713629Y-94100329D01*
X172750813Y-94125175D01*
X172787495Y-94149685D01*
X172850315Y-94212505D01*
X172899672Y-94286373D01*
X172933669Y-94368448D01*
X172951000Y-94455579D01*
X172951000Y-94544421D01*
X172933669Y-94631552D01*
X172899672Y-94713627D01*
X172899671Y-94713629D01*
X172850314Y-94787496D01*
X172787496Y-94850314D01*
X172713629Y-94899671D01*
X172713628Y-94899672D01*
X172713627Y-94899672D01*
X172631552Y-94933669D01*
X172544421Y-94951000D01*
X172455579Y-94951000D01*
X172368448Y-94933669D01*
X172286373Y-94899672D01*
X172286372Y-94899672D01*
X172286371Y-94899671D01*
X172212504Y-94850314D01*
X172149686Y-94787496D01*
X172100329Y-94713629D01*
X172100328Y-94713627D01*
X172066331Y-94631552D01*
X172049000Y-94544421D01*
X172049000Y-94455579D01*
X172066331Y-94368448D01*
X172100328Y-94286373D01*
X172149685Y-94212505D01*
X172212505Y-94149685D01*
X172249187Y-94125175D01*
X172286371Y-94100329D01*
X172286373Y-94100328D01*
X172368448Y-94066331D01*
X172455579Y-94049000D01*
X172544421Y-94049000D01*
X172631552Y-94066331D01*
X172631552Y-94066331D01*
G37*
G36*
X198631552Y-90066331D02*
G01*
X198713627Y-90100328D01*
X198713629Y-90100329D01*
X198750813Y-90125175D01*
X198787495Y-90149685D01*
X198850315Y-90212505D01*
X198899672Y-90286373D01*
X198933669Y-90368448D01*
X198951000Y-90455579D01*
X198951000Y-90544421D01*
X198933669Y-90631552D01*
X198899672Y-90713627D01*
X198899671Y-90713629D01*
X198850314Y-90787496D01*
X198787496Y-90850314D01*
X198713629Y-90899671D01*
X198713628Y-90899672D01*
X198713627Y-90899672D01*
X198631552Y-90933669D01*
X198544421Y-90951000D01*
X198455579Y-90951000D01*
X198368448Y-90933669D01*
X198286373Y-90899672D01*
X198286372Y-90899672D01*
X198286371Y-90899671D01*
X198212504Y-90850314D01*
X198149686Y-90787496D01*
X198100329Y-90713629D01*
X198100328Y-90713627D01*
X198066331Y-90631552D01*
X198049000Y-90544421D01*
X198049000Y-90455579D01*
X198066331Y-90368448D01*
X198100328Y-90286373D01*
X198149685Y-90212505D01*
X198212505Y-90149685D01*
X198249187Y-90125175D01*
X198286371Y-90100329D01*
X198286373Y-90100328D01*
X198368448Y-90066331D01*
X198455579Y-90049000D01*
X198544421Y-90049000D01*
X198631552Y-90066331D01*
X198631552Y-90066331D01*
G37*
G36*
X151631552Y-90066331D02*
G01*
X151713627Y-90100328D01*
X151713629Y-90100329D01*
X151750813Y-90125175D01*
X151787495Y-90149685D01*
X151850315Y-90212505D01*
X151899672Y-90286373D01*
X151933669Y-90368448D01*
X151951000Y-90455579D01*
X151951000Y-90544421D01*
X151933669Y-90631552D01*
X151899672Y-90713627D01*
X151899671Y-90713629D01*
X151850314Y-90787496D01*
X151787496Y-90850314D01*
X151713629Y-90899671D01*
X151713628Y-90899672D01*
X151713627Y-90899672D01*
X151631552Y-90933669D01*
X151544421Y-90951000D01*
X151455579Y-90951000D01*
X151368448Y-90933669D01*
X151286373Y-90899672D01*
X151286372Y-90899672D01*
X151286371Y-90899671D01*
X151212504Y-90850314D01*
X151149686Y-90787496D01*
X151100329Y-90713629D01*
X151100328Y-90713627D01*
X151066331Y-90631552D01*
X151049000Y-90544421D01*
X151049000Y-90455579D01*
X151066331Y-90368448D01*
X151100328Y-90286373D01*
X151149685Y-90212505D01*
X151212505Y-90149685D01*
X151249187Y-90125175D01*
X151286371Y-90100329D01*
X151286373Y-90100328D01*
X151368448Y-90066331D01*
X151455579Y-90049000D01*
X151544421Y-90049000D01*
X151631552Y-90066331D01*
X151631552Y-90066331D01*
G37*
G36*
X195631552Y-90066331D02*
G01*
X195713627Y-90100328D01*
X195713629Y-90100329D01*
X195750813Y-90125175D01*
X195787495Y-90149685D01*
X195850315Y-90212505D01*
X195899672Y-90286373D01*
X195933669Y-90368448D01*
X195951000Y-90455579D01*
X195951000Y-90544421D01*
X195933669Y-90631552D01*
X195899672Y-90713627D01*
X195899671Y-90713629D01*
X195850314Y-90787496D01*
X195787496Y-90850314D01*
X195713629Y-90899671D01*
X195713628Y-90899672D01*
X195713627Y-90899672D01*
X195631552Y-90933669D01*
X195544421Y-90951000D01*
X195455579Y-90951000D01*
X195368448Y-90933669D01*
X195286373Y-90899672D01*
X195286372Y-90899672D01*
X195286371Y-90899671D01*
X195212504Y-90850314D01*
X195149686Y-90787496D01*
X195100329Y-90713629D01*
X195100328Y-90713627D01*
X195066331Y-90631552D01*
X195049000Y-90544421D01*
X195049000Y-90455579D01*
X195066331Y-90368448D01*
X195100328Y-90286373D01*
X195149685Y-90212505D01*
X195212505Y-90149685D01*
X195249187Y-90125175D01*
X195286371Y-90100329D01*
X195286373Y-90100328D01*
X195368448Y-90066331D01*
X195455579Y-90049000D01*
X195544421Y-90049000D01*
X195631552Y-90066331D01*
X195631552Y-90066331D01*
G37*
G36*
X197131552Y-90066331D02*
G01*
X197213627Y-90100328D01*
X197213629Y-90100329D01*
X197250813Y-90125175D01*
X197287495Y-90149685D01*
X197350315Y-90212505D01*
X197399672Y-90286373D01*
X197433669Y-90368448D01*
X197451000Y-90455579D01*
X197451000Y-90544421D01*
X197433669Y-90631552D01*
X197399672Y-90713627D01*
X197399671Y-90713629D01*
X197350314Y-90787496D01*
X197287496Y-90850314D01*
X197213629Y-90899671D01*
X197213628Y-90899672D01*
X197213627Y-90899672D01*
X197131552Y-90933669D01*
X197044421Y-90951000D01*
X196955579Y-90951000D01*
X196868448Y-90933669D01*
X196786373Y-90899672D01*
X196786372Y-90899672D01*
X196786371Y-90899671D01*
X196712504Y-90850314D01*
X196649686Y-90787496D01*
X196600329Y-90713629D01*
X196600328Y-90713627D01*
X196566331Y-90631552D01*
X196549000Y-90544421D01*
X196549000Y-90455579D01*
X196566331Y-90368448D01*
X196600328Y-90286373D01*
X196649685Y-90212505D01*
X196712505Y-90149685D01*
X196749187Y-90125175D01*
X196786371Y-90100329D01*
X196786373Y-90100328D01*
X196868448Y-90066331D01*
X196955579Y-90049000D01*
X197044421Y-90049000D01*
X197131552Y-90066331D01*
X197131552Y-90066331D01*
G37*
G36*
X154631552Y-90066331D02*
G01*
X154713627Y-90100328D01*
X154713629Y-90100329D01*
X154750813Y-90125175D01*
X154787495Y-90149685D01*
X154850315Y-90212505D01*
X154899672Y-90286373D01*
X154933669Y-90368448D01*
X154951000Y-90455579D01*
X154951000Y-90544421D01*
X154933669Y-90631552D01*
X154899672Y-90713627D01*
X154899671Y-90713629D01*
X154850314Y-90787496D01*
X154787496Y-90850314D01*
X154713629Y-90899671D01*
X154713628Y-90899672D01*
X154713627Y-90899672D01*
X154631552Y-90933669D01*
X154544421Y-90951000D01*
X154455579Y-90951000D01*
X154368448Y-90933669D01*
X154286373Y-90899672D01*
X154286372Y-90899672D01*
X154286371Y-90899671D01*
X154212504Y-90850314D01*
X154149686Y-90787496D01*
X154100329Y-90713629D01*
X154100328Y-90713627D01*
X154066331Y-90631552D01*
X154049000Y-90544421D01*
X154049000Y-90455579D01*
X154066331Y-90368448D01*
X154100328Y-90286373D01*
X154149685Y-90212505D01*
X154212505Y-90149685D01*
X154249187Y-90125175D01*
X154286371Y-90100329D01*
X154286373Y-90100328D01*
X154368448Y-90066331D01*
X154455579Y-90049000D01*
X154544421Y-90049000D01*
X154631552Y-90066331D01*
X154631552Y-90066331D01*
G37*
G36*
X153131552Y-90066331D02*
G01*
X153213627Y-90100328D01*
X153213629Y-90100329D01*
X153250813Y-90125175D01*
X153287495Y-90149685D01*
X153350315Y-90212505D01*
X153399672Y-90286373D01*
X153433669Y-90368448D01*
X153451000Y-90455579D01*
X153451000Y-90544421D01*
X153433669Y-90631552D01*
X153399672Y-90713627D01*
X153399671Y-90713629D01*
X153350314Y-90787496D01*
X153287496Y-90850314D01*
X153213629Y-90899671D01*
X153213628Y-90899672D01*
X153213627Y-90899672D01*
X153131552Y-90933669D01*
X153044421Y-90951000D01*
X152955579Y-90951000D01*
X152868448Y-90933669D01*
X152786373Y-90899672D01*
X152786372Y-90899672D01*
X152786371Y-90899671D01*
X152712504Y-90850314D01*
X152649686Y-90787496D01*
X152600329Y-90713629D01*
X152600328Y-90713627D01*
X152566331Y-90631552D01*
X152549000Y-90544421D01*
X152549000Y-90455579D01*
X152566331Y-90368448D01*
X152600328Y-90286373D01*
X152649685Y-90212505D01*
X152712505Y-90149685D01*
X152749187Y-90125175D01*
X152786371Y-90100329D01*
X152786373Y-90100328D01*
X152868448Y-90066331D01*
X152955579Y-90049000D01*
X153044421Y-90049000D01*
X153131552Y-90066331D01*
X153131552Y-90066331D01*
G37*
G36*
X197131552Y-88566331D02*
G01*
X197213627Y-88600328D01*
X197213629Y-88600329D01*
X197250813Y-88625175D01*
X197287495Y-88649685D01*
X197350315Y-88712505D01*
X197399672Y-88786373D01*
X197433669Y-88868448D01*
X197451000Y-88955579D01*
X197451000Y-89044421D01*
X197433669Y-89131552D01*
X197399672Y-89213627D01*
X197399671Y-89213629D01*
X197350314Y-89287496D01*
X197287496Y-89350314D01*
X197213629Y-89399671D01*
X197213628Y-89399672D01*
X197213627Y-89399672D01*
X197131552Y-89433669D01*
X197044421Y-89451000D01*
X196955579Y-89451000D01*
X196868448Y-89433669D01*
X196786373Y-89399672D01*
X196786372Y-89399672D01*
X196786371Y-89399671D01*
X196712504Y-89350314D01*
X196649686Y-89287496D01*
X196600329Y-89213629D01*
X196600328Y-89213627D01*
X196566331Y-89131552D01*
X196549000Y-89044421D01*
X196549000Y-88955579D01*
X196566331Y-88868448D01*
X196600328Y-88786373D01*
X196649685Y-88712505D01*
X196712505Y-88649685D01*
X196749187Y-88625175D01*
X196786371Y-88600329D01*
X196786373Y-88600328D01*
X196868448Y-88566331D01*
X196955579Y-88549000D01*
X197044421Y-88549000D01*
X197131552Y-88566331D01*
X197131552Y-88566331D01*
G37*
G36*
X195631552Y-88566331D02*
G01*
X195713627Y-88600328D01*
X195713629Y-88600329D01*
X195750813Y-88625175D01*
X195787495Y-88649685D01*
X195850315Y-88712505D01*
X195899672Y-88786373D01*
X195933669Y-88868448D01*
X195951000Y-88955579D01*
X195951000Y-89044421D01*
X195933669Y-89131552D01*
X195899672Y-89213627D01*
X195899671Y-89213629D01*
X195850314Y-89287496D01*
X195787496Y-89350314D01*
X195713629Y-89399671D01*
X195713628Y-89399672D01*
X195713627Y-89399672D01*
X195631552Y-89433669D01*
X195544421Y-89451000D01*
X195455579Y-89451000D01*
X195368448Y-89433669D01*
X195286373Y-89399672D01*
X195286372Y-89399672D01*
X195286371Y-89399671D01*
X195212504Y-89350314D01*
X195149686Y-89287496D01*
X195100329Y-89213629D01*
X195100328Y-89213627D01*
X195066331Y-89131552D01*
X195049000Y-89044421D01*
X195049000Y-88955579D01*
X195066331Y-88868448D01*
X195100328Y-88786373D01*
X195149685Y-88712505D01*
X195212505Y-88649685D01*
X195249187Y-88625175D01*
X195286371Y-88600329D01*
X195286373Y-88600328D01*
X195368448Y-88566331D01*
X195455579Y-88549000D01*
X195544421Y-88549000D01*
X195631552Y-88566331D01*
X195631552Y-88566331D01*
G37*
G36*
X154631552Y-88566331D02*
G01*
X154713627Y-88600328D01*
X154713629Y-88600329D01*
X154750813Y-88625175D01*
X154787495Y-88649685D01*
X154850315Y-88712505D01*
X154899672Y-88786373D01*
X154933669Y-88868448D01*
X154951000Y-88955579D01*
X154951000Y-89044421D01*
X154933669Y-89131552D01*
X154899672Y-89213627D01*
X154899671Y-89213629D01*
X154850314Y-89287496D01*
X154787496Y-89350314D01*
X154713629Y-89399671D01*
X154713628Y-89399672D01*
X154713627Y-89399672D01*
X154631552Y-89433669D01*
X154544421Y-89451000D01*
X154455579Y-89451000D01*
X154368448Y-89433669D01*
X154286373Y-89399672D01*
X154286372Y-89399672D01*
X154286371Y-89399671D01*
X154212504Y-89350314D01*
X154149686Y-89287496D01*
X154100329Y-89213629D01*
X154100328Y-89213627D01*
X154066331Y-89131552D01*
X154049000Y-89044421D01*
X154049000Y-88955579D01*
X154066331Y-88868448D01*
X154100328Y-88786373D01*
X154149685Y-88712505D01*
X154212505Y-88649685D01*
X154249187Y-88625175D01*
X154286371Y-88600329D01*
X154286373Y-88600328D01*
X154368448Y-88566331D01*
X154455579Y-88549000D01*
X154544421Y-88549000D01*
X154631552Y-88566331D01*
X154631552Y-88566331D01*
G37*
G36*
X153131552Y-88566331D02*
G01*
X153213627Y-88600328D01*
X153213629Y-88600329D01*
X153250813Y-88625175D01*
X153287495Y-88649685D01*
X153350315Y-88712505D01*
X153399672Y-88786373D01*
X153433669Y-88868448D01*
X153451000Y-88955579D01*
X153451000Y-89044421D01*
X153433669Y-89131552D01*
X153399672Y-89213627D01*
X153399671Y-89213629D01*
X153350314Y-89287496D01*
X153287496Y-89350314D01*
X153213629Y-89399671D01*
X153213628Y-89399672D01*
X153213627Y-89399672D01*
X153131552Y-89433669D01*
X153044421Y-89451000D01*
X152955579Y-89451000D01*
X152868448Y-89433669D01*
X152786373Y-89399672D01*
X152786372Y-89399672D01*
X152786371Y-89399671D01*
X152712504Y-89350314D01*
X152649686Y-89287496D01*
X152600329Y-89213629D01*
X152600328Y-89213627D01*
X152566331Y-89131552D01*
X152549000Y-89044421D01*
X152549000Y-88955579D01*
X152566331Y-88868448D01*
X152600328Y-88786373D01*
X152649685Y-88712505D01*
X152712505Y-88649685D01*
X152749187Y-88625175D01*
X152786371Y-88600329D01*
X152786373Y-88600328D01*
X152868448Y-88566331D01*
X152955579Y-88549000D01*
X153044421Y-88549000D01*
X153131552Y-88566331D01*
X153131552Y-88566331D01*
G37*
G36*
X151631552Y-88566331D02*
G01*
X151713627Y-88600328D01*
X151713629Y-88600329D01*
X151750813Y-88625175D01*
X151787495Y-88649685D01*
X151850315Y-88712505D01*
X151899672Y-88786373D01*
X151933669Y-88868448D01*
X151951000Y-88955579D01*
X151951000Y-89044421D01*
X151933669Y-89131552D01*
X151899672Y-89213627D01*
X151899671Y-89213629D01*
X151850314Y-89287496D01*
X151787496Y-89350314D01*
X151713629Y-89399671D01*
X151713628Y-89399672D01*
X151713627Y-89399672D01*
X151631552Y-89433669D01*
X151544421Y-89451000D01*
X151455579Y-89451000D01*
X151368448Y-89433669D01*
X151286373Y-89399672D01*
X151286372Y-89399672D01*
X151286371Y-89399671D01*
X151212504Y-89350314D01*
X151149686Y-89287496D01*
X151100329Y-89213629D01*
X151100328Y-89213627D01*
X151066331Y-89131552D01*
X151049000Y-89044421D01*
X151049000Y-88955579D01*
X151066331Y-88868448D01*
X151100328Y-88786373D01*
X151149685Y-88712505D01*
X151212505Y-88649685D01*
X151249187Y-88625175D01*
X151286371Y-88600329D01*
X151286373Y-88600328D01*
X151368448Y-88566331D01*
X151455579Y-88549000D01*
X151544421Y-88549000D01*
X151631552Y-88566331D01*
X151631552Y-88566331D01*
G37*
G36*
X198631552Y-88566331D02*
G01*
X198713627Y-88600328D01*
X198713629Y-88600329D01*
X198750813Y-88625175D01*
X198787495Y-88649685D01*
X198850315Y-88712505D01*
X198899672Y-88786373D01*
X198933669Y-88868448D01*
X198951000Y-88955579D01*
X198951000Y-89044421D01*
X198933669Y-89131552D01*
X198899672Y-89213627D01*
X198899671Y-89213629D01*
X198850314Y-89287496D01*
X198787496Y-89350314D01*
X198713629Y-89399671D01*
X198713628Y-89399672D01*
X198713627Y-89399672D01*
X198631552Y-89433669D01*
X198544421Y-89451000D01*
X198455579Y-89451000D01*
X198368448Y-89433669D01*
X198286373Y-89399672D01*
X198286372Y-89399672D01*
X198286371Y-89399671D01*
X198212504Y-89350314D01*
X198149686Y-89287496D01*
X198100329Y-89213629D01*
X198100328Y-89213627D01*
X198066331Y-89131552D01*
X198049000Y-89044421D01*
X198049000Y-88955579D01*
X198066331Y-88868448D01*
X198100328Y-88786373D01*
X198149685Y-88712505D01*
X198212505Y-88649685D01*
X198249187Y-88625175D01*
X198286371Y-88600329D01*
X198286373Y-88600328D01*
X198368448Y-88566331D01*
X198455579Y-88549000D01*
X198544421Y-88549000D01*
X198631552Y-88566331D01*
X198631552Y-88566331D01*
G37*
G36*
X197131552Y-87066331D02*
G01*
X197213627Y-87100328D01*
X197213629Y-87100329D01*
X197250813Y-87125175D01*
X197287495Y-87149685D01*
X197350315Y-87212505D01*
X197399672Y-87286373D01*
X197433669Y-87368448D01*
X197451000Y-87455579D01*
X197451000Y-87544421D01*
X197433669Y-87631552D01*
X197399672Y-87713627D01*
X197399671Y-87713629D01*
X197350314Y-87787496D01*
X197287496Y-87850314D01*
X197213629Y-87899671D01*
X197213628Y-87899672D01*
X197213627Y-87899672D01*
X197131552Y-87933669D01*
X197044421Y-87951000D01*
X196955579Y-87951000D01*
X196868448Y-87933669D01*
X196786373Y-87899672D01*
X196786372Y-87899672D01*
X196786371Y-87899671D01*
X196712504Y-87850314D01*
X196649686Y-87787496D01*
X196600329Y-87713629D01*
X196600328Y-87713627D01*
X196566331Y-87631552D01*
X196549000Y-87544421D01*
X196549000Y-87455579D01*
X196566331Y-87368448D01*
X196600328Y-87286373D01*
X196649685Y-87212505D01*
X196712505Y-87149685D01*
X196749187Y-87125175D01*
X196786371Y-87100329D01*
X196786373Y-87100328D01*
X196868448Y-87066331D01*
X196955579Y-87049000D01*
X197044421Y-87049000D01*
X197131552Y-87066331D01*
X197131552Y-87066331D01*
G37*
G36*
X198631552Y-87066331D02*
G01*
X198713627Y-87100328D01*
X198713629Y-87100329D01*
X198750813Y-87125175D01*
X198787495Y-87149685D01*
X198850315Y-87212505D01*
X198899672Y-87286373D01*
X198933669Y-87368448D01*
X198951000Y-87455579D01*
X198951000Y-87544421D01*
X198933669Y-87631552D01*
X198899672Y-87713627D01*
X198899671Y-87713629D01*
X198850314Y-87787496D01*
X198787496Y-87850314D01*
X198713629Y-87899671D01*
X198713628Y-87899672D01*
X198713627Y-87899672D01*
X198631552Y-87933669D01*
X198544421Y-87951000D01*
X198455579Y-87951000D01*
X198368448Y-87933669D01*
X198286373Y-87899672D01*
X198286372Y-87899672D01*
X198286371Y-87899671D01*
X198212504Y-87850314D01*
X198149686Y-87787496D01*
X198100329Y-87713629D01*
X198100328Y-87713627D01*
X198066331Y-87631552D01*
X198049000Y-87544421D01*
X198049000Y-87455579D01*
X198066331Y-87368448D01*
X198100328Y-87286373D01*
X198149685Y-87212505D01*
X198212505Y-87149685D01*
X198249187Y-87125175D01*
X198286371Y-87100329D01*
X198286373Y-87100328D01*
X198368448Y-87066331D01*
X198455579Y-87049000D01*
X198544421Y-87049000D01*
X198631552Y-87066331D01*
X198631552Y-87066331D01*
G37*
G36*
X195631552Y-87066331D02*
G01*
X195713627Y-87100328D01*
X195713629Y-87100329D01*
X195750813Y-87125175D01*
X195787495Y-87149685D01*
X195850315Y-87212505D01*
X195899672Y-87286373D01*
X195933669Y-87368448D01*
X195951000Y-87455579D01*
X195951000Y-87544421D01*
X195933669Y-87631552D01*
X195899672Y-87713627D01*
X195899671Y-87713629D01*
X195850314Y-87787496D01*
X195787496Y-87850314D01*
X195713629Y-87899671D01*
X195713628Y-87899672D01*
X195713627Y-87899672D01*
X195631552Y-87933669D01*
X195544421Y-87951000D01*
X195455579Y-87951000D01*
X195368448Y-87933669D01*
X195286373Y-87899672D01*
X195286372Y-87899672D01*
X195286371Y-87899671D01*
X195212504Y-87850314D01*
X195149686Y-87787496D01*
X195100329Y-87713629D01*
X195100328Y-87713627D01*
X195066331Y-87631552D01*
X195049000Y-87544421D01*
X195049000Y-87455579D01*
X195066331Y-87368448D01*
X195100328Y-87286373D01*
X195149685Y-87212505D01*
X195212505Y-87149685D01*
X195249187Y-87125175D01*
X195286371Y-87100329D01*
X195286373Y-87100328D01*
X195368448Y-87066331D01*
X195455579Y-87049000D01*
X195544421Y-87049000D01*
X195631552Y-87066331D01*
X195631552Y-87066331D01*
G37*
G36*
X154631552Y-87066331D02*
G01*
X154713627Y-87100328D01*
X154713629Y-87100329D01*
X154750813Y-87125175D01*
X154787495Y-87149685D01*
X154850315Y-87212505D01*
X154899672Y-87286373D01*
X154933669Y-87368448D01*
X154951000Y-87455579D01*
X154951000Y-87544421D01*
X154933669Y-87631552D01*
X154899672Y-87713627D01*
X154899671Y-87713629D01*
X154850314Y-87787496D01*
X154787496Y-87850314D01*
X154713629Y-87899671D01*
X154713628Y-87899672D01*
X154713627Y-87899672D01*
X154631552Y-87933669D01*
X154544421Y-87951000D01*
X154455579Y-87951000D01*
X154368448Y-87933669D01*
X154286373Y-87899672D01*
X154286372Y-87899672D01*
X154286371Y-87899671D01*
X154212504Y-87850314D01*
X154149686Y-87787496D01*
X154100329Y-87713629D01*
X154100328Y-87713627D01*
X154066331Y-87631552D01*
X154049000Y-87544421D01*
X154049000Y-87455579D01*
X154066331Y-87368448D01*
X154100328Y-87286373D01*
X154149685Y-87212505D01*
X154212505Y-87149685D01*
X154249187Y-87125175D01*
X154286371Y-87100329D01*
X154286373Y-87100328D01*
X154368448Y-87066331D01*
X154455579Y-87049000D01*
X154544421Y-87049000D01*
X154631552Y-87066331D01*
X154631552Y-87066331D01*
G37*
G36*
X153131552Y-87066331D02*
G01*
X153213627Y-87100328D01*
X153213629Y-87100329D01*
X153250813Y-87125175D01*
X153287495Y-87149685D01*
X153350315Y-87212505D01*
X153399672Y-87286373D01*
X153433669Y-87368448D01*
X153451000Y-87455579D01*
X153451000Y-87544421D01*
X153433669Y-87631552D01*
X153399672Y-87713627D01*
X153399671Y-87713629D01*
X153350314Y-87787496D01*
X153287496Y-87850314D01*
X153213629Y-87899671D01*
X153213628Y-87899672D01*
X153213627Y-87899672D01*
X153131552Y-87933669D01*
X153044421Y-87951000D01*
X152955579Y-87951000D01*
X152868448Y-87933669D01*
X152786373Y-87899672D01*
X152786372Y-87899672D01*
X152786371Y-87899671D01*
X152712504Y-87850314D01*
X152649686Y-87787496D01*
X152600329Y-87713629D01*
X152600328Y-87713627D01*
X152566331Y-87631552D01*
X152549000Y-87544421D01*
X152549000Y-87455579D01*
X152566331Y-87368448D01*
X152600328Y-87286373D01*
X152649685Y-87212505D01*
X152712505Y-87149685D01*
X152749187Y-87125175D01*
X152786371Y-87100329D01*
X152786373Y-87100328D01*
X152868448Y-87066331D01*
X152955579Y-87049000D01*
X153044421Y-87049000D01*
X153131552Y-87066331D01*
X153131552Y-87066331D01*
G37*
G36*
X151631552Y-87066331D02*
G01*
X151713627Y-87100328D01*
X151713629Y-87100329D01*
X151750813Y-87125175D01*
X151787495Y-87149685D01*
X151850315Y-87212505D01*
X151899672Y-87286373D01*
X151933669Y-87368448D01*
X151951000Y-87455579D01*
X151951000Y-87544421D01*
X151933669Y-87631552D01*
X151899672Y-87713627D01*
X151899671Y-87713629D01*
X151850314Y-87787496D01*
X151787496Y-87850314D01*
X151713629Y-87899671D01*
X151713628Y-87899672D01*
X151713627Y-87899672D01*
X151631552Y-87933669D01*
X151544421Y-87951000D01*
X151455579Y-87951000D01*
X151368448Y-87933669D01*
X151286373Y-87899672D01*
X151286372Y-87899672D01*
X151286371Y-87899671D01*
X151212504Y-87850314D01*
X151149686Y-87787496D01*
X151100329Y-87713629D01*
X151100328Y-87713627D01*
X151066331Y-87631552D01*
X151049000Y-87544421D01*
X151049000Y-87455579D01*
X151066331Y-87368448D01*
X151100328Y-87286373D01*
X151149685Y-87212505D01*
X151212505Y-87149685D01*
X151249187Y-87125175D01*
X151286371Y-87100329D01*
X151286373Y-87100328D01*
X151368448Y-87066331D01*
X151455579Y-87049000D01*
X151544421Y-87049000D01*
X151631552Y-87066331D01*
X151631552Y-87066331D01*
G37*
G36*
X153131552Y-62066331D02*
G01*
X153213627Y-62100328D01*
X153213629Y-62100329D01*
X153250813Y-62125175D01*
X153287495Y-62149685D01*
X153350315Y-62212505D01*
X153399672Y-62286373D01*
X153433669Y-62368448D01*
X153451000Y-62455579D01*
X153451000Y-62544421D01*
X153433669Y-62631552D01*
X153399672Y-62713627D01*
X153399671Y-62713629D01*
X153350314Y-62787496D01*
X153287496Y-62850314D01*
X153213629Y-62899671D01*
X153213628Y-62899672D01*
X153213627Y-62899672D01*
X153131552Y-62933669D01*
X153044421Y-62951000D01*
X152955579Y-62951000D01*
X152868448Y-62933669D01*
X152786373Y-62899672D01*
X152786372Y-62899672D01*
X152786371Y-62899671D01*
X152712504Y-62850314D01*
X152649686Y-62787496D01*
X152600329Y-62713629D01*
X152600328Y-62713627D01*
X152566331Y-62631552D01*
X152549000Y-62544421D01*
X152549000Y-62455579D01*
X152566331Y-62368448D01*
X152600328Y-62286373D01*
X152649685Y-62212505D01*
X152712505Y-62149685D01*
X152749187Y-62125175D01*
X152786371Y-62100329D01*
X152786373Y-62100328D01*
X152868448Y-62066331D01*
X152955579Y-62049000D01*
X153044421Y-62049000D01*
X153131552Y-62066331D01*
X153131552Y-62066331D01*
G37*
G36*
X151631552Y-62066331D02*
G01*
X151713627Y-62100328D01*
X151713629Y-62100329D01*
X151750813Y-62125175D01*
X151787495Y-62149685D01*
X151850315Y-62212505D01*
X151899672Y-62286373D01*
X151933669Y-62368448D01*
X151951000Y-62455579D01*
X151951000Y-62544421D01*
X151933669Y-62631552D01*
X151899672Y-62713627D01*
X151899671Y-62713629D01*
X151850314Y-62787496D01*
X151787496Y-62850314D01*
X151713629Y-62899671D01*
X151713628Y-62899672D01*
X151713627Y-62899672D01*
X151631552Y-62933669D01*
X151544421Y-62951000D01*
X151455579Y-62951000D01*
X151368448Y-62933669D01*
X151286373Y-62899672D01*
X151286372Y-62899672D01*
X151286371Y-62899671D01*
X151212504Y-62850314D01*
X151149686Y-62787496D01*
X151100329Y-62713629D01*
X151100328Y-62713627D01*
X151066331Y-62631552D01*
X151049000Y-62544421D01*
X151049000Y-62455579D01*
X151066331Y-62368448D01*
X151100328Y-62286373D01*
X151149685Y-62212505D01*
X151212505Y-62149685D01*
X151249187Y-62125175D01*
X151286371Y-62100329D01*
X151286373Y-62100328D01*
X151368448Y-62066331D01*
X151455579Y-62049000D01*
X151544421Y-62049000D01*
X151631552Y-62066331D01*
X151631552Y-62066331D01*
G37*
G36*
X154631552Y-62066331D02*
G01*
X154713627Y-62100328D01*
X154713629Y-62100329D01*
X154750813Y-62125175D01*
X154787495Y-62149685D01*
X154850315Y-62212505D01*
X154899672Y-62286373D01*
X154933669Y-62368448D01*
X154951000Y-62455579D01*
X154951000Y-62544421D01*
X154933669Y-62631552D01*
X154899672Y-62713627D01*
X154899671Y-62713629D01*
X154850314Y-62787496D01*
X154787496Y-62850314D01*
X154713629Y-62899671D01*
X154713628Y-62899672D01*
X154713627Y-62899672D01*
X154631552Y-62933669D01*
X154544421Y-62951000D01*
X154455579Y-62951000D01*
X154368448Y-62933669D01*
X154286373Y-62899672D01*
X154286372Y-62899672D01*
X154286371Y-62899671D01*
X154212504Y-62850314D01*
X154149686Y-62787496D01*
X154100329Y-62713629D01*
X154100328Y-62713627D01*
X154066331Y-62631552D01*
X154049000Y-62544421D01*
X154049000Y-62455579D01*
X154066331Y-62368448D01*
X154100328Y-62286373D01*
X154149685Y-62212505D01*
X154212505Y-62149685D01*
X154249187Y-62125175D01*
X154286371Y-62100329D01*
X154286373Y-62100328D01*
X154368448Y-62066331D01*
X154455579Y-62049000D01*
X154544421Y-62049000D01*
X154631552Y-62066331D01*
X154631552Y-62066331D01*
G37*
G36*
X195631552Y-62066331D02*
G01*
X195713627Y-62100328D01*
X195713629Y-62100329D01*
X195750813Y-62125175D01*
X195787495Y-62149685D01*
X195850315Y-62212505D01*
X195899672Y-62286373D01*
X195933669Y-62368448D01*
X195951000Y-62455579D01*
X195951000Y-62544421D01*
X195933669Y-62631552D01*
X195899672Y-62713627D01*
X195899671Y-62713629D01*
X195850314Y-62787496D01*
X195787496Y-62850314D01*
X195713629Y-62899671D01*
X195713628Y-62899672D01*
X195713627Y-62899672D01*
X195631552Y-62933669D01*
X195544421Y-62951000D01*
X195455579Y-62951000D01*
X195368448Y-62933669D01*
X195286373Y-62899672D01*
X195286372Y-62899672D01*
X195286371Y-62899671D01*
X195212504Y-62850314D01*
X195149686Y-62787496D01*
X195100329Y-62713629D01*
X195100328Y-62713627D01*
X195066331Y-62631552D01*
X195049000Y-62544421D01*
X195049000Y-62455579D01*
X195066331Y-62368448D01*
X195100328Y-62286373D01*
X195149685Y-62212505D01*
X195212505Y-62149685D01*
X195249187Y-62125175D01*
X195286371Y-62100329D01*
X195286373Y-62100328D01*
X195368448Y-62066331D01*
X195455579Y-62049000D01*
X195544421Y-62049000D01*
X195631552Y-62066331D01*
X195631552Y-62066331D01*
G37*
G36*
X197131552Y-62066331D02*
G01*
X197213627Y-62100328D01*
X197213629Y-62100329D01*
X197250813Y-62125175D01*
X197287495Y-62149685D01*
X197350315Y-62212505D01*
X197399672Y-62286373D01*
X197433669Y-62368448D01*
X197451000Y-62455579D01*
X197451000Y-62544421D01*
X197433669Y-62631552D01*
X197399672Y-62713627D01*
X197399671Y-62713629D01*
X197350314Y-62787496D01*
X197287496Y-62850314D01*
X197213629Y-62899671D01*
X197213628Y-62899672D01*
X197213627Y-62899672D01*
X197131552Y-62933669D01*
X197044421Y-62951000D01*
X196955579Y-62951000D01*
X196868448Y-62933669D01*
X196786373Y-62899672D01*
X196786372Y-62899672D01*
X196786371Y-62899671D01*
X196712504Y-62850314D01*
X196649686Y-62787496D01*
X196600329Y-62713629D01*
X196600328Y-62713627D01*
X196566331Y-62631552D01*
X196549000Y-62544421D01*
X196549000Y-62455579D01*
X196566331Y-62368448D01*
X196600328Y-62286373D01*
X196649685Y-62212505D01*
X196712505Y-62149685D01*
X196749187Y-62125175D01*
X196786371Y-62100329D01*
X196786373Y-62100328D01*
X196868448Y-62066331D01*
X196955579Y-62049000D01*
X197044421Y-62049000D01*
X197131552Y-62066331D01*
X197131552Y-62066331D01*
G37*
G36*
X198631552Y-62066331D02*
G01*
X198713627Y-62100328D01*
X198713629Y-62100329D01*
X198750813Y-62125175D01*
X198787495Y-62149685D01*
X198850315Y-62212505D01*
X198899672Y-62286373D01*
X198933669Y-62368448D01*
X198951000Y-62455579D01*
X198951000Y-62544421D01*
X198933669Y-62631552D01*
X198899672Y-62713627D01*
X198899671Y-62713629D01*
X198850314Y-62787496D01*
X198787496Y-62850314D01*
X198713629Y-62899671D01*
X198713628Y-62899672D01*
X198713627Y-62899672D01*
X198631552Y-62933669D01*
X198544421Y-62951000D01*
X198455579Y-62951000D01*
X198368448Y-62933669D01*
X198286373Y-62899672D01*
X198286372Y-62899672D01*
X198286371Y-62899671D01*
X198212504Y-62850314D01*
X198149686Y-62787496D01*
X198100329Y-62713629D01*
X198100328Y-62713627D01*
X198066331Y-62631552D01*
X198049000Y-62544421D01*
X198049000Y-62455579D01*
X198066331Y-62368448D01*
X198100328Y-62286373D01*
X198149685Y-62212505D01*
X198212505Y-62149685D01*
X198249187Y-62125175D01*
X198286371Y-62100329D01*
X198286373Y-62100328D01*
X198368448Y-62066331D01*
X198455579Y-62049000D01*
X198544421Y-62049000D01*
X198631552Y-62066331D01*
X198631552Y-62066331D01*
G37*
G36*
X195631552Y-60566331D02*
G01*
X195713627Y-60600328D01*
X195713629Y-60600329D01*
X195750813Y-60625175D01*
X195787495Y-60649685D01*
X195850315Y-60712505D01*
X195899672Y-60786373D01*
X195933669Y-60868448D01*
X195951000Y-60955579D01*
X195951000Y-61044421D01*
X195933669Y-61131552D01*
X195899672Y-61213627D01*
X195899671Y-61213629D01*
X195850314Y-61287496D01*
X195787496Y-61350314D01*
X195713629Y-61399671D01*
X195713628Y-61399672D01*
X195713627Y-61399672D01*
X195631552Y-61433669D01*
X195544421Y-61451000D01*
X195455579Y-61451000D01*
X195368448Y-61433669D01*
X195286373Y-61399672D01*
X195286372Y-61399672D01*
X195286371Y-61399671D01*
X195212504Y-61350314D01*
X195149686Y-61287496D01*
X195100329Y-61213629D01*
X195100328Y-61213627D01*
X195066331Y-61131552D01*
X195049000Y-61044421D01*
X195049000Y-60955579D01*
X195066331Y-60868448D01*
X195100328Y-60786373D01*
X195149685Y-60712505D01*
X195212505Y-60649685D01*
X195249187Y-60625175D01*
X195286371Y-60600329D01*
X195286373Y-60600328D01*
X195368448Y-60566331D01*
X195455579Y-60549000D01*
X195544421Y-60549000D01*
X195631552Y-60566331D01*
X195631552Y-60566331D01*
G37*
G36*
X197131552Y-60566331D02*
G01*
X197213627Y-60600328D01*
X197213629Y-60600329D01*
X197250813Y-60625175D01*
X197287495Y-60649685D01*
X197350315Y-60712505D01*
X197399672Y-60786373D01*
X197433669Y-60868448D01*
X197451000Y-60955579D01*
X197451000Y-61044421D01*
X197433669Y-61131552D01*
X197399672Y-61213627D01*
X197399671Y-61213629D01*
X197350314Y-61287496D01*
X197287496Y-61350314D01*
X197213629Y-61399671D01*
X197213628Y-61399672D01*
X197213627Y-61399672D01*
X197131552Y-61433669D01*
X197044421Y-61451000D01*
X196955579Y-61451000D01*
X196868448Y-61433669D01*
X196786373Y-61399672D01*
X196786372Y-61399672D01*
X196786371Y-61399671D01*
X196712504Y-61350314D01*
X196649686Y-61287496D01*
X196600329Y-61213629D01*
X196600328Y-61213627D01*
X196566331Y-61131552D01*
X196549000Y-61044421D01*
X196549000Y-60955579D01*
X196566331Y-60868448D01*
X196600328Y-60786373D01*
X196649685Y-60712505D01*
X196712505Y-60649685D01*
X196749187Y-60625175D01*
X196786371Y-60600329D01*
X196786373Y-60600328D01*
X196868448Y-60566331D01*
X196955579Y-60549000D01*
X197044421Y-60549000D01*
X197131552Y-60566331D01*
X197131552Y-60566331D01*
G37*
G36*
X198631552Y-60566331D02*
G01*
X198713627Y-60600328D01*
X198713629Y-60600329D01*
X198750813Y-60625175D01*
X198787495Y-60649685D01*
X198850315Y-60712505D01*
X198899672Y-60786373D01*
X198933669Y-60868448D01*
X198951000Y-60955579D01*
X198951000Y-61044421D01*
X198933669Y-61131552D01*
X198899672Y-61213627D01*
X198899671Y-61213629D01*
X198850314Y-61287496D01*
X198787496Y-61350314D01*
X198713629Y-61399671D01*
X198713628Y-61399672D01*
X198713627Y-61399672D01*
X198631552Y-61433669D01*
X198544421Y-61451000D01*
X198455579Y-61451000D01*
X198368448Y-61433669D01*
X198286373Y-61399672D01*
X198286372Y-61399672D01*
X198286371Y-61399671D01*
X198212504Y-61350314D01*
X198149686Y-61287496D01*
X198100329Y-61213629D01*
X198100328Y-61213627D01*
X198066331Y-61131552D01*
X198049000Y-61044421D01*
X198049000Y-60955579D01*
X198066331Y-60868448D01*
X198100328Y-60786373D01*
X198149685Y-60712505D01*
X198212505Y-60649685D01*
X198249187Y-60625175D01*
X198286371Y-60600329D01*
X198286373Y-60600328D01*
X198368448Y-60566331D01*
X198455579Y-60549000D01*
X198544421Y-60549000D01*
X198631552Y-60566331D01*
X198631552Y-60566331D01*
G37*
G36*
X151631552Y-60566331D02*
G01*
X151713627Y-60600328D01*
X151713629Y-60600329D01*
X151750813Y-60625175D01*
X151787495Y-60649685D01*
X151850315Y-60712505D01*
X151899672Y-60786373D01*
X151933669Y-60868448D01*
X151951000Y-60955579D01*
X151951000Y-61044421D01*
X151933669Y-61131552D01*
X151899672Y-61213627D01*
X151899671Y-61213629D01*
X151850314Y-61287496D01*
X151787496Y-61350314D01*
X151713629Y-61399671D01*
X151713628Y-61399672D01*
X151713627Y-61399672D01*
X151631552Y-61433669D01*
X151544421Y-61451000D01*
X151455579Y-61451000D01*
X151368448Y-61433669D01*
X151286373Y-61399672D01*
X151286372Y-61399672D01*
X151286371Y-61399671D01*
X151212504Y-61350314D01*
X151149686Y-61287496D01*
X151100329Y-61213629D01*
X151100328Y-61213627D01*
X151066331Y-61131552D01*
X151049000Y-61044421D01*
X151049000Y-60955579D01*
X151066331Y-60868448D01*
X151100328Y-60786373D01*
X151149685Y-60712505D01*
X151212505Y-60649685D01*
X151249187Y-60625175D01*
X151286371Y-60600329D01*
X151286373Y-60600328D01*
X151368448Y-60566331D01*
X151455579Y-60549000D01*
X151544421Y-60549000D01*
X151631552Y-60566331D01*
X151631552Y-60566331D01*
G37*
G36*
X153131552Y-60566331D02*
G01*
X153213627Y-60600328D01*
X153213629Y-60600329D01*
X153250813Y-60625175D01*
X153287495Y-60649685D01*
X153350315Y-60712505D01*
X153399672Y-60786373D01*
X153433669Y-60868448D01*
X153451000Y-60955579D01*
X153451000Y-61044421D01*
X153433669Y-61131552D01*
X153399672Y-61213627D01*
X153399671Y-61213629D01*
X153350314Y-61287496D01*
X153287496Y-61350314D01*
X153213629Y-61399671D01*
X153213628Y-61399672D01*
X153213627Y-61399672D01*
X153131552Y-61433669D01*
X153044421Y-61451000D01*
X152955579Y-61451000D01*
X152868448Y-61433669D01*
X152786373Y-61399672D01*
X152786372Y-61399672D01*
X152786371Y-61399671D01*
X152712504Y-61350314D01*
X152649686Y-61287496D01*
X152600329Y-61213629D01*
X152600328Y-61213627D01*
X152566331Y-61131552D01*
X152549000Y-61044421D01*
X152549000Y-60955579D01*
X152566331Y-60868448D01*
X152600328Y-60786373D01*
X152649685Y-60712505D01*
X152712505Y-60649685D01*
X152749187Y-60625175D01*
X152786371Y-60600329D01*
X152786373Y-60600328D01*
X152868448Y-60566331D01*
X152955579Y-60549000D01*
X153044421Y-60549000D01*
X153131552Y-60566331D01*
X153131552Y-60566331D01*
G37*
G36*
X154631552Y-60566331D02*
G01*
X154713627Y-60600328D01*
X154713629Y-60600329D01*
X154750813Y-60625175D01*
X154787495Y-60649685D01*
X154850315Y-60712505D01*
X154899672Y-60786373D01*
X154933669Y-60868448D01*
X154951000Y-60955579D01*
X154951000Y-61044421D01*
X154933669Y-61131552D01*
X154899672Y-61213627D01*
X154899671Y-61213629D01*
X154850314Y-61287496D01*
X154787496Y-61350314D01*
X154713629Y-61399671D01*
X154713628Y-61399672D01*
X154713627Y-61399672D01*
X154631552Y-61433669D01*
X154544421Y-61451000D01*
X154455579Y-61451000D01*
X154368448Y-61433669D01*
X154286373Y-61399672D01*
X154286372Y-61399672D01*
X154286371Y-61399671D01*
X154212504Y-61350314D01*
X154149686Y-61287496D01*
X154100329Y-61213629D01*
X154100328Y-61213627D01*
X154066331Y-61131552D01*
X154049000Y-61044421D01*
X154049000Y-60955579D01*
X154066331Y-60868448D01*
X154100328Y-60786373D01*
X154149685Y-60712505D01*
X154212505Y-60649685D01*
X154249187Y-60625175D01*
X154286371Y-60600329D01*
X154286373Y-60600328D01*
X154368448Y-60566331D01*
X154455579Y-60549000D01*
X154544421Y-60549000D01*
X154631552Y-60566331D01*
X154631552Y-60566331D01*
G37*
G36*
X198631552Y-59066331D02*
G01*
X198713627Y-59100328D01*
X198713629Y-59100329D01*
X198750813Y-59125175D01*
X198787495Y-59149685D01*
X198850315Y-59212505D01*
X198899672Y-59286373D01*
X198933669Y-59368448D01*
X198951000Y-59455579D01*
X198951000Y-59544421D01*
X198933669Y-59631552D01*
X198899672Y-59713627D01*
X198899671Y-59713629D01*
X198850314Y-59787496D01*
X198787496Y-59850314D01*
X198713629Y-59899671D01*
X198713628Y-59899672D01*
X198713627Y-59899672D01*
X198631552Y-59933669D01*
X198544421Y-59951000D01*
X198455579Y-59951000D01*
X198368448Y-59933669D01*
X198286373Y-59899672D01*
X198286372Y-59899672D01*
X198286371Y-59899671D01*
X198212504Y-59850314D01*
X198149686Y-59787496D01*
X198100329Y-59713629D01*
X198100328Y-59713627D01*
X198066331Y-59631552D01*
X198049000Y-59544421D01*
X198049000Y-59455579D01*
X198066331Y-59368448D01*
X198100328Y-59286373D01*
X198149685Y-59212505D01*
X198212505Y-59149685D01*
X198249187Y-59125175D01*
X198286371Y-59100329D01*
X198286373Y-59100328D01*
X198368448Y-59066331D01*
X198455579Y-59049000D01*
X198544421Y-59049000D01*
X198631552Y-59066331D01*
X198631552Y-59066331D01*
G37*
G36*
X197131552Y-59066331D02*
G01*
X197213627Y-59100328D01*
X197213629Y-59100329D01*
X197250813Y-59125175D01*
X197287495Y-59149685D01*
X197350315Y-59212505D01*
X197399672Y-59286373D01*
X197433669Y-59368448D01*
X197451000Y-59455579D01*
X197451000Y-59544421D01*
X197433669Y-59631552D01*
X197399672Y-59713627D01*
X197399671Y-59713629D01*
X197350314Y-59787496D01*
X197287496Y-59850314D01*
X197213629Y-59899671D01*
X197213628Y-59899672D01*
X197213627Y-59899672D01*
X197131552Y-59933669D01*
X197044421Y-59951000D01*
X196955579Y-59951000D01*
X196868448Y-59933669D01*
X196786373Y-59899672D01*
X196786372Y-59899672D01*
X196786371Y-59899671D01*
X196712504Y-59850314D01*
X196649686Y-59787496D01*
X196600329Y-59713629D01*
X196600328Y-59713627D01*
X196566331Y-59631552D01*
X196549000Y-59544421D01*
X196549000Y-59455579D01*
X196566331Y-59368448D01*
X196600328Y-59286373D01*
X196649685Y-59212505D01*
X196712505Y-59149685D01*
X196749187Y-59125175D01*
X196786371Y-59100329D01*
X196786373Y-59100328D01*
X196868448Y-59066331D01*
X196955579Y-59049000D01*
X197044421Y-59049000D01*
X197131552Y-59066331D01*
X197131552Y-59066331D01*
G37*
G36*
X195631552Y-59066331D02*
G01*
X195713627Y-59100328D01*
X195713629Y-59100329D01*
X195750813Y-59125175D01*
X195787495Y-59149685D01*
X195850315Y-59212505D01*
X195899672Y-59286373D01*
X195933669Y-59368448D01*
X195951000Y-59455579D01*
X195951000Y-59544421D01*
X195933669Y-59631552D01*
X195899672Y-59713627D01*
X195899671Y-59713629D01*
X195850314Y-59787496D01*
X195787496Y-59850314D01*
X195713629Y-59899671D01*
X195713628Y-59899672D01*
X195713627Y-59899672D01*
X195631552Y-59933669D01*
X195544421Y-59951000D01*
X195455579Y-59951000D01*
X195368448Y-59933669D01*
X195286373Y-59899672D01*
X195286372Y-59899672D01*
X195286371Y-59899671D01*
X195212504Y-59850314D01*
X195149686Y-59787496D01*
X195100329Y-59713629D01*
X195100328Y-59713627D01*
X195066331Y-59631552D01*
X195049000Y-59544421D01*
X195049000Y-59455579D01*
X195066331Y-59368448D01*
X195100328Y-59286373D01*
X195149685Y-59212505D01*
X195212505Y-59149685D01*
X195249187Y-59125175D01*
X195286371Y-59100329D01*
X195286373Y-59100328D01*
X195368448Y-59066331D01*
X195455579Y-59049000D01*
X195544421Y-59049000D01*
X195631552Y-59066331D01*
X195631552Y-59066331D01*
G37*
G36*
X154631552Y-59066331D02*
G01*
X154713627Y-59100328D01*
X154713629Y-59100329D01*
X154750813Y-59125175D01*
X154787495Y-59149685D01*
X154850315Y-59212505D01*
X154899672Y-59286373D01*
X154933669Y-59368448D01*
X154951000Y-59455579D01*
X154951000Y-59544421D01*
X154933669Y-59631552D01*
X154899672Y-59713627D01*
X154899671Y-59713629D01*
X154850314Y-59787496D01*
X154787496Y-59850314D01*
X154713629Y-59899671D01*
X154713628Y-59899672D01*
X154713627Y-59899672D01*
X154631552Y-59933669D01*
X154544421Y-59951000D01*
X154455579Y-59951000D01*
X154368448Y-59933669D01*
X154286373Y-59899672D01*
X154286372Y-59899672D01*
X154286371Y-59899671D01*
X154212504Y-59850314D01*
X154149686Y-59787496D01*
X154100329Y-59713629D01*
X154100328Y-59713627D01*
X154066331Y-59631552D01*
X154049000Y-59544421D01*
X154049000Y-59455579D01*
X154066331Y-59368448D01*
X154100328Y-59286373D01*
X154149685Y-59212505D01*
X154212505Y-59149685D01*
X154249187Y-59125175D01*
X154286371Y-59100329D01*
X154286373Y-59100328D01*
X154368448Y-59066331D01*
X154455579Y-59049000D01*
X154544421Y-59049000D01*
X154631552Y-59066331D01*
X154631552Y-59066331D01*
G37*
G36*
X153131552Y-59066331D02*
G01*
X153213627Y-59100328D01*
X153213629Y-59100329D01*
X153250813Y-59125175D01*
X153287495Y-59149685D01*
X153350315Y-59212505D01*
X153399672Y-59286373D01*
X153433669Y-59368448D01*
X153451000Y-59455579D01*
X153451000Y-59544421D01*
X153433669Y-59631552D01*
X153399672Y-59713627D01*
X153399671Y-59713629D01*
X153350314Y-59787496D01*
X153287496Y-59850314D01*
X153213629Y-59899671D01*
X153213628Y-59899672D01*
X153213627Y-59899672D01*
X153131552Y-59933669D01*
X153044421Y-59951000D01*
X152955579Y-59951000D01*
X152868448Y-59933669D01*
X152786373Y-59899672D01*
X152786372Y-59899672D01*
X152786371Y-59899671D01*
X152712504Y-59850314D01*
X152649686Y-59787496D01*
X152600329Y-59713629D01*
X152600328Y-59713627D01*
X152566331Y-59631552D01*
X152549000Y-59544421D01*
X152549000Y-59455579D01*
X152566331Y-59368448D01*
X152600328Y-59286373D01*
X152649685Y-59212505D01*
X152712505Y-59149685D01*
X152749187Y-59125175D01*
X152786371Y-59100329D01*
X152786373Y-59100328D01*
X152868448Y-59066331D01*
X152955579Y-59049000D01*
X153044421Y-59049000D01*
X153131552Y-59066331D01*
X153131552Y-59066331D01*
G37*
G36*
X151631552Y-59066331D02*
G01*
X151713627Y-59100328D01*
X151713629Y-59100329D01*
X151750813Y-59125175D01*
X151787495Y-59149685D01*
X151850315Y-59212505D01*
X151899672Y-59286373D01*
X151933669Y-59368448D01*
X151951000Y-59455579D01*
X151951000Y-59544421D01*
X151933669Y-59631552D01*
X151899672Y-59713627D01*
X151899671Y-59713629D01*
X151850314Y-59787496D01*
X151787496Y-59850314D01*
X151713629Y-59899671D01*
X151713628Y-59899672D01*
X151713627Y-59899672D01*
X151631552Y-59933669D01*
X151544421Y-59951000D01*
X151455579Y-59951000D01*
X151368448Y-59933669D01*
X151286373Y-59899672D01*
X151286372Y-59899672D01*
X151286371Y-59899671D01*
X151212504Y-59850314D01*
X151149686Y-59787496D01*
X151100329Y-59713629D01*
X151100328Y-59713627D01*
X151066331Y-59631552D01*
X151049000Y-59544421D01*
X151049000Y-59455579D01*
X151066331Y-59368448D01*
X151100328Y-59286373D01*
X151149685Y-59212505D01*
X151212505Y-59149685D01*
X151249187Y-59125175D01*
X151286371Y-59100329D01*
X151286373Y-59100328D01*
X151368448Y-59066331D01*
X151455579Y-59049000D01*
X151544421Y-59049000D01*
X151631552Y-59066331D01*
X151631552Y-59066331D01*
G37*
G36*
X172289943Y-52066248D02*
G01*
X172845189Y-52296238D01*
X172862557Y-52307843D01*
X173344899Y-52630134D01*
X173769866Y-53055101D01*
X173779210Y-53069086D01*
X174103762Y-53554811D01*
X174333752Y-54110057D01*
X174451000Y-54699501D01*
X174451000Y-55300499D01*
X174333752Y-55889943D01*
X174103762Y-56445189D01*
X174103761Y-56445190D01*
X173769866Y-56944899D01*
X173344899Y-57369866D01*
X173093347Y-57537948D01*
X172845189Y-57703762D01*
X172289943Y-57933752D01*
X171700499Y-58051000D01*
X171099501Y-58051000D01*
X170510057Y-57933752D01*
X169954811Y-57703762D01*
X169706653Y-57537948D01*
X169455101Y-57369866D01*
X169030134Y-56944899D01*
X168696239Y-56445190D01*
X168696238Y-56445189D01*
X168466248Y-55889943D01*
X168349000Y-55300499D01*
X168349000Y-54699501D01*
X168466248Y-54110057D01*
X168696238Y-53554811D01*
X169020790Y-53069086D01*
X169030134Y-53055101D01*
X169455101Y-52630134D01*
X169937443Y-52307843D01*
X169954811Y-52296238D01*
X170510057Y-52066248D01*
X171099501Y-51949000D01*
X171700499Y-51949000D01*
X172289943Y-52066248D01*
X172289943Y-52066248D01*
G37*
G36*
X179489943Y-52066248D02*
G01*
X180045189Y-52296238D01*
X180062557Y-52307843D01*
X180544899Y-52630134D01*
X180969866Y-53055101D01*
X180979210Y-53069086D01*
X181303762Y-53554811D01*
X181533752Y-54110057D01*
X181651000Y-54699501D01*
X181651000Y-55300499D01*
X181533752Y-55889943D01*
X181303762Y-56445189D01*
X181303761Y-56445190D01*
X180969866Y-56944899D01*
X180544899Y-57369866D01*
X180293347Y-57537948D01*
X180045189Y-57703762D01*
X179489943Y-57933752D01*
X178900499Y-58051000D01*
X178299501Y-58051000D01*
X177710057Y-57933752D01*
X177154811Y-57703762D01*
X176906653Y-57537948D01*
X176655101Y-57369866D01*
X176230134Y-56944899D01*
X175896239Y-56445190D01*
X175896238Y-56445189D01*
X175666248Y-55889943D01*
X175549000Y-55300499D01*
X175549000Y-54699501D01*
X175666248Y-54110057D01*
X175896238Y-53554811D01*
X176220790Y-53069086D01*
X176230134Y-53055101D01*
X176655101Y-52630134D01*
X177137443Y-52307843D01*
X177154811Y-52296238D01*
X177710057Y-52066248D01*
X178299501Y-51949000D01*
X178900499Y-51949000D01*
X179489943Y-52066248D01*
X179489943Y-52066248D01*
G37*
G36*
X161131552Y-54066331D02*
G01*
X161213627Y-54100328D01*
X161213629Y-54100329D01*
X161250813Y-54125175D01*
X161287495Y-54149685D01*
X161350315Y-54212505D01*
X161399672Y-54286373D01*
X161433669Y-54368448D01*
X161451000Y-54455579D01*
X161451000Y-54544421D01*
X161433669Y-54631552D01*
X161405523Y-54699501D01*
X161399671Y-54713629D01*
X161350314Y-54787496D01*
X161287496Y-54850314D01*
X161213629Y-54899671D01*
X161213628Y-54899672D01*
X161213627Y-54899672D01*
X161131552Y-54933669D01*
X161044421Y-54951000D01*
X160955579Y-54951000D01*
X160868448Y-54933669D01*
X160786373Y-54899672D01*
X160786372Y-54899672D01*
X160786371Y-54899671D01*
X160712504Y-54850314D01*
X160649686Y-54787496D01*
X160600329Y-54713629D01*
X160594477Y-54699501D01*
X160566331Y-54631552D01*
X160549000Y-54544421D01*
X160549000Y-54455579D01*
X160566331Y-54368448D01*
X160600328Y-54286373D01*
X160649685Y-54212505D01*
X160712505Y-54149685D01*
X160749187Y-54125175D01*
X160786371Y-54100329D01*
X160786373Y-54100328D01*
X160868448Y-54066331D01*
X160955579Y-54049000D01*
X161044421Y-54049000D01*
X161131552Y-54066331D01*
X161131552Y-54066331D01*
G37*
G36*
X162631552Y-54066331D02*
G01*
X162713627Y-54100328D01*
X162713629Y-54100329D01*
X162750813Y-54125175D01*
X162787495Y-54149685D01*
X162850315Y-54212505D01*
X162899672Y-54286373D01*
X162933669Y-54368448D01*
X162951000Y-54455579D01*
X162951000Y-54544421D01*
X162933669Y-54631552D01*
X162905523Y-54699501D01*
X162899671Y-54713629D01*
X162850314Y-54787496D01*
X162787496Y-54850314D01*
X162713629Y-54899671D01*
X162713628Y-54899672D01*
X162713627Y-54899672D01*
X162631552Y-54933669D01*
X162544421Y-54951000D01*
X162455579Y-54951000D01*
X162368448Y-54933669D01*
X162286373Y-54899672D01*
X162286372Y-54899672D01*
X162286371Y-54899671D01*
X162212504Y-54850314D01*
X162149686Y-54787496D01*
X162100329Y-54713629D01*
X162094477Y-54699501D01*
X162066331Y-54631552D01*
X162049000Y-54544421D01*
X162049000Y-54455579D01*
X162066331Y-54368448D01*
X162100328Y-54286373D01*
X162149685Y-54212505D01*
X162212505Y-54149685D01*
X162249187Y-54125175D01*
X162286371Y-54100329D01*
X162286373Y-54100328D01*
X162368448Y-54066331D01*
X162455579Y-54049000D01*
X162544421Y-54049000D01*
X162631552Y-54066331D01*
X162631552Y-54066331D01*
G37*
G36*
X190631552Y-54066331D02*
G01*
X190713627Y-54100328D01*
X190713629Y-54100329D01*
X190750813Y-54125175D01*
X190787495Y-54149685D01*
X190850315Y-54212505D01*
X190899672Y-54286373D01*
X190933669Y-54368448D01*
X190951000Y-54455579D01*
X190951000Y-54544421D01*
X190933669Y-54631552D01*
X190905523Y-54699501D01*
X190899671Y-54713629D01*
X190850314Y-54787496D01*
X190787496Y-54850314D01*
X190713629Y-54899671D01*
X190713628Y-54899672D01*
X190713627Y-54899672D01*
X190631552Y-54933669D01*
X190544421Y-54951000D01*
X190455579Y-54951000D01*
X190368448Y-54933669D01*
X190286373Y-54899672D01*
X190286372Y-54899672D01*
X190286371Y-54899671D01*
X190212504Y-54850314D01*
X190149686Y-54787496D01*
X190100329Y-54713629D01*
X190094477Y-54699501D01*
X190066331Y-54631552D01*
X190049000Y-54544421D01*
X190049000Y-54455579D01*
X190066331Y-54368448D01*
X190100328Y-54286373D01*
X190149685Y-54212505D01*
X190212505Y-54149685D01*
X190249187Y-54125175D01*
X190286371Y-54100329D01*
X190286373Y-54100328D01*
X190368448Y-54066331D01*
X190455579Y-54049000D01*
X190544421Y-54049000D01*
X190631552Y-54066331D01*
X190631552Y-54066331D01*
G37*
G36*
X159631552Y-54066331D02*
G01*
X159713627Y-54100328D01*
X159713629Y-54100329D01*
X159750813Y-54125175D01*
X159787495Y-54149685D01*
X159850315Y-54212505D01*
X159899672Y-54286373D01*
X159933669Y-54368448D01*
X159951000Y-54455579D01*
X159951000Y-54544421D01*
X159933669Y-54631552D01*
X159905523Y-54699501D01*
X159899671Y-54713629D01*
X159850314Y-54787496D01*
X159787496Y-54850314D01*
X159713629Y-54899671D01*
X159713628Y-54899672D01*
X159713627Y-54899672D01*
X159631552Y-54933669D01*
X159544421Y-54951000D01*
X159455579Y-54951000D01*
X159368448Y-54933669D01*
X159286373Y-54899672D01*
X159286372Y-54899672D01*
X159286371Y-54899671D01*
X159212504Y-54850314D01*
X159149686Y-54787496D01*
X159100329Y-54713629D01*
X159094477Y-54699501D01*
X159066331Y-54631552D01*
X159049000Y-54544421D01*
X159049000Y-54455579D01*
X159066331Y-54368448D01*
X159100328Y-54286373D01*
X159149685Y-54212505D01*
X159212505Y-54149685D01*
X159249187Y-54125175D01*
X159286371Y-54100329D01*
X159286373Y-54100328D01*
X159368448Y-54066331D01*
X159455579Y-54049000D01*
X159544421Y-54049000D01*
X159631552Y-54066331D01*
X159631552Y-54066331D01*
G37*
G36*
X189131552Y-54066331D02*
G01*
X189213627Y-54100328D01*
X189213629Y-54100329D01*
X189250813Y-54125175D01*
X189287495Y-54149685D01*
X189350315Y-54212505D01*
X189399672Y-54286373D01*
X189433669Y-54368448D01*
X189451000Y-54455579D01*
X189451000Y-54544421D01*
X189433669Y-54631552D01*
X189405523Y-54699501D01*
X189399671Y-54713629D01*
X189350314Y-54787496D01*
X189287496Y-54850314D01*
X189213629Y-54899671D01*
X189213628Y-54899672D01*
X189213627Y-54899672D01*
X189131552Y-54933669D01*
X189044421Y-54951000D01*
X188955579Y-54951000D01*
X188868448Y-54933669D01*
X188786373Y-54899672D01*
X188786372Y-54899672D01*
X188786371Y-54899671D01*
X188712504Y-54850314D01*
X188649686Y-54787496D01*
X188600329Y-54713629D01*
X188594477Y-54699501D01*
X188566331Y-54631552D01*
X188549000Y-54544421D01*
X188549000Y-54455579D01*
X188566331Y-54368448D01*
X188600328Y-54286373D01*
X188649685Y-54212505D01*
X188712505Y-54149685D01*
X188749187Y-54125175D01*
X188786371Y-54100329D01*
X188786373Y-54100328D01*
X188868448Y-54066331D01*
X188955579Y-54049000D01*
X189044421Y-54049000D01*
X189131552Y-54066331D01*
X189131552Y-54066331D01*
G37*
G36*
X187631552Y-54066331D02*
G01*
X187713627Y-54100328D01*
X187713629Y-54100329D01*
X187750813Y-54125175D01*
X187787495Y-54149685D01*
X187850315Y-54212505D01*
X187899672Y-54286373D01*
X187933669Y-54368448D01*
X187951000Y-54455579D01*
X187951000Y-54544421D01*
X187933669Y-54631552D01*
X187905523Y-54699501D01*
X187899671Y-54713629D01*
X187850314Y-54787496D01*
X187787496Y-54850314D01*
X187713629Y-54899671D01*
X187713628Y-54899672D01*
X187713627Y-54899672D01*
X187631552Y-54933669D01*
X187544421Y-54951000D01*
X187455579Y-54951000D01*
X187368448Y-54933669D01*
X187286373Y-54899672D01*
X187286372Y-54899672D01*
X187286371Y-54899671D01*
X187212504Y-54850314D01*
X187149686Y-54787496D01*
X187100329Y-54713629D01*
X187094477Y-54699501D01*
X187066331Y-54631552D01*
X187049000Y-54544421D01*
X187049000Y-54455579D01*
X187066331Y-54368448D01*
X187100328Y-54286373D01*
X187149685Y-54212505D01*
X187212505Y-54149685D01*
X187249187Y-54125175D01*
X187286371Y-54100329D01*
X187286373Y-54100328D01*
X187368448Y-54066331D01*
X187455579Y-54049000D01*
X187544421Y-54049000D01*
X187631552Y-54066331D01*
X187631552Y-54066331D01*
G37*
G36*
X153069085Y-50623975D02*
G01*
X153424143Y-50771045D01*
X153424145Y-50771046D01*
X153743690Y-50984559D01*
X154015441Y-51256310D01*
X154207950Y-51544421D01*
X154228955Y-51575857D01*
X154376025Y-51930915D01*
X154451000Y-52307842D01*
X154451000Y-52692158D01*
X154376025Y-53069085D01*
X154239091Y-53399672D01*
X154228954Y-53424145D01*
X154015441Y-53743690D01*
X153743690Y-54015441D01*
X153424145Y-54228954D01*
X153424144Y-54228955D01*
X153424143Y-54228955D01*
X153069085Y-54376025D01*
X152692158Y-54451000D01*
X152307842Y-54451000D01*
X151930915Y-54376025D01*
X151575857Y-54228955D01*
X151575856Y-54228955D01*
X151575855Y-54228954D01*
X151256310Y-54015441D01*
X150984559Y-53743690D01*
X150771046Y-53424145D01*
X150760909Y-53399672D01*
X150623975Y-53069085D01*
X150549000Y-52692158D01*
X150549000Y-52307842D01*
X150623975Y-51930915D01*
X150771045Y-51575857D01*
X150792050Y-51544421D01*
X150984559Y-51256310D01*
X151256310Y-50984559D01*
X151575855Y-50771046D01*
X151575857Y-50771045D01*
X151930915Y-50623975D01*
X152307842Y-50549000D01*
X152692158Y-50549000D01*
X153069085Y-50623975D01*
X153069085Y-50623975D01*
G37*
G36*
X198069085Y-50623975D02*
G01*
X198424143Y-50771045D01*
X198424145Y-50771046D01*
X198743690Y-50984559D01*
X199015441Y-51256310D01*
X199207950Y-51544421D01*
X199228955Y-51575857D01*
X199376025Y-51930915D01*
X199451000Y-52307842D01*
X199451000Y-52692158D01*
X199376025Y-53069085D01*
X199239091Y-53399672D01*
X199228954Y-53424145D01*
X199015441Y-53743690D01*
X198743690Y-54015441D01*
X198424145Y-54228954D01*
X198424144Y-54228955D01*
X198424143Y-54228955D01*
X198069085Y-54376025D01*
X197692158Y-54451000D01*
X197307842Y-54451000D01*
X196930915Y-54376025D01*
X196575857Y-54228955D01*
X196575856Y-54228955D01*
X196575855Y-54228954D01*
X196256310Y-54015441D01*
X195984559Y-53743690D01*
X195771046Y-53424145D01*
X195760909Y-53399672D01*
X195623975Y-53069085D01*
X195549000Y-52692158D01*
X195549000Y-52307842D01*
X195623975Y-51930915D01*
X195771045Y-51575857D01*
X195792050Y-51544421D01*
X195984559Y-51256310D01*
X196256310Y-50984559D01*
X196575855Y-50771046D01*
X196575857Y-50771045D01*
X196930915Y-50623975D01*
X197307842Y-50549000D01*
X197692158Y-50549000D01*
X198069085Y-50623975D01*
X198069085Y-50623975D01*
G37*
G36*
X159631552Y-52566331D02*
G01*
X159713627Y-52600328D01*
X159713629Y-52600329D01*
X159750813Y-52625175D01*
X159787495Y-52649685D01*
X159850315Y-52712505D01*
X159899672Y-52786373D01*
X159933669Y-52868448D01*
X159951000Y-52955579D01*
X159951000Y-53044421D01*
X159933669Y-53131552D01*
X159899672Y-53213627D01*
X159899671Y-53213629D01*
X159850314Y-53287496D01*
X159787496Y-53350314D01*
X159713629Y-53399671D01*
X159713628Y-53399672D01*
X159713627Y-53399672D01*
X159631552Y-53433669D01*
X159544421Y-53451000D01*
X159455579Y-53451000D01*
X159368448Y-53433669D01*
X159286373Y-53399672D01*
X159286372Y-53399672D01*
X159286371Y-53399671D01*
X159212504Y-53350314D01*
X159149686Y-53287496D01*
X159100329Y-53213629D01*
X159100328Y-53213627D01*
X159066331Y-53131552D01*
X159049000Y-53044421D01*
X159049000Y-52955579D01*
X159066331Y-52868448D01*
X159100328Y-52786373D01*
X159149685Y-52712505D01*
X159212505Y-52649685D01*
X159249187Y-52625175D01*
X159286371Y-52600329D01*
X159286373Y-52600328D01*
X159368448Y-52566331D01*
X159455579Y-52549000D01*
X159544421Y-52549000D01*
X159631552Y-52566331D01*
X159631552Y-52566331D01*
G37*
G36*
X161131552Y-52566331D02*
G01*
X161213627Y-52600328D01*
X161213629Y-52600329D01*
X161250813Y-52625175D01*
X161287495Y-52649685D01*
X161350315Y-52712505D01*
X161399672Y-52786373D01*
X161433669Y-52868448D01*
X161451000Y-52955579D01*
X161451000Y-53044421D01*
X161433669Y-53131552D01*
X161399672Y-53213627D01*
X161399671Y-53213629D01*
X161350314Y-53287496D01*
X161287496Y-53350314D01*
X161213629Y-53399671D01*
X161213628Y-53399672D01*
X161213627Y-53399672D01*
X161131552Y-53433669D01*
X161044421Y-53451000D01*
X160955579Y-53451000D01*
X160868448Y-53433669D01*
X160786373Y-53399672D01*
X160786372Y-53399672D01*
X160786371Y-53399671D01*
X160712504Y-53350314D01*
X160649686Y-53287496D01*
X160600329Y-53213629D01*
X160600328Y-53213627D01*
X160566331Y-53131552D01*
X160549000Y-53044421D01*
X160549000Y-52955579D01*
X160566331Y-52868448D01*
X160600328Y-52786373D01*
X160649685Y-52712505D01*
X160712505Y-52649685D01*
X160749187Y-52625175D01*
X160786371Y-52600329D01*
X160786373Y-52600328D01*
X160868448Y-52566331D01*
X160955579Y-52549000D01*
X161044421Y-52549000D01*
X161131552Y-52566331D01*
X161131552Y-52566331D01*
G37*
G36*
X162631552Y-52566331D02*
G01*
X162713627Y-52600328D01*
X162713629Y-52600329D01*
X162750813Y-52625175D01*
X162787495Y-52649685D01*
X162850315Y-52712505D01*
X162899672Y-52786373D01*
X162933669Y-52868448D01*
X162951000Y-52955579D01*
X162951000Y-53044421D01*
X162933669Y-53131552D01*
X162899672Y-53213627D01*
X162899671Y-53213629D01*
X162850314Y-53287496D01*
X162787496Y-53350314D01*
X162713629Y-53399671D01*
X162713628Y-53399672D01*
X162713627Y-53399672D01*
X162631552Y-53433669D01*
X162544421Y-53451000D01*
X162455579Y-53451000D01*
X162368448Y-53433669D01*
X162286373Y-53399672D01*
X162286372Y-53399672D01*
X162286371Y-53399671D01*
X162212504Y-53350314D01*
X162149686Y-53287496D01*
X162100329Y-53213629D01*
X162100328Y-53213627D01*
X162066331Y-53131552D01*
X162049000Y-53044421D01*
X162049000Y-52955579D01*
X162066331Y-52868448D01*
X162100328Y-52786373D01*
X162149685Y-52712505D01*
X162212505Y-52649685D01*
X162249187Y-52625175D01*
X162286371Y-52600329D01*
X162286373Y-52600328D01*
X162368448Y-52566331D01*
X162455579Y-52549000D01*
X162544421Y-52549000D01*
X162631552Y-52566331D01*
X162631552Y-52566331D01*
G37*
G36*
X187631552Y-52566331D02*
G01*
X187713627Y-52600328D01*
X187713629Y-52600329D01*
X187750813Y-52625175D01*
X187787495Y-52649685D01*
X187850315Y-52712505D01*
X187899672Y-52786373D01*
X187933669Y-52868448D01*
X187951000Y-52955579D01*
X187951000Y-53044421D01*
X187933669Y-53131552D01*
X187899672Y-53213627D01*
X187899671Y-53213629D01*
X187850314Y-53287496D01*
X187787496Y-53350314D01*
X187713629Y-53399671D01*
X187713628Y-53399672D01*
X187713627Y-53399672D01*
X187631552Y-53433669D01*
X187544421Y-53451000D01*
X187455579Y-53451000D01*
X187368448Y-53433669D01*
X187286373Y-53399672D01*
X187286372Y-53399672D01*
X187286371Y-53399671D01*
X187212504Y-53350314D01*
X187149686Y-53287496D01*
X187100329Y-53213629D01*
X187100328Y-53213627D01*
X187066331Y-53131552D01*
X187049000Y-53044421D01*
X187049000Y-52955579D01*
X187066331Y-52868448D01*
X187100328Y-52786373D01*
X187149685Y-52712505D01*
X187212505Y-52649685D01*
X187249187Y-52625175D01*
X187286371Y-52600329D01*
X187286373Y-52600328D01*
X187368448Y-52566331D01*
X187455579Y-52549000D01*
X187544421Y-52549000D01*
X187631552Y-52566331D01*
X187631552Y-52566331D01*
G37*
G36*
X189131552Y-52566331D02*
G01*
X189213627Y-52600328D01*
X189213629Y-52600329D01*
X189250813Y-52625175D01*
X189287495Y-52649685D01*
X189350315Y-52712505D01*
X189399672Y-52786373D01*
X189433669Y-52868448D01*
X189451000Y-52955579D01*
X189451000Y-53044421D01*
X189433669Y-53131552D01*
X189399672Y-53213627D01*
X189399671Y-53213629D01*
X189350314Y-53287496D01*
X189287496Y-53350314D01*
X189213629Y-53399671D01*
X189213628Y-53399672D01*
X189213627Y-53399672D01*
X189131552Y-53433669D01*
X189044421Y-53451000D01*
X188955579Y-53451000D01*
X188868448Y-53433669D01*
X188786373Y-53399672D01*
X188786372Y-53399672D01*
X188786371Y-53399671D01*
X188712504Y-53350314D01*
X188649686Y-53287496D01*
X188600329Y-53213629D01*
X188600328Y-53213627D01*
X188566331Y-53131552D01*
X188549000Y-53044421D01*
X188549000Y-52955579D01*
X188566331Y-52868448D01*
X188600328Y-52786373D01*
X188649685Y-52712505D01*
X188712505Y-52649685D01*
X188749187Y-52625175D01*
X188786371Y-52600329D01*
X188786373Y-52600328D01*
X188868448Y-52566331D01*
X188955579Y-52549000D01*
X189044421Y-52549000D01*
X189131552Y-52566331D01*
X189131552Y-52566331D01*
G37*
G36*
X190631552Y-52566331D02*
G01*
X190713627Y-52600328D01*
X190713629Y-52600329D01*
X190750813Y-52625175D01*
X190787495Y-52649685D01*
X190850315Y-52712505D01*
X190899672Y-52786373D01*
X190933669Y-52868448D01*
X190951000Y-52955579D01*
X190951000Y-53044421D01*
X190933669Y-53131552D01*
X190899672Y-53213627D01*
X190899671Y-53213629D01*
X190850314Y-53287496D01*
X190787496Y-53350314D01*
X190713629Y-53399671D01*
X190713628Y-53399672D01*
X190713627Y-53399672D01*
X190631552Y-53433669D01*
X190544421Y-53451000D01*
X190455579Y-53451000D01*
X190368448Y-53433669D01*
X190286373Y-53399672D01*
X190286372Y-53399672D01*
X190286371Y-53399671D01*
X190212504Y-53350314D01*
X190149686Y-53287496D01*
X190100329Y-53213629D01*
X190100328Y-53213627D01*
X190066331Y-53131552D01*
X190049000Y-53044421D01*
X190049000Y-52955579D01*
X190066331Y-52868448D01*
X190100328Y-52786373D01*
X190149685Y-52712505D01*
X190212505Y-52649685D01*
X190249187Y-52625175D01*
X190286371Y-52600329D01*
X190286373Y-52600328D01*
X190368448Y-52566331D01*
X190455579Y-52549000D01*
X190544421Y-52549000D01*
X190631552Y-52566331D01*
X190631552Y-52566331D01*
G37*
G36*
X162631552Y-51066331D02*
G01*
X162713627Y-51100328D01*
X162713629Y-51100329D01*
X162750813Y-51125175D01*
X162787495Y-51149685D01*
X162850315Y-51212505D01*
X162899672Y-51286373D01*
X162933669Y-51368448D01*
X162951000Y-51455579D01*
X162951000Y-51544421D01*
X162933669Y-51631552D01*
X162899672Y-51713627D01*
X162899671Y-51713629D01*
X162850314Y-51787496D01*
X162787496Y-51850314D01*
X162713629Y-51899671D01*
X162713628Y-51899672D01*
X162713627Y-51899672D01*
X162631552Y-51933669D01*
X162544421Y-51951000D01*
X162455579Y-51951000D01*
X162368448Y-51933669D01*
X162286373Y-51899672D01*
X162286372Y-51899672D01*
X162286371Y-51899671D01*
X162212504Y-51850314D01*
X162149686Y-51787496D01*
X162100329Y-51713629D01*
X162100328Y-51713627D01*
X162066331Y-51631552D01*
X162049000Y-51544421D01*
X162049000Y-51455579D01*
X162066331Y-51368448D01*
X162100328Y-51286373D01*
X162149685Y-51212505D01*
X162212505Y-51149685D01*
X162249187Y-51125175D01*
X162286371Y-51100329D01*
X162286373Y-51100328D01*
X162368448Y-51066331D01*
X162455579Y-51049000D01*
X162544421Y-51049000D01*
X162631552Y-51066331D01*
X162631552Y-51066331D01*
G37*
G36*
X187631552Y-51066331D02*
G01*
X187713627Y-51100328D01*
X187713629Y-51100329D01*
X187750813Y-51125175D01*
X187787495Y-51149685D01*
X187850315Y-51212505D01*
X187899672Y-51286373D01*
X187933669Y-51368448D01*
X187951000Y-51455579D01*
X187951000Y-51544421D01*
X187933669Y-51631552D01*
X187899672Y-51713627D01*
X187899671Y-51713629D01*
X187850314Y-51787496D01*
X187787496Y-51850314D01*
X187713629Y-51899671D01*
X187713628Y-51899672D01*
X187713627Y-51899672D01*
X187631552Y-51933669D01*
X187544421Y-51951000D01*
X187455579Y-51951000D01*
X187368448Y-51933669D01*
X187286373Y-51899672D01*
X187286372Y-51899672D01*
X187286371Y-51899671D01*
X187212504Y-51850314D01*
X187149686Y-51787496D01*
X187100329Y-51713629D01*
X187100328Y-51713627D01*
X187066331Y-51631552D01*
X187049000Y-51544421D01*
X187049000Y-51455579D01*
X187066331Y-51368448D01*
X187100328Y-51286373D01*
X187149685Y-51212505D01*
X187212505Y-51149685D01*
X187249187Y-51125175D01*
X187286371Y-51100329D01*
X187286373Y-51100328D01*
X187368448Y-51066331D01*
X187455579Y-51049000D01*
X187544421Y-51049000D01*
X187631552Y-51066331D01*
X187631552Y-51066331D01*
G37*
G36*
X189131552Y-51066331D02*
G01*
X189213627Y-51100328D01*
X189213629Y-51100329D01*
X189250813Y-51125175D01*
X189287495Y-51149685D01*
X189350315Y-51212505D01*
X189399672Y-51286373D01*
X189433669Y-51368448D01*
X189451000Y-51455579D01*
X189451000Y-51544421D01*
X189433669Y-51631552D01*
X189399672Y-51713627D01*
X189399671Y-51713629D01*
X189350314Y-51787496D01*
X189287496Y-51850314D01*
X189213629Y-51899671D01*
X189213628Y-51899672D01*
X189213627Y-51899672D01*
X189131552Y-51933669D01*
X189044421Y-51951000D01*
X188955579Y-51951000D01*
X188868448Y-51933669D01*
X188786373Y-51899672D01*
X188786372Y-51899672D01*
X188786371Y-51899671D01*
X188712504Y-51850314D01*
X188649686Y-51787496D01*
X188600329Y-51713629D01*
X188600328Y-51713627D01*
X188566331Y-51631552D01*
X188549000Y-51544421D01*
X188549000Y-51455579D01*
X188566331Y-51368448D01*
X188600328Y-51286373D01*
X188649685Y-51212505D01*
X188712505Y-51149685D01*
X188749187Y-51125175D01*
X188786371Y-51100329D01*
X188786373Y-51100328D01*
X188868448Y-51066331D01*
X188955579Y-51049000D01*
X189044421Y-51049000D01*
X189131552Y-51066331D01*
X189131552Y-51066331D01*
G37*
G36*
X190631552Y-51066331D02*
G01*
X190713627Y-51100328D01*
X190713629Y-51100329D01*
X190750813Y-51125175D01*
X190787495Y-51149685D01*
X190850315Y-51212505D01*
X190899672Y-51286373D01*
X190933669Y-51368448D01*
X190951000Y-51455579D01*
X190951000Y-51544421D01*
X190933669Y-51631552D01*
X190899672Y-51713627D01*
X190899671Y-51713629D01*
X190850314Y-51787496D01*
X190787496Y-51850314D01*
X190713629Y-51899671D01*
X190713628Y-51899672D01*
X190713627Y-51899672D01*
X190631552Y-51933669D01*
X190544421Y-51951000D01*
X190455579Y-51951000D01*
X190368448Y-51933669D01*
X190286373Y-51899672D01*
X190286372Y-51899672D01*
X190286371Y-51899671D01*
X190212504Y-51850314D01*
X190149686Y-51787496D01*
X190100329Y-51713629D01*
X190100328Y-51713627D01*
X190066331Y-51631552D01*
X190049000Y-51544421D01*
X190049000Y-51455579D01*
X190066331Y-51368448D01*
X190100328Y-51286373D01*
X190149685Y-51212505D01*
X190212505Y-51149685D01*
X190249187Y-51125175D01*
X190286371Y-51100329D01*
X190286373Y-51100328D01*
X190368448Y-51066331D01*
X190455579Y-51049000D01*
X190544421Y-51049000D01*
X190631552Y-51066331D01*
X190631552Y-51066331D01*
G37*
G36*
X161131552Y-51066331D02*
G01*
X161213627Y-51100328D01*
X161213629Y-51100329D01*
X161250813Y-51125175D01*
X161287495Y-51149685D01*
X161350315Y-51212505D01*
X161399672Y-51286373D01*
X161433669Y-51368448D01*
X161451000Y-51455579D01*
X161451000Y-51544421D01*
X161433669Y-51631552D01*
X161399672Y-51713627D01*
X161399671Y-51713629D01*
X161350314Y-51787496D01*
X161287496Y-51850314D01*
X161213629Y-51899671D01*
X161213628Y-51899672D01*
X161213627Y-51899672D01*
X161131552Y-51933669D01*
X161044421Y-51951000D01*
X160955579Y-51951000D01*
X160868448Y-51933669D01*
X160786373Y-51899672D01*
X160786372Y-51899672D01*
X160786371Y-51899671D01*
X160712504Y-51850314D01*
X160649686Y-51787496D01*
X160600329Y-51713629D01*
X160600328Y-51713627D01*
X160566331Y-51631552D01*
X160549000Y-51544421D01*
X160549000Y-51455579D01*
X160566331Y-51368448D01*
X160600328Y-51286373D01*
X160649685Y-51212505D01*
X160712505Y-51149685D01*
X160749187Y-51125175D01*
X160786371Y-51100329D01*
X160786373Y-51100328D01*
X160868448Y-51066331D01*
X160955579Y-51049000D01*
X161044421Y-51049000D01*
X161131552Y-51066331D01*
X161131552Y-51066331D01*
G37*
G36*
X159631552Y-51066331D02*
G01*
X159713627Y-51100328D01*
X159713629Y-51100329D01*
X159750813Y-51125175D01*
X159787495Y-51149685D01*
X159850315Y-51212505D01*
X159899672Y-51286373D01*
X159933669Y-51368448D01*
X159951000Y-51455579D01*
X159951000Y-51544421D01*
X159933669Y-51631552D01*
X159899672Y-51713627D01*
X159899671Y-51713629D01*
X159850314Y-51787496D01*
X159787496Y-51850314D01*
X159713629Y-51899671D01*
X159713628Y-51899672D01*
X159713627Y-51899672D01*
X159631552Y-51933669D01*
X159544421Y-51951000D01*
X159455579Y-51951000D01*
X159368448Y-51933669D01*
X159286373Y-51899672D01*
X159286372Y-51899672D01*
X159286371Y-51899671D01*
X159212504Y-51850314D01*
X159149686Y-51787496D01*
X159100329Y-51713629D01*
X159100328Y-51713627D01*
X159066331Y-51631552D01*
X159049000Y-51544421D01*
X159049000Y-51455579D01*
X159066331Y-51368448D01*
X159100328Y-51286373D01*
X159149685Y-51212505D01*
X159212505Y-51149685D01*
X159249187Y-51125175D01*
X159286371Y-51100329D01*
X159286373Y-51100328D01*
X159368448Y-51066331D01*
X159455579Y-51049000D01*
X159544421Y-51049000D01*
X159631552Y-51066331D01*
X159631552Y-51066331D01*
G37*
M02*
