G04 #@! TF.GenerationSoftware,KiCad,Pcbnew,(5.1.8)-1*
G04 #@! TF.CreationDate,2021-01-03T13:20:31-07:00*
G04 #@! TF.ProjectId,Flight-Controller-PCB,466c6967-6874-42d4-936f-6e74726f6c6c,rev?*
G04 #@! TF.SameCoordinates,Original*
G04 #@! TF.FileFunction,Copper,L2,Bot*
G04 #@! TF.FilePolarity,Positive*
%FSLAX46Y46*%
G04 Gerber Fmt 4.6, Leading zero omitted, Abs format (unit mm)*
G04 Created by KiCad (PCBNEW (5.1.8)-1) date 2021-01-03 13:20:31*
%MOMM*%
%LPD*%
G01*
G04 APERTURE LIST*
G04 #@! TA.AperFunction,ComponentPad*
%ADD10C,3.500000*%
G04 #@! TD*
G04 #@! TA.AperFunction,ComponentPad*
%ADD11R,1.700000X1.700000*%
G04 #@! TD*
G04 #@! TA.AperFunction,ComponentPad*
%ADD12O,1.700000X1.700000*%
G04 #@! TD*
G04 #@! TA.AperFunction,ComponentPad*
%ADD13C,1.450000*%
G04 #@! TD*
G04 #@! TA.AperFunction,ComponentPad*
%ADD14O,1.900000X1.200000*%
G04 #@! TD*
G04 #@! TA.AperFunction,ViaPad*
%ADD15C,0.800000*%
G04 #@! TD*
G04 #@! TA.AperFunction,Conductor*
%ADD16C,0.254000*%
G04 #@! TD*
G04 #@! TA.AperFunction,Conductor*
%ADD17C,0.100000*%
G04 #@! TD*
G04 APERTURE END LIST*
D10*
X111402000Y-91798000D03*
X66398000Y-91798000D03*
X66398000Y-136800000D03*
X111402000Y-136800000D03*
D11*
X91425000Y-99314000D03*
D12*
X91425000Y-101854000D03*
X88885000Y-99314000D03*
X88885000Y-101854000D03*
X86345000Y-99314000D03*
X86345000Y-101854000D03*
D13*
X107794500Y-123447842D03*
X107794500Y-118447842D03*
D14*
X110494500Y-124447842D03*
X110494500Y-117447842D03*
D15*
X92456000Y-116459000D03*
X97028000Y-137160000D03*
X100330000Y-109347000D03*
X98806000Y-123317000D03*
X93091000Y-111506000D03*
X98806000Y-104140000D03*
X92392500Y-104965500D03*
X91948000Y-135636000D03*
X102108000Y-136398000D03*
X98806000Y-125476000D03*
X97002600Y-120777000D03*
X104648000Y-130606800D03*
X85496400Y-116128800D03*
X79197200Y-118313200D03*
X72644000Y-129286000D03*
X100838000Y-131572000D03*
X80772000Y-128016000D03*
X87884000Y-107696000D03*
X84328000Y-105410000D03*
X98298000Y-118364000D03*
X90932000Y-112268000D03*
X75247500Y-120840500D03*
X74739500Y-110744000D03*
X109918500Y-112395000D03*
X105346500Y-111823500D03*
X112776000Y-133540500D03*
X108712000Y-138176000D03*
X112014000Y-129286000D03*
X85090000Y-128270000D03*
X92710000Y-128270000D03*
X88900000Y-124460000D03*
X88900000Y-132080000D03*
X88900000Y-128270000D03*
X69342000Y-137414000D03*
X108966000Y-90424000D03*
X101324598Y-130260132D03*
X99695000Y-124841000D03*
X83947000Y-109347000D03*
X88963500Y-110299500D03*
X78867000Y-133096000D03*
X69342000Y-94996000D03*
X92964000Y-134493000D03*
X66548000Y-95758000D03*
X94361000Y-134747000D03*
X106934000Y-92710000D03*
X83121500Y-135445500D03*
X107936447Y-94755553D03*
X97036259Y-128515741D03*
X89535000Y-136017000D03*
X101625400Y-132537200D03*
X105410000Y-129286000D03*
X96901000Y-127381000D03*
X70256400Y-134569200D03*
X81915000Y-133350000D03*
X90170000Y-93472000D03*
X66548000Y-107696000D03*
X84328000Y-135636000D03*
X82931000Y-134366000D03*
X66979810Y-114122190D03*
X85344000Y-120015000D03*
X77470000Y-105410000D03*
X97167602Y-113906398D03*
X96462801Y-114865199D03*
X95758000Y-115824000D03*
X97434400Y-134416800D03*
X64516000Y-116586000D03*
X95504000Y-133604000D03*
X75565000Y-137414000D03*
X78486000Y-114808000D03*
X76962000Y-117602000D03*
X86614000Y-120142000D03*
X70866000Y-110490000D03*
X80137000Y-133080096D03*
X68548231Y-112744231D03*
X97872403Y-113112403D03*
X70358000Y-119888000D03*
X72580500Y-125158500D03*
X74853800Y-125158500D03*
X81661000Y-134620000D03*
X91440000Y-93726000D03*
D16*
X101324598Y-130260132D02*
X99695000Y-128630534D01*
X99695000Y-128630534D02*
X99695000Y-124841000D01*
X88836500Y-110299500D02*
X84899500Y-110299500D01*
X84899500Y-110299500D02*
X83947000Y-109347000D01*
X78867000Y-133096000D02*
X78155910Y-133807090D01*
X77886559Y-133807090D02*
X77702680Y-133623211D01*
X78155910Y-133807090D02*
X77886559Y-133807090D01*
X77702680Y-133623211D02*
X75244995Y-131165522D01*
X75244995Y-131165522D02*
X73415552Y-131165522D01*
X68405440Y-124285440D02*
X68402290Y-124282290D01*
X68405440Y-126155410D02*
X68405440Y-124285440D01*
X73415552Y-131165522D02*
X68405440Y-126155410D01*
X68402290Y-118747051D02*
X68707050Y-118442292D01*
X68402290Y-124282290D02*
X68402290Y-118747051D01*
X68707050Y-118442292D02*
X68707050Y-115824000D01*
X69253032Y-109131032D02*
X68548231Y-108426231D01*
X69253032Y-115278018D02*
X69253032Y-109131032D01*
X68707050Y-115824000D02*
X69253032Y-115278018D01*
X67364013Y-105664000D02*
X67364010Y-105664000D01*
X68548231Y-106848218D02*
X67364013Y-105664000D01*
X68548231Y-108426231D02*
X68548231Y-106848218D01*
X67364010Y-105664000D02*
X66675050Y-104975040D01*
X66675050Y-104975040D02*
X66675050Y-98580580D01*
X68295282Y-96960351D02*
X68548231Y-96707402D01*
X68295279Y-96960351D02*
X68295282Y-96960351D01*
X66675050Y-98580580D02*
X68295279Y-96960351D01*
X68548231Y-96707402D02*
X68548231Y-95789769D01*
X68548231Y-95789769D02*
X69342000Y-94996000D01*
X92024240Y-136829760D02*
X76634536Y-136829760D01*
X92964000Y-135890000D02*
X92024240Y-136829760D01*
X92964000Y-134493000D02*
X92964000Y-135890000D01*
X72163530Y-134188190D02*
X69698670Y-131723330D01*
X73992967Y-134188190D02*
X72163530Y-134188190D01*
X76634536Y-136829760D02*
X73992967Y-134188190D01*
X65379620Y-117376156D02*
X65379620Y-127404280D01*
X65379620Y-127404280D02*
X69698670Y-131723330D01*
X69698670Y-131723330D02*
X67412670Y-129437330D01*
X65652611Y-117103166D02*
X65379620Y-117376156D01*
X65652611Y-116095940D02*
X65126670Y-115570000D01*
X65652611Y-117103166D02*
X65652611Y-116095940D01*
X65126670Y-115570000D02*
X64947810Y-115391140D01*
X64947810Y-115391140D02*
X64947810Y-112268000D01*
X64947810Y-112268000D02*
X64947810Y-97358190D01*
X64947810Y-97358190D02*
X66548000Y-95758000D01*
X94361000Y-134747000D02*
X94361000Y-136880570D01*
X94361000Y-136880570D02*
X93980000Y-137261570D01*
X93980000Y-137261570D02*
X76455676Y-137261570D01*
X76455676Y-137261570D02*
X73814106Y-134620000D01*
X73814106Y-134620000D02*
X71984670Y-134620000D01*
X71984670Y-134620000D02*
X66535835Y-129171165D01*
X64947810Y-117197296D02*
X65220801Y-116924305D01*
X64947810Y-127583140D02*
X64947810Y-117197296D01*
X64947810Y-127583140D02*
X67869335Y-130504665D01*
X65220801Y-116274801D02*
X64516000Y-115570000D01*
X65220801Y-116924305D02*
X65220801Y-116274801D01*
X64516000Y-115570000D02*
X64516000Y-96774000D01*
X64516000Y-96774000D02*
X69850000Y-91440000D01*
X69850000Y-91440000D02*
X105664000Y-91440000D01*
X105664000Y-91440000D02*
X106934000Y-92710000D01*
X83121500Y-135445500D02*
X82600860Y-135966140D01*
X82600860Y-135966140D02*
X76992256Y-135966140D01*
X76992256Y-135966137D02*
X74350689Y-133324570D01*
X76992256Y-135966140D02*
X76992256Y-135966137D01*
X74350689Y-133324570D02*
X72521250Y-133324570D01*
X72521250Y-133324570D02*
X68658340Y-129461660D01*
X68658340Y-129461660D02*
X68276815Y-129080135D01*
X68658340Y-129461660D02*
X68277340Y-129080660D01*
X66243240Y-126796760D02*
X66243240Y-117733878D01*
X66243240Y-127046560D02*
X68658340Y-129461660D01*
X66243240Y-126796760D02*
X66243240Y-127046560D01*
X66243240Y-127022230D02*
X66243240Y-126796760D01*
X66243240Y-117733878D02*
X66548000Y-117429118D01*
X66548000Y-117429118D02*
X66548000Y-115769988D01*
X66548000Y-115769988D02*
X65811430Y-115033418D01*
X67252801Y-107384801D02*
X65379620Y-105511620D01*
X67252801Y-108034305D02*
X67252801Y-107384801D01*
X65811430Y-109475676D02*
X67252801Y-108034305D01*
X65811430Y-115033418D02*
X65811430Y-109475676D01*
X65379620Y-105511620D02*
X65379620Y-98044000D01*
X67252801Y-96170819D02*
X67252801Y-94647869D01*
X65379620Y-98044000D02*
X67252801Y-96170819D01*
X67252801Y-94647869D02*
X70028860Y-91871810D01*
X70028860Y-91871810D02*
X105052704Y-91871810D01*
X105052704Y-91871810D02*
X107936447Y-94755553D01*
X97036259Y-128515741D02*
X89535000Y-136017000D01*
X89535000Y-136017000D02*
X89408000Y-136144000D01*
X101625400Y-132537200D02*
X104876600Y-129286000D01*
X104876600Y-129286000D02*
X105410000Y-129286000D01*
X74267894Y-138557000D02*
X74267894Y-138555294D01*
X97536000Y-138557000D02*
X74267894Y-138557000D01*
X99314000Y-129794000D02*
X99314000Y-136779000D01*
X99314000Y-136779000D02*
X97536000Y-138557000D01*
X96901000Y-127381000D02*
X99314000Y-129794000D01*
X74244200Y-138557000D02*
X70256400Y-134569200D01*
X74267894Y-138557000D02*
X74244200Y-138557000D01*
X81915000Y-133350000D02*
X80594290Y-134670710D01*
X80594290Y-134670710D02*
X77528839Y-134670710D01*
X77528839Y-134670710D02*
X76839064Y-133980935D01*
X76839064Y-133980935D02*
X74887273Y-132029142D01*
X74887273Y-132029142D02*
X73057832Y-132029142D01*
X73057832Y-132029142D02*
X67541820Y-126513130D01*
X67541820Y-126513130D02*
X67541820Y-124945820D01*
X67541820Y-124945820D02*
X67538670Y-124942670D01*
X67538670Y-124942670D02*
X67538670Y-118389330D01*
X67538670Y-118389330D02*
X67843430Y-118084570D01*
X68116421Y-114639356D02*
X68116421Y-113605025D01*
X67843430Y-114912346D02*
X68116421Y-114639356D01*
X67843430Y-118084570D02*
X67843430Y-114912346D01*
X68116421Y-113605025D02*
X66675050Y-112163654D01*
X66675050Y-112163654D02*
X66675050Y-109833397D01*
X68116421Y-108392027D02*
X68116421Y-107027079D01*
X66675050Y-109833397D02*
X68116421Y-108392027D01*
X68116421Y-107027079D02*
X66243240Y-105153900D01*
X66243240Y-105153900D02*
X66243240Y-98401720D01*
X66243240Y-98401720D02*
X68116421Y-96528541D01*
X68116421Y-96528541D02*
X68116421Y-95005589D01*
X68116421Y-95005589D02*
X70386580Y-92735430D01*
X70386580Y-92735430D02*
X89433430Y-92735430D01*
X89433430Y-92735430D02*
X90170000Y-93472000D01*
X76813396Y-136397950D02*
X74171828Y-133756380D01*
X72342390Y-133756380D02*
X69877005Y-131290995D01*
X74171828Y-133756380D02*
X72342390Y-133756380D01*
X83012696Y-136397950D02*
X82295950Y-136397950D01*
X69877005Y-131290995D02*
X67845005Y-129258995D01*
X65811430Y-127225420D02*
X69877005Y-131290995D01*
X65811430Y-127225420D02*
X65811430Y-117555017D01*
X65811430Y-117555017D02*
X66084421Y-117282027D01*
X66084421Y-115917079D02*
X65379620Y-115212278D01*
X66084421Y-117282027D02*
X66084421Y-115917079D01*
X65379620Y-115212278D02*
X65379620Y-108864380D01*
X65379620Y-108864380D02*
X66548000Y-107696000D01*
X83566050Y-136397950D02*
X82295950Y-136397950D01*
X84328000Y-135636000D02*
X83566050Y-136397950D01*
X82295950Y-136397950D02*
X76813396Y-136397950D01*
X82931000Y-134366000D02*
X81762670Y-135534330D01*
X81762670Y-135534330D02*
X77171119Y-135534330D01*
X77171119Y-135534330D02*
X74529551Y-132892762D01*
X74529551Y-132892762D02*
X72700112Y-132892762D01*
X72700112Y-132892762D02*
X66677675Y-126870325D01*
X66677675Y-126621675D02*
X66675050Y-126619050D01*
X66677675Y-126870325D02*
X66677675Y-126621675D01*
X66675050Y-126619050D02*
X66675050Y-117912738D01*
X66979810Y-117607979D02*
X66979810Y-114122190D01*
X66675050Y-117912738D02*
X66979810Y-117607979D01*
X66979810Y-114122190D02*
X66979810Y-113868190D01*
X85344000Y-120015000D02*
X84359789Y-119030789D01*
X84359789Y-119030789D02*
X84359789Y-116617789D01*
X84359789Y-116617789D02*
X81534000Y-113792000D01*
X81534000Y-113792000D02*
X71120000Y-113792000D01*
X77216000Y-105156000D02*
X77470000Y-105410000D01*
X74168000Y-105156000D02*
X77216000Y-105156000D01*
X70116652Y-109207348D02*
X74168000Y-105156000D01*
X70116652Y-112788652D02*
X70116652Y-109207348D01*
X71120000Y-113792000D02*
X70116652Y-112788652D01*
X92697702Y-97727389D02*
X89269530Y-97727389D01*
X97167602Y-102197290D02*
X92697702Y-97727389D01*
X88885000Y-98111919D02*
X88885000Y-99314000D01*
X89269530Y-97727389D02*
X88885000Y-98111919D01*
X97167602Y-113906398D02*
X97167602Y-102197290D01*
X90039801Y-100699199D02*
X88885000Y-101854000D01*
X90039801Y-98450557D02*
X90039801Y-100699199D01*
X90331159Y-98159199D02*
X90039801Y-98450557D01*
X92518841Y-98159199D02*
X90331159Y-98159199D01*
X96462801Y-102103159D02*
X92518841Y-98159199D01*
X96462801Y-114865199D02*
X96462801Y-102103159D01*
X92529000Y-99314000D02*
X91425000Y-99314000D01*
X95758000Y-102543000D02*
X92529000Y-99314000D01*
X95758000Y-115824000D02*
X95758000Y-102543000D01*
X97357140Y-138125190D02*
X74855496Y-138125190D01*
X98882190Y-136600140D02*
X97357140Y-138125190D01*
X98882190Y-135864590D02*
X98882190Y-136600140D01*
X97434400Y-134416800D02*
X98882190Y-135864590D01*
X73775153Y-137044847D02*
X70594705Y-133864399D01*
X70594705Y-133864399D02*
X70594705Y-133840705D01*
X74855496Y-138125190D02*
X73775153Y-137044847D01*
X73775153Y-137044847D02*
X73648153Y-136917847D01*
X70594705Y-133840705D02*
X64516000Y-127762000D01*
X64516000Y-127762000D02*
X64516000Y-116586000D01*
X95504000Y-133604000D02*
X95504000Y-136550380D01*
X95504000Y-136550380D02*
X94361000Y-137693380D01*
X94361000Y-137693380D02*
X75844380Y-137693380D01*
X75844380Y-137693380D02*
X75565000Y-137414000D01*
X76962000Y-117602000D02*
X76962000Y-115824000D01*
X77978000Y-114808000D02*
X78486000Y-114808000D01*
X76962000Y-115824000D02*
X77978000Y-114808000D01*
X86614000Y-120142000D02*
X84791599Y-118319599D01*
X84791599Y-116438928D02*
X81712861Y-113360190D01*
X84791599Y-118319599D02*
X84791599Y-116438928D01*
X81712861Y-113360190D02*
X71298860Y-113360190D01*
X71298860Y-113360190D02*
X70866000Y-112927330D01*
X70866000Y-112927330D02*
X70866000Y-110490000D01*
X80137000Y-133080096D02*
X78978196Y-134238900D01*
X77707699Y-134238900D02*
X77270872Y-133802073D01*
X78978196Y-134238900D02*
X77707699Y-134238900D01*
X77270872Y-133802073D02*
X75066134Y-131597332D01*
X75066134Y-131597332D02*
X73236692Y-131597332D01*
X73236692Y-131597332D02*
X67973630Y-126334270D01*
X67973630Y-126334270D02*
X67973630Y-124615630D01*
X67973630Y-124615630D02*
X67970480Y-124612480D01*
X67970480Y-124612480D02*
X67970480Y-118568190D01*
X68275240Y-118263431D02*
X68275240Y-115091207D01*
X67970480Y-118568190D02*
X68275240Y-118263431D01*
X68548231Y-114818217D02*
X68548231Y-112744231D01*
X68275240Y-115091207D02*
X68548231Y-114818217D01*
X97872403Y-102291419D02*
X88748224Y-93167240D01*
X97872403Y-113112403D02*
X97872403Y-102291419D01*
X68474143Y-97392161D02*
X68474139Y-97392161D01*
X88748224Y-93167240D02*
X72699064Y-93167240D01*
X72699064Y-93167240D02*
X68474143Y-97392161D01*
X68474139Y-97392161D02*
X67106860Y-98759440D01*
X67106860Y-98759440D02*
X67106860Y-104796180D01*
X67542875Y-105232192D02*
X68980041Y-106669357D01*
X67542872Y-105232192D02*
X67542875Y-105232192D01*
X67106860Y-104796180D02*
X67542872Y-105232192D01*
X68980041Y-106669357D02*
X68980041Y-108247371D01*
X68980041Y-108247371D02*
X69684842Y-108952171D01*
X69684842Y-115456879D02*
X69317720Y-115824000D01*
X69684842Y-108952171D02*
X69684842Y-115456879D01*
X69317720Y-115824000D02*
X69138860Y-116002860D01*
X69138860Y-116002860D02*
X69138860Y-118668860D01*
X69138860Y-118668860D02*
X70358000Y-119888000D01*
X72580500Y-125158500D02*
X74853800Y-125158500D01*
X81661000Y-134620000D02*
X81178480Y-135102520D01*
X81178480Y-135102520D02*
X77349979Y-135102520D01*
X77349979Y-135102520D02*
X76152729Y-133905270D01*
X76152729Y-133905270D02*
X74708412Y-132460952D01*
X74708412Y-132460952D02*
X72878972Y-132460952D01*
X72878972Y-132460952D02*
X67110010Y-126691990D01*
X67110010Y-126691990D02*
X67110010Y-125276010D01*
X67110010Y-125276010D02*
X67106860Y-125272860D01*
X67106860Y-125272860D02*
X67106860Y-118091599D01*
X67106860Y-118091599D02*
X67411620Y-117786840D01*
X67411620Y-117786840D02*
X67411620Y-114733486D01*
X67684611Y-113783885D02*
X66243240Y-112342514D01*
X67684611Y-114460495D02*
X67684611Y-113783885D01*
X67411620Y-114733486D02*
X67684611Y-114460495D01*
X66243240Y-112342514D02*
X66243240Y-109654536D01*
X67684611Y-107205940D02*
X66396670Y-105918000D01*
X67684611Y-108213166D02*
X67684611Y-107205940D01*
X66243240Y-109654536D02*
X67684611Y-108213166D01*
X66396670Y-105918000D02*
X65811430Y-105332760D01*
X65811430Y-105332760D02*
X65811430Y-98222860D01*
X65811430Y-98222860D02*
X67684611Y-96349680D01*
X67684611Y-96349680D02*
X67684611Y-94826729D01*
X67684611Y-94826729D02*
X70207720Y-92303620D01*
X70207720Y-92303620D02*
X90779620Y-92303620D01*
X90779620Y-92303620D02*
X91440000Y-92964000D01*
X91440000Y-92964000D02*
X91440000Y-93726000D01*
X69904990Y-133869411D02*
X69886458Y-133877087D01*
X69758541Y-133962558D01*
X69649758Y-134071341D01*
X69564287Y-134199258D01*
X69505413Y-134341391D01*
X69475400Y-134492278D01*
X69475400Y-134646122D01*
X69505413Y-134797009D01*
X69564287Y-134939142D01*
X69649758Y-135067059D01*
X69758541Y-135175842D01*
X69886458Y-135261313D01*
X70028591Y-135320187D01*
X70179478Y-135350200D01*
X70318980Y-135350200D01*
X73862780Y-138894000D01*
X66793897Y-138894000D01*
X67019590Y-138849107D01*
X67407407Y-138688468D01*
X67756433Y-138455256D01*
X68053256Y-138158433D01*
X68286468Y-137809407D01*
X68447107Y-137421590D01*
X68529000Y-137009885D01*
X68529000Y-136590115D01*
X68447107Y-136178410D01*
X68286468Y-135790593D01*
X68053256Y-135441567D01*
X67756433Y-135144744D01*
X67407407Y-134911532D01*
X67019590Y-134750893D01*
X66607885Y-134669000D01*
X66188115Y-134669000D01*
X65776410Y-134750893D01*
X65388593Y-134911532D01*
X65039567Y-135144744D01*
X64742744Y-135441567D01*
X64509532Y-135790593D01*
X64348893Y-136178410D01*
X64306000Y-136394048D01*
X64306000Y-128270420D01*
X69904990Y-133869411D01*
G04 #@! TA.AperFunction,Conductor*
D17*
G36*
X69904990Y-133869411D02*
G01*
X69886458Y-133877087D01*
X69758541Y-133962558D01*
X69649758Y-134071341D01*
X69564287Y-134199258D01*
X69505413Y-134341391D01*
X69475400Y-134492278D01*
X69475400Y-134646122D01*
X69505413Y-134797009D01*
X69564287Y-134939142D01*
X69649758Y-135067059D01*
X69758541Y-135175842D01*
X69886458Y-135261313D01*
X70028591Y-135320187D01*
X70179478Y-135350200D01*
X70318980Y-135350200D01*
X73862780Y-138894000D01*
X66793897Y-138894000D01*
X67019590Y-138849107D01*
X67407407Y-138688468D01*
X67756433Y-138455256D01*
X68053256Y-138158433D01*
X68286468Y-137809407D01*
X68447107Y-137421590D01*
X68529000Y-137009885D01*
X68529000Y-136590115D01*
X68447107Y-136178410D01*
X68286468Y-135790593D01*
X68053256Y-135441567D01*
X67756433Y-135144744D01*
X67407407Y-134911532D01*
X67019590Y-134750893D01*
X66607885Y-134669000D01*
X66188115Y-134669000D01*
X65776410Y-134750893D01*
X65388593Y-134911532D01*
X65039567Y-135144744D01*
X64742744Y-135441567D01*
X64509532Y-135790593D01*
X64348893Y-136178410D01*
X64306000Y-136394048D01*
X64306000Y-128270420D01*
X69904990Y-133869411D01*
G37*
G04 #@! TD.AperFunction*
D16*
X110780410Y-89748893D02*
X110392593Y-89909532D01*
X110043567Y-90142744D01*
X109746744Y-90439567D01*
X109513532Y-90788593D01*
X109352893Y-91176410D01*
X109271000Y-91588115D01*
X109271000Y-92007885D01*
X109352893Y-92419590D01*
X109513532Y-92807407D01*
X109746744Y-93156433D01*
X110043567Y-93453256D01*
X110392593Y-93686468D01*
X110780410Y-93847107D01*
X111192115Y-93929000D01*
X111611885Y-93929000D01*
X112023590Y-93847107D01*
X112411407Y-93686468D01*
X112760433Y-93453256D01*
X113057256Y-93156433D01*
X113290468Y-92807407D01*
X113451107Y-92419590D01*
X113494000Y-92203952D01*
X113494001Y-136394053D01*
X113451107Y-136178410D01*
X113290468Y-135790593D01*
X113057256Y-135441567D01*
X112760433Y-135144744D01*
X112411407Y-134911532D01*
X112023590Y-134750893D01*
X111611885Y-134669000D01*
X111192115Y-134669000D01*
X110780410Y-134750893D01*
X110392593Y-134911532D01*
X110043567Y-135144744D01*
X109746744Y-135441567D01*
X109513532Y-135790593D01*
X109352893Y-136178410D01*
X109271000Y-136590115D01*
X109271000Y-137009885D01*
X109352893Y-137421590D01*
X109513532Y-137809407D01*
X109746744Y-138158433D01*
X110043567Y-138455256D01*
X110392593Y-138688468D01*
X110780410Y-138849107D01*
X111006103Y-138894000D01*
X97917420Y-138894000D01*
X99655565Y-137155855D01*
X99674948Y-137139948D01*
X99738429Y-137062595D01*
X99785601Y-136974343D01*
X99814649Y-136878585D01*
X99822000Y-136803947D01*
X99822000Y-136803944D01*
X99824457Y-136779000D01*
X99822000Y-136754056D01*
X99822000Y-132460278D01*
X100844400Y-132460278D01*
X100844400Y-132614122D01*
X100874413Y-132765009D01*
X100933287Y-132907142D01*
X101018758Y-133035059D01*
X101127541Y-133143842D01*
X101255458Y-133229313D01*
X101397591Y-133288187D01*
X101548478Y-133318200D01*
X101702322Y-133318200D01*
X101853209Y-133288187D01*
X101995342Y-133229313D01*
X102123259Y-133143842D01*
X102232042Y-133035059D01*
X102317513Y-132907142D01*
X102376387Y-132765009D01*
X102406400Y-132614122D01*
X102406400Y-132474620D01*
X104957842Y-129923179D01*
X105040058Y-129978113D01*
X105182191Y-130036987D01*
X105333078Y-130067000D01*
X105486922Y-130067000D01*
X105637809Y-130036987D01*
X105779942Y-129978113D01*
X105907859Y-129892642D01*
X106016642Y-129783859D01*
X106102113Y-129655942D01*
X106160987Y-129513809D01*
X106191000Y-129362922D01*
X106191000Y-129209078D01*
X106160987Y-129058191D01*
X106102113Y-128916058D01*
X106016642Y-128788141D01*
X105907859Y-128679358D01*
X105779942Y-128593887D01*
X105637809Y-128535013D01*
X105486922Y-128505000D01*
X105333078Y-128505000D01*
X105182191Y-128535013D01*
X105040058Y-128593887D01*
X104912141Y-128679358D01*
X104809331Y-128782168D01*
X104777015Y-128785351D01*
X104681257Y-128814399D01*
X104640176Y-128836357D01*
X104593004Y-128861571D01*
X104548557Y-128898048D01*
X104515652Y-128925052D01*
X104499750Y-128944429D01*
X101687980Y-131756200D01*
X101548478Y-131756200D01*
X101397591Y-131786213D01*
X101255458Y-131845087D01*
X101127541Y-131930558D01*
X101018758Y-132039341D01*
X100933287Y-132167258D01*
X100874413Y-132309391D01*
X100844400Y-132460278D01*
X99822000Y-132460278D01*
X99822000Y-129818943D01*
X99824457Y-129793999D01*
X99819656Y-129745254D01*
X99814649Y-129694415D01*
X99785601Y-129598657D01*
X99785600Y-129598655D01*
X99738429Y-129510404D01*
X99690850Y-129452429D01*
X99674948Y-129433052D01*
X99655571Y-129417150D01*
X97682000Y-127443580D01*
X97682000Y-127304078D01*
X97651987Y-127153191D01*
X97593113Y-127011058D01*
X97507642Y-126883141D01*
X97398859Y-126774358D01*
X97270942Y-126688887D01*
X97128809Y-126630013D01*
X96977922Y-126600000D01*
X96824078Y-126600000D01*
X96673191Y-126630013D01*
X96531058Y-126688887D01*
X96403141Y-126774358D01*
X96294358Y-126883141D01*
X96208887Y-127011058D01*
X96150013Y-127153191D01*
X96120000Y-127304078D01*
X96120000Y-127457922D01*
X96150013Y-127608809D01*
X96208887Y-127750942D01*
X96294358Y-127878859D01*
X96403141Y-127987642D01*
X96437140Y-128010359D01*
X96429617Y-128017882D01*
X96344146Y-128145799D01*
X96285272Y-128287932D01*
X96255259Y-128438819D01*
X96255259Y-128578320D01*
X89597580Y-135236000D01*
X89458078Y-135236000D01*
X89307191Y-135266013D01*
X89165058Y-135324887D01*
X89037141Y-135410358D01*
X88928358Y-135519141D01*
X88842887Y-135647058D01*
X88784013Y-135789191D01*
X88754000Y-135940078D01*
X88754000Y-136093922D01*
X88784013Y-136244809D01*
X88815887Y-136321760D01*
X84707450Y-136321760D01*
X84825859Y-136242642D01*
X84934642Y-136133859D01*
X85020113Y-136005942D01*
X85078987Y-135863809D01*
X85109000Y-135712922D01*
X85109000Y-135559078D01*
X85078987Y-135408191D01*
X85020113Y-135266058D01*
X84934642Y-135138141D01*
X84825859Y-135029358D01*
X84697942Y-134943887D01*
X84555809Y-134885013D01*
X84404922Y-134855000D01*
X84251078Y-134855000D01*
X84100191Y-134885013D01*
X83958058Y-134943887D01*
X83830141Y-135029358D01*
X83801728Y-135057771D01*
X83728142Y-134947641D01*
X83619359Y-134838858D01*
X83574413Y-134808826D01*
X83623113Y-134735942D01*
X83681987Y-134593809D01*
X83712000Y-134442922D01*
X83712000Y-134289078D01*
X83681987Y-134138191D01*
X83623113Y-133996058D01*
X83537642Y-133868141D01*
X83428859Y-133759358D01*
X83300942Y-133673887D01*
X83158809Y-133615013D01*
X83007922Y-133585000D01*
X82854078Y-133585000D01*
X82703191Y-133615013D01*
X82639679Y-133641321D01*
X82665987Y-133577809D01*
X82696000Y-133426922D01*
X82696000Y-133273078D01*
X82665987Y-133122191D01*
X82607113Y-132980058D01*
X82521642Y-132852141D01*
X82412859Y-132743358D01*
X82284942Y-132657887D01*
X82142809Y-132599013D01*
X81991922Y-132569000D01*
X81838078Y-132569000D01*
X81687191Y-132599013D01*
X81545058Y-132657887D01*
X81417141Y-132743358D01*
X81308358Y-132852141D01*
X81222887Y-132980058D01*
X81164013Y-133122191D01*
X81134000Y-133273078D01*
X81134000Y-133412579D01*
X80383870Y-134162710D01*
X79772806Y-134162710D01*
X80074421Y-133861096D01*
X80213922Y-133861096D01*
X80364809Y-133831083D01*
X80506942Y-133772209D01*
X80634859Y-133686738D01*
X80743642Y-133577955D01*
X80829113Y-133450038D01*
X80887987Y-133307905D01*
X80918000Y-133157018D01*
X80918000Y-133003174D01*
X80887987Y-132852287D01*
X80829113Y-132710154D01*
X80743642Y-132582237D01*
X80634859Y-132473454D01*
X80506942Y-132387983D01*
X80364809Y-132329109D01*
X80213922Y-132299096D01*
X80060078Y-132299096D01*
X79909191Y-132329109D01*
X79767058Y-132387983D01*
X79639141Y-132473454D01*
X79530358Y-132582237D01*
X79496687Y-132632630D01*
X79473642Y-132598141D01*
X79364859Y-132489358D01*
X79236942Y-132403887D01*
X79094809Y-132345013D01*
X78943922Y-132315000D01*
X78790078Y-132315000D01*
X78639191Y-132345013D01*
X78497058Y-132403887D01*
X78369141Y-132489358D01*
X78260358Y-132598141D01*
X78174887Y-132726058D01*
X78116013Y-132868191D01*
X78086000Y-133019078D01*
X78086000Y-133158580D01*
X78021234Y-133223345D01*
X75621850Y-130823957D01*
X75605943Y-130804574D01*
X75528590Y-130741093D01*
X75440338Y-130693921D01*
X75344580Y-130664873D01*
X75269942Y-130657522D01*
X75269939Y-130657522D01*
X75244995Y-130655065D01*
X75220051Y-130657522D01*
X73625973Y-130657522D01*
X68913440Y-125944990D01*
X68913440Y-125081578D01*
X71799500Y-125081578D01*
X71799500Y-125235422D01*
X71829513Y-125386309D01*
X71888387Y-125528442D01*
X71973858Y-125656359D01*
X72082641Y-125765142D01*
X72210558Y-125850613D01*
X72352691Y-125909487D01*
X72503578Y-125939500D01*
X72657422Y-125939500D01*
X72808309Y-125909487D01*
X72950442Y-125850613D01*
X73078359Y-125765142D01*
X73177001Y-125666500D01*
X74257299Y-125666500D01*
X74355941Y-125765142D01*
X74483858Y-125850613D01*
X74625991Y-125909487D01*
X74776878Y-125939500D01*
X74930722Y-125939500D01*
X75081609Y-125909487D01*
X75223742Y-125850613D01*
X75351659Y-125765142D01*
X75460442Y-125656359D01*
X75545913Y-125528442D01*
X75604787Y-125386309D01*
X75634800Y-125235422D01*
X75634800Y-125081578D01*
X75604787Y-124930691D01*
X75545913Y-124788558D01*
X75529557Y-124764078D01*
X98914000Y-124764078D01*
X98914000Y-124917922D01*
X98944013Y-125068809D01*
X99002887Y-125210942D01*
X99088358Y-125338859D01*
X99187001Y-125437502D01*
X99187000Y-128605590D01*
X99184543Y-128630534D01*
X99187000Y-128655478D01*
X99187000Y-128655480D01*
X99194351Y-128730118D01*
X99223399Y-128825876D01*
X99270571Y-128914129D01*
X99334052Y-128991482D01*
X99353435Y-129007389D01*
X100543598Y-130197552D01*
X100543598Y-130337054D01*
X100573611Y-130487941D01*
X100632485Y-130630074D01*
X100717956Y-130757991D01*
X100826739Y-130866774D01*
X100954656Y-130952245D01*
X101096789Y-131011119D01*
X101247676Y-131041132D01*
X101401520Y-131041132D01*
X101552407Y-131011119D01*
X101694540Y-130952245D01*
X101822457Y-130866774D01*
X101931240Y-130757991D01*
X102016711Y-130630074D01*
X102075585Y-130487941D01*
X102105598Y-130337054D01*
X102105598Y-130183210D01*
X102075585Y-130032323D01*
X102016711Y-129890190D01*
X101931240Y-129762273D01*
X101822457Y-129653490D01*
X101694540Y-129568019D01*
X101552407Y-129509145D01*
X101401520Y-129479132D01*
X101262018Y-129479132D01*
X100203000Y-128420114D01*
X100203000Y-125437501D01*
X100301642Y-125338859D01*
X100387113Y-125210942D01*
X100445987Y-125068809D01*
X100476000Y-124917922D01*
X100476000Y-124764078D01*
X100445987Y-124613191D01*
X100387113Y-124471058D01*
X100330931Y-124386975D01*
X107034972Y-124386975D01*
X107097465Y-124623292D01*
X107340178Y-124736692D01*
X107600349Y-124800561D01*
X107867982Y-124812446D01*
X108132791Y-124771890D01*
X108150523Y-124765451D01*
X108951038Y-124765451D01*
X108954909Y-124803124D01*
X109047079Y-125028375D01*
X109181422Y-125231316D01*
X109352775Y-125404149D01*
X109554554Y-125540232D01*
X109779004Y-125634335D01*
X110017500Y-125682842D01*
X110367500Y-125682842D01*
X110367500Y-124574842D01*
X110621500Y-124574842D01*
X110621500Y-125682842D01*
X110971500Y-125682842D01*
X111209996Y-125634335D01*
X111434446Y-125540232D01*
X111636225Y-125404149D01*
X111807578Y-125231316D01*
X111941921Y-125028375D01*
X112034091Y-124803124D01*
X112037962Y-124765451D01*
X111913231Y-124574842D01*
X110621500Y-124574842D01*
X110367500Y-124574842D01*
X109075769Y-124574842D01*
X108951038Y-124765451D01*
X108150523Y-124765451D01*
X108384600Y-124680451D01*
X108491535Y-124623292D01*
X108554028Y-124386975D01*
X107794500Y-123627447D01*
X107034972Y-124386975D01*
X100330931Y-124386975D01*
X100301642Y-124343141D01*
X100192859Y-124234358D01*
X100064942Y-124148887D01*
X99922809Y-124090013D01*
X99771922Y-124060000D01*
X99618078Y-124060000D01*
X99467191Y-124090013D01*
X99325058Y-124148887D01*
X99197141Y-124234358D01*
X99088358Y-124343141D01*
X99002887Y-124471058D01*
X98944013Y-124613191D01*
X98914000Y-124764078D01*
X75529557Y-124764078D01*
X75460442Y-124660641D01*
X75351659Y-124551858D01*
X75223742Y-124466387D01*
X75081609Y-124407513D01*
X74930722Y-124377500D01*
X74776878Y-124377500D01*
X74625991Y-124407513D01*
X74483858Y-124466387D01*
X74355941Y-124551858D01*
X74257299Y-124650500D01*
X73177001Y-124650500D01*
X73078359Y-124551858D01*
X72950442Y-124466387D01*
X72808309Y-124407513D01*
X72657422Y-124377500D01*
X72503578Y-124377500D01*
X72352691Y-124407513D01*
X72210558Y-124466387D01*
X72082641Y-124551858D01*
X71973858Y-124660641D01*
X71888387Y-124788558D01*
X71829513Y-124930691D01*
X71799500Y-125081578D01*
X68913440Y-125081578D01*
X68913440Y-124310384D01*
X68915897Y-124285440D01*
X68913440Y-124260493D01*
X68910290Y-124228510D01*
X68910290Y-123521324D01*
X106429896Y-123521324D01*
X106470452Y-123786133D01*
X106561891Y-124037942D01*
X106619050Y-124144877D01*
X106855367Y-124207370D01*
X107614895Y-123447842D01*
X107974105Y-123447842D01*
X108733633Y-124207370D01*
X108961997Y-124146980D01*
X109075769Y-124320842D01*
X110367500Y-124320842D01*
X110367500Y-123212842D01*
X110621500Y-123212842D01*
X110621500Y-124320842D01*
X111913231Y-124320842D01*
X112037962Y-124130233D01*
X112034091Y-124092560D01*
X111941921Y-123867309D01*
X111807578Y-123664368D01*
X111636225Y-123491535D01*
X111434446Y-123355452D01*
X111209996Y-123261349D01*
X110971500Y-123212842D01*
X110621500Y-123212842D01*
X110367500Y-123212842D01*
X110017500Y-123212842D01*
X109779004Y-123261349D01*
X109554554Y-123355452D01*
X109352775Y-123491535D01*
X109181422Y-123664368D01*
X109118329Y-123759678D01*
X109147219Y-123641993D01*
X109159104Y-123374360D01*
X109118548Y-123109551D01*
X109027109Y-122857742D01*
X108969950Y-122750807D01*
X108733633Y-122688314D01*
X107974105Y-123447842D01*
X107614895Y-123447842D01*
X106855367Y-122688314D01*
X106619050Y-122750807D01*
X106505650Y-122993520D01*
X106441781Y-123253691D01*
X106429896Y-123521324D01*
X68910290Y-123521324D01*
X68910290Y-122508709D01*
X107034972Y-122508709D01*
X107794500Y-123268237D01*
X108554028Y-122508709D01*
X108491535Y-122272392D01*
X108248822Y-122158992D01*
X107988651Y-122095123D01*
X107721018Y-122083238D01*
X107456209Y-122123794D01*
X107204400Y-122215233D01*
X107097465Y-122272392D01*
X107034972Y-122508709D01*
X68910290Y-122508709D01*
X68910290Y-119158710D01*
X69577000Y-119825421D01*
X69577000Y-119964922D01*
X69607013Y-120115809D01*
X69665887Y-120257942D01*
X69751358Y-120385859D01*
X69860141Y-120494642D01*
X69988058Y-120580113D01*
X70130191Y-120638987D01*
X70281078Y-120669000D01*
X70434922Y-120669000D01*
X70585809Y-120638987D01*
X70727942Y-120580113D01*
X70855859Y-120494642D01*
X70964642Y-120385859D01*
X71050113Y-120257942D01*
X71108987Y-120115809D01*
X71139000Y-119964922D01*
X71139000Y-119811078D01*
X71108987Y-119660191D01*
X71050113Y-119518058D01*
X70964642Y-119390141D01*
X70855859Y-119281358D01*
X70727942Y-119195887D01*
X70585809Y-119137013D01*
X70434922Y-119107000D01*
X70295421Y-119107000D01*
X69646860Y-118458440D01*
X69646860Y-116213280D01*
X69694570Y-116165570D01*
X69694574Y-116165565D01*
X70026406Y-115833735D01*
X70045790Y-115817827D01*
X70099740Y-115752088D01*
X70109271Y-115740475D01*
X70156442Y-115652224D01*
X70158270Y-115646199D01*
X70185491Y-115556464D01*
X70192842Y-115481826D01*
X70192842Y-115481824D01*
X70195299Y-115456880D01*
X70192842Y-115431936D01*
X70192842Y-113583262D01*
X70743149Y-114133570D01*
X70759052Y-114152948D01*
X70778429Y-114168850D01*
X70836404Y-114216429D01*
X70924655Y-114263600D01*
X70924657Y-114263601D01*
X71020415Y-114292649D01*
X71095053Y-114300000D01*
X71095055Y-114300000D01*
X71119999Y-114302457D01*
X71144943Y-114300000D01*
X77889499Y-114300000D01*
X77882556Y-114306943D01*
X77878415Y-114307351D01*
X77782657Y-114336399D01*
X77746432Y-114355762D01*
X77694404Y-114383571D01*
X77639810Y-114428376D01*
X77617052Y-114447052D01*
X77601150Y-114466429D01*
X76620430Y-115447150D01*
X76601053Y-115463052D01*
X76585151Y-115482429D01*
X76585150Y-115482430D01*
X76537571Y-115540405D01*
X76504828Y-115601664D01*
X76490400Y-115628657D01*
X76462915Y-115719265D01*
X76461352Y-115724416D01*
X76451543Y-115824000D01*
X76454001Y-115848954D01*
X76454000Y-117005499D01*
X76355358Y-117104141D01*
X76269887Y-117232058D01*
X76211013Y-117374191D01*
X76181000Y-117525078D01*
X76181000Y-117678922D01*
X76211013Y-117829809D01*
X76269887Y-117971942D01*
X76355358Y-118099859D01*
X76464141Y-118208642D01*
X76592058Y-118294113D01*
X76734191Y-118352987D01*
X76885078Y-118383000D01*
X77038922Y-118383000D01*
X77189809Y-118352987D01*
X77331942Y-118294113D01*
X77459859Y-118208642D01*
X77568642Y-118099859D01*
X77654113Y-117971942D01*
X77712987Y-117829809D01*
X77743000Y-117678922D01*
X77743000Y-117525078D01*
X77712987Y-117374191D01*
X77654113Y-117232058D01*
X77568642Y-117104141D01*
X77470000Y-117005499D01*
X77470000Y-116034420D01*
X78049068Y-115455352D01*
X78116058Y-115500113D01*
X78258191Y-115558987D01*
X78409078Y-115589000D01*
X78562922Y-115589000D01*
X78713809Y-115558987D01*
X78855942Y-115500113D01*
X78983859Y-115414642D01*
X79092642Y-115305859D01*
X79178113Y-115177942D01*
X79236987Y-115035809D01*
X79267000Y-114884922D01*
X79267000Y-114731078D01*
X79236987Y-114580191D01*
X79178113Y-114438058D01*
X79092642Y-114310141D01*
X79082501Y-114300000D01*
X81323580Y-114300000D01*
X83851790Y-116828211D01*
X83851789Y-119005845D01*
X83849332Y-119030789D01*
X83851789Y-119055733D01*
X83851789Y-119055735D01*
X83859140Y-119130373D01*
X83888188Y-119226131D01*
X83935360Y-119314384D01*
X83998841Y-119391737D01*
X84018224Y-119407644D01*
X84563000Y-119952420D01*
X84563000Y-120091922D01*
X84593013Y-120242809D01*
X84651887Y-120384942D01*
X84737358Y-120512859D01*
X84846141Y-120621642D01*
X84974058Y-120707113D01*
X85116191Y-120765987D01*
X85267078Y-120796000D01*
X85420922Y-120796000D01*
X85571809Y-120765987D01*
X85713942Y-120707113D01*
X85841859Y-120621642D01*
X85933772Y-120529729D01*
X86007358Y-120639859D01*
X86116141Y-120748642D01*
X86244058Y-120834113D01*
X86386191Y-120892987D01*
X86537078Y-120923000D01*
X86690922Y-120923000D01*
X86841809Y-120892987D01*
X86983942Y-120834113D01*
X87111859Y-120748642D01*
X87220642Y-120639859D01*
X87306113Y-120511942D01*
X87364987Y-120369809D01*
X87395000Y-120218922D01*
X87395000Y-120065078D01*
X87364987Y-119914191D01*
X87306113Y-119772058D01*
X87220642Y-119644141D01*
X87111859Y-119535358D01*
X86983942Y-119449887D01*
X86841809Y-119391013D01*
X86821509Y-119386975D01*
X107034972Y-119386975D01*
X107097465Y-119623292D01*
X107340178Y-119736692D01*
X107600349Y-119800561D01*
X107867982Y-119812446D01*
X108132791Y-119771890D01*
X108384600Y-119680451D01*
X108491535Y-119623292D01*
X108554028Y-119386975D01*
X107794500Y-118627447D01*
X107034972Y-119386975D01*
X86821509Y-119386975D01*
X86690922Y-119361000D01*
X86551421Y-119361000D01*
X85711745Y-118521324D01*
X106429896Y-118521324D01*
X106470452Y-118786133D01*
X106561891Y-119037942D01*
X106619050Y-119144877D01*
X106855367Y-119207370D01*
X107614895Y-118447842D01*
X107974105Y-118447842D01*
X108733633Y-119207370D01*
X108969950Y-119144877D01*
X109083350Y-118902164D01*
X109147219Y-118641993D01*
X109159104Y-118374360D01*
X109123885Y-118144400D01*
X109181422Y-118231316D01*
X109352775Y-118404149D01*
X109554554Y-118540232D01*
X109779004Y-118634335D01*
X110017500Y-118682842D01*
X110367500Y-118682842D01*
X110367500Y-117574842D01*
X110621500Y-117574842D01*
X110621500Y-118682842D01*
X110971500Y-118682842D01*
X111209996Y-118634335D01*
X111434446Y-118540232D01*
X111636225Y-118404149D01*
X111807578Y-118231316D01*
X111941921Y-118028375D01*
X112034091Y-117803124D01*
X112037962Y-117765451D01*
X111913231Y-117574842D01*
X110621500Y-117574842D01*
X110367500Y-117574842D01*
X109075769Y-117574842D01*
X108961997Y-117748704D01*
X108733633Y-117688314D01*
X107974105Y-118447842D01*
X107614895Y-118447842D01*
X106855367Y-117688314D01*
X106619050Y-117750807D01*
X106505650Y-117993520D01*
X106441781Y-118253691D01*
X106429896Y-118521324D01*
X85711745Y-118521324D01*
X85299599Y-118109179D01*
X85299599Y-117508709D01*
X107034972Y-117508709D01*
X107794500Y-118268237D01*
X108554028Y-117508709D01*
X108491535Y-117272392D01*
X108248822Y-117158992D01*
X108131672Y-117130233D01*
X108951038Y-117130233D01*
X109075769Y-117320842D01*
X110367500Y-117320842D01*
X110367500Y-116212842D01*
X110621500Y-116212842D01*
X110621500Y-117320842D01*
X111913231Y-117320842D01*
X112037962Y-117130233D01*
X112034091Y-117092560D01*
X111941921Y-116867309D01*
X111807578Y-116664368D01*
X111636225Y-116491535D01*
X111434446Y-116355452D01*
X111209996Y-116261349D01*
X110971500Y-116212842D01*
X110621500Y-116212842D01*
X110367500Y-116212842D01*
X110017500Y-116212842D01*
X109779004Y-116261349D01*
X109554554Y-116355452D01*
X109352775Y-116491535D01*
X109181422Y-116664368D01*
X109047079Y-116867309D01*
X108954909Y-117092560D01*
X108951038Y-117130233D01*
X108131672Y-117130233D01*
X107988651Y-117095123D01*
X107721018Y-117083238D01*
X107456209Y-117123794D01*
X107204400Y-117215233D01*
X107097465Y-117272392D01*
X107034972Y-117508709D01*
X85299599Y-117508709D01*
X85299599Y-116463871D01*
X85302056Y-116438927D01*
X85299586Y-116413848D01*
X85292248Y-116339343D01*
X85263200Y-116243585D01*
X85221500Y-116165570D01*
X85216028Y-116155332D01*
X85168449Y-116097357D01*
X85152547Y-116077980D01*
X85133170Y-116062078D01*
X82089716Y-113018625D01*
X82073809Y-112999242D01*
X81996456Y-112935761D01*
X81908204Y-112888589D01*
X81812446Y-112859541D01*
X81737808Y-112852190D01*
X81737805Y-112852190D01*
X81712861Y-112849733D01*
X81687917Y-112852190D01*
X71509281Y-112852190D01*
X71374000Y-112716910D01*
X71374000Y-111086501D01*
X71472642Y-110987859D01*
X71558113Y-110859942D01*
X71616987Y-110717809D01*
X71647000Y-110566922D01*
X71647000Y-110413078D01*
X71616987Y-110262191D01*
X71558113Y-110120058D01*
X71472642Y-109992141D01*
X71363859Y-109883358D01*
X71235942Y-109797887D01*
X71093809Y-109739013D01*
X70942922Y-109709000D01*
X70789078Y-109709000D01*
X70638191Y-109739013D01*
X70624652Y-109744621D01*
X70624652Y-109417768D01*
X70772342Y-109270078D01*
X83166000Y-109270078D01*
X83166000Y-109423922D01*
X83196013Y-109574809D01*
X83254887Y-109716942D01*
X83340358Y-109844859D01*
X83449141Y-109953642D01*
X83577058Y-110039113D01*
X83719191Y-110097987D01*
X83870078Y-110128000D01*
X84009580Y-110128000D01*
X84522650Y-110641071D01*
X84538552Y-110660448D01*
X84557929Y-110676350D01*
X84615904Y-110723929D01*
X84704155Y-110771100D01*
X84704157Y-110771101D01*
X84799915Y-110800149D01*
X84874553Y-110807500D01*
X84874555Y-110807500D01*
X84899499Y-110809957D01*
X84924443Y-110807500D01*
X88366999Y-110807500D01*
X88465641Y-110906142D01*
X88593558Y-110991613D01*
X88735691Y-111050487D01*
X88886578Y-111080500D01*
X89040422Y-111080500D01*
X89191309Y-111050487D01*
X89333442Y-110991613D01*
X89461359Y-110906142D01*
X89570142Y-110797359D01*
X89655613Y-110669442D01*
X89714487Y-110527309D01*
X89744500Y-110376422D01*
X89744500Y-110222578D01*
X89714487Y-110071691D01*
X89655613Y-109929558D01*
X89570142Y-109801641D01*
X89461359Y-109692858D01*
X89333442Y-109607387D01*
X89191309Y-109548513D01*
X89040422Y-109518500D01*
X88886578Y-109518500D01*
X88735691Y-109548513D01*
X88593558Y-109607387D01*
X88465641Y-109692858D01*
X88366999Y-109791500D01*
X85109921Y-109791500D01*
X84728000Y-109409580D01*
X84728000Y-109270078D01*
X84697987Y-109119191D01*
X84639113Y-108977058D01*
X84553642Y-108849141D01*
X84444859Y-108740358D01*
X84316942Y-108654887D01*
X84174809Y-108596013D01*
X84023922Y-108566000D01*
X83870078Y-108566000D01*
X83719191Y-108596013D01*
X83577058Y-108654887D01*
X83449141Y-108740358D01*
X83340358Y-108849141D01*
X83254887Y-108977058D01*
X83196013Y-109119191D01*
X83166000Y-109270078D01*
X70772342Y-109270078D01*
X74378421Y-105664000D01*
X76729862Y-105664000D01*
X76777887Y-105779942D01*
X76863358Y-105907859D01*
X76972141Y-106016642D01*
X77100058Y-106102113D01*
X77242191Y-106160987D01*
X77393078Y-106191000D01*
X77546922Y-106191000D01*
X77697809Y-106160987D01*
X77839942Y-106102113D01*
X77967859Y-106016642D01*
X78076642Y-105907859D01*
X78162113Y-105779942D01*
X78220987Y-105637809D01*
X78251000Y-105486922D01*
X78251000Y-105333078D01*
X78220987Y-105182191D01*
X78162113Y-105040058D01*
X78076642Y-104912141D01*
X77967859Y-104803358D01*
X77839942Y-104717887D01*
X77697809Y-104659013D01*
X77546922Y-104629000D01*
X77393078Y-104629000D01*
X77278810Y-104651729D01*
X77240947Y-104648000D01*
X77240944Y-104648000D01*
X77216000Y-104645543D01*
X77191056Y-104648000D01*
X74192943Y-104648000D01*
X74167999Y-104645543D01*
X74143055Y-104648000D01*
X74143053Y-104648000D01*
X74068415Y-104655351D01*
X73972657Y-104684399D01*
X73972655Y-104684400D01*
X73884404Y-104731571D01*
X73849043Y-104760591D01*
X73807052Y-104795052D01*
X73791150Y-104814429D01*
X70028525Y-108577055D01*
X70026407Y-108575316D01*
X69488041Y-108036952D01*
X69488041Y-106694300D01*
X69490498Y-106669356D01*
X69488041Y-106644410D01*
X69480690Y-106569772D01*
X69451642Y-106474014D01*
X69422048Y-106418648D01*
X69404470Y-106385761D01*
X69356891Y-106327786D01*
X69340989Y-106308409D01*
X69321611Y-106292506D01*
X67919734Y-104890632D01*
X67903823Y-104871244D01*
X67884429Y-104855328D01*
X67614860Y-104585760D01*
X67614860Y-102210891D01*
X84903519Y-102210891D01*
X85000843Y-102485252D01*
X85149822Y-102735355D01*
X85344731Y-102951588D01*
X85578080Y-103125641D01*
X85840901Y-103250825D01*
X85988110Y-103295476D01*
X86218000Y-103174155D01*
X86218000Y-101981000D01*
X85024186Y-101981000D01*
X84903519Y-102210891D01*
X67614860Y-102210891D01*
X67614860Y-98969860D01*
X68815686Y-97769034D01*
X68835091Y-97753109D01*
X68850998Y-97733726D01*
X72909484Y-93675240D01*
X88537804Y-93675240D01*
X92081953Y-97219389D01*
X89294474Y-97219389D01*
X89269530Y-97216932D01*
X89244586Y-97219389D01*
X89244583Y-97219389D01*
X89169945Y-97226740D01*
X89074187Y-97255788D01*
X88985935Y-97302960D01*
X88908582Y-97366441D01*
X88892675Y-97385824D01*
X88543435Y-97735064D01*
X88524052Y-97750971D01*
X88460571Y-97828324D01*
X88413399Y-97916577D01*
X88384351Y-98012335D01*
X88377000Y-98086972D01*
X88374543Y-98111919D01*
X88377000Y-98136864D01*
X88377000Y-98191996D01*
X88301903Y-98223102D01*
X88100283Y-98357820D01*
X87928820Y-98529283D01*
X87794102Y-98730903D01*
X87701307Y-98954931D01*
X87654000Y-99192757D01*
X87654000Y-99435243D01*
X87701307Y-99673069D01*
X87794102Y-99897097D01*
X87928820Y-100098717D01*
X88100283Y-100270180D01*
X88301903Y-100404898D01*
X88525931Y-100497693D01*
X88763757Y-100545000D01*
X89006243Y-100545000D01*
X89244069Y-100497693D01*
X89468097Y-100404898D01*
X89531802Y-100362332D01*
X89531802Y-100488777D01*
X89319166Y-100701413D01*
X89244069Y-100670307D01*
X89006243Y-100623000D01*
X88763757Y-100623000D01*
X88525931Y-100670307D01*
X88301903Y-100763102D01*
X88100283Y-100897820D01*
X87928820Y-101069283D01*
X87794102Y-101270903D01*
X87746772Y-101385168D01*
X87689157Y-101222748D01*
X87540178Y-100972645D01*
X87345269Y-100756412D01*
X87111920Y-100582359D01*
X86849099Y-100457175D01*
X86821846Y-100448909D01*
X86928097Y-100404898D01*
X87129717Y-100270180D01*
X87301180Y-100098717D01*
X87435898Y-99897097D01*
X87528693Y-99673069D01*
X87576000Y-99435243D01*
X87576000Y-99192757D01*
X87528693Y-98954931D01*
X87435898Y-98730903D01*
X87301180Y-98529283D01*
X87129717Y-98357820D01*
X86928097Y-98223102D01*
X86704069Y-98130307D01*
X86466243Y-98083000D01*
X86223757Y-98083000D01*
X85985931Y-98130307D01*
X85761903Y-98223102D01*
X85560283Y-98357820D01*
X85388820Y-98529283D01*
X85254102Y-98730903D01*
X85161307Y-98954931D01*
X85114000Y-99192757D01*
X85114000Y-99435243D01*
X85161307Y-99673069D01*
X85254102Y-99897097D01*
X85388820Y-100098717D01*
X85560283Y-100270180D01*
X85761903Y-100404898D01*
X85868154Y-100448909D01*
X85840901Y-100457175D01*
X85578080Y-100582359D01*
X85344731Y-100756412D01*
X85149822Y-100972645D01*
X85000843Y-101222748D01*
X84903519Y-101497109D01*
X85024186Y-101727000D01*
X86218000Y-101727000D01*
X86218000Y-101707000D01*
X86472000Y-101707000D01*
X86472000Y-101727000D01*
X86492000Y-101727000D01*
X86492000Y-101981000D01*
X86472000Y-101981000D01*
X86472000Y-103174155D01*
X86701890Y-103295476D01*
X86849099Y-103250825D01*
X87111920Y-103125641D01*
X87345269Y-102951588D01*
X87540178Y-102735355D01*
X87689157Y-102485252D01*
X87746772Y-102322832D01*
X87794102Y-102437097D01*
X87928820Y-102638717D01*
X88100283Y-102810180D01*
X88301903Y-102944898D01*
X88525931Y-103037693D01*
X88763757Y-103085000D01*
X89006243Y-103085000D01*
X89244069Y-103037693D01*
X89468097Y-102944898D01*
X89669717Y-102810180D01*
X89841180Y-102638717D01*
X89975898Y-102437097D01*
X90068693Y-102213069D01*
X90116000Y-101975243D01*
X90116000Y-101732757D01*
X90194000Y-101732757D01*
X90194000Y-101975243D01*
X90241307Y-102213069D01*
X90334102Y-102437097D01*
X90468820Y-102638717D01*
X90640283Y-102810180D01*
X90841903Y-102944898D01*
X91065931Y-103037693D01*
X91303757Y-103085000D01*
X91546243Y-103085000D01*
X91784069Y-103037693D01*
X92008097Y-102944898D01*
X92209717Y-102810180D01*
X92381180Y-102638717D01*
X92515898Y-102437097D01*
X92608693Y-102213069D01*
X92656000Y-101975243D01*
X92656000Y-101732757D01*
X92608693Y-101494931D01*
X92515898Y-101270903D01*
X92381180Y-101069283D01*
X92209717Y-100897820D01*
X92008097Y-100763102D01*
X91784069Y-100670307D01*
X91546243Y-100623000D01*
X91303757Y-100623000D01*
X91065931Y-100670307D01*
X90841903Y-100763102D01*
X90640283Y-100897820D01*
X90468820Y-101069283D01*
X90334102Y-101270903D01*
X90241307Y-101494931D01*
X90194000Y-101732757D01*
X90116000Y-101732757D01*
X90068693Y-101494931D01*
X90037587Y-101419834D01*
X90381372Y-101076049D01*
X90400749Y-101060147D01*
X90419425Y-101037389D01*
X90464230Y-100982795D01*
X90511401Y-100894544D01*
X90511402Y-100894542D01*
X90540450Y-100798784D01*
X90547801Y-100724146D01*
X90547801Y-100724144D01*
X90550258Y-100699200D01*
X90547801Y-100674256D01*
X90547801Y-100544164D01*
X90575000Y-100546843D01*
X92275000Y-100546843D01*
X92349689Y-100539487D01*
X92421508Y-100517701D01*
X92487696Y-100482322D01*
X92545711Y-100434711D01*
X92593322Y-100376696D01*
X92628701Y-100310508D01*
X92650487Y-100238689D01*
X92657843Y-100164000D01*
X92657843Y-100161263D01*
X95250001Y-102753421D01*
X95250000Y-115227499D01*
X95151358Y-115326141D01*
X95065887Y-115454058D01*
X95007013Y-115596191D01*
X94977000Y-115747078D01*
X94977000Y-115900922D01*
X95007013Y-116051809D01*
X95065887Y-116193942D01*
X95151358Y-116321859D01*
X95260141Y-116430642D01*
X95388058Y-116516113D01*
X95530191Y-116574987D01*
X95681078Y-116605000D01*
X95834922Y-116605000D01*
X95985809Y-116574987D01*
X96127942Y-116516113D01*
X96255859Y-116430642D01*
X96364642Y-116321859D01*
X96450113Y-116193942D01*
X96508987Y-116051809D01*
X96539000Y-115900922D01*
X96539000Y-115747078D01*
X96518934Y-115646199D01*
X96539723Y-115646199D01*
X96690610Y-115616186D01*
X96832743Y-115557312D01*
X96960660Y-115471841D01*
X97069443Y-115363058D01*
X97154914Y-115235141D01*
X97213788Y-115093008D01*
X97243801Y-114942121D01*
X97243801Y-114788277D01*
X97223735Y-114687398D01*
X97244524Y-114687398D01*
X97395411Y-114657385D01*
X97537544Y-114598511D01*
X97665461Y-114513040D01*
X97774244Y-114404257D01*
X97859715Y-114276340D01*
X97918589Y-114134207D01*
X97948602Y-113983320D01*
X97948602Y-113893403D01*
X97949325Y-113893403D01*
X98100212Y-113863390D01*
X98242345Y-113804516D01*
X98370262Y-113719045D01*
X98479045Y-113610262D01*
X98564516Y-113482345D01*
X98623390Y-113340212D01*
X98653403Y-113189325D01*
X98653403Y-113035481D01*
X98623390Y-112884594D01*
X98564516Y-112742461D01*
X98479045Y-112614544D01*
X98380403Y-112515902D01*
X98380403Y-102316363D01*
X98382860Y-102291419D01*
X98379707Y-102259405D01*
X98373052Y-102191834D01*
X98344004Y-102096076D01*
X98296832Y-102007824D01*
X98233351Y-101930471D01*
X98213968Y-101914564D01*
X90485902Y-94186498D01*
X90539942Y-94164113D01*
X90667859Y-94078642D01*
X90719380Y-94027121D01*
X90747887Y-94095942D01*
X90833358Y-94223859D01*
X90942141Y-94332642D01*
X91070058Y-94418113D01*
X91212191Y-94476987D01*
X91363078Y-94507000D01*
X91516922Y-94507000D01*
X91667809Y-94476987D01*
X91809942Y-94418113D01*
X91937859Y-94332642D01*
X92046642Y-94223859D01*
X92132113Y-94095942D01*
X92190987Y-93953809D01*
X92221000Y-93802922D01*
X92221000Y-93649078D01*
X92190987Y-93498191D01*
X92132113Y-93356058D01*
X92046642Y-93228141D01*
X91948000Y-93129499D01*
X91948000Y-92988943D01*
X91950457Y-92963999D01*
X91947877Y-92937809D01*
X91940649Y-92864415D01*
X91911601Y-92768657D01*
X91893841Y-92735430D01*
X91864429Y-92680404D01*
X91816850Y-92622429D01*
X91800948Y-92603052D01*
X91781570Y-92587149D01*
X91574231Y-92379810D01*
X104842284Y-92379810D01*
X107155447Y-94692974D01*
X107155447Y-94832475D01*
X107185460Y-94983362D01*
X107244334Y-95125495D01*
X107329805Y-95253412D01*
X107438588Y-95362195D01*
X107566505Y-95447666D01*
X107708638Y-95506540D01*
X107859525Y-95536553D01*
X108013369Y-95536553D01*
X108164256Y-95506540D01*
X108306389Y-95447666D01*
X108434306Y-95362195D01*
X108543089Y-95253412D01*
X108628560Y-95125495D01*
X108687434Y-94983362D01*
X108717447Y-94832475D01*
X108717447Y-94678631D01*
X108687434Y-94527744D01*
X108628560Y-94385611D01*
X108543089Y-94257694D01*
X108434306Y-94148911D01*
X108306389Y-94063440D01*
X108164256Y-94004566D01*
X108013369Y-93974553D01*
X107873868Y-93974553D01*
X107302164Y-93402849D01*
X107303942Y-93402113D01*
X107431859Y-93316642D01*
X107540642Y-93207859D01*
X107626113Y-93079942D01*
X107684987Y-92937809D01*
X107715000Y-92786922D01*
X107715000Y-92633078D01*
X107684987Y-92482191D01*
X107626113Y-92340058D01*
X107540642Y-92212141D01*
X107431859Y-92103358D01*
X107303942Y-92017887D01*
X107161809Y-91959013D01*
X107010922Y-91929000D01*
X106871421Y-91929000D01*
X106040855Y-91098435D01*
X106024948Y-91079052D01*
X105947595Y-91015571D01*
X105859343Y-90968399D01*
X105763585Y-90939351D01*
X105688947Y-90932000D01*
X105688944Y-90932000D01*
X105664000Y-90929543D01*
X105639056Y-90932000D01*
X69874943Y-90932000D01*
X69849999Y-90929543D01*
X69825055Y-90932000D01*
X69825053Y-90932000D01*
X69750415Y-90939351D01*
X69654657Y-90968399D01*
X69654655Y-90968400D01*
X69566404Y-91015571D01*
X69511810Y-91060376D01*
X69489052Y-91079052D01*
X69473150Y-91098429D01*
X68520385Y-92051194D01*
X68529000Y-92007885D01*
X68529000Y-91588115D01*
X68447107Y-91176410D01*
X68286468Y-90788593D01*
X68053256Y-90439567D01*
X67756433Y-90142744D01*
X67407407Y-89909532D01*
X67019590Y-89748893D01*
X66803952Y-89706000D01*
X110996048Y-89706000D01*
X110780410Y-89748893D01*
G04 #@! TA.AperFunction,Conductor*
D17*
G36*
X110780410Y-89748893D02*
G01*
X110392593Y-89909532D01*
X110043567Y-90142744D01*
X109746744Y-90439567D01*
X109513532Y-90788593D01*
X109352893Y-91176410D01*
X109271000Y-91588115D01*
X109271000Y-92007885D01*
X109352893Y-92419590D01*
X109513532Y-92807407D01*
X109746744Y-93156433D01*
X110043567Y-93453256D01*
X110392593Y-93686468D01*
X110780410Y-93847107D01*
X111192115Y-93929000D01*
X111611885Y-93929000D01*
X112023590Y-93847107D01*
X112411407Y-93686468D01*
X112760433Y-93453256D01*
X113057256Y-93156433D01*
X113290468Y-92807407D01*
X113451107Y-92419590D01*
X113494000Y-92203952D01*
X113494001Y-136394053D01*
X113451107Y-136178410D01*
X113290468Y-135790593D01*
X113057256Y-135441567D01*
X112760433Y-135144744D01*
X112411407Y-134911532D01*
X112023590Y-134750893D01*
X111611885Y-134669000D01*
X111192115Y-134669000D01*
X110780410Y-134750893D01*
X110392593Y-134911532D01*
X110043567Y-135144744D01*
X109746744Y-135441567D01*
X109513532Y-135790593D01*
X109352893Y-136178410D01*
X109271000Y-136590115D01*
X109271000Y-137009885D01*
X109352893Y-137421590D01*
X109513532Y-137809407D01*
X109746744Y-138158433D01*
X110043567Y-138455256D01*
X110392593Y-138688468D01*
X110780410Y-138849107D01*
X111006103Y-138894000D01*
X97917420Y-138894000D01*
X99655565Y-137155855D01*
X99674948Y-137139948D01*
X99738429Y-137062595D01*
X99785601Y-136974343D01*
X99814649Y-136878585D01*
X99822000Y-136803947D01*
X99822000Y-136803944D01*
X99824457Y-136779000D01*
X99822000Y-136754056D01*
X99822000Y-132460278D01*
X100844400Y-132460278D01*
X100844400Y-132614122D01*
X100874413Y-132765009D01*
X100933287Y-132907142D01*
X101018758Y-133035059D01*
X101127541Y-133143842D01*
X101255458Y-133229313D01*
X101397591Y-133288187D01*
X101548478Y-133318200D01*
X101702322Y-133318200D01*
X101853209Y-133288187D01*
X101995342Y-133229313D01*
X102123259Y-133143842D01*
X102232042Y-133035059D01*
X102317513Y-132907142D01*
X102376387Y-132765009D01*
X102406400Y-132614122D01*
X102406400Y-132474620D01*
X104957842Y-129923179D01*
X105040058Y-129978113D01*
X105182191Y-130036987D01*
X105333078Y-130067000D01*
X105486922Y-130067000D01*
X105637809Y-130036987D01*
X105779942Y-129978113D01*
X105907859Y-129892642D01*
X106016642Y-129783859D01*
X106102113Y-129655942D01*
X106160987Y-129513809D01*
X106191000Y-129362922D01*
X106191000Y-129209078D01*
X106160987Y-129058191D01*
X106102113Y-128916058D01*
X106016642Y-128788141D01*
X105907859Y-128679358D01*
X105779942Y-128593887D01*
X105637809Y-128535013D01*
X105486922Y-128505000D01*
X105333078Y-128505000D01*
X105182191Y-128535013D01*
X105040058Y-128593887D01*
X104912141Y-128679358D01*
X104809331Y-128782168D01*
X104777015Y-128785351D01*
X104681257Y-128814399D01*
X104640176Y-128836357D01*
X104593004Y-128861571D01*
X104548557Y-128898048D01*
X104515652Y-128925052D01*
X104499750Y-128944429D01*
X101687980Y-131756200D01*
X101548478Y-131756200D01*
X101397591Y-131786213D01*
X101255458Y-131845087D01*
X101127541Y-131930558D01*
X101018758Y-132039341D01*
X100933287Y-132167258D01*
X100874413Y-132309391D01*
X100844400Y-132460278D01*
X99822000Y-132460278D01*
X99822000Y-129818943D01*
X99824457Y-129793999D01*
X99819656Y-129745254D01*
X99814649Y-129694415D01*
X99785601Y-129598657D01*
X99785600Y-129598655D01*
X99738429Y-129510404D01*
X99690850Y-129452429D01*
X99674948Y-129433052D01*
X99655571Y-129417150D01*
X97682000Y-127443580D01*
X97682000Y-127304078D01*
X97651987Y-127153191D01*
X97593113Y-127011058D01*
X97507642Y-126883141D01*
X97398859Y-126774358D01*
X97270942Y-126688887D01*
X97128809Y-126630013D01*
X96977922Y-126600000D01*
X96824078Y-126600000D01*
X96673191Y-126630013D01*
X96531058Y-126688887D01*
X96403141Y-126774358D01*
X96294358Y-126883141D01*
X96208887Y-127011058D01*
X96150013Y-127153191D01*
X96120000Y-127304078D01*
X96120000Y-127457922D01*
X96150013Y-127608809D01*
X96208887Y-127750942D01*
X96294358Y-127878859D01*
X96403141Y-127987642D01*
X96437140Y-128010359D01*
X96429617Y-128017882D01*
X96344146Y-128145799D01*
X96285272Y-128287932D01*
X96255259Y-128438819D01*
X96255259Y-128578320D01*
X89597580Y-135236000D01*
X89458078Y-135236000D01*
X89307191Y-135266013D01*
X89165058Y-135324887D01*
X89037141Y-135410358D01*
X88928358Y-135519141D01*
X88842887Y-135647058D01*
X88784013Y-135789191D01*
X88754000Y-135940078D01*
X88754000Y-136093922D01*
X88784013Y-136244809D01*
X88815887Y-136321760D01*
X84707450Y-136321760D01*
X84825859Y-136242642D01*
X84934642Y-136133859D01*
X85020113Y-136005942D01*
X85078987Y-135863809D01*
X85109000Y-135712922D01*
X85109000Y-135559078D01*
X85078987Y-135408191D01*
X85020113Y-135266058D01*
X84934642Y-135138141D01*
X84825859Y-135029358D01*
X84697942Y-134943887D01*
X84555809Y-134885013D01*
X84404922Y-134855000D01*
X84251078Y-134855000D01*
X84100191Y-134885013D01*
X83958058Y-134943887D01*
X83830141Y-135029358D01*
X83801728Y-135057771D01*
X83728142Y-134947641D01*
X83619359Y-134838858D01*
X83574413Y-134808826D01*
X83623113Y-134735942D01*
X83681987Y-134593809D01*
X83712000Y-134442922D01*
X83712000Y-134289078D01*
X83681987Y-134138191D01*
X83623113Y-133996058D01*
X83537642Y-133868141D01*
X83428859Y-133759358D01*
X83300942Y-133673887D01*
X83158809Y-133615013D01*
X83007922Y-133585000D01*
X82854078Y-133585000D01*
X82703191Y-133615013D01*
X82639679Y-133641321D01*
X82665987Y-133577809D01*
X82696000Y-133426922D01*
X82696000Y-133273078D01*
X82665987Y-133122191D01*
X82607113Y-132980058D01*
X82521642Y-132852141D01*
X82412859Y-132743358D01*
X82284942Y-132657887D01*
X82142809Y-132599013D01*
X81991922Y-132569000D01*
X81838078Y-132569000D01*
X81687191Y-132599013D01*
X81545058Y-132657887D01*
X81417141Y-132743358D01*
X81308358Y-132852141D01*
X81222887Y-132980058D01*
X81164013Y-133122191D01*
X81134000Y-133273078D01*
X81134000Y-133412579D01*
X80383870Y-134162710D01*
X79772806Y-134162710D01*
X80074421Y-133861096D01*
X80213922Y-133861096D01*
X80364809Y-133831083D01*
X80506942Y-133772209D01*
X80634859Y-133686738D01*
X80743642Y-133577955D01*
X80829113Y-133450038D01*
X80887987Y-133307905D01*
X80918000Y-133157018D01*
X80918000Y-133003174D01*
X80887987Y-132852287D01*
X80829113Y-132710154D01*
X80743642Y-132582237D01*
X80634859Y-132473454D01*
X80506942Y-132387983D01*
X80364809Y-132329109D01*
X80213922Y-132299096D01*
X80060078Y-132299096D01*
X79909191Y-132329109D01*
X79767058Y-132387983D01*
X79639141Y-132473454D01*
X79530358Y-132582237D01*
X79496687Y-132632630D01*
X79473642Y-132598141D01*
X79364859Y-132489358D01*
X79236942Y-132403887D01*
X79094809Y-132345013D01*
X78943922Y-132315000D01*
X78790078Y-132315000D01*
X78639191Y-132345013D01*
X78497058Y-132403887D01*
X78369141Y-132489358D01*
X78260358Y-132598141D01*
X78174887Y-132726058D01*
X78116013Y-132868191D01*
X78086000Y-133019078D01*
X78086000Y-133158580D01*
X78021234Y-133223345D01*
X75621850Y-130823957D01*
X75605943Y-130804574D01*
X75528590Y-130741093D01*
X75440338Y-130693921D01*
X75344580Y-130664873D01*
X75269942Y-130657522D01*
X75269939Y-130657522D01*
X75244995Y-130655065D01*
X75220051Y-130657522D01*
X73625973Y-130657522D01*
X68913440Y-125944990D01*
X68913440Y-125081578D01*
X71799500Y-125081578D01*
X71799500Y-125235422D01*
X71829513Y-125386309D01*
X71888387Y-125528442D01*
X71973858Y-125656359D01*
X72082641Y-125765142D01*
X72210558Y-125850613D01*
X72352691Y-125909487D01*
X72503578Y-125939500D01*
X72657422Y-125939500D01*
X72808309Y-125909487D01*
X72950442Y-125850613D01*
X73078359Y-125765142D01*
X73177001Y-125666500D01*
X74257299Y-125666500D01*
X74355941Y-125765142D01*
X74483858Y-125850613D01*
X74625991Y-125909487D01*
X74776878Y-125939500D01*
X74930722Y-125939500D01*
X75081609Y-125909487D01*
X75223742Y-125850613D01*
X75351659Y-125765142D01*
X75460442Y-125656359D01*
X75545913Y-125528442D01*
X75604787Y-125386309D01*
X75634800Y-125235422D01*
X75634800Y-125081578D01*
X75604787Y-124930691D01*
X75545913Y-124788558D01*
X75529557Y-124764078D01*
X98914000Y-124764078D01*
X98914000Y-124917922D01*
X98944013Y-125068809D01*
X99002887Y-125210942D01*
X99088358Y-125338859D01*
X99187001Y-125437502D01*
X99187000Y-128605590D01*
X99184543Y-128630534D01*
X99187000Y-128655478D01*
X99187000Y-128655480D01*
X99194351Y-128730118D01*
X99223399Y-128825876D01*
X99270571Y-128914129D01*
X99334052Y-128991482D01*
X99353435Y-129007389D01*
X100543598Y-130197552D01*
X100543598Y-130337054D01*
X100573611Y-130487941D01*
X100632485Y-130630074D01*
X100717956Y-130757991D01*
X100826739Y-130866774D01*
X100954656Y-130952245D01*
X101096789Y-131011119D01*
X101247676Y-131041132D01*
X101401520Y-131041132D01*
X101552407Y-131011119D01*
X101694540Y-130952245D01*
X101822457Y-130866774D01*
X101931240Y-130757991D01*
X102016711Y-130630074D01*
X102075585Y-130487941D01*
X102105598Y-130337054D01*
X102105598Y-130183210D01*
X102075585Y-130032323D01*
X102016711Y-129890190D01*
X101931240Y-129762273D01*
X101822457Y-129653490D01*
X101694540Y-129568019D01*
X101552407Y-129509145D01*
X101401520Y-129479132D01*
X101262018Y-129479132D01*
X100203000Y-128420114D01*
X100203000Y-125437501D01*
X100301642Y-125338859D01*
X100387113Y-125210942D01*
X100445987Y-125068809D01*
X100476000Y-124917922D01*
X100476000Y-124764078D01*
X100445987Y-124613191D01*
X100387113Y-124471058D01*
X100330931Y-124386975D01*
X107034972Y-124386975D01*
X107097465Y-124623292D01*
X107340178Y-124736692D01*
X107600349Y-124800561D01*
X107867982Y-124812446D01*
X108132791Y-124771890D01*
X108150523Y-124765451D01*
X108951038Y-124765451D01*
X108954909Y-124803124D01*
X109047079Y-125028375D01*
X109181422Y-125231316D01*
X109352775Y-125404149D01*
X109554554Y-125540232D01*
X109779004Y-125634335D01*
X110017500Y-125682842D01*
X110367500Y-125682842D01*
X110367500Y-124574842D01*
X110621500Y-124574842D01*
X110621500Y-125682842D01*
X110971500Y-125682842D01*
X111209996Y-125634335D01*
X111434446Y-125540232D01*
X111636225Y-125404149D01*
X111807578Y-125231316D01*
X111941921Y-125028375D01*
X112034091Y-124803124D01*
X112037962Y-124765451D01*
X111913231Y-124574842D01*
X110621500Y-124574842D01*
X110367500Y-124574842D01*
X109075769Y-124574842D01*
X108951038Y-124765451D01*
X108150523Y-124765451D01*
X108384600Y-124680451D01*
X108491535Y-124623292D01*
X108554028Y-124386975D01*
X107794500Y-123627447D01*
X107034972Y-124386975D01*
X100330931Y-124386975D01*
X100301642Y-124343141D01*
X100192859Y-124234358D01*
X100064942Y-124148887D01*
X99922809Y-124090013D01*
X99771922Y-124060000D01*
X99618078Y-124060000D01*
X99467191Y-124090013D01*
X99325058Y-124148887D01*
X99197141Y-124234358D01*
X99088358Y-124343141D01*
X99002887Y-124471058D01*
X98944013Y-124613191D01*
X98914000Y-124764078D01*
X75529557Y-124764078D01*
X75460442Y-124660641D01*
X75351659Y-124551858D01*
X75223742Y-124466387D01*
X75081609Y-124407513D01*
X74930722Y-124377500D01*
X74776878Y-124377500D01*
X74625991Y-124407513D01*
X74483858Y-124466387D01*
X74355941Y-124551858D01*
X74257299Y-124650500D01*
X73177001Y-124650500D01*
X73078359Y-124551858D01*
X72950442Y-124466387D01*
X72808309Y-124407513D01*
X72657422Y-124377500D01*
X72503578Y-124377500D01*
X72352691Y-124407513D01*
X72210558Y-124466387D01*
X72082641Y-124551858D01*
X71973858Y-124660641D01*
X71888387Y-124788558D01*
X71829513Y-124930691D01*
X71799500Y-125081578D01*
X68913440Y-125081578D01*
X68913440Y-124310384D01*
X68915897Y-124285440D01*
X68913440Y-124260493D01*
X68910290Y-124228510D01*
X68910290Y-123521324D01*
X106429896Y-123521324D01*
X106470452Y-123786133D01*
X106561891Y-124037942D01*
X106619050Y-124144877D01*
X106855367Y-124207370D01*
X107614895Y-123447842D01*
X107974105Y-123447842D01*
X108733633Y-124207370D01*
X108961997Y-124146980D01*
X109075769Y-124320842D01*
X110367500Y-124320842D01*
X110367500Y-123212842D01*
X110621500Y-123212842D01*
X110621500Y-124320842D01*
X111913231Y-124320842D01*
X112037962Y-124130233D01*
X112034091Y-124092560D01*
X111941921Y-123867309D01*
X111807578Y-123664368D01*
X111636225Y-123491535D01*
X111434446Y-123355452D01*
X111209996Y-123261349D01*
X110971500Y-123212842D01*
X110621500Y-123212842D01*
X110367500Y-123212842D01*
X110017500Y-123212842D01*
X109779004Y-123261349D01*
X109554554Y-123355452D01*
X109352775Y-123491535D01*
X109181422Y-123664368D01*
X109118329Y-123759678D01*
X109147219Y-123641993D01*
X109159104Y-123374360D01*
X109118548Y-123109551D01*
X109027109Y-122857742D01*
X108969950Y-122750807D01*
X108733633Y-122688314D01*
X107974105Y-123447842D01*
X107614895Y-123447842D01*
X106855367Y-122688314D01*
X106619050Y-122750807D01*
X106505650Y-122993520D01*
X106441781Y-123253691D01*
X106429896Y-123521324D01*
X68910290Y-123521324D01*
X68910290Y-122508709D01*
X107034972Y-122508709D01*
X107794500Y-123268237D01*
X108554028Y-122508709D01*
X108491535Y-122272392D01*
X108248822Y-122158992D01*
X107988651Y-122095123D01*
X107721018Y-122083238D01*
X107456209Y-122123794D01*
X107204400Y-122215233D01*
X107097465Y-122272392D01*
X107034972Y-122508709D01*
X68910290Y-122508709D01*
X68910290Y-119158710D01*
X69577000Y-119825421D01*
X69577000Y-119964922D01*
X69607013Y-120115809D01*
X69665887Y-120257942D01*
X69751358Y-120385859D01*
X69860141Y-120494642D01*
X69988058Y-120580113D01*
X70130191Y-120638987D01*
X70281078Y-120669000D01*
X70434922Y-120669000D01*
X70585809Y-120638987D01*
X70727942Y-120580113D01*
X70855859Y-120494642D01*
X70964642Y-120385859D01*
X71050113Y-120257942D01*
X71108987Y-120115809D01*
X71139000Y-119964922D01*
X71139000Y-119811078D01*
X71108987Y-119660191D01*
X71050113Y-119518058D01*
X70964642Y-119390141D01*
X70855859Y-119281358D01*
X70727942Y-119195887D01*
X70585809Y-119137013D01*
X70434922Y-119107000D01*
X70295421Y-119107000D01*
X69646860Y-118458440D01*
X69646860Y-116213280D01*
X69694570Y-116165570D01*
X69694574Y-116165565D01*
X70026406Y-115833735D01*
X70045790Y-115817827D01*
X70099740Y-115752088D01*
X70109271Y-115740475D01*
X70156442Y-115652224D01*
X70158270Y-115646199D01*
X70185491Y-115556464D01*
X70192842Y-115481826D01*
X70192842Y-115481824D01*
X70195299Y-115456880D01*
X70192842Y-115431936D01*
X70192842Y-113583262D01*
X70743149Y-114133570D01*
X70759052Y-114152948D01*
X70778429Y-114168850D01*
X70836404Y-114216429D01*
X70924655Y-114263600D01*
X70924657Y-114263601D01*
X71020415Y-114292649D01*
X71095053Y-114300000D01*
X71095055Y-114300000D01*
X71119999Y-114302457D01*
X71144943Y-114300000D01*
X77889499Y-114300000D01*
X77882556Y-114306943D01*
X77878415Y-114307351D01*
X77782657Y-114336399D01*
X77746432Y-114355762D01*
X77694404Y-114383571D01*
X77639810Y-114428376D01*
X77617052Y-114447052D01*
X77601150Y-114466429D01*
X76620430Y-115447150D01*
X76601053Y-115463052D01*
X76585151Y-115482429D01*
X76585150Y-115482430D01*
X76537571Y-115540405D01*
X76504828Y-115601664D01*
X76490400Y-115628657D01*
X76462915Y-115719265D01*
X76461352Y-115724416D01*
X76451543Y-115824000D01*
X76454001Y-115848954D01*
X76454000Y-117005499D01*
X76355358Y-117104141D01*
X76269887Y-117232058D01*
X76211013Y-117374191D01*
X76181000Y-117525078D01*
X76181000Y-117678922D01*
X76211013Y-117829809D01*
X76269887Y-117971942D01*
X76355358Y-118099859D01*
X76464141Y-118208642D01*
X76592058Y-118294113D01*
X76734191Y-118352987D01*
X76885078Y-118383000D01*
X77038922Y-118383000D01*
X77189809Y-118352987D01*
X77331942Y-118294113D01*
X77459859Y-118208642D01*
X77568642Y-118099859D01*
X77654113Y-117971942D01*
X77712987Y-117829809D01*
X77743000Y-117678922D01*
X77743000Y-117525078D01*
X77712987Y-117374191D01*
X77654113Y-117232058D01*
X77568642Y-117104141D01*
X77470000Y-117005499D01*
X77470000Y-116034420D01*
X78049068Y-115455352D01*
X78116058Y-115500113D01*
X78258191Y-115558987D01*
X78409078Y-115589000D01*
X78562922Y-115589000D01*
X78713809Y-115558987D01*
X78855942Y-115500113D01*
X78983859Y-115414642D01*
X79092642Y-115305859D01*
X79178113Y-115177942D01*
X79236987Y-115035809D01*
X79267000Y-114884922D01*
X79267000Y-114731078D01*
X79236987Y-114580191D01*
X79178113Y-114438058D01*
X79092642Y-114310141D01*
X79082501Y-114300000D01*
X81323580Y-114300000D01*
X83851790Y-116828211D01*
X83851789Y-119005845D01*
X83849332Y-119030789D01*
X83851789Y-119055733D01*
X83851789Y-119055735D01*
X83859140Y-119130373D01*
X83888188Y-119226131D01*
X83935360Y-119314384D01*
X83998841Y-119391737D01*
X84018224Y-119407644D01*
X84563000Y-119952420D01*
X84563000Y-120091922D01*
X84593013Y-120242809D01*
X84651887Y-120384942D01*
X84737358Y-120512859D01*
X84846141Y-120621642D01*
X84974058Y-120707113D01*
X85116191Y-120765987D01*
X85267078Y-120796000D01*
X85420922Y-120796000D01*
X85571809Y-120765987D01*
X85713942Y-120707113D01*
X85841859Y-120621642D01*
X85933772Y-120529729D01*
X86007358Y-120639859D01*
X86116141Y-120748642D01*
X86244058Y-120834113D01*
X86386191Y-120892987D01*
X86537078Y-120923000D01*
X86690922Y-120923000D01*
X86841809Y-120892987D01*
X86983942Y-120834113D01*
X87111859Y-120748642D01*
X87220642Y-120639859D01*
X87306113Y-120511942D01*
X87364987Y-120369809D01*
X87395000Y-120218922D01*
X87395000Y-120065078D01*
X87364987Y-119914191D01*
X87306113Y-119772058D01*
X87220642Y-119644141D01*
X87111859Y-119535358D01*
X86983942Y-119449887D01*
X86841809Y-119391013D01*
X86821509Y-119386975D01*
X107034972Y-119386975D01*
X107097465Y-119623292D01*
X107340178Y-119736692D01*
X107600349Y-119800561D01*
X107867982Y-119812446D01*
X108132791Y-119771890D01*
X108384600Y-119680451D01*
X108491535Y-119623292D01*
X108554028Y-119386975D01*
X107794500Y-118627447D01*
X107034972Y-119386975D01*
X86821509Y-119386975D01*
X86690922Y-119361000D01*
X86551421Y-119361000D01*
X85711745Y-118521324D01*
X106429896Y-118521324D01*
X106470452Y-118786133D01*
X106561891Y-119037942D01*
X106619050Y-119144877D01*
X106855367Y-119207370D01*
X107614895Y-118447842D01*
X107974105Y-118447842D01*
X108733633Y-119207370D01*
X108969950Y-119144877D01*
X109083350Y-118902164D01*
X109147219Y-118641993D01*
X109159104Y-118374360D01*
X109123885Y-118144400D01*
X109181422Y-118231316D01*
X109352775Y-118404149D01*
X109554554Y-118540232D01*
X109779004Y-118634335D01*
X110017500Y-118682842D01*
X110367500Y-118682842D01*
X110367500Y-117574842D01*
X110621500Y-117574842D01*
X110621500Y-118682842D01*
X110971500Y-118682842D01*
X111209996Y-118634335D01*
X111434446Y-118540232D01*
X111636225Y-118404149D01*
X111807578Y-118231316D01*
X111941921Y-118028375D01*
X112034091Y-117803124D01*
X112037962Y-117765451D01*
X111913231Y-117574842D01*
X110621500Y-117574842D01*
X110367500Y-117574842D01*
X109075769Y-117574842D01*
X108961997Y-117748704D01*
X108733633Y-117688314D01*
X107974105Y-118447842D01*
X107614895Y-118447842D01*
X106855367Y-117688314D01*
X106619050Y-117750807D01*
X106505650Y-117993520D01*
X106441781Y-118253691D01*
X106429896Y-118521324D01*
X85711745Y-118521324D01*
X85299599Y-118109179D01*
X85299599Y-117508709D01*
X107034972Y-117508709D01*
X107794500Y-118268237D01*
X108554028Y-117508709D01*
X108491535Y-117272392D01*
X108248822Y-117158992D01*
X108131672Y-117130233D01*
X108951038Y-117130233D01*
X109075769Y-117320842D01*
X110367500Y-117320842D01*
X110367500Y-116212842D01*
X110621500Y-116212842D01*
X110621500Y-117320842D01*
X111913231Y-117320842D01*
X112037962Y-117130233D01*
X112034091Y-117092560D01*
X111941921Y-116867309D01*
X111807578Y-116664368D01*
X111636225Y-116491535D01*
X111434446Y-116355452D01*
X111209996Y-116261349D01*
X110971500Y-116212842D01*
X110621500Y-116212842D01*
X110367500Y-116212842D01*
X110017500Y-116212842D01*
X109779004Y-116261349D01*
X109554554Y-116355452D01*
X109352775Y-116491535D01*
X109181422Y-116664368D01*
X109047079Y-116867309D01*
X108954909Y-117092560D01*
X108951038Y-117130233D01*
X108131672Y-117130233D01*
X107988651Y-117095123D01*
X107721018Y-117083238D01*
X107456209Y-117123794D01*
X107204400Y-117215233D01*
X107097465Y-117272392D01*
X107034972Y-117508709D01*
X85299599Y-117508709D01*
X85299599Y-116463871D01*
X85302056Y-116438927D01*
X85299586Y-116413848D01*
X85292248Y-116339343D01*
X85263200Y-116243585D01*
X85221500Y-116165570D01*
X85216028Y-116155332D01*
X85168449Y-116097357D01*
X85152547Y-116077980D01*
X85133170Y-116062078D01*
X82089716Y-113018625D01*
X82073809Y-112999242D01*
X81996456Y-112935761D01*
X81908204Y-112888589D01*
X81812446Y-112859541D01*
X81737808Y-112852190D01*
X81737805Y-112852190D01*
X81712861Y-112849733D01*
X81687917Y-112852190D01*
X71509281Y-112852190D01*
X71374000Y-112716910D01*
X71374000Y-111086501D01*
X71472642Y-110987859D01*
X71558113Y-110859942D01*
X71616987Y-110717809D01*
X71647000Y-110566922D01*
X71647000Y-110413078D01*
X71616987Y-110262191D01*
X71558113Y-110120058D01*
X71472642Y-109992141D01*
X71363859Y-109883358D01*
X71235942Y-109797887D01*
X71093809Y-109739013D01*
X70942922Y-109709000D01*
X70789078Y-109709000D01*
X70638191Y-109739013D01*
X70624652Y-109744621D01*
X70624652Y-109417768D01*
X70772342Y-109270078D01*
X83166000Y-109270078D01*
X83166000Y-109423922D01*
X83196013Y-109574809D01*
X83254887Y-109716942D01*
X83340358Y-109844859D01*
X83449141Y-109953642D01*
X83577058Y-110039113D01*
X83719191Y-110097987D01*
X83870078Y-110128000D01*
X84009580Y-110128000D01*
X84522650Y-110641071D01*
X84538552Y-110660448D01*
X84557929Y-110676350D01*
X84615904Y-110723929D01*
X84704155Y-110771100D01*
X84704157Y-110771101D01*
X84799915Y-110800149D01*
X84874553Y-110807500D01*
X84874555Y-110807500D01*
X84899499Y-110809957D01*
X84924443Y-110807500D01*
X88366999Y-110807500D01*
X88465641Y-110906142D01*
X88593558Y-110991613D01*
X88735691Y-111050487D01*
X88886578Y-111080500D01*
X89040422Y-111080500D01*
X89191309Y-111050487D01*
X89333442Y-110991613D01*
X89461359Y-110906142D01*
X89570142Y-110797359D01*
X89655613Y-110669442D01*
X89714487Y-110527309D01*
X89744500Y-110376422D01*
X89744500Y-110222578D01*
X89714487Y-110071691D01*
X89655613Y-109929558D01*
X89570142Y-109801641D01*
X89461359Y-109692858D01*
X89333442Y-109607387D01*
X89191309Y-109548513D01*
X89040422Y-109518500D01*
X88886578Y-109518500D01*
X88735691Y-109548513D01*
X88593558Y-109607387D01*
X88465641Y-109692858D01*
X88366999Y-109791500D01*
X85109921Y-109791500D01*
X84728000Y-109409580D01*
X84728000Y-109270078D01*
X84697987Y-109119191D01*
X84639113Y-108977058D01*
X84553642Y-108849141D01*
X84444859Y-108740358D01*
X84316942Y-108654887D01*
X84174809Y-108596013D01*
X84023922Y-108566000D01*
X83870078Y-108566000D01*
X83719191Y-108596013D01*
X83577058Y-108654887D01*
X83449141Y-108740358D01*
X83340358Y-108849141D01*
X83254887Y-108977058D01*
X83196013Y-109119191D01*
X83166000Y-109270078D01*
X70772342Y-109270078D01*
X74378421Y-105664000D01*
X76729862Y-105664000D01*
X76777887Y-105779942D01*
X76863358Y-105907859D01*
X76972141Y-106016642D01*
X77100058Y-106102113D01*
X77242191Y-106160987D01*
X77393078Y-106191000D01*
X77546922Y-106191000D01*
X77697809Y-106160987D01*
X77839942Y-106102113D01*
X77967859Y-106016642D01*
X78076642Y-105907859D01*
X78162113Y-105779942D01*
X78220987Y-105637809D01*
X78251000Y-105486922D01*
X78251000Y-105333078D01*
X78220987Y-105182191D01*
X78162113Y-105040058D01*
X78076642Y-104912141D01*
X77967859Y-104803358D01*
X77839942Y-104717887D01*
X77697809Y-104659013D01*
X77546922Y-104629000D01*
X77393078Y-104629000D01*
X77278810Y-104651729D01*
X77240947Y-104648000D01*
X77240944Y-104648000D01*
X77216000Y-104645543D01*
X77191056Y-104648000D01*
X74192943Y-104648000D01*
X74167999Y-104645543D01*
X74143055Y-104648000D01*
X74143053Y-104648000D01*
X74068415Y-104655351D01*
X73972657Y-104684399D01*
X73972655Y-104684400D01*
X73884404Y-104731571D01*
X73849043Y-104760591D01*
X73807052Y-104795052D01*
X73791150Y-104814429D01*
X70028525Y-108577055D01*
X70026407Y-108575316D01*
X69488041Y-108036952D01*
X69488041Y-106694300D01*
X69490498Y-106669356D01*
X69488041Y-106644410D01*
X69480690Y-106569772D01*
X69451642Y-106474014D01*
X69422048Y-106418648D01*
X69404470Y-106385761D01*
X69356891Y-106327786D01*
X69340989Y-106308409D01*
X69321611Y-106292506D01*
X67919734Y-104890632D01*
X67903823Y-104871244D01*
X67884429Y-104855328D01*
X67614860Y-104585760D01*
X67614860Y-102210891D01*
X84903519Y-102210891D01*
X85000843Y-102485252D01*
X85149822Y-102735355D01*
X85344731Y-102951588D01*
X85578080Y-103125641D01*
X85840901Y-103250825D01*
X85988110Y-103295476D01*
X86218000Y-103174155D01*
X86218000Y-101981000D01*
X85024186Y-101981000D01*
X84903519Y-102210891D01*
X67614860Y-102210891D01*
X67614860Y-98969860D01*
X68815686Y-97769034D01*
X68835091Y-97753109D01*
X68850998Y-97733726D01*
X72909484Y-93675240D01*
X88537804Y-93675240D01*
X92081953Y-97219389D01*
X89294474Y-97219389D01*
X89269530Y-97216932D01*
X89244586Y-97219389D01*
X89244583Y-97219389D01*
X89169945Y-97226740D01*
X89074187Y-97255788D01*
X88985935Y-97302960D01*
X88908582Y-97366441D01*
X88892675Y-97385824D01*
X88543435Y-97735064D01*
X88524052Y-97750971D01*
X88460571Y-97828324D01*
X88413399Y-97916577D01*
X88384351Y-98012335D01*
X88377000Y-98086972D01*
X88374543Y-98111919D01*
X88377000Y-98136864D01*
X88377000Y-98191996D01*
X88301903Y-98223102D01*
X88100283Y-98357820D01*
X87928820Y-98529283D01*
X87794102Y-98730903D01*
X87701307Y-98954931D01*
X87654000Y-99192757D01*
X87654000Y-99435243D01*
X87701307Y-99673069D01*
X87794102Y-99897097D01*
X87928820Y-100098717D01*
X88100283Y-100270180D01*
X88301903Y-100404898D01*
X88525931Y-100497693D01*
X88763757Y-100545000D01*
X89006243Y-100545000D01*
X89244069Y-100497693D01*
X89468097Y-100404898D01*
X89531802Y-100362332D01*
X89531802Y-100488777D01*
X89319166Y-100701413D01*
X89244069Y-100670307D01*
X89006243Y-100623000D01*
X88763757Y-100623000D01*
X88525931Y-100670307D01*
X88301903Y-100763102D01*
X88100283Y-100897820D01*
X87928820Y-101069283D01*
X87794102Y-101270903D01*
X87746772Y-101385168D01*
X87689157Y-101222748D01*
X87540178Y-100972645D01*
X87345269Y-100756412D01*
X87111920Y-100582359D01*
X86849099Y-100457175D01*
X86821846Y-100448909D01*
X86928097Y-100404898D01*
X87129717Y-100270180D01*
X87301180Y-100098717D01*
X87435898Y-99897097D01*
X87528693Y-99673069D01*
X87576000Y-99435243D01*
X87576000Y-99192757D01*
X87528693Y-98954931D01*
X87435898Y-98730903D01*
X87301180Y-98529283D01*
X87129717Y-98357820D01*
X86928097Y-98223102D01*
X86704069Y-98130307D01*
X86466243Y-98083000D01*
X86223757Y-98083000D01*
X85985931Y-98130307D01*
X85761903Y-98223102D01*
X85560283Y-98357820D01*
X85388820Y-98529283D01*
X85254102Y-98730903D01*
X85161307Y-98954931D01*
X85114000Y-99192757D01*
X85114000Y-99435243D01*
X85161307Y-99673069D01*
X85254102Y-99897097D01*
X85388820Y-100098717D01*
X85560283Y-100270180D01*
X85761903Y-100404898D01*
X85868154Y-100448909D01*
X85840901Y-100457175D01*
X85578080Y-100582359D01*
X85344731Y-100756412D01*
X85149822Y-100972645D01*
X85000843Y-101222748D01*
X84903519Y-101497109D01*
X85024186Y-101727000D01*
X86218000Y-101727000D01*
X86218000Y-101707000D01*
X86472000Y-101707000D01*
X86472000Y-101727000D01*
X86492000Y-101727000D01*
X86492000Y-101981000D01*
X86472000Y-101981000D01*
X86472000Y-103174155D01*
X86701890Y-103295476D01*
X86849099Y-103250825D01*
X87111920Y-103125641D01*
X87345269Y-102951588D01*
X87540178Y-102735355D01*
X87689157Y-102485252D01*
X87746772Y-102322832D01*
X87794102Y-102437097D01*
X87928820Y-102638717D01*
X88100283Y-102810180D01*
X88301903Y-102944898D01*
X88525931Y-103037693D01*
X88763757Y-103085000D01*
X89006243Y-103085000D01*
X89244069Y-103037693D01*
X89468097Y-102944898D01*
X89669717Y-102810180D01*
X89841180Y-102638717D01*
X89975898Y-102437097D01*
X90068693Y-102213069D01*
X90116000Y-101975243D01*
X90116000Y-101732757D01*
X90194000Y-101732757D01*
X90194000Y-101975243D01*
X90241307Y-102213069D01*
X90334102Y-102437097D01*
X90468820Y-102638717D01*
X90640283Y-102810180D01*
X90841903Y-102944898D01*
X91065931Y-103037693D01*
X91303757Y-103085000D01*
X91546243Y-103085000D01*
X91784069Y-103037693D01*
X92008097Y-102944898D01*
X92209717Y-102810180D01*
X92381180Y-102638717D01*
X92515898Y-102437097D01*
X92608693Y-102213069D01*
X92656000Y-101975243D01*
X92656000Y-101732757D01*
X92608693Y-101494931D01*
X92515898Y-101270903D01*
X92381180Y-101069283D01*
X92209717Y-100897820D01*
X92008097Y-100763102D01*
X91784069Y-100670307D01*
X91546243Y-100623000D01*
X91303757Y-100623000D01*
X91065931Y-100670307D01*
X90841903Y-100763102D01*
X90640283Y-100897820D01*
X90468820Y-101069283D01*
X90334102Y-101270903D01*
X90241307Y-101494931D01*
X90194000Y-101732757D01*
X90116000Y-101732757D01*
X90068693Y-101494931D01*
X90037587Y-101419834D01*
X90381372Y-101076049D01*
X90400749Y-101060147D01*
X90419425Y-101037389D01*
X90464230Y-100982795D01*
X90511401Y-100894544D01*
X90511402Y-100894542D01*
X90540450Y-100798784D01*
X90547801Y-100724146D01*
X90547801Y-100724144D01*
X90550258Y-100699200D01*
X90547801Y-100674256D01*
X90547801Y-100544164D01*
X90575000Y-100546843D01*
X92275000Y-100546843D01*
X92349689Y-100539487D01*
X92421508Y-100517701D01*
X92487696Y-100482322D01*
X92545711Y-100434711D01*
X92593322Y-100376696D01*
X92628701Y-100310508D01*
X92650487Y-100238689D01*
X92657843Y-100164000D01*
X92657843Y-100161263D01*
X95250001Y-102753421D01*
X95250000Y-115227499D01*
X95151358Y-115326141D01*
X95065887Y-115454058D01*
X95007013Y-115596191D01*
X94977000Y-115747078D01*
X94977000Y-115900922D01*
X95007013Y-116051809D01*
X95065887Y-116193942D01*
X95151358Y-116321859D01*
X95260141Y-116430642D01*
X95388058Y-116516113D01*
X95530191Y-116574987D01*
X95681078Y-116605000D01*
X95834922Y-116605000D01*
X95985809Y-116574987D01*
X96127942Y-116516113D01*
X96255859Y-116430642D01*
X96364642Y-116321859D01*
X96450113Y-116193942D01*
X96508987Y-116051809D01*
X96539000Y-115900922D01*
X96539000Y-115747078D01*
X96518934Y-115646199D01*
X96539723Y-115646199D01*
X96690610Y-115616186D01*
X96832743Y-115557312D01*
X96960660Y-115471841D01*
X97069443Y-115363058D01*
X97154914Y-115235141D01*
X97213788Y-115093008D01*
X97243801Y-114942121D01*
X97243801Y-114788277D01*
X97223735Y-114687398D01*
X97244524Y-114687398D01*
X97395411Y-114657385D01*
X97537544Y-114598511D01*
X97665461Y-114513040D01*
X97774244Y-114404257D01*
X97859715Y-114276340D01*
X97918589Y-114134207D01*
X97948602Y-113983320D01*
X97948602Y-113893403D01*
X97949325Y-113893403D01*
X98100212Y-113863390D01*
X98242345Y-113804516D01*
X98370262Y-113719045D01*
X98479045Y-113610262D01*
X98564516Y-113482345D01*
X98623390Y-113340212D01*
X98653403Y-113189325D01*
X98653403Y-113035481D01*
X98623390Y-112884594D01*
X98564516Y-112742461D01*
X98479045Y-112614544D01*
X98380403Y-112515902D01*
X98380403Y-102316363D01*
X98382860Y-102291419D01*
X98379707Y-102259405D01*
X98373052Y-102191834D01*
X98344004Y-102096076D01*
X98296832Y-102007824D01*
X98233351Y-101930471D01*
X98213968Y-101914564D01*
X90485902Y-94186498D01*
X90539942Y-94164113D01*
X90667859Y-94078642D01*
X90719380Y-94027121D01*
X90747887Y-94095942D01*
X90833358Y-94223859D01*
X90942141Y-94332642D01*
X91070058Y-94418113D01*
X91212191Y-94476987D01*
X91363078Y-94507000D01*
X91516922Y-94507000D01*
X91667809Y-94476987D01*
X91809942Y-94418113D01*
X91937859Y-94332642D01*
X92046642Y-94223859D01*
X92132113Y-94095942D01*
X92190987Y-93953809D01*
X92221000Y-93802922D01*
X92221000Y-93649078D01*
X92190987Y-93498191D01*
X92132113Y-93356058D01*
X92046642Y-93228141D01*
X91948000Y-93129499D01*
X91948000Y-92988943D01*
X91950457Y-92963999D01*
X91947877Y-92937809D01*
X91940649Y-92864415D01*
X91911601Y-92768657D01*
X91893841Y-92735430D01*
X91864429Y-92680404D01*
X91816850Y-92622429D01*
X91800948Y-92603052D01*
X91781570Y-92587149D01*
X91574231Y-92379810D01*
X104842284Y-92379810D01*
X107155447Y-94692974D01*
X107155447Y-94832475D01*
X107185460Y-94983362D01*
X107244334Y-95125495D01*
X107329805Y-95253412D01*
X107438588Y-95362195D01*
X107566505Y-95447666D01*
X107708638Y-95506540D01*
X107859525Y-95536553D01*
X108013369Y-95536553D01*
X108164256Y-95506540D01*
X108306389Y-95447666D01*
X108434306Y-95362195D01*
X108543089Y-95253412D01*
X108628560Y-95125495D01*
X108687434Y-94983362D01*
X108717447Y-94832475D01*
X108717447Y-94678631D01*
X108687434Y-94527744D01*
X108628560Y-94385611D01*
X108543089Y-94257694D01*
X108434306Y-94148911D01*
X108306389Y-94063440D01*
X108164256Y-94004566D01*
X108013369Y-93974553D01*
X107873868Y-93974553D01*
X107302164Y-93402849D01*
X107303942Y-93402113D01*
X107431859Y-93316642D01*
X107540642Y-93207859D01*
X107626113Y-93079942D01*
X107684987Y-92937809D01*
X107715000Y-92786922D01*
X107715000Y-92633078D01*
X107684987Y-92482191D01*
X107626113Y-92340058D01*
X107540642Y-92212141D01*
X107431859Y-92103358D01*
X107303942Y-92017887D01*
X107161809Y-91959013D01*
X107010922Y-91929000D01*
X106871421Y-91929000D01*
X106040855Y-91098435D01*
X106024948Y-91079052D01*
X105947595Y-91015571D01*
X105859343Y-90968399D01*
X105763585Y-90939351D01*
X105688947Y-90932000D01*
X105688944Y-90932000D01*
X105664000Y-90929543D01*
X105639056Y-90932000D01*
X69874943Y-90932000D01*
X69849999Y-90929543D01*
X69825055Y-90932000D01*
X69825053Y-90932000D01*
X69750415Y-90939351D01*
X69654657Y-90968399D01*
X69654655Y-90968400D01*
X69566404Y-91015571D01*
X69511810Y-91060376D01*
X69489052Y-91079052D01*
X69473150Y-91098429D01*
X68520385Y-92051194D01*
X68529000Y-92007885D01*
X68529000Y-91588115D01*
X68447107Y-91176410D01*
X68286468Y-90788593D01*
X68053256Y-90439567D01*
X67756433Y-90142744D01*
X67407407Y-89909532D01*
X67019590Y-89748893D01*
X66803952Y-89706000D01*
X110996048Y-89706000D01*
X110780410Y-89748893D01*
G37*
G04 #@! TD.AperFunction*
D16*
X98806000Y-130004421D02*
X98806001Y-135069980D01*
X98215400Y-134479380D01*
X98215400Y-134339878D01*
X98185387Y-134188991D01*
X98126513Y-134046858D01*
X98041042Y-133918941D01*
X97932259Y-133810158D01*
X97804342Y-133724687D01*
X97662209Y-133665813D01*
X97511322Y-133635800D01*
X97357478Y-133635800D01*
X97206591Y-133665813D01*
X97064458Y-133724687D01*
X96936541Y-133810158D01*
X96827758Y-133918941D01*
X96742287Y-134046858D01*
X96683413Y-134188991D01*
X96653400Y-134339878D01*
X96653400Y-134493722D01*
X96683413Y-134644609D01*
X96742287Y-134786742D01*
X96827758Y-134914659D01*
X96936541Y-135023442D01*
X97064458Y-135108913D01*
X97206591Y-135167787D01*
X97357478Y-135197800D01*
X97496980Y-135197800D01*
X98374190Y-136075011D01*
X98374191Y-136389718D01*
X97146720Y-137617190D01*
X95155610Y-137617190D01*
X95845571Y-136927230D01*
X95864948Y-136911328D01*
X95915686Y-136849503D01*
X95928429Y-136833976D01*
X95960059Y-136774800D01*
X95975601Y-136745723D01*
X96004649Y-136649965D01*
X96012000Y-136575327D01*
X96012000Y-136575325D01*
X96014457Y-136550381D01*
X96012000Y-136525437D01*
X96012000Y-134200501D01*
X96110642Y-134101859D01*
X96196113Y-133973942D01*
X96254987Y-133831809D01*
X96285000Y-133680922D01*
X96285000Y-133527078D01*
X96254987Y-133376191D01*
X96196113Y-133234058D01*
X96110642Y-133106141D01*
X96001859Y-132997358D01*
X95873942Y-132911887D01*
X95731809Y-132853013D01*
X95580922Y-132823000D01*
X95427078Y-132823000D01*
X95276191Y-132853013D01*
X95134058Y-132911887D01*
X95006141Y-132997358D01*
X94897358Y-133106141D01*
X94811887Y-133234058D01*
X94753013Y-133376191D01*
X94723000Y-133527078D01*
X94723000Y-133680922D01*
X94753013Y-133831809D01*
X94811887Y-133973942D01*
X94897358Y-134101859D01*
X94996000Y-134200501D01*
X94996000Y-134291582D01*
X94967642Y-134249141D01*
X94858859Y-134140358D01*
X94730942Y-134054887D01*
X94588809Y-133996013D01*
X94437922Y-133966000D01*
X94284078Y-133966000D01*
X94133191Y-133996013D01*
X93991058Y-134054887D01*
X93863141Y-134140358D01*
X93754358Y-134249141D01*
X93721559Y-134298229D01*
X93714987Y-134265191D01*
X93656113Y-134123058D01*
X93570642Y-133995141D01*
X93461859Y-133886358D01*
X93333942Y-133800887D01*
X93191809Y-133742013D01*
X93040922Y-133712000D01*
X92887078Y-133712000D01*
X92736191Y-133742013D01*
X92594058Y-133800887D01*
X92466141Y-133886358D01*
X92357358Y-133995141D01*
X92271887Y-134123058D01*
X92213013Y-134265191D01*
X92183000Y-134416078D01*
X92183000Y-134569922D01*
X92213013Y-134720809D01*
X92271887Y-134862942D01*
X92357358Y-134990859D01*
X92456000Y-135089501D01*
X92456001Y-135679578D01*
X91813820Y-136321760D01*
X90254113Y-136321760D01*
X90285987Y-136244809D01*
X90316000Y-136093922D01*
X90316000Y-135954420D01*
X96973680Y-129296741D01*
X97113181Y-129296741D01*
X97264068Y-129266728D01*
X97406201Y-129207854D01*
X97534118Y-129122383D01*
X97642901Y-129013600D01*
X97711906Y-128910326D01*
X98806000Y-130004421D01*
G04 #@! TA.AperFunction,Conductor*
D17*
G36*
X98806000Y-130004421D02*
G01*
X98806001Y-135069980D01*
X98215400Y-134479380D01*
X98215400Y-134339878D01*
X98185387Y-134188991D01*
X98126513Y-134046858D01*
X98041042Y-133918941D01*
X97932259Y-133810158D01*
X97804342Y-133724687D01*
X97662209Y-133665813D01*
X97511322Y-133635800D01*
X97357478Y-133635800D01*
X97206591Y-133665813D01*
X97064458Y-133724687D01*
X96936541Y-133810158D01*
X96827758Y-133918941D01*
X96742287Y-134046858D01*
X96683413Y-134188991D01*
X96653400Y-134339878D01*
X96653400Y-134493722D01*
X96683413Y-134644609D01*
X96742287Y-134786742D01*
X96827758Y-134914659D01*
X96936541Y-135023442D01*
X97064458Y-135108913D01*
X97206591Y-135167787D01*
X97357478Y-135197800D01*
X97496980Y-135197800D01*
X98374190Y-136075011D01*
X98374191Y-136389718D01*
X97146720Y-137617190D01*
X95155610Y-137617190D01*
X95845571Y-136927230D01*
X95864948Y-136911328D01*
X95915686Y-136849503D01*
X95928429Y-136833976D01*
X95960059Y-136774800D01*
X95975601Y-136745723D01*
X96004649Y-136649965D01*
X96012000Y-136575327D01*
X96012000Y-136575325D01*
X96014457Y-136550381D01*
X96012000Y-136525437D01*
X96012000Y-134200501D01*
X96110642Y-134101859D01*
X96196113Y-133973942D01*
X96254987Y-133831809D01*
X96285000Y-133680922D01*
X96285000Y-133527078D01*
X96254987Y-133376191D01*
X96196113Y-133234058D01*
X96110642Y-133106141D01*
X96001859Y-132997358D01*
X95873942Y-132911887D01*
X95731809Y-132853013D01*
X95580922Y-132823000D01*
X95427078Y-132823000D01*
X95276191Y-132853013D01*
X95134058Y-132911887D01*
X95006141Y-132997358D01*
X94897358Y-133106141D01*
X94811887Y-133234058D01*
X94753013Y-133376191D01*
X94723000Y-133527078D01*
X94723000Y-133680922D01*
X94753013Y-133831809D01*
X94811887Y-133973942D01*
X94897358Y-134101859D01*
X94996000Y-134200501D01*
X94996000Y-134291582D01*
X94967642Y-134249141D01*
X94858859Y-134140358D01*
X94730942Y-134054887D01*
X94588809Y-133996013D01*
X94437922Y-133966000D01*
X94284078Y-133966000D01*
X94133191Y-133996013D01*
X93991058Y-134054887D01*
X93863141Y-134140358D01*
X93754358Y-134249141D01*
X93721559Y-134298229D01*
X93714987Y-134265191D01*
X93656113Y-134123058D01*
X93570642Y-133995141D01*
X93461859Y-133886358D01*
X93333942Y-133800887D01*
X93191809Y-133742013D01*
X93040922Y-133712000D01*
X92887078Y-133712000D01*
X92736191Y-133742013D01*
X92594058Y-133800887D01*
X92466141Y-133886358D01*
X92357358Y-133995141D01*
X92271887Y-134123058D01*
X92213013Y-134265191D01*
X92183000Y-134416078D01*
X92183000Y-134569922D01*
X92213013Y-134720809D01*
X92271887Y-134862942D01*
X92357358Y-134990859D01*
X92456000Y-135089501D01*
X92456001Y-135679578D01*
X91813820Y-136321760D01*
X90254113Y-136321760D01*
X90285987Y-136244809D01*
X90316000Y-136093922D01*
X90316000Y-135954420D01*
X96973680Y-129296741D01*
X97113181Y-129296741D01*
X97264068Y-129266728D01*
X97406201Y-129207854D01*
X97534118Y-129122383D01*
X97642901Y-129013600D01*
X97711906Y-128910326D01*
X98806000Y-130004421D01*
G37*
G04 #@! TD.AperFunction*
M02*
