M48
; DRILL file {KiCad (5.1.8)-1} date 01/03/21 13:21:26
; FORMAT={-:-/ absolute / inch / decimal}
; #@! TF.CreationDate,2021-01-03T13:21:26-07:00
; #@! TF.GenerationSoftware,Kicad,Pcbnew,(5.1.8)-1
FMAT,2
INCH
T1C0.0157
T2C0.0236
T3C0.0335
T4C0.0394
T5C0.0866
%
G90
G05
T1
X2.54Y-4.59
X2.62Y-3.77
X2.62Y-4.24
X2.637Y-4.493
X2.6987Y-4.4387
X2.73Y-3.74
X2.73Y-5.41
X2.766Y-5.298
X2.77Y-4.72
X2.79Y-4.35
X2.8575Y-4.9275
X2.86Y-5.09
X2.9425Y-4.36
X2.947Y-4.9275
X2.9625Y-4.7575
X2.975Y-5.41
X3.03Y-4.63
X3.05Y-4.15
X3.09Y-4.52
X3.105Y-5.24
X3.118Y-4.658
X3.155Y-5.2394
X3.18Y-5.04
X3.215Y-5.3
X3.225Y-5.25
X3.265Y-5.29
X3.2725Y-5.3325
X3.305Y-4.305
X3.32Y-4.15
X3.32Y-5.34
X3.35Y-5.05
X3.36Y-4.725
X3.366Y-4.572
X3.41Y-4.73
X3.46Y-4.24
X3.5Y-4.9
X3.5Y-5.05
X3.5Y-5.2
X3.5025Y-4.3425
X3.525Y-5.355
X3.55Y-3.68
X3.58Y-4.42
X3.6Y-3.69
X3.62Y-5.34
X3.6375Y-4.1325
X3.64Y-4.585
X3.65Y-5.05
X3.66Y-5.295
X3.665Y-4.39
X3.715Y-5.305
X3.76Y-5.26
X3.77Y-4.56
X3.7977Y-4.5223
X3.815Y-5.015
X3.819Y-4.755
X3.82Y-5.4
X3.8203Y-5.0597
X3.8255Y-4.4845
X3.836Y-5.292
X3.8532Y-4.4532
X3.87Y-4.66
X3.89Y-4.1
X3.89Y-4.855
X3.89Y-4.94
X3.925Y-4.915
X3.95Y-4.305
X3.97Y-5.18
X3.9892Y-5.1284
X4.001Y-5.218
X4.02Y-5.37
X4.12Y-5.142
X4.1475Y-4.4025
X4.15Y-5.09
X4.21Y-3.65
X4.2495Y-3.7305
X4.28Y-5.44
X4.29Y-3.56
X4.3275Y-4.425
X4.41Y-5.09
X4.44Y-5.2575
T3
X4.2439Y-4.6633
X4.2439Y-4.8602
T4
X3.3994Y-3.91
X3.3994Y-4.01
X3.4994Y-3.91
X3.4994Y-4.01
X3.5994Y-3.91
X3.5994Y-4.01
T5
X2.6141Y-5.3858
X2.6141Y-3.6141
X4.3859Y-5.3858
X4.3859Y-3.6141
T2
G00X4.3364Y-4.6239
M15
G01X4.364Y-4.6239
M16
G05
G00X4.364Y-4.8995
M15
G01X4.3364Y-4.8995
M16
G05
T0
M30
