G04 #@! TF.GenerationSoftware,KiCad,Pcbnew,(5.1.4-0-10_14)*
G04 #@! TF.CreationDate,2021-01-03T16:04:41-07:00*
G04 #@! TF.ProjectId,Lights,4c696768-7473-42e6-9b69-6361645f7063,rev?*
G04 #@! TF.SameCoordinates,Original*
G04 #@! TF.FileFunction,Copper,L1,Top*
G04 #@! TF.FilePolarity,Positive*
%FSLAX46Y46*%
G04 Gerber Fmt 4.6, Leading zero omitted, Abs format (unit mm)*
G04 Created by KiCad (PCBNEW (5.1.4-0-10_14)) date 2021-01-03 16:04:41*
%MOMM*%
%LPD*%
G04 APERTURE LIST*
%ADD10C,0.100000*%
%ADD11C,0.950000*%
%ADD12C,3.800000*%
%ADD13C,0.600000*%
%ADD14C,1.000000*%
%ADD15C,0.800000*%
%ADD16C,0.254000*%
G04 APERTURE END LIST*
D10*
G36*
X142350779Y-94851144D02*
G01*
X142373834Y-94854563D01*
X142396443Y-94860227D01*
X142418387Y-94868079D01*
X142439457Y-94878044D01*
X142459448Y-94890026D01*
X142478168Y-94903910D01*
X142495438Y-94919562D01*
X142511090Y-94936832D01*
X142524974Y-94955552D01*
X142536956Y-94975543D01*
X142546921Y-94996613D01*
X142554773Y-95018557D01*
X142560437Y-95041166D01*
X142563856Y-95064221D01*
X142565000Y-95087500D01*
X142565000Y-95662500D01*
X142563856Y-95685779D01*
X142560437Y-95708834D01*
X142554773Y-95731443D01*
X142546921Y-95753387D01*
X142536956Y-95774457D01*
X142524974Y-95794448D01*
X142511090Y-95813168D01*
X142495438Y-95830438D01*
X142478168Y-95846090D01*
X142459448Y-95859974D01*
X142439457Y-95871956D01*
X142418387Y-95881921D01*
X142396443Y-95889773D01*
X142373834Y-95895437D01*
X142350779Y-95898856D01*
X142327500Y-95900000D01*
X141852500Y-95900000D01*
X141829221Y-95898856D01*
X141806166Y-95895437D01*
X141783557Y-95889773D01*
X141761613Y-95881921D01*
X141740543Y-95871956D01*
X141720552Y-95859974D01*
X141701832Y-95846090D01*
X141684562Y-95830438D01*
X141668910Y-95813168D01*
X141655026Y-95794448D01*
X141643044Y-95774457D01*
X141633079Y-95753387D01*
X141625227Y-95731443D01*
X141619563Y-95708834D01*
X141616144Y-95685779D01*
X141615000Y-95662500D01*
X141615000Y-95087500D01*
X141616144Y-95064221D01*
X141619563Y-95041166D01*
X141625227Y-95018557D01*
X141633079Y-94996613D01*
X141643044Y-94975543D01*
X141655026Y-94955552D01*
X141668910Y-94936832D01*
X141684562Y-94919562D01*
X141701832Y-94903910D01*
X141720552Y-94890026D01*
X141740543Y-94878044D01*
X141761613Y-94868079D01*
X141783557Y-94860227D01*
X141806166Y-94854563D01*
X141829221Y-94851144D01*
X141852500Y-94850000D01*
X142327500Y-94850000D01*
X142350779Y-94851144D01*
X142350779Y-94851144D01*
G37*
D11*
X142090000Y-95375000D03*
D10*
G36*
X142350779Y-96601144D02*
G01*
X142373834Y-96604563D01*
X142396443Y-96610227D01*
X142418387Y-96618079D01*
X142439457Y-96628044D01*
X142459448Y-96640026D01*
X142478168Y-96653910D01*
X142495438Y-96669562D01*
X142511090Y-96686832D01*
X142524974Y-96705552D01*
X142536956Y-96725543D01*
X142546921Y-96746613D01*
X142554773Y-96768557D01*
X142560437Y-96791166D01*
X142563856Y-96814221D01*
X142565000Y-96837500D01*
X142565000Y-97412500D01*
X142563856Y-97435779D01*
X142560437Y-97458834D01*
X142554773Y-97481443D01*
X142546921Y-97503387D01*
X142536956Y-97524457D01*
X142524974Y-97544448D01*
X142511090Y-97563168D01*
X142495438Y-97580438D01*
X142478168Y-97596090D01*
X142459448Y-97609974D01*
X142439457Y-97621956D01*
X142418387Y-97631921D01*
X142396443Y-97639773D01*
X142373834Y-97645437D01*
X142350779Y-97648856D01*
X142327500Y-97650000D01*
X141852500Y-97650000D01*
X141829221Y-97648856D01*
X141806166Y-97645437D01*
X141783557Y-97639773D01*
X141761613Y-97631921D01*
X141740543Y-97621956D01*
X141720552Y-97609974D01*
X141701832Y-97596090D01*
X141684562Y-97580438D01*
X141668910Y-97563168D01*
X141655026Y-97544448D01*
X141643044Y-97524457D01*
X141633079Y-97503387D01*
X141625227Y-97481443D01*
X141619563Y-97458834D01*
X141616144Y-97435779D01*
X141615000Y-97412500D01*
X141615000Y-96837500D01*
X141616144Y-96814221D01*
X141619563Y-96791166D01*
X141625227Y-96768557D01*
X141633079Y-96746613D01*
X141643044Y-96725543D01*
X141655026Y-96705552D01*
X141668910Y-96686832D01*
X141684562Y-96669562D01*
X141701832Y-96653910D01*
X141720552Y-96640026D01*
X141740543Y-96628044D01*
X141761613Y-96618079D01*
X141783557Y-96610227D01*
X141806166Y-96604563D01*
X141829221Y-96601144D01*
X141852500Y-96600000D01*
X142327500Y-96600000D01*
X142350779Y-96601144D01*
X142350779Y-96601144D01*
G37*
D11*
X142090000Y-97125000D03*
D10*
G36*
X145750779Y-96578644D02*
G01*
X145773834Y-96582063D01*
X145796443Y-96587727D01*
X145818387Y-96595579D01*
X145839457Y-96605544D01*
X145859448Y-96617526D01*
X145878168Y-96631410D01*
X145895438Y-96647062D01*
X145911090Y-96664332D01*
X145924974Y-96683052D01*
X145936956Y-96703043D01*
X145946921Y-96724113D01*
X145954773Y-96746057D01*
X145960437Y-96768666D01*
X145963856Y-96791721D01*
X145965000Y-96815000D01*
X145965000Y-97390000D01*
X145963856Y-97413279D01*
X145960437Y-97436334D01*
X145954773Y-97458943D01*
X145946921Y-97480887D01*
X145936956Y-97501957D01*
X145924974Y-97521948D01*
X145911090Y-97540668D01*
X145895438Y-97557938D01*
X145878168Y-97573590D01*
X145859448Y-97587474D01*
X145839457Y-97599456D01*
X145818387Y-97609421D01*
X145796443Y-97617273D01*
X145773834Y-97622937D01*
X145750779Y-97626356D01*
X145727500Y-97627500D01*
X145252500Y-97627500D01*
X145229221Y-97626356D01*
X145206166Y-97622937D01*
X145183557Y-97617273D01*
X145161613Y-97609421D01*
X145140543Y-97599456D01*
X145120552Y-97587474D01*
X145101832Y-97573590D01*
X145084562Y-97557938D01*
X145068910Y-97540668D01*
X145055026Y-97521948D01*
X145043044Y-97501957D01*
X145033079Y-97480887D01*
X145025227Y-97458943D01*
X145019563Y-97436334D01*
X145016144Y-97413279D01*
X145015000Y-97390000D01*
X145015000Y-96815000D01*
X145016144Y-96791721D01*
X145019563Y-96768666D01*
X145025227Y-96746057D01*
X145033079Y-96724113D01*
X145043044Y-96703043D01*
X145055026Y-96683052D01*
X145068910Y-96664332D01*
X145084562Y-96647062D01*
X145101832Y-96631410D01*
X145120552Y-96617526D01*
X145140543Y-96605544D01*
X145161613Y-96595579D01*
X145183557Y-96587727D01*
X145206166Y-96582063D01*
X145229221Y-96578644D01*
X145252500Y-96577500D01*
X145727500Y-96577500D01*
X145750779Y-96578644D01*
X145750779Y-96578644D01*
G37*
D11*
X145490000Y-97102500D03*
D10*
G36*
X145750779Y-94828644D02*
G01*
X145773834Y-94832063D01*
X145796443Y-94837727D01*
X145818387Y-94845579D01*
X145839457Y-94855544D01*
X145859448Y-94867526D01*
X145878168Y-94881410D01*
X145895438Y-94897062D01*
X145911090Y-94914332D01*
X145924974Y-94933052D01*
X145936956Y-94953043D01*
X145946921Y-94974113D01*
X145954773Y-94996057D01*
X145960437Y-95018666D01*
X145963856Y-95041721D01*
X145965000Y-95065000D01*
X145965000Y-95640000D01*
X145963856Y-95663279D01*
X145960437Y-95686334D01*
X145954773Y-95708943D01*
X145946921Y-95730887D01*
X145936956Y-95751957D01*
X145924974Y-95771948D01*
X145911090Y-95790668D01*
X145895438Y-95807938D01*
X145878168Y-95823590D01*
X145859448Y-95837474D01*
X145839457Y-95849456D01*
X145818387Y-95859421D01*
X145796443Y-95867273D01*
X145773834Y-95872937D01*
X145750779Y-95876356D01*
X145727500Y-95877500D01*
X145252500Y-95877500D01*
X145229221Y-95876356D01*
X145206166Y-95872937D01*
X145183557Y-95867273D01*
X145161613Y-95859421D01*
X145140543Y-95849456D01*
X145120552Y-95837474D01*
X145101832Y-95823590D01*
X145084562Y-95807938D01*
X145068910Y-95790668D01*
X145055026Y-95771948D01*
X145043044Y-95751957D01*
X145033079Y-95730887D01*
X145025227Y-95708943D01*
X145019563Y-95686334D01*
X145016144Y-95663279D01*
X145015000Y-95640000D01*
X145015000Y-95065000D01*
X145016144Y-95041721D01*
X145019563Y-95018666D01*
X145025227Y-94996057D01*
X145033079Y-94974113D01*
X145043044Y-94953043D01*
X145055026Y-94933052D01*
X145068910Y-94914332D01*
X145084562Y-94897062D01*
X145101832Y-94881410D01*
X145120552Y-94867526D01*
X145140543Y-94855544D01*
X145161613Y-94845579D01*
X145183557Y-94837727D01*
X145206166Y-94832063D01*
X145229221Y-94828644D01*
X145252500Y-94827500D01*
X145727500Y-94827500D01*
X145750779Y-94828644D01*
X145750779Y-94828644D01*
G37*
D11*
X145490000Y-95352500D03*
D12*
X138990000Y-96250000D03*
X148630000Y-96250000D03*
D10*
G36*
X144030779Y-94851144D02*
G01*
X144053834Y-94854563D01*
X144076443Y-94860227D01*
X144098387Y-94868079D01*
X144119457Y-94878044D01*
X144139448Y-94890026D01*
X144158168Y-94903910D01*
X144175438Y-94919562D01*
X144191090Y-94936832D01*
X144204974Y-94955552D01*
X144216956Y-94975543D01*
X144226921Y-94996613D01*
X144234773Y-95018557D01*
X144240437Y-95041166D01*
X144243856Y-95064221D01*
X144245000Y-95087500D01*
X144245000Y-95662500D01*
X144243856Y-95685779D01*
X144240437Y-95708834D01*
X144234773Y-95731443D01*
X144226921Y-95753387D01*
X144216956Y-95774457D01*
X144204974Y-95794448D01*
X144191090Y-95813168D01*
X144175438Y-95830438D01*
X144158168Y-95846090D01*
X144139448Y-95859974D01*
X144119457Y-95871956D01*
X144098387Y-95881921D01*
X144076443Y-95889773D01*
X144053834Y-95895437D01*
X144030779Y-95898856D01*
X144007500Y-95900000D01*
X143532500Y-95900000D01*
X143509221Y-95898856D01*
X143486166Y-95895437D01*
X143463557Y-95889773D01*
X143441613Y-95881921D01*
X143420543Y-95871956D01*
X143400552Y-95859974D01*
X143381832Y-95846090D01*
X143364562Y-95830438D01*
X143348910Y-95813168D01*
X143335026Y-95794448D01*
X143323044Y-95774457D01*
X143313079Y-95753387D01*
X143305227Y-95731443D01*
X143299563Y-95708834D01*
X143296144Y-95685779D01*
X143295000Y-95662500D01*
X143295000Y-95087500D01*
X143296144Y-95064221D01*
X143299563Y-95041166D01*
X143305227Y-95018557D01*
X143313079Y-94996613D01*
X143323044Y-94975543D01*
X143335026Y-94955552D01*
X143348910Y-94936832D01*
X143364562Y-94919562D01*
X143381832Y-94903910D01*
X143400552Y-94890026D01*
X143420543Y-94878044D01*
X143441613Y-94868079D01*
X143463557Y-94860227D01*
X143486166Y-94854563D01*
X143509221Y-94851144D01*
X143532500Y-94850000D01*
X144007500Y-94850000D01*
X144030779Y-94851144D01*
X144030779Y-94851144D01*
G37*
D11*
X143770000Y-95375000D03*
D10*
G36*
X144030779Y-96601144D02*
G01*
X144053834Y-96604563D01*
X144076443Y-96610227D01*
X144098387Y-96618079D01*
X144119457Y-96628044D01*
X144139448Y-96640026D01*
X144158168Y-96653910D01*
X144175438Y-96669562D01*
X144191090Y-96686832D01*
X144204974Y-96705552D01*
X144216956Y-96725543D01*
X144226921Y-96746613D01*
X144234773Y-96768557D01*
X144240437Y-96791166D01*
X144243856Y-96814221D01*
X144245000Y-96837500D01*
X144245000Y-97412500D01*
X144243856Y-97435779D01*
X144240437Y-97458834D01*
X144234773Y-97481443D01*
X144226921Y-97503387D01*
X144216956Y-97524457D01*
X144204974Y-97544448D01*
X144191090Y-97563168D01*
X144175438Y-97580438D01*
X144158168Y-97596090D01*
X144139448Y-97609974D01*
X144119457Y-97621956D01*
X144098387Y-97631921D01*
X144076443Y-97639773D01*
X144053834Y-97645437D01*
X144030779Y-97648856D01*
X144007500Y-97650000D01*
X143532500Y-97650000D01*
X143509221Y-97648856D01*
X143486166Y-97645437D01*
X143463557Y-97639773D01*
X143441613Y-97631921D01*
X143420543Y-97621956D01*
X143400552Y-97609974D01*
X143381832Y-97596090D01*
X143364562Y-97580438D01*
X143348910Y-97563168D01*
X143335026Y-97544448D01*
X143323044Y-97524457D01*
X143313079Y-97503387D01*
X143305227Y-97481443D01*
X143299563Y-97458834D01*
X143296144Y-97435779D01*
X143295000Y-97412500D01*
X143295000Y-96837500D01*
X143296144Y-96814221D01*
X143299563Y-96791166D01*
X143305227Y-96768557D01*
X143313079Y-96746613D01*
X143323044Y-96725543D01*
X143335026Y-96705552D01*
X143348910Y-96686832D01*
X143364562Y-96669562D01*
X143381832Y-96653910D01*
X143400552Y-96640026D01*
X143420543Y-96628044D01*
X143441613Y-96618079D01*
X143463557Y-96610227D01*
X143486166Y-96604563D01*
X143509221Y-96601144D01*
X143532500Y-96600000D01*
X144007500Y-96600000D01*
X144030779Y-96601144D01*
X144030779Y-96601144D01*
G37*
D11*
X143770000Y-97125000D03*
D10*
G36*
X135934703Y-95325722D02*
G01*
X135949264Y-95327882D01*
X135963543Y-95331459D01*
X135977403Y-95336418D01*
X135990710Y-95342712D01*
X136003336Y-95350280D01*
X136015159Y-95359048D01*
X136026066Y-95368934D01*
X136035952Y-95379841D01*
X136044720Y-95391664D01*
X136052288Y-95404290D01*
X136058582Y-95417597D01*
X136063541Y-95431457D01*
X136067118Y-95445736D01*
X136069278Y-95460297D01*
X136070000Y-95475000D01*
X136070000Y-95775000D01*
X136069278Y-95789703D01*
X136067118Y-95804264D01*
X136063541Y-95818543D01*
X136058582Y-95832403D01*
X136052288Y-95845710D01*
X136044720Y-95858336D01*
X136035952Y-95870159D01*
X136026066Y-95881066D01*
X136015159Y-95890952D01*
X136003336Y-95899720D01*
X135990710Y-95907288D01*
X135977403Y-95913582D01*
X135963543Y-95918541D01*
X135949264Y-95922118D01*
X135934703Y-95924278D01*
X135920000Y-95925000D01*
X134520000Y-95925000D01*
X134505297Y-95924278D01*
X134490736Y-95922118D01*
X134476457Y-95918541D01*
X134462597Y-95913582D01*
X134449290Y-95907288D01*
X134436664Y-95899720D01*
X134424841Y-95890952D01*
X134413934Y-95881066D01*
X134404048Y-95870159D01*
X134395280Y-95858336D01*
X134387712Y-95845710D01*
X134381418Y-95832403D01*
X134376459Y-95818543D01*
X134372882Y-95804264D01*
X134370722Y-95789703D01*
X134370000Y-95775000D01*
X134370000Y-95475000D01*
X134370722Y-95460297D01*
X134372882Y-95445736D01*
X134376459Y-95431457D01*
X134381418Y-95417597D01*
X134387712Y-95404290D01*
X134395280Y-95391664D01*
X134404048Y-95379841D01*
X134413934Y-95368934D01*
X134424841Y-95359048D01*
X134436664Y-95350280D01*
X134449290Y-95342712D01*
X134462597Y-95336418D01*
X134476457Y-95331459D01*
X134490736Y-95327882D01*
X134505297Y-95325722D01*
X134520000Y-95325000D01*
X135920000Y-95325000D01*
X135934703Y-95325722D01*
X135934703Y-95325722D01*
G37*
D13*
X135220000Y-95625000D03*
D10*
G36*
X135934703Y-96575722D02*
G01*
X135949264Y-96577882D01*
X135963543Y-96581459D01*
X135977403Y-96586418D01*
X135990710Y-96592712D01*
X136003336Y-96600280D01*
X136015159Y-96609048D01*
X136026066Y-96618934D01*
X136035952Y-96629841D01*
X136044720Y-96641664D01*
X136052288Y-96654290D01*
X136058582Y-96667597D01*
X136063541Y-96681457D01*
X136067118Y-96695736D01*
X136069278Y-96710297D01*
X136070000Y-96725000D01*
X136070000Y-97025000D01*
X136069278Y-97039703D01*
X136067118Y-97054264D01*
X136063541Y-97068543D01*
X136058582Y-97082403D01*
X136052288Y-97095710D01*
X136044720Y-97108336D01*
X136035952Y-97120159D01*
X136026066Y-97131066D01*
X136015159Y-97140952D01*
X136003336Y-97149720D01*
X135990710Y-97157288D01*
X135977403Y-97163582D01*
X135963543Y-97168541D01*
X135949264Y-97172118D01*
X135934703Y-97174278D01*
X135920000Y-97175000D01*
X134520000Y-97175000D01*
X134505297Y-97174278D01*
X134490736Y-97172118D01*
X134476457Y-97168541D01*
X134462597Y-97163582D01*
X134449290Y-97157288D01*
X134436664Y-97149720D01*
X134424841Y-97140952D01*
X134413934Y-97131066D01*
X134404048Y-97120159D01*
X134395280Y-97108336D01*
X134387712Y-97095710D01*
X134381418Y-97082403D01*
X134376459Y-97068543D01*
X134372882Y-97054264D01*
X134370722Y-97039703D01*
X134370000Y-97025000D01*
X134370000Y-96725000D01*
X134370722Y-96710297D01*
X134372882Y-96695736D01*
X134376459Y-96681457D01*
X134381418Y-96667597D01*
X134387712Y-96654290D01*
X134395280Y-96641664D01*
X134404048Y-96629841D01*
X134413934Y-96618934D01*
X134424841Y-96609048D01*
X134436664Y-96600280D01*
X134449290Y-96592712D01*
X134462597Y-96586418D01*
X134476457Y-96581459D01*
X134490736Y-96577882D01*
X134505297Y-96575722D01*
X134520000Y-96575000D01*
X135920000Y-96575000D01*
X135934703Y-96575722D01*
X135934703Y-96575722D01*
G37*
D13*
X135220000Y-96875000D03*
D10*
G36*
X133144504Y-93276204D02*
G01*
X133168773Y-93279804D01*
X133192571Y-93285765D01*
X133215671Y-93294030D01*
X133237849Y-93304520D01*
X133258893Y-93317133D01*
X133278598Y-93331747D01*
X133296777Y-93348223D01*
X133313253Y-93366402D01*
X133327867Y-93386107D01*
X133340480Y-93407151D01*
X133350970Y-93429329D01*
X133359235Y-93452429D01*
X133365196Y-93476227D01*
X133368796Y-93500496D01*
X133370000Y-93525000D01*
X133370000Y-94025000D01*
X133368796Y-94049504D01*
X133365196Y-94073773D01*
X133359235Y-94097571D01*
X133350970Y-94120671D01*
X133340480Y-94142849D01*
X133327867Y-94163893D01*
X133313253Y-94183598D01*
X133296777Y-94201777D01*
X133278598Y-94218253D01*
X133258893Y-94232867D01*
X133237849Y-94245480D01*
X133215671Y-94255970D01*
X133192571Y-94264235D01*
X133168773Y-94270196D01*
X133144504Y-94273796D01*
X133120000Y-94275000D01*
X130920000Y-94275000D01*
X130895496Y-94273796D01*
X130871227Y-94270196D01*
X130847429Y-94264235D01*
X130824329Y-94255970D01*
X130802151Y-94245480D01*
X130781107Y-94232867D01*
X130761402Y-94218253D01*
X130743223Y-94201777D01*
X130726747Y-94183598D01*
X130712133Y-94163893D01*
X130699520Y-94142849D01*
X130689030Y-94120671D01*
X130680765Y-94097571D01*
X130674804Y-94073773D01*
X130671204Y-94049504D01*
X130670000Y-94025000D01*
X130670000Y-93525000D01*
X130671204Y-93500496D01*
X130674804Y-93476227D01*
X130680765Y-93452429D01*
X130689030Y-93429329D01*
X130699520Y-93407151D01*
X130712133Y-93386107D01*
X130726747Y-93366402D01*
X130743223Y-93348223D01*
X130761402Y-93331747D01*
X130781107Y-93317133D01*
X130802151Y-93304520D01*
X130824329Y-93294030D01*
X130847429Y-93285765D01*
X130871227Y-93279804D01*
X130895496Y-93276204D01*
X130920000Y-93275000D01*
X133120000Y-93275000D01*
X133144504Y-93276204D01*
X133144504Y-93276204D01*
G37*
D14*
X132020000Y-93775000D03*
D10*
G36*
X133144504Y-98226204D02*
G01*
X133168773Y-98229804D01*
X133192571Y-98235765D01*
X133215671Y-98244030D01*
X133237849Y-98254520D01*
X133258893Y-98267133D01*
X133278598Y-98281747D01*
X133296777Y-98298223D01*
X133313253Y-98316402D01*
X133327867Y-98336107D01*
X133340480Y-98357151D01*
X133350970Y-98379329D01*
X133359235Y-98402429D01*
X133365196Y-98426227D01*
X133368796Y-98450496D01*
X133370000Y-98475000D01*
X133370000Y-98975000D01*
X133368796Y-98999504D01*
X133365196Y-99023773D01*
X133359235Y-99047571D01*
X133350970Y-99070671D01*
X133340480Y-99092849D01*
X133327867Y-99113893D01*
X133313253Y-99133598D01*
X133296777Y-99151777D01*
X133278598Y-99168253D01*
X133258893Y-99182867D01*
X133237849Y-99195480D01*
X133215671Y-99205970D01*
X133192571Y-99214235D01*
X133168773Y-99220196D01*
X133144504Y-99223796D01*
X133120000Y-99225000D01*
X130920000Y-99225000D01*
X130895496Y-99223796D01*
X130871227Y-99220196D01*
X130847429Y-99214235D01*
X130824329Y-99205970D01*
X130802151Y-99195480D01*
X130781107Y-99182867D01*
X130761402Y-99168253D01*
X130743223Y-99151777D01*
X130726747Y-99133598D01*
X130712133Y-99113893D01*
X130699520Y-99092849D01*
X130689030Y-99070671D01*
X130680765Y-99047571D01*
X130674804Y-99023773D01*
X130671204Y-98999504D01*
X130670000Y-98975000D01*
X130670000Y-98475000D01*
X130671204Y-98450496D01*
X130674804Y-98426227D01*
X130680765Y-98402429D01*
X130689030Y-98379329D01*
X130699520Y-98357151D01*
X130712133Y-98336107D01*
X130726747Y-98316402D01*
X130743223Y-98298223D01*
X130761402Y-98281747D01*
X130781107Y-98267133D01*
X130802151Y-98254520D01*
X130824329Y-98244030D01*
X130847429Y-98235765D01*
X130871227Y-98229804D01*
X130895496Y-98226204D01*
X130920000Y-98225000D01*
X133120000Y-98225000D01*
X133144504Y-98226204D01*
X133144504Y-98226204D01*
G37*
D14*
X132020000Y-98725000D03*
D15*
X132080000Y-96266000D03*
X146812000Y-93980000D03*
D16*
X135270000Y-96875000D02*
X133959000Y-96875000D01*
X133959000Y-96875000D02*
X133604000Y-96520000D01*
X133604000Y-96520000D02*
X133604000Y-94996000D01*
X133604000Y-94996000D02*
X135128000Y-93472000D01*
X140187000Y-93472000D02*
X142090000Y-95375000D01*
X135128000Y-93472000D02*
X140187000Y-93472000D01*
X142090000Y-95375000D02*
X143770000Y-95375000D01*
X143770000Y-97072500D02*
X145490000Y-95352500D01*
X143770000Y-97125000D02*
X143770000Y-97072500D01*
G36*
X138324657Y-94056657D02*
G01*
X137909541Y-94228604D01*
X137535947Y-94478231D01*
X137218231Y-94795947D01*
X136968604Y-95169541D01*
X136796657Y-95584657D01*
X136709000Y-96025341D01*
X136709000Y-96474659D01*
X136796657Y-96915343D01*
X136968604Y-97330459D01*
X137218231Y-97704053D01*
X137535947Y-98021769D01*
X137909541Y-98271396D01*
X138324657Y-98443343D01*
X138765341Y-98531000D01*
X139214659Y-98531000D01*
X139655343Y-98443343D01*
X140070459Y-98271396D01*
X140444053Y-98021769D01*
X140761769Y-97704053D01*
X141011396Y-97330459D01*
X141043894Y-97252002D01*
X141138748Y-97252002D01*
X140980000Y-97410750D01*
X140976928Y-97650000D01*
X140989188Y-97774482D01*
X141025498Y-97894180D01*
X141084463Y-98004494D01*
X141163815Y-98101185D01*
X141260506Y-98180537D01*
X141370820Y-98239502D01*
X141490518Y-98275812D01*
X141615000Y-98288072D01*
X141804250Y-98285000D01*
X141963000Y-98126250D01*
X141963000Y-97252000D01*
X141943000Y-97252000D01*
X141943000Y-96998000D01*
X141963000Y-96998000D01*
X141963000Y-96978000D01*
X142217000Y-96978000D01*
X142217000Y-96998000D01*
X142237000Y-96998000D01*
X142237000Y-97252000D01*
X142217000Y-97252000D01*
X142217000Y-98126250D01*
X142375750Y-98285000D01*
X142565000Y-98288072D01*
X142689482Y-98275812D01*
X142809180Y-98239502D01*
X142919494Y-98180537D01*
X143016185Y-98101185D01*
X143095537Y-98004494D01*
X143151997Y-97898867D01*
X143187856Y-97928296D01*
X143295105Y-97985622D01*
X143411477Y-98020923D01*
X143532500Y-98032843D01*
X144007500Y-98032843D01*
X144128523Y-98020923D01*
X144244895Y-97985622D01*
X144352144Y-97928296D01*
X144424628Y-97868811D01*
X144425498Y-97871680D01*
X144484463Y-97981994D01*
X144563815Y-98078685D01*
X144660506Y-98158037D01*
X144770820Y-98217002D01*
X144890518Y-98253312D01*
X145015000Y-98265572D01*
X145204250Y-98262500D01*
X145363000Y-98103750D01*
X145363000Y-97229500D01*
X145343000Y-97229500D01*
X145343000Y-96975500D01*
X145363000Y-96975500D01*
X145363000Y-96955500D01*
X145617000Y-96955500D01*
X145617000Y-96975500D01*
X145637000Y-96975500D01*
X145637000Y-97229500D01*
X145617000Y-97229500D01*
X145617000Y-98103750D01*
X145775750Y-98262500D01*
X145965000Y-98265572D01*
X146089482Y-98253312D01*
X146209180Y-98217002D01*
X146319494Y-98158037D01*
X146416185Y-98078685D01*
X146495537Y-97981994D01*
X146554502Y-97871680D01*
X146590812Y-97751982D01*
X146603072Y-97627500D01*
X146600000Y-97388250D01*
X146441252Y-97229502D01*
X146566786Y-97229502D01*
X146608604Y-97330459D01*
X146858231Y-97704053D01*
X147175947Y-98021769D01*
X147549541Y-98271396D01*
X147964657Y-98443343D01*
X148405341Y-98531000D01*
X148854659Y-98531000D01*
X149295343Y-98443343D01*
X149710459Y-98271396D01*
X150084053Y-98021769D01*
X150401769Y-97704053D01*
X150594001Y-97416357D01*
X150594001Y-99594000D01*
X133249010Y-99594000D01*
X133362179Y-99559671D01*
X133471589Y-99501190D01*
X133567488Y-99422488D01*
X133646190Y-99326589D01*
X133704671Y-99217179D01*
X133740683Y-99098462D01*
X133752843Y-98975000D01*
X133752843Y-98475000D01*
X133740683Y-98351538D01*
X133704671Y-98232821D01*
X133646190Y-98123411D01*
X133567488Y-98027512D01*
X133471589Y-97948810D01*
X133362179Y-97890329D01*
X133243462Y-97854317D01*
X133120000Y-97842157D01*
X130920000Y-97842157D01*
X130796538Y-97854317D01*
X130677821Y-97890329D01*
X130568411Y-97948810D01*
X130472512Y-98027512D01*
X130406000Y-98108557D01*
X130406000Y-94391443D01*
X130472512Y-94472488D01*
X130568411Y-94551190D01*
X130677821Y-94609671D01*
X130796538Y-94645683D01*
X130920000Y-94657843D01*
X133120000Y-94657843D01*
X133233525Y-94646662D01*
X133227151Y-94654429D01*
X133227150Y-94654430D01*
X133179571Y-94712405D01*
X133167228Y-94735498D01*
X133132400Y-94800657D01*
X133108059Y-94880900D01*
X133103352Y-94896416D01*
X133093543Y-94996000D01*
X133096001Y-95020954D01*
X133096000Y-96495055D01*
X133093543Y-96520000D01*
X133096000Y-96544944D01*
X133096000Y-96544946D01*
X133103351Y-96619584D01*
X133132399Y-96715342D01*
X133179571Y-96803595D01*
X133243052Y-96880948D01*
X133262435Y-96896855D01*
X133582145Y-97216565D01*
X133598052Y-97235948D01*
X133675405Y-97299429D01*
X133763657Y-97346601D01*
X133859415Y-97375649D01*
X133934053Y-97383000D01*
X133934056Y-97383000D01*
X133959000Y-97385457D01*
X133983944Y-97383000D01*
X134127813Y-97383000D01*
X134143223Y-97401777D01*
X134223968Y-97468043D01*
X134316090Y-97517283D01*
X134416047Y-97547605D01*
X134520000Y-97557843D01*
X135920000Y-97557843D01*
X136023953Y-97547605D01*
X136123910Y-97517283D01*
X136216032Y-97468043D01*
X136296777Y-97401777D01*
X136363043Y-97321032D01*
X136412283Y-97228910D01*
X136442605Y-97128953D01*
X136452843Y-97025000D01*
X136452843Y-96725000D01*
X136442605Y-96621047D01*
X136412283Y-96521090D01*
X136387744Y-96475181D01*
X136424494Y-96455537D01*
X136521185Y-96376185D01*
X136600537Y-96279494D01*
X136659502Y-96169180D01*
X136695812Y-96049482D01*
X136708072Y-95925000D01*
X136705000Y-95910750D01*
X136546250Y-95752000D01*
X135347000Y-95752000D01*
X135347000Y-95772000D01*
X135093000Y-95772000D01*
X135093000Y-95752000D01*
X135073000Y-95752000D01*
X135073000Y-95498000D01*
X135093000Y-95498000D01*
X135093000Y-94848750D01*
X135347000Y-94848750D01*
X135347000Y-95498000D01*
X136546250Y-95498000D01*
X136705000Y-95339250D01*
X136708072Y-95325000D01*
X136695812Y-95200518D01*
X136659502Y-95080820D01*
X136600537Y-94970506D01*
X136521185Y-94873815D01*
X136424494Y-94794463D01*
X136314180Y-94735498D01*
X136194482Y-94699188D01*
X136070000Y-94686928D01*
X135505750Y-94690000D01*
X135347000Y-94848750D01*
X135093000Y-94848750D01*
X134934250Y-94690000D01*
X134630076Y-94688344D01*
X135338421Y-93980000D01*
X138710040Y-93980000D01*
X138324657Y-94056657D01*
X138324657Y-94056657D01*
G37*
X138324657Y-94056657D02*
X137909541Y-94228604D01*
X137535947Y-94478231D01*
X137218231Y-94795947D01*
X136968604Y-95169541D01*
X136796657Y-95584657D01*
X136709000Y-96025341D01*
X136709000Y-96474659D01*
X136796657Y-96915343D01*
X136968604Y-97330459D01*
X137218231Y-97704053D01*
X137535947Y-98021769D01*
X137909541Y-98271396D01*
X138324657Y-98443343D01*
X138765341Y-98531000D01*
X139214659Y-98531000D01*
X139655343Y-98443343D01*
X140070459Y-98271396D01*
X140444053Y-98021769D01*
X140761769Y-97704053D01*
X141011396Y-97330459D01*
X141043894Y-97252002D01*
X141138748Y-97252002D01*
X140980000Y-97410750D01*
X140976928Y-97650000D01*
X140989188Y-97774482D01*
X141025498Y-97894180D01*
X141084463Y-98004494D01*
X141163815Y-98101185D01*
X141260506Y-98180537D01*
X141370820Y-98239502D01*
X141490518Y-98275812D01*
X141615000Y-98288072D01*
X141804250Y-98285000D01*
X141963000Y-98126250D01*
X141963000Y-97252000D01*
X141943000Y-97252000D01*
X141943000Y-96998000D01*
X141963000Y-96998000D01*
X141963000Y-96978000D01*
X142217000Y-96978000D01*
X142217000Y-96998000D01*
X142237000Y-96998000D01*
X142237000Y-97252000D01*
X142217000Y-97252000D01*
X142217000Y-98126250D01*
X142375750Y-98285000D01*
X142565000Y-98288072D01*
X142689482Y-98275812D01*
X142809180Y-98239502D01*
X142919494Y-98180537D01*
X143016185Y-98101185D01*
X143095537Y-98004494D01*
X143151997Y-97898867D01*
X143187856Y-97928296D01*
X143295105Y-97985622D01*
X143411477Y-98020923D01*
X143532500Y-98032843D01*
X144007500Y-98032843D01*
X144128523Y-98020923D01*
X144244895Y-97985622D01*
X144352144Y-97928296D01*
X144424628Y-97868811D01*
X144425498Y-97871680D01*
X144484463Y-97981994D01*
X144563815Y-98078685D01*
X144660506Y-98158037D01*
X144770820Y-98217002D01*
X144890518Y-98253312D01*
X145015000Y-98265572D01*
X145204250Y-98262500D01*
X145363000Y-98103750D01*
X145363000Y-97229500D01*
X145343000Y-97229500D01*
X145343000Y-96975500D01*
X145363000Y-96975500D01*
X145363000Y-96955500D01*
X145617000Y-96955500D01*
X145617000Y-96975500D01*
X145637000Y-96975500D01*
X145637000Y-97229500D01*
X145617000Y-97229500D01*
X145617000Y-98103750D01*
X145775750Y-98262500D01*
X145965000Y-98265572D01*
X146089482Y-98253312D01*
X146209180Y-98217002D01*
X146319494Y-98158037D01*
X146416185Y-98078685D01*
X146495537Y-97981994D01*
X146554502Y-97871680D01*
X146590812Y-97751982D01*
X146603072Y-97627500D01*
X146600000Y-97388250D01*
X146441252Y-97229502D01*
X146566786Y-97229502D01*
X146608604Y-97330459D01*
X146858231Y-97704053D01*
X147175947Y-98021769D01*
X147549541Y-98271396D01*
X147964657Y-98443343D01*
X148405341Y-98531000D01*
X148854659Y-98531000D01*
X149295343Y-98443343D01*
X149710459Y-98271396D01*
X150084053Y-98021769D01*
X150401769Y-97704053D01*
X150594001Y-97416357D01*
X150594001Y-99594000D01*
X133249010Y-99594000D01*
X133362179Y-99559671D01*
X133471589Y-99501190D01*
X133567488Y-99422488D01*
X133646190Y-99326589D01*
X133704671Y-99217179D01*
X133740683Y-99098462D01*
X133752843Y-98975000D01*
X133752843Y-98475000D01*
X133740683Y-98351538D01*
X133704671Y-98232821D01*
X133646190Y-98123411D01*
X133567488Y-98027512D01*
X133471589Y-97948810D01*
X133362179Y-97890329D01*
X133243462Y-97854317D01*
X133120000Y-97842157D01*
X130920000Y-97842157D01*
X130796538Y-97854317D01*
X130677821Y-97890329D01*
X130568411Y-97948810D01*
X130472512Y-98027512D01*
X130406000Y-98108557D01*
X130406000Y-94391443D01*
X130472512Y-94472488D01*
X130568411Y-94551190D01*
X130677821Y-94609671D01*
X130796538Y-94645683D01*
X130920000Y-94657843D01*
X133120000Y-94657843D01*
X133233525Y-94646662D01*
X133227151Y-94654429D01*
X133227150Y-94654430D01*
X133179571Y-94712405D01*
X133167228Y-94735498D01*
X133132400Y-94800657D01*
X133108059Y-94880900D01*
X133103352Y-94896416D01*
X133093543Y-94996000D01*
X133096001Y-95020954D01*
X133096000Y-96495055D01*
X133093543Y-96520000D01*
X133096000Y-96544944D01*
X133096000Y-96544946D01*
X133103351Y-96619584D01*
X133132399Y-96715342D01*
X133179571Y-96803595D01*
X133243052Y-96880948D01*
X133262435Y-96896855D01*
X133582145Y-97216565D01*
X133598052Y-97235948D01*
X133675405Y-97299429D01*
X133763657Y-97346601D01*
X133859415Y-97375649D01*
X133934053Y-97383000D01*
X133934056Y-97383000D01*
X133959000Y-97385457D01*
X133983944Y-97383000D01*
X134127813Y-97383000D01*
X134143223Y-97401777D01*
X134223968Y-97468043D01*
X134316090Y-97517283D01*
X134416047Y-97547605D01*
X134520000Y-97557843D01*
X135920000Y-97557843D01*
X136023953Y-97547605D01*
X136123910Y-97517283D01*
X136216032Y-97468043D01*
X136296777Y-97401777D01*
X136363043Y-97321032D01*
X136412283Y-97228910D01*
X136442605Y-97128953D01*
X136452843Y-97025000D01*
X136452843Y-96725000D01*
X136442605Y-96621047D01*
X136412283Y-96521090D01*
X136387744Y-96475181D01*
X136424494Y-96455537D01*
X136521185Y-96376185D01*
X136600537Y-96279494D01*
X136659502Y-96169180D01*
X136695812Y-96049482D01*
X136708072Y-95925000D01*
X136705000Y-95910750D01*
X136546250Y-95752000D01*
X135347000Y-95752000D01*
X135347000Y-95772000D01*
X135093000Y-95772000D01*
X135093000Y-95752000D01*
X135073000Y-95752000D01*
X135073000Y-95498000D01*
X135093000Y-95498000D01*
X135093000Y-94848750D01*
X135347000Y-94848750D01*
X135347000Y-95498000D01*
X136546250Y-95498000D01*
X136705000Y-95339250D01*
X136708072Y-95325000D01*
X136695812Y-95200518D01*
X136659502Y-95080820D01*
X136600537Y-94970506D01*
X136521185Y-94873815D01*
X136424494Y-94794463D01*
X136314180Y-94735498D01*
X136194482Y-94699188D01*
X136070000Y-94686928D01*
X135505750Y-94690000D01*
X135347000Y-94848750D01*
X135093000Y-94848750D01*
X134934250Y-94690000D01*
X134630076Y-94688344D01*
X135338421Y-93980000D01*
X138710040Y-93980000D01*
X138324657Y-94056657D01*
G36*
X150594000Y-95083642D02*
G01*
X150401769Y-94795947D01*
X150084053Y-94478231D01*
X149710459Y-94228604D01*
X149295343Y-94056657D01*
X148854659Y-93969000D01*
X148405341Y-93969000D01*
X147964657Y-94056657D01*
X147549541Y-94228604D01*
X147175947Y-94478231D01*
X146858231Y-94795947D01*
X146608604Y-95169541D01*
X146436657Y-95584657D01*
X146349000Y-96025341D01*
X146349000Y-96071178D01*
X146319494Y-96046963D01*
X146230980Y-95999651D01*
X146243296Y-95984644D01*
X146300622Y-95877395D01*
X146335923Y-95761023D01*
X146347843Y-95640000D01*
X146347843Y-95065000D01*
X146335923Y-94943977D01*
X146300622Y-94827605D01*
X146243296Y-94720356D01*
X146166149Y-94626351D01*
X146072144Y-94549204D01*
X145964895Y-94491878D01*
X145848523Y-94456577D01*
X145727500Y-94444657D01*
X145252500Y-94444657D01*
X145131477Y-94456577D01*
X145015105Y-94491878D01*
X144907856Y-94549204D01*
X144813851Y-94626351D01*
X144736704Y-94720356D01*
X144679378Y-94827605D01*
X144644077Y-94943977D01*
X144632157Y-95065000D01*
X144632157Y-95491922D01*
X144627843Y-95496236D01*
X144627843Y-95087500D01*
X144615923Y-94966477D01*
X144580622Y-94850105D01*
X144523296Y-94742856D01*
X144446149Y-94648851D01*
X144352144Y-94571704D01*
X144244895Y-94514378D01*
X144128523Y-94479077D01*
X144007500Y-94467157D01*
X143532500Y-94467157D01*
X143411477Y-94479077D01*
X143295105Y-94514378D01*
X143187856Y-94571704D01*
X143093851Y-94648851D01*
X143016704Y-94742856D01*
X142959378Y-94850105D01*
X142954253Y-94867000D01*
X142905747Y-94867000D01*
X142900622Y-94850105D01*
X142843296Y-94742856D01*
X142766149Y-94648851D01*
X142672144Y-94571704D01*
X142564895Y-94514378D01*
X142448523Y-94479077D01*
X142327500Y-94467157D01*
X141900578Y-94467157D01*
X140563855Y-93130435D01*
X140547948Y-93111052D01*
X140470595Y-93047571D01*
X140382343Y-93000399D01*
X140286585Y-92971351D01*
X140211947Y-92964000D01*
X140211944Y-92964000D01*
X140187000Y-92961543D01*
X140162056Y-92964000D01*
X135152943Y-92964000D01*
X135127999Y-92961543D01*
X135103055Y-92964000D01*
X135103053Y-92964000D01*
X135028415Y-92971351D01*
X134932657Y-93000399D01*
X134932655Y-93000400D01*
X134844404Y-93047571D01*
X134807921Y-93077512D01*
X134767052Y-93111052D01*
X134751150Y-93130429D01*
X133741510Y-94140070D01*
X133752843Y-94025000D01*
X133752843Y-93525000D01*
X133740683Y-93401538D01*
X133704671Y-93282821D01*
X133646190Y-93173411D01*
X133567488Y-93077512D01*
X133471589Y-92998810D01*
X133362179Y-92940329D01*
X133249010Y-92906000D01*
X150594000Y-92906000D01*
X150594000Y-95083642D01*
X150594000Y-95083642D01*
G37*
X150594000Y-95083642D02*
X150401769Y-94795947D01*
X150084053Y-94478231D01*
X149710459Y-94228604D01*
X149295343Y-94056657D01*
X148854659Y-93969000D01*
X148405341Y-93969000D01*
X147964657Y-94056657D01*
X147549541Y-94228604D01*
X147175947Y-94478231D01*
X146858231Y-94795947D01*
X146608604Y-95169541D01*
X146436657Y-95584657D01*
X146349000Y-96025341D01*
X146349000Y-96071178D01*
X146319494Y-96046963D01*
X146230980Y-95999651D01*
X146243296Y-95984644D01*
X146300622Y-95877395D01*
X146335923Y-95761023D01*
X146347843Y-95640000D01*
X146347843Y-95065000D01*
X146335923Y-94943977D01*
X146300622Y-94827605D01*
X146243296Y-94720356D01*
X146166149Y-94626351D01*
X146072144Y-94549204D01*
X145964895Y-94491878D01*
X145848523Y-94456577D01*
X145727500Y-94444657D01*
X145252500Y-94444657D01*
X145131477Y-94456577D01*
X145015105Y-94491878D01*
X144907856Y-94549204D01*
X144813851Y-94626351D01*
X144736704Y-94720356D01*
X144679378Y-94827605D01*
X144644077Y-94943977D01*
X144632157Y-95065000D01*
X144632157Y-95491922D01*
X144627843Y-95496236D01*
X144627843Y-95087500D01*
X144615923Y-94966477D01*
X144580622Y-94850105D01*
X144523296Y-94742856D01*
X144446149Y-94648851D01*
X144352144Y-94571704D01*
X144244895Y-94514378D01*
X144128523Y-94479077D01*
X144007500Y-94467157D01*
X143532500Y-94467157D01*
X143411477Y-94479077D01*
X143295105Y-94514378D01*
X143187856Y-94571704D01*
X143093851Y-94648851D01*
X143016704Y-94742856D01*
X142959378Y-94850105D01*
X142954253Y-94867000D01*
X142905747Y-94867000D01*
X142900622Y-94850105D01*
X142843296Y-94742856D01*
X142766149Y-94648851D01*
X142672144Y-94571704D01*
X142564895Y-94514378D01*
X142448523Y-94479077D01*
X142327500Y-94467157D01*
X141900578Y-94467157D01*
X140563855Y-93130435D01*
X140547948Y-93111052D01*
X140470595Y-93047571D01*
X140382343Y-93000399D01*
X140286585Y-92971351D01*
X140211947Y-92964000D01*
X140211944Y-92964000D01*
X140187000Y-92961543D01*
X140162056Y-92964000D01*
X135152943Y-92964000D01*
X135127999Y-92961543D01*
X135103055Y-92964000D01*
X135103053Y-92964000D01*
X135028415Y-92971351D01*
X134932657Y-93000399D01*
X134932655Y-93000400D01*
X134844404Y-93047571D01*
X134807921Y-93077512D01*
X134767052Y-93111052D01*
X134751150Y-93130429D01*
X133741510Y-94140070D01*
X133752843Y-94025000D01*
X133752843Y-93525000D01*
X133740683Y-93401538D01*
X133704671Y-93282821D01*
X133646190Y-93173411D01*
X133567488Y-93077512D01*
X133471589Y-92998810D01*
X133362179Y-92940329D01*
X133249010Y-92906000D01*
X150594000Y-92906000D01*
X150594000Y-95083642D01*
M02*
