G04 #@! TF.GenerationSoftware,KiCad,Pcbnew,(5.1.4-0-10_14)*
G04 #@! TF.CreationDate,2021-01-03T16:04:41-07:00*
G04 #@! TF.ProjectId,Lights,4c696768-7473-42e6-9b69-6361645f7063,rev?*
G04 #@! TF.SameCoordinates,Original*
G04 #@! TF.FileFunction,Copper,L2,Bot*
G04 #@! TF.FilePolarity,Positive*
%FSLAX46Y46*%
G04 Gerber Fmt 4.6, Leading zero omitted, Abs format (unit mm)*
G04 Created by KiCad (PCBNEW (5.1.4-0-10_14)) date 2021-01-03 16:04:41*
%MOMM*%
%LPD*%
G04 APERTURE LIST*
%ADD10C,3.800000*%
%ADD11C,0.800000*%
%ADD12C,0.254000*%
G04 APERTURE END LIST*
D10*
X138990000Y-96250000D03*
X148630000Y-96250000D03*
D11*
X132080000Y-96266000D03*
X146812000Y-93980000D03*
D12*
G36*
X150594000Y-95083642D02*
G01*
X150401769Y-94795947D01*
X150084053Y-94478231D01*
X149710459Y-94228604D01*
X149295343Y-94056657D01*
X148854659Y-93969000D01*
X148405341Y-93969000D01*
X147964657Y-94056657D01*
X147549541Y-94228604D01*
X147175947Y-94478231D01*
X146858231Y-94795947D01*
X146608604Y-95169541D01*
X146436657Y-95584657D01*
X146349000Y-96025341D01*
X146349000Y-96474659D01*
X146436657Y-96915343D01*
X146608604Y-97330459D01*
X146858231Y-97704053D01*
X147175947Y-98021769D01*
X147549541Y-98271396D01*
X147964657Y-98443343D01*
X148405341Y-98531000D01*
X148854659Y-98531000D01*
X149295343Y-98443343D01*
X149710459Y-98271396D01*
X150084053Y-98021769D01*
X150401769Y-97704053D01*
X150594001Y-97416357D01*
X150594001Y-99594000D01*
X130406000Y-99594000D01*
X130406000Y-96025341D01*
X136709000Y-96025341D01*
X136709000Y-96474659D01*
X136796657Y-96915343D01*
X136968604Y-97330459D01*
X137218231Y-97704053D01*
X137535947Y-98021769D01*
X137909541Y-98271396D01*
X138324657Y-98443343D01*
X138765341Y-98531000D01*
X139214659Y-98531000D01*
X139655343Y-98443343D01*
X140070459Y-98271396D01*
X140444053Y-98021769D01*
X140761769Y-97704053D01*
X141011396Y-97330459D01*
X141183343Y-96915343D01*
X141271000Y-96474659D01*
X141271000Y-96025341D01*
X141183343Y-95584657D01*
X141011396Y-95169541D01*
X140761769Y-94795947D01*
X140444053Y-94478231D01*
X140070459Y-94228604D01*
X139655343Y-94056657D01*
X139214659Y-93969000D01*
X138765341Y-93969000D01*
X138324657Y-94056657D01*
X137909541Y-94228604D01*
X137535947Y-94478231D01*
X137218231Y-94795947D01*
X136968604Y-95169541D01*
X136796657Y-95584657D01*
X136709000Y-96025341D01*
X130406000Y-96025341D01*
X130406000Y-92906000D01*
X150594000Y-92906000D01*
X150594000Y-95083642D01*
X150594000Y-95083642D01*
G37*
X150594000Y-95083642D02*
X150401769Y-94795947D01*
X150084053Y-94478231D01*
X149710459Y-94228604D01*
X149295343Y-94056657D01*
X148854659Y-93969000D01*
X148405341Y-93969000D01*
X147964657Y-94056657D01*
X147549541Y-94228604D01*
X147175947Y-94478231D01*
X146858231Y-94795947D01*
X146608604Y-95169541D01*
X146436657Y-95584657D01*
X146349000Y-96025341D01*
X146349000Y-96474659D01*
X146436657Y-96915343D01*
X146608604Y-97330459D01*
X146858231Y-97704053D01*
X147175947Y-98021769D01*
X147549541Y-98271396D01*
X147964657Y-98443343D01*
X148405341Y-98531000D01*
X148854659Y-98531000D01*
X149295343Y-98443343D01*
X149710459Y-98271396D01*
X150084053Y-98021769D01*
X150401769Y-97704053D01*
X150594001Y-97416357D01*
X150594001Y-99594000D01*
X130406000Y-99594000D01*
X130406000Y-96025341D01*
X136709000Y-96025341D01*
X136709000Y-96474659D01*
X136796657Y-96915343D01*
X136968604Y-97330459D01*
X137218231Y-97704053D01*
X137535947Y-98021769D01*
X137909541Y-98271396D01*
X138324657Y-98443343D01*
X138765341Y-98531000D01*
X139214659Y-98531000D01*
X139655343Y-98443343D01*
X140070459Y-98271396D01*
X140444053Y-98021769D01*
X140761769Y-97704053D01*
X141011396Y-97330459D01*
X141183343Y-96915343D01*
X141271000Y-96474659D01*
X141271000Y-96025341D01*
X141183343Y-95584657D01*
X141011396Y-95169541D01*
X140761769Y-94795947D01*
X140444053Y-94478231D01*
X140070459Y-94228604D01*
X139655343Y-94056657D01*
X139214659Y-93969000D01*
X138765341Y-93969000D01*
X138324657Y-94056657D01*
X137909541Y-94228604D01*
X137535947Y-94478231D01*
X137218231Y-94795947D01*
X136968604Y-95169541D01*
X136796657Y-95584657D01*
X136709000Y-96025341D01*
X130406000Y-96025341D01*
X130406000Y-92906000D01*
X150594000Y-92906000D01*
X150594000Y-95083642D01*
M02*
