G04 #@! TF.GenerationSoftware,KiCad,Pcbnew,(5.1.4-0-10_14)*
G04 #@! TF.CreationDate,2021-01-03T16:04:41-07:00*
G04 #@! TF.ProjectId,Lights,4c696768-7473-42e6-9b69-6361645f7063,rev?*
G04 #@! TF.SameCoordinates,Original*
G04 #@! TF.FileFunction,Soldermask,Bot*
G04 #@! TF.FilePolarity,Negative*
%FSLAX46Y46*%
G04 Gerber Fmt 4.6, Leading zero omitted, Abs format (unit mm)*
G04 Created by KiCad (PCBNEW (5.1.4-0-10_14)) date 2021-01-03 16:04:41*
%MOMM*%
%LPD*%
G04 APERTURE LIST*
%ADD10C,0.100000*%
G04 APERTURE END LIST*
D10*
G36*
X149199085Y-94373975D02*
G01*
X149554143Y-94521045D01*
X149554145Y-94521046D01*
X149873690Y-94734559D01*
X150145441Y-95006310D01*
X150358954Y-95325855D01*
X150358955Y-95325857D01*
X150506025Y-95680915D01*
X150581000Y-96057842D01*
X150581000Y-96442158D01*
X150506025Y-96819085D01*
X150358955Y-97174143D01*
X150358954Y-97174145D01*
X150145441Y-97493690D01*
X149873690Y-97765441D01*
X149554145Y-97978954D01*
X149554144Y-97978955D01*
X149554143Y-97978955D01*
X149199085Y-98126025D01*
X148822158Y-98201000D01*
X148437842Y-98201000D01*
X148060915Y-98126025D01*
X147705857Y-97978955D01*
X147705856Y-97978955D01*
X147705855Y-97978954D01*
X147386310Y-97765441D01*
X147114559Y-97493690D01*
X146901046Y-97174145D01*
X146901045Y-97174143D01*
X146753975Y-96819085D01*
X146679000Y-96442158D01*
X146679000Y-96057842D01*
X146753975Y-95680915D01*
X146901045Y-95325857D01*
X146901046Y-95325855D01*
X147114559Y-95006310D01*
X147386310Y-94734559D01*
X147705855Y-94521046D01*
X147705857Y-94521045D01*
X148060915Y-94373975D01*
X148437842Y-94299000D01*
X148822158Y-94299000D01*
X149199085Y-94373975D01*
X149199085Y-94373975D01*
G37*
G36*
X139559085Y-94373975D02*
G01*
X139914143Y-94521045D01*
X139914145Y-94521046D01*
X140233690Y-94734559D01*
X140505441Y-95006310D01*
X140718954Y-95325855D01*
X140718955Y-95325857D01*
X140866025Y-95680915D01*
X140941000Y-96057842D01*
X140941000Y-96442158D01*
X140866025Y-96819085D01*
X140718955Y-97174143D01*
X140718954Y-97174145D01*
X140505441Y-97493690D01*
X140233690Y-97765441D01*
X139914145Y-97978954D01*
X139914144Y-97978955D01*
X139914143Y-97978955D01*
X139559085Y-98126025D01*
X139182158Y-98201000D01*
X138797842Y-98201000D01*
X138420915Y-98126025D01*
X138065857Y-97978955D01*
X138065856Y-97978955D01*
X138065855Y-97978954D01*
X137746310Y-97765441D01*
X137474559Y-97493690D01*
X137261046Y-97174145D01*
X137261045Y-97174143D01*
X137113975Y-96819085D01*
X137039000Y-96442158D01*
X137039000Y-96057842D01*
X137113975Y-95680915D01*
X137261045Y-95325857D01*
X137261046Y-95325855D01*
X137474559Y-95006310D01*
X137746310Y-94734559D01*
X138065855Y-94521046D01*
X138065857Y-94521045D01*
X138420915Y-94373975D01*
X138797842Y-94299000D01*
X139182158Y-94299000D01*
X139559085Y-94373975D01*
X139559085Y-94373975D01*
G37*
M02*
