G04 #@! TF.GenerationSoftware,KiCad,Pcbnew,(5.1.4-0-10_14)*
G04 #@! TF.CreationDate,2021-01-03T16:04:41-07:00*
G04 #@! TF.ProjectId,Lights,4c696768-7473-42e6-9b69-6361645f7063,rev?*
G04 #@! TF.SameCoordinates,Original*
G04 #@! TF.FileFunction,Paste,Top*
G04 #@! TF.FilePolarity,Positive*
%FSLAX46Y46*%
G04 Gerber Fmt 4.6, Leading zero omitted, Abs format (unit mm)*
G04 Created by KiCad (PCBNEW (5.1.4-0-10_14)) date 2021-01-03 16:04:41*
%MOMM*%
%LPD*%
G04 APERTURE LIST*
%ADD10C,0.100000*%
%ADD11C,0.950000*%
%ADD12C,0.600000*%
%ADD13C,1.000000*%
G04 APERTURE END LIST*
D10*
G36*
X142350779Y-94851144D02*
G01*
X142373834Y-94854563D01*
X142396443Y-94860227D01*
X142418387Y-94868079D01*
X142439457Y-94878044D01*
X142459448Y-94890026D01*
X142478168Y-94903910D01*
X142495438Y-94919562D01*
X142511090Y-94936832D01*
X142524974Y-94955552D01*
X142536956Y-94975543D01*
X142546921Y-94996613D01*
X142554773Y-95018557D01*
X142560437Y-95041166D01*
X142563856Y-95064221D01*
X142565000Y-95087500D01*
X142565000Y-95662500D01*
X142563856Y-95685779D01*
X142560437Y-95708834D01*
X142554773Y-95731443D01*
X142546921Y-95753387D01*
X142536956Y-95774457D01*
X142524974Y-95794448D01*
X142511090Y-95813168D01*
X142495438Y-95830438D01*
X142478168Y-95846090D01*
X142459448Y-95859974D01*
X142439457Y-95871956D01*
X142418387Y-95881921D01*
X142396443Y-95889773D01*
X142373834Y-95895437D01*
X142350779Y-95898856D01*
X142327500Y-95900000D01*
X141852500Y-95900000D01*
X141829221Y-95898856D01*
X141806166Y-95895437D01*
X141783557Y-95889773D01*
X141761613Y-95881921D01*
X141740543Y-95871956D01*
X141720552Y-95859974D01*
X141701832Y-95846090D01*
X141684562Y-95830438D01*
X141668910Y-95813168D01*
X141655026Y-95794448D01*
X141643044Y-95774457D01*
X141633079Y-95753387D01*
X141625227Y-95731443D01*
X141619563Y-95708834D01*
X141616144Y-95685779D01*
X141615000Y-95662500D01*
X141615000Y-95087500D01*
X141616144Y-95064221D01*
X141619563Y-95041166D01*
X141625227Y-95018557D01*
X141633079Y-94996613D01*
X141643044Y-94975543D01*
X141655026Y-94955552D01*
X141668910Y-94936832D01*
X141684562Y-94919562D01*
X141701832Y-94903910D01*
X141720552Y-94890026D01*
X141740543Y-94878044D01*
X141761613Y-94868079D01*
X141783557Y-94860227D01*
X141806166Y-94854563D01*
X141829221Y-94851144D01*
X141852500Y-94850000D01*
X142327500Y-94850000D01*
X142350779Y-94851144D01*
X142350779Y-94851144D01*
G37*
D11*
X142090000Y-95375000D03*
D10*
G36*
X142350779Y-96601144D02*
G01*
X142373834Y-96604563D01*
X142396443Y-96610227D01*
X142418387Y-96618079D01*
X142439457Y-96628044D01*
X142459448Y-96640026D01*
X142478168Y-96653910D01*
X142495438Y-96669562D01*
X142511090Y-96686832D01*
X142524974Y-96705552D01*
X142536956Y-96725543D01*
X142546921Y-96746613D01*
X142554773Y-96768557D01*
X142560437Y-96791166D01*
X142563856Y-96814221D01*
X142565000Y-96837500D01*
X142565000Y-97412500D01*
X142563856Y-97435779D01*
X142560437Y-97458834D01*
X142554773Y-97481443D01*
X142546921Y-97503387D01*
X142536956Y-97524457D01*
X142524974Y-97544448D01*
X142511090Y-97563168D01*
X142495438Y-97580438D01*
X142478168Y-97596090D01*
X142459448Y-97609974D01*
X142439457Y-97621956D01*
X142418387Y-97631921D01*
X142396443Y-97639773D01*
X142373834Y-97645437D01*
X142350779Y-97648856D01*
X142327500Y-97650000D01*
X141852500Y-97650000D01*
X141829221Y-97648856D01*
X141806166Y-97645437D01*
X141783557Y-97639773D01*
X141761613Y-97631921D01*
X141740543Y-97621956D01*
X141720552Y-97609974D01*
X141701832Y-97596090D01*
X141684562Y-97580438D01*
X141668910Y-97563168D01*
X141655026Y-97544448D01*
X141643044Y-97524457D01*
X141633079Y-97503387D01*
X141625227Y-97481443D01*
X141619563Y-97458834D01*
X141616144Y-97435779D01*
X141615000Y-97412500D01*
X141615000Y-96837500D01*
X141616144Y-96814221D01*
X141619563Y-96791166D01*
X141625227Y-96768557D01*
X141633079Y-96746613D01*
X141643044Y-96725543D01*
X141655026Y-96705552D01*
X141668910Y-96686832D01*
X141684562Y-96669562D01*
X141701832Y-96653910D01*
X141720552Y-96640026D01*
X141740543Y-96628044D01*
X141761613Y-96618079D01*
X141783557Y-96610227D01*
X141806166Y-96604563D01*
X141829221Y-96601144D01*
X141852500Y-96600000D01*
X142327500Y-96600000D01*
X142350779Y-96601144D01*
X142350779Y-96601144D01*
G37*
D11*
X142090000Y-97125000D03*
D10*
G36*
X145750779Y-96578644D02*
G01*
X145773834Y-96582063D01*
X145796443Y-96587727D01*
X145818387Y-96595579D01*
X145839457Y-96605544D01*
X145859448Y-96617526D01*
X145878168Y-96631410D01*
X145895438Y-96647062D01*
X145911090Y-96664332D01*
X145924974Y-96683052D01*
X145936956Y-96703043D01*
X145946921Y-96724113D01*
X145954773Y-96746057D01*
X145960437Y-96768666D01*
X145963856Y-96791721D01*
X145965000Y-96815000D01*
X145965000Y-97390000D01*
X145963856Y-97413279D01*
X145960437Y-97436334D01*
X145954773Y-97458943D01*
X145946921Y-97480887D01*
X145936956Y-97501957D01*
X145924974Y-97521948D01*
X145911090Y-97540668D01*
X145895438Y-97557938D01*
X145878168Y-97573590D01*
X145859448Y-97587474D01*
X145839457Y-97599456D01*
X145818387Y-97609421D01*
X145796443Y-97617273D01*
X145773834Y-97622937D01*
X145750779Y-97626356D01*
X145727500Y-97627500D01*
X145252500Y-97627500D01*
X145229221Y-97626356D01*
X145206166Y-97622937D01*
X145183557Y-97617273D01*
X145161613Y-97609421D01*
X145140543Y-97599456D01*
X145120552Y-97587474D01*
X145101832Y-97573590D01*
X145084562Y-97557938D01*
X145068910Y-97540668D01*
X145055026Y-97521948D01*
X145043044Y-97501957D01*
X145033079Y-97480887D01*
X145025227Y-97458943D01*
X145019563Y-97436334D01*
X145016144Y-97413279D01*
X145015000Y-97390000D01*
X145015000Y-96815000D01*
X145016144Y-96791721D01*
X145019563Y-96768666D01*
X145025227Y-96746057D01*
X145033079Y-96724113D01*
X145043044Y-96703043D01*
X145055026Y-96683052D01*
X145068910Y-96664332D01*
X145084562Y-96647062D01*
X145101832Y-96631410D01*
X145120552Y-96617526D01*
X145140543Y-96605544D01*
X145161613Y-96595579D01*
X145183557Y-96587727D01*
X145206166Y-96582063D01*
X145229221Y-96578644D01*
X145252500Y-96577500D01*
X145727500Y-96577500D01*
X145750779Y-96578644D01*
X145750779Y-96578644D01*
G37*
D11*
X145490000Y-97102500D03*
D10*
G36*
X145750779Y-94828644D02*
G01*
X145773834Y-94832063D01*
X145796443Y-94837727D01*
X145818387Y-94845579D01*
X145839457Y-94855544D01*
X145859448Y-94867526D01*
X145878168Y-94881410D01*
X145895438Y-94897062D01*
X145911090Y-94914332D01*
X145924974Y-94933052D01*
X145936956Y-94953043D01*
X145946921Y-94974113D01*
X145954773Y-94996057D01*
X145960437Y-95018666D01*
X145963856Y-95041721D01*
X145965000Y-95065000D01*
X145965000Y-95640000D01*
X145963856Y-95663279D01*
X145960437Y-95686334D01*
X145954773Y-95708943D01*
X145946921Y-95730887D01*
X145936956Y-95751957D01*
X145924974Y-95771948D01*
X145911090Y-95790668D01*
X145895438Y-95807938D01*
X145878168Y-95823590D01*
X145859448Y-95837474D01*
X145839457Y-95849456D01*
X145818387Y-95859421D01*
X145796443Y-95867273D01*
X145773834Y-95872937D01*
X145750779Y-95876356D01*
X145727500Y-95877500D01*
X145252500Y-95877500D01*
X145229221Y-95876356D01*
X145206166Y-95872937D01*
X145183557Y-95867273D01*
X145161613Y-95859421D01*
X145140543Y-95849456D01*
X145120552Y-95837474D01*
X145101832Y-95823590D01*
X145084562Y-95807938D01*
X145068910Y-95790668D01*
X145055026Y-95771948D01*
X145043044Y-95751957D01*
X145033079Y-95730887D01*
X145025227Y-95708943D01*
X145019563Y-95686334D01*
X145016144Y-95663279D01*
X145015000Y-95640000D01*
X145015000Y-95065000D01*
X145016144Y-95041721D01*
X145019563Y-95018666D01*
X145025227Y-94996057D01*
X145033079Y-94974113D01*
X145043044Y-94953043D01*
X145055026Y-94933052D01*
X145068910Y-94914332D01*
X145084562Y-94897062D01*
X145101832Y-94881410D01*
X145120552Y-94867526D01*
X145140543Y-94855544D01*
X145161613Y-94845579D01*
X145183557Y-94837727D01*
X145206166Y-94832063D01*
X145229221Y-94828644D01*
X145252500Y-94827500D01*
X145727500Y-94827500D01*
X145750779Y-94828644D01*
X145750779Y-94828644D01*
G37*
D11*
X145490000Y-95352500D03*
D10*
G36*
X144030779Y-94851144D02*
G01*
X144053834Y-94854563D01*
X144076443Y-94860227D01*
X144098387Y-94868079D01*
X144119457Y-94878044D01*
X144139448Y-94890026D01*
X144158168Y-94903910D01*
X144175438Y-94919562D01*
X144191090Y-94936832D01*
X144204974Y-94955552D01*
X144216956Y-94975543D01*
X144226921Y-94996613D01*
X144234773Y-95018557D01*
X144240437Y-95041166D01*
X144243856Y-95064221D01*
X144245000Y-95087500D01*
X144245000Y-95662500D01*
X144243856Y-95685779D01*
X144240437Y-95708834D01*
X144234773Y-95731443D01*
X144226921Y-95753387D01*
X144216956Y-95774457D01*
X144204974Y-95794448D01*
X144191090Y-95813168D01*
X144175438Y-95830438D01*
X144158168Y-95846090D01*
X144139448Y-95859974D01*
X144119457Y-95871956D01*
X144098387Y-95881921D01*
X144076443Y-95889773D01*
X144053834Y-95895437D01*
X144030779Y-95898856D01*
X144007500Y-95900000D01*
X143532500Y-95900000D01*
X143509221Y-95898856D01*
X143486166Y-95895437D01*
X143463557Y-95889773D01*
X143441613Y-95881921D01*
X143420543Y-95871956D01*
X143400552Y-95859974D01*
X143381832Y-95846090D01*
X143364562Y-95830438D01*
X143348910Y-95813168D01*
X143335026Y-95794448D01*
X143323044Y-95774457D01*
X143313079Y-95753387D01*
X143305227Y-95731443D01*
X143299563Y-95708834D01*
X143296144Y-95685779D01*
X143295000Y-95662500D01*
X143295000Y-95087500D01*
X143296144Y-95064221D01*
X143299563Y-95041166D01*
X143305227Y-95018557D01*
X143313079Y-94996613D01*
X143323044Y-94975543D01*
X143335026Y-94955552D01*
X143348910Y-94936832D01*
X143364562Y-94919562D01*
X143381832Y-94903910D01*
X143400552Y-94890026D01*
X143420543Y-94878044D01*
X143441613Y-94868079D01*
X143463557Y-94860227D01*
X143486166Y-94854563D01*
X143509221Y-94851144D01*
X143532500Y-94850000D01*
X144007500Y-94850000D01*
X144030779Y-94851144D01*
X144030779Y-94851144D01*
G37*
D11*
X143770000Y-95375000D03*
D10*
G36*
X144030779Y-96601144D02*
G01*
X144053834Y-96604563D01*
X144076443Y-96610227D01*
X144098387Y-96618079D01*
X144119457Y-96628044D01*
X144139448Y-96640026D01*
X144158168Y-96653910D01*
X144175438Y-96669562D01*
X144191090Y-96686832D01*
X144204974Y-96705552D01*
X144216956Y-96725543D01*
X144226921Y-96746613D01*
X144234773Y-96768557D01*
X144240437Y-96791166D01*
X144243856Y-96814221D01*
X144245000Y-96837500D01*
X144245000Y-97412500D01*
X144243856Y-97435779D01*
X144240437Y-97458834D01*
X144234773Y-97481443D01*
X144226921Y-97503387D01*
X144216956Y-97524457D01*
X144204974Y-97544448D01*
X144191090Y-97563168D01*
X144175438Y-97580438D01*
X144158168Y-97596090D01*
X144139448Y-97609974D01*
X144119457Y-97621956D01*
X144098387Y-97631921D01*
X144076443Y-97639773D01*
X144053834Y-97645437D01*
X144030779Y-97648856D01*
X144007500Y-97650000D01*
X143532500Y-97650000D01*
X143509221Y-97648856D01*
X143486166Y-97645437D01*
X143463557Y-97639773D01*
X143441613Y-97631921D01*
X143420543Y-97621956D01*
X143400552Y-97609974D01*
X143381832Y-97596090D01*
X143364562Y-97580438D01*
X143348910Y-97563168D01*
X143335026Y-97544448D01*
X143323044Y-97524457D01*
X143313079Y-97503387D01*
X143305227Y-97481443D01*
X143299563Y-97458834D01*
X143296144Y-97435779D01*
X143295000Y-97412500D01*
X143295000Y-96837500D01*
X143296144Y-96814221D01*
X143299563Y-96791166D01*
X143305227Y-96768557D01*
X143313079Y-96746613D01*
X143323044Y-96725543D01*
X143335026Y-96705552D01*
X143348910Y-96686832D01*
X143364562Y-96669562D01*
X143381832Y-96653910D01*
X143400552Y-96640026D01*
X143420543Y-96628044D01*
X143441613Y-96618079D01*
X143463557Y-96610227D01*
X143486166Y-96604563D01*
X143509221Y-96601144D01*
X143532500Y-96600000D01*
X144007500Y-96600000D01*
X144030779Y-96601144D01*
X144030779Y-96601144D01*
G37*
D11*
X143770000Y-97125000D03*
D10*
G36*
X135934703Y-95325722D02*
G01*
X135949264Y-95327882D01*
X135963543Y-95331459D01*
X135977403Y-95336418D01*
X135990710Y-95342712D01*
X136003336Y-95350280D01*
X136015159Y-95359048D01*
X136026066Y-95368934D01*
X136035952Y-95379841D01*
X136044720Y-95391664D01*
X136052288Y-95404290D01*
X136058582Y-95417597D01*
X136063541Y-95431457D01*
X136067118Y-95445736D01*
X136069278Y-95460297D01*
X136070000Y-95475000D01*
X136070000Y-95775000D01*
X136069278Y-95789703D01*
X136067118Y-95804264D01*
X136063541Y-95818543D01*
X136058582Y-95832403D01*
X136052288Y-95845710D01*
X136044720Y-95858336D01*
X136035952Y-95870159D01*
X136026066Y-95881066D01*
X136015159Y-95890952D01*
X136003336Y-95899720D01*
X135990710Y-95907288D01*
X135977403Y-95913582D01*
X135963543Y-95918541D01*
X135949264Y-95922118D01*
X135934703Y-95924278D01*
X135920000Y-95925000D01*
X134520000Y-95925000D01*
X134505297Y-95924278D01*
X134490736Y-95922118D01*
X134476457Y-95918541D01*
X134462597Y-95913582D01*
X134449290Y-95907288D01*
X134436664Y-95899720D01*
X134424841Y-95890952D01*
X134413934Y-95881066D01*
X134404048Y-95870159D01*
X134395280Y-95858336D01*
X134387712Y-95845710D01*
X134381418Y-95832403D01*
X134376459Y-95818543D01*
X134372882Y-95804264D01*
X134370722Y-95789703D01*
X134370000Y-95775000D01*
X134370000Y-95475000D01*
X134370722Y-95460297D01*
X134372882Y-95445736D01*
X134376459Y-95431457D01*
X134381418Y-95417597D01*
X134387712Y-95404290D01*
X134395280Y-95391664D01*
X134404048Y-95379841D01*
X134413934Y-95368934D01*
X134424841Y-95359048D01*
X134436664Y-95350280D01*
X134449290Y-95342712D01*
X134462597Y-95336418D01*
X134476457Y-95331459D01*
X134490736Y-95327882D01*
X134505297Y-95325722D01*
X134520000Y-95325000D01*
X135920000Y-95325000D01*
X135934703Y-95325722D01*
X135934703Y-95325722D01*
G37*
D12*
X135220000Y-95625000D03*
D10*
G36*
X135934703Y-96575722D02*
G01*
X135949264Y-96577882D01*
X135963543Y-96581459D01*
X135977403Y-96586418D01*
X135990710Y-96592712D01*
X136003336Y-96600280D01*
X136015159Y-96609048D01*
X136026066Y-96618934D01*
X136035952Y-96629841D01*
X136044720Y-96641664D01*
X136052288Y-96654290D01*
X136058582Y-96667597D01*
X136063541Y-96681457D01*
X136067118Y-96695736D01*
X136069278Y-96710297D01*
X136070000Y-96725000D01*
X136070000Y-97025000D01*
X136069278Y-97039703D01*
X136067118Y-97054264D01*
X136063541Y-97068543D01*
X136058582Y-97082403D01*
X136052288Y-97095710D01*
X136044720Y-97108336D01*
X136035952Y-97120159D01*
X136026066Y-97131066D01*
X136015159Y-97140952D01*
X136003336Y-97149720D01*
X135990710Y-97157288D01*
X135977403Y-97163582D01*
X135963543Y-97168541D01*
X135949264Y-97172118D01*
X135934703Y-97174278D01*
X135920000Y-97175000D01*
X134520000Y-97175000D01*
X134505297Y-97174278D01*
X134490736Y-97172118D01*
X134476457Y-97168541D01*
X134462597Y-97163582D01*
X134449290Y-97157288D01*
X134436664Y-97149720D01*
X134424841Y-97140952D01*
X134413934Y-97131066D01*
X134404048Y-97120159D01*
X134395280Y-97108336D01*
X134387712Y-97095710D01*
X134381418Y-97082403D01*
X134376459Y-97068543D01*
X134372882Y-97054264D01*
X134370722Y-97039703D01*
X134370000Y-97025000D01*
X134370000Y-96725000D01*
X134370722Y-96710297D01*
X134372882Y-96695736D01*
X134376459Y-96681457D01*
X134381418Y-96667597D01*
X134387712Y-96654290D01*
X134395280Y-96641664D01*
X134404048Y-96629841D01*
X134413934Y-96618934D01*
X134424841Y-96609048D01*
X134436664Y-96600280D01*
X134449290Y-96592712D01*
X134462597Y-96586418D01*
X134476457Y-96581459D01*
X134490736Y-96577882D01*
X134505297Y-96575722D01*
X134520000Y-96575000D01*
X135920000Y-96575000D01*
X135934703Y-96575722D01*
X135934703Y-96575722D01*
G37*
D12*
X135220000Y-96875000D03*
D10*
G36*
X133144504Y-93276204D02*
G01*
X133168773Y-93279804D01*
X133192571Y-93285765D01*
X133215671Y-93294030D01*
X133237849Y-93304520D01*
X133258893Y-93317133D01*
X133278598Y-93331747D01*
X133296777Y-93348223D01*
X133313253Y-93366402D01*
X133327867Y-93386107D01*
X133340480Y-93407151D01*
X133350970Y-93429329D01*
X133359235Y-93452429D01*
X133365196Y-93476227D01*
X133368796Y-93500496D01*
X133370000Y-93525000D01*
X133370000Y-94025000D01*
X133368796Y-94049504D01*
X133365196Y-94073773D01*
X133359235Y-94097571D01*
X133350970Y-94120671D01*
X133340480Y-94142849D01*
X133327867Y-94163893D01*
X133313253Y-94183598D01*
X133296777Y-94201777D01*
X133278598Y-94218253D01*
X133258893Y-94232867D01*
X133237849Y-94245480D01*
X133215671Y-94255970D01*
X133192571Y-94264235D01*
X133168773Y-94270196D01*
X133144504Y-94273796D01*
X133120000Y-94275000D01*
X130920000Y-94275000D01*
X130895496Y-94273796D01*
X130871227Y-94270196D01*
X130847429Y-94264235D01*
X130824329Y-94255970D01*
X130802151Y-94245480D01*
X130781107Y-94232867D01*
X130761402Y-94218253D01*
X130743223Y-94201777D01*
X130726747Y-94183598D01*
X130712133Y-94163893D01*
X130699520Y-94142849D01*
X130689030Y-94120671D01*
X130680765Y-94097571D01*
X130674804Y-94073773D01*
X130671204Y-94049504D01*
X130670000Y-94025000D01*
X130670000Y-93525000D01*
X130671204Y-93500496D01*
X130674804Y-93476227D01*
X130680765Y-93452429D01*
X130689030Y-93429329D01*
X130699520Y-93407151D01*
X130712133Y-93386107D01*
X130726747Y-93366402D01*
X130743223Y-93348223D01*
X130761402Y-93331747D01*
X130781107Y-93317133D01*
X130802151Y-93304520D01*
X130824329Y-93294030D01*
X130847429Y-93285765D01*
X130871227Y-93279804D01*
X130895496Y-93276204D01*
X130920000Y-93275000D01*
X133120000Y-93275000D01*
X133144504Y-93276204D01*
X133144504Y-93276204D01*
G37*
D13*
X132020000Y-93775000D03*
D10*
G36*
X133144504Y-98226204D02*
G01*
X133168773Y-98229804D01*
X133192571Y-98235765D01*
X133215671Y-98244030D01*
X133237849Y-98254520D01*
X133258893Y-98267133D01*
X133278598Y-98281747D01*
X133296777Y-98298223D01*
X133313253Y-98316402D01*
X133327867Y-98336107D01*
X133340480Y-98357151D01*
X133350970Y-98379329D01*
X133359235Y-98402429D01*
X133365196Y-98426227D01*
X133368796Y-98450496D01*
X133370000Y-98475000D01*
X133370000Y-98975000D01*
X133368796Y-98999504D01*
X133365196Y-99023773D01*
X133359235Y-99047571D01*
X133350970Y-99070671D01*
X133340480Y-99092849D01*
X133327867Y-99113893D01*
X133313253Y-99133598D01*
X133296777Y-99151777D01*
X133278598Y-99168253D01*
X133258893Y-99182867D01*
X133237849Y-99195480D01*
X133215671Y-99205970D01*
X133192571Y-99214235D01*
X133168773Y-99220196D01*
X133144504Y-99223796D01*
X133120000Y-99225000D01*
X130920000Y-99225000D01*
X130895496Y-99223796D01*
X130871227Y-99220196D01*
X130847429Y-99214235D01*
X130824329Y-99205970D01*
X130802151Y-99195480D01*
X130781107Y-99182867D01*
X130761402Y-99168253D01*
X130743223Y-99151777D01*
X130726747Y-99133598D01*
X130712133Y-99113893D01*
X130699520Y-99092849D01*
X130689030Y-99070671D01*
X130680765Y-99047571D01*
X130674804Y-99023773D01*
X130671204Y-98999504D01*
X130670000Y-98975000D01*
X130670000Y-98475000D01*
X130671204Y-98450496D01*
X130674804Y-98426227D01*
X130680765Y-98402429D01*
X130689030Y-98379329D01*
X130699520Y-98357151D01*
X130712133Y-98336107D01*
X130726747Y-98316402D01*
X130743223Y-98298223D01*
X130761402Y-98281747D01*
X130781107Y-98267133D01*
X130802151Y-98254520D01*
X130824329Y-98244030D01*
X130847429Y-98235765D01*
X130871227Y-98229804D01*
X130895496Y-98226204D01*
X130920000Y-98225000D01*
X133120000Y-98225000D01*
X133144504Y-98226204D01*
X133144504Y-98226204D01*
G37*
D13*
X132020000Y-98725000D03*
M02*
